<?xml version="1.0" encoding="UTF-8"?>
<!DOCTYPE svg PUBLIC "-//W3C//DTD SVG 1.1//EN" "http://www.w3.org/Graphics/SVG/1.1/DTD/svg11.dtd">
<svg version="1.1" id="Layer_1" xmlns="http://www.w3.org/2000/svg" xmlns:xlink="http://www.w3.org/1999/xlink" x="0px" y="0px" width="16px" height="16px" viewBox="0 0 16 16" enable-background="new 0 0 16 16" xml:space="preserve">
  <g id="icon">
    <path d="M6.3,14.25H4.633c-1.25,0,-2.458,-0.883,-2.458,-2.717M6.1,14.25" fill="none" stroke="#383838" stroke-width="1" stroke-miterlimit="10"/>
    <path d="M2.167,5.5C2.167,2.167,4.778,0.5,8,0.5s5.833,1.667,5.833,5" fill="none" stroke="#383838" stroke-width="1" stroke-miterlimit="10"/>
    <path d="M14.097,5.531c-0.146,-0.04,-0.305,-0.062,-0.472,-0.062c-0.291,0,-0.409,0.067,-0.623,0.179c-0.014,0.007,-0.026,0.015,-0.039,0.023c-0.281,0.159,-0.463,0.397,-0.463,0.665v4.295c0,0.479,0.421,0.867,1.125,0.867c0.704,0,1.875,-0.381,1.875,-1.2V6.669C15.5,6,14.567,5.659,14.097,5.531M1.903,5.531C1.433,5.659,0.5,6,0.5,6.669v3.628c0,0.819,1.171,1.2,1.875,1.2c0.704,0,1.125,-0.388,1.125,-0.867V6.336c0,-0.268,-0.181,-0.506,-0.463,-0.665c-0.013,-0.007,-0.026,-0.016,-0.039,-0.023c-0.215,-0.112,-0.332,-0.179,-0.623,-0.179C2.208,5.469,2.049,5.492,1.903,5.531" fill="#FFFFFF" stroke="#228BCB" stroke-width="1" stroke-miterlimit="10"/>
    <path d="M6,14.25c0,0.69,0.867,1.25,1.833,1.25s1.833,-0.56,1.833,-1.25c0,-0.69,-0.867,-1.25,-1.833,-1.25S6,13.56,6,14.25" fill="#FFFFFF" stroke="#228BCB" stroke-width="1" stroke-miterlimit="10"/>
  </g>
</svg>
