<?xml version="1.0" encoding="UTF-8"?>
<!DOCTYPE svg PUBLIC "-//W3C//DTD SVG 1.1//EN" "http://www.w3.org/Graphics/SVG/1.1/DTD/svg11.dtd">
<svg version="1.1" id="Layer_1" xmlns="http://www.w3.org/2000/svg" xmlns:xlink="http://www.w3.org/1999/xlink" x="0px" y="0px" width="16px" height="16px" viewBox="0 0 16 16" enable-background="new 0 0 16 16" xml:space="preserve">
  <g id="main">
    <g id="icon">
      <path d="M0.8506,0.5451L0.6682,0.6682L0.5451,0.8506L0.5,1.074L0.5,3.5L9.4,3.5L9.4,2.5L8.965,2.5L8.593,2.441L8.257,2.272L6.628,0.699L6.335,0.5512L6.011,0.5L1.074,0.5zz" fill="#FFFFFF"/>
      <path d="M0.975,0.009961L0.7516,0.05508L0.6537,0.0748L0.5711,0.1305L0.3887,0.2535L0.308,0.308L0.2535,0.3887L0.1305,0.5711L0.0748,0.6537L0.05508,0.7516L0.009961,0.975L0,1.024L0,1.074L0,3.5L0,4L0.5,4L9.4,4L9.9,4L9.9,3.5L9.9,2.5L9.9,2L9.4,2L9.004,2L8.748,1.96L8.55,1.86L6.975,0.3393L6.921,0.2867L6.853,0.2525L6.56,0.1047L6.49,0.06953L6.413,0.05723L6.089,0.006055L6.05,0L6.011,0L1.074,0L1.024,0zM5.971,1L6.18,1.033L6.336,1.112L7.91,2.632L7.964,2.684L8.032,2.718L8.368,2.888L8.438,2.923L8.515,2.935L8.887,2.994L8.9,2.996L8.9,3L1,3L1,1.124L1.015,1.047L1.028,1.028L1.047,1.015L1.124,1zz" fill="#383838"/>
      <path d="M7.347,3.379L6.904,3.47L6.453,3.5L0.5,3.5L0.5,13.5L8.923,13.5L8.927,13.49L7.343,12.28L7.044,11.97L6.86,11.59L6.8,11.17L6.873,10.74L7.073,10.36L7.374,10.06L7.749,9.873L8.175,9.806L10.08,9.806L10.69,7.866L10.88,7.471L11.19,7.166L11.57,6.97L12,6.9L12.43,6.97L12.81,7.166L13.12,7.471L13.31,7.866L13.92,9.806L14.5,9.806L14.5,2.5L8.537,2.5zz" fill="#FFFFFF"/>
      <path d="M8.24,2.098L7.139,2.911L6.837,2.973L6.437,3L0.5,3L0,3L0,3.5L0,13.5L0,14L0.5,14L8.762,14L8.927,13.49L8.286,13L1,13L1,4L6.453,4L6.47,4L6.487,3.999L6.938,3.968L6.971,3.966L7.004,3.959L7.447,3.869L7.555,3.847L7.644,3.781L8.702,3L14,3L14,9.806L15,9.806L15,2.5L15,2L14.5,2L8.537,2L8.372,2zz" fill="#383838"/>
    </g>
    <g id="overlay">
      <g>
        <polygon points="12,9.296 12.687,11.493 14.914,11.493 13.111,12.867 13.801,15.075 12,13.709 10.199,15.075 10.889,12.867 9.086,11.493 11.313,11.493" fill="#F7DA8E" stroke-linejoin="miter"/>
        <path d="M9.459,15.742l0.872,-2.692l-2.26,-1.723c-0.135,-0.103,-0.063,-0.321,0.105,-0.321h2.789l0.87,-2.782c0.052,-0.165,0.281,-0.165,0.333,0l0.87,2.782h2.789c0.168,0,0.239,0.218,0.105,0.321l-2.26,1.723l0.872,2.692c0.051,0.165,-0.135,0.3,-0.271,0.197L12,14.316l-2.271,1.623C9.593,16.042,9.407,15.907,9.459,15.742zM12,13.102l0.896,0.679l-0.342,-1.097l0.924,-0.705h-1.139l-0.338,-1.08l-0.338,1.08h-1.139l0.924,0.705l-0.342,1.097L12,13.102z" fill="#E57428"/>
      </g>
    </g>
  </g>
</svg>
