<?xml version="1.0" encoding="UTF-8"?>
<!DOCTYPE svg PUBLIC "-//W3C//DTD SVG 1.1//EN" "http://www.w3.org/Graphics/SVG/1.1/DTD/svg11.dtd">
<svg version="1.1" id="Layer_1" xmlns="http://www.w3.org/2000/svg" xmlns:xlink="http://www.w3.org/1999/xlink" x="0px" y="0px" width="16px" height="16px" viewBox="0 0 16 16" enable-background="new 0 0 16 16" xml:space="preserve">
  <g id="main">
    <g id="icon">
      <path d="M6.018,6L1.5,6L5.157,8.734L3.758,13.13L5.806,11.6L5.8,11.5L5.829,10.92L5.916,10.35L6.057,9.807L6.249,9.283L6.489,8.785L6.775,8.315L7.103,7.876L7.471,7.471L7.876,7.103L8.315,6.775L8.785,6.489L9.283,6.249L9.807,6.057L10.03,6L8.805,6L7.412,1.628zM13.22,6.075L13.32,6L12.97,6zz" fill="#F7DA8E"/>
      <path d="M6.936,1.476L5.653,5.5L1.5,5.5L-0,5.5L0,5.503L1.201,6.4L4.572,8.921L3.282,12.98L2.811,14.46L4.056,13.53L5.844,12.2L5.84,12.18L5.8,11.5L5.827,10.97L4.705,11.8L5.633,8.886L5.741,8.547L5.456,8.334L3.004,6.5L6.018,6.5L6.383,6.5L6.494,6.152L7.412,3.274L8.329,6.152L8.439,6.5L8.767,6.5L8.785,6.489L9.283,6.249L9.807,6.057L10.35,5.916L10.92,5.829L11.5,5.8L12.18,5.84L12.83,5.956L13.45,6.145L13.78,6.285L14.83,5.5L13.32,5.5L9.171,5.5L7.888,1.476L7.418,0L7.406,0zz" fill="#E57428"/>
    </g>
    <g id="overlay">
      <path d="M11.5,7.5c-2.209,0,-4,1.791,-4,4c0,2.209,1.791,4,4,4s4,-1.791,4,-4C15.5,9.291,13.709,7.5,11.5,7.5zM13.654,12.946l-0.707,0.707L11.5,12.207l-1.446,1.446l-0.707,-0.707L10.793,11.5l-1.446,-1.446l0.707,-0.707L11.5,10.793l1.446,-1.446l0.707,0.707L12.207,11.5L13.654,12.946z" fill="#F7BFBF"/>
      <path d="M11.5,7.5c-2.209,0,-4,1.791,-4,4c0,2.209,1.791,4,4,4s4,-1.791,4,-4C15.5,9.291,13.709,7.5,11.5,7.5zM13.654,12.946l-0.707,0.707L11.5,12.207l-1.446,1.446l-0.707,-0.707L10.793,11.5l-1.446,-1.446l0.707,-0.707L11.5,10.793l1.446,-1.446l0.707,0.707L12.207,11.5L13.654,12.946z" fill="#DB2E2A" opacity="0.3"/>
      <path d="M11.5,16c-2.481,0,-4.5,-2.019,-4.5,-4.5s2.019,-4.5,4.5,-4.5s4.5,2.019,4.5,4.5S13.981,16,11.5,16zM11.5,8c-1.93,0,-3.5,1.57,-3.5,3.5s1.57,3.5,3.5,3.5s3.5,-1.57,3.5,-3.5S13.43,8,11.5,8z" fill="#DB2E2A"/>
      <polygon points="12.946,13.654 11.5,12.207 10.054,13.654 9.346,12.946 10.793,11.5 9.346,10.054 10.054,9.346 11.5,10.793 12.946,9.346 13.654,10.054 12.207,11.5 13.654,12.946" fill="#FFFFFF" stroke-linejoin="miter"/>
    </g>
  </g>
</svg>
