<?xml version="1.0" encoding="UTF-8"?>
<!DOCTYPE svg PUBLIC "-//W3C//DTD SVG 1.1//EN" "http://www.w3.org/Graphics/SVG/1.1/DTD/svg11.dtd">
<svg version="1.1" id="Layer_1" xmlns="http://www.w3.org/2000/svg" xmlns:xlink="http://www.w3.org/1999/xlink" x="0px" y="0px" width="16px" height="16px" viewBox="0 0 16 16" enable-background="new 0 0 16 16" xml:space="preserve">
  <g id="main">
    <g id="icon">
      <path d="M10.2,6.2L8.604,6.2L9.432,7.028L7.028,9.433L6.2,8.604L6.2,10.2L2.8,10.2L2.8,8.604L1.972,9.432L1.5,8.96L1.5,12.5L15.5,12.5L15.5,5.5L10.2,5.5zz" fill="#FFFFFF"/>
      <path d="M10.2,6L15,6L15,12L2,12L2,9.404L1.972,9.432L1,8.46L1,12.5L1,13L1.5,13L15.5,13L16,13L16,12.5L16,5.5L16,5L15.5,5L10.2,5zz" fill="#383838"/>
      <path d="M9.433,1.972L8.604,2.8L10.2,2.8L10.2,5.5L12.5,5.5L12.5,1.5L8.961,1.5zM6.2,10.2L4.5,10.2L4.5,15.5L12.5,15.5L12.5,9.5L6.2,9.5zz" fill="#FFFFFF"/>
      <path d="M9.433,1.972L9.405,2L12,2L12,5L10.2,5L10.2,6L12.5,6L13,6L13,5.5L13,1.5L13,1L12.5,1L8.461,1zM6.2,10L12,10L12,15L5,15L5,10.2L4,10.2L4,15.5L4,16L4.5,16L12.5,16L13,16L13,15.5L13,9.5L13,9L12.5,9L7.461,9L7.028,9.433L6.596,9L6.2,9zz" fill="#383838"/>
      <path d="M6,12L11,12L11,11L6,11zM6,14L11,14L11,13L6,13zz" fill="#787979"/>
    </g>
    <g id="overlay">
      <path d="M4.5,0v9M9,4.5H0M7.382,1.618L1.618,7.382M7.382,7.382L1.618,1.618" fill="none" stroke="#ED8730" stroke-width="1" stroke-miterlimit="10"/>
    </g>
  </g>
</svg>
