<?xml version="1.0" encoding="UTF-8"?>
<!DOCTYPE svg PUBLIC "-//W3C//DTD SVG 1.1//EN" "http://www.w3.org/Graphics/SVG/1.1/DTD/svg11.dtd">
<svg version="1.1" id="Layer_1" xmlns="http://www.w3.org/2000/svg" xmlns:xlink="http://www.w3.org/1999/xlink" x="0px" y="0px" width="16px" height="16px" viewBox="0 0 16 16" enable-background="new 0 0 16 16" xml:space="preserve">
  <g id="main">
    <g id="icon">
      <path d="M0.5,11.5L5.8,11.5L5.829,10.92L5.916,10.35L6.057,9.807L6.249,9.283L6.489,8.785L6.775,8.315L7.103,7.876L7.471,7.471L7.876,7.103L8.315,6.775L8.785,6.489L9.283,6.249L9.807,6.057L10.35,5.916L10.92,5.829L11.5,5.8L12.18,5.84L12.83,5.956L13.45,6.145L14.04,6.401L14.5,6.663L14.5,4.5L0.5,4.5zz" fill="#FFFFFF"/>
      <path d="M0,4.5L0,11.5L0,12L0.5,12L5.829,12L5.8,11.5L5.825,11L1,11L1,5L14,5L14,6.382L14.04,6.401L14.6,6.72L15,7.014L15,4.5L15,4L14.5,4L0.5,4L0,4zz" fill="#383838"/>
      <path d="M3.5,4.5L11.5,4.5L11.5,0.5L3.5,0.5zM3.5,14.5L6.663,14.5L6.401,14.04L6.145,13.45L5.956,12.83L5.84,12.18L5.8,11.5L5.829,10.92L5.916,10.35L6.057,9.807L6.249,9.283L6.489,8.785L6.662,8.5L3.5,8.5zz" fill="#FFFFFF"/>
      <path d="M3,0.5L3,4.5L3,5L3.5,5L11.5,5L12,5L12,4.5L12,0.5L12,0L11.5,0L3.5,0L3,0zM11,1L11,4L4,4L4,1zM3,8.5L3,14.5L3,15L3.5,15L7.014,15L6.72,14.6L6.401,14.04L6.382,14L4,14L4,9L6.385,9L6.489,8.785L6.775,8.315L7.011,8L3.5,8L3,8zz" fill="#383838"/>
      <path d="M5,11L5.825,11L5.829,10.92L5.916,10.35L6.007,10L5,10zM5,13L6.008,13L5.956,12.83L5.84,12.18L5.829,12L5,12zz" fill="#787979"/>
      <path d="M2,7L4,7L4,6L2,6zz" fill="#238BCB"/>
    </g>
    <g id="overlay">
      <path d="M7.5,11.5c0,-2.209,1.791,-4,4,-4s4,1.791,4,4s-1.791,4,-4,4S7.5,13.709,7.5,11.5zM9.06,14.669M13.96,14.654" fill="#FFFFFF" stroke="#383838" stroke-width="1" stroke-miterlimit="10"/>
      <path d="M11.5,9v2.534l1.737,1.926" fill="none" stroke="#228BCB" stroke-width="1" stroke-miterlimit="10"/>
    </g>
  </g>
</svg>
