<?xml version="1.0" encoding="UTF-8"?>
<!DOCTYPE svg PUBLIC "-//W3C//DTD SVG 1.1//EN" "http://www.w3.org/Graphics/SVG/1.1/DTD/svg11.dtd">
<svg version="1.1" id="Layer_1" xmlns="http://www.w3.org/2000/svg" xmlns:xlink="http://www.w3.org/1999/xlink" x="0px" y="0px" width="16px" height="16px" viewBox="0 0 16 16" enable-background="new 0 0 16 16" xml:space="preserve">
  <g id="main">
    <g id="icon">
      <path d="M1.851,0.5451L1.668,0.6682L1.545,0.8506L1.5,1.074L1.5,13.5L7.26,13.5L7.035,13.3L6.969,13.34L6.999,13.26L6.727,12.88L6.523,12.45L6.396,11.99L6.351,11.5L6.396,11.01L6.526,10.54L6.733,10.12L7.008,9.736L6.984,9.667L7.037,9.701L7.546,9.257L8.154,8.948L8.329,8.686L8.339,8.627L8.369,8.632L9.024,7.91L9.805,7.335L10.69,6.924L11.16,6.786L11.65,6.696L12.06,6.341L12.54,6.075L13.06,5.907L13.5,5.862L13.5,2.5L8.465,2.5L8.093,2.441L7.757,2.272L6.128,0.699L5.835,0.5512L5.511,0.5L2.074,0.5zz" fill="#FFFFFF"/>
      <path d="M1.975,0.009961L1.752,0.05508L1.654,0.0748L1.571,0.1305L1.389,0.2535L1.308,0.308L1.254,0.3887L1.13,0.5711L1.075,0.6537L1.055,0.7516L1.01,0.975L1,1.024L1,1.074L1,13.5L1,14L1.5,14L8,14L8,13.99L7.477,13.7L7.035,13.3L6.969,13.34L6.999,13.26L6.817,13L2,13L2,1.124L2.015,1.047L2.028,1.028L2.047,1.015L2.124,1L5.471,1L5.68,1.033L5.836,1.112L7.41,2.632L7.464,2.684L7.532,2.718L7.868,2.888L7.938,2.923L8.015,2.935L8.387,2.994L8.426,3L8.465,3L13,3L13,5.927L13.06,5.907L13.63,5.849L14,5.875L14,2.5L14,2L13.5,2L8.504,2L8.248,1.96L8.05,1.86L6.475,0.3393L6.421,0.2867L6.353,0.2525L6.06,0.1047L5.99,0.06953L5.913,0.05723L5.589,0.006055L5.55,0L5.511,0L2.074,0L2.024,0zz" fill="#E57428"/>
      <path d="M1.5,13.5L7.26,13.5L7.035,13.3L6.969,13.34L6.999,13.26L6.727,12.88L6.523,12.45L6.396,11.99L6.351,11.5L6.396,11.01L6.526,10.54L6.733,10.12L7.008,9.736L6.984,9.667L7.037,9.701L7.546,9.257L8.154,8.948L8.329,8.686L8.339,8.627L8.369,8.632L9.024,7.91L9.805,7.335L10.69,6.924L11.16,6.786L11.65,6.696L12.06,6.341L12.54,6.075L13.06,5.907L13.63,5.849L14,5.875L14.35,5.947L14.4,5.5L0.6,5.5zz" fill="#F7DA8E"/>
      <path d="M0.1031,5.556L1.003,13.56L1.053,14L1.5,14L8,14L8,13.99L7.477,13.7L7.035,13.3L6.969,13.34L6.999,13.26L6.817,13L1.947,13L1.159,6L12.77,6L13.06,5.907L13.63,5.849L14,5.875L14.36,5.95L14.83,6.151L14.9,5.556L14.96,5L14.4,5L0.6,5L0.04062,5zz" fill="#E57428"/>
    </g>
    <g id="overlay">
      <path d="M9.245,12.549c0.433,1.259,1.631,2.164,3.041,2.164c0.101,0,0.202,-0.005,0.301,-0.014M14.503,13.828c0.614,-0.584,0.997,-1.407,0.997,-2.32c0,-0.916,-0.386,-1.742,-1.004,-2.326M12.583,8.317c-0.098,-0.009,-0.197,-0.014,-0.297,-0.014c-1.404,0,-2.598,0.898,-3.035,2.149" fill="none" stroke="#228BCB" stroke-width="0.9" stroke-miterlimit="10"/>
      <path d="M9.25,10.452c0.507,0.084,0.893,0.521,0.893,1.048c0,0.528,-0.389,0.966,-0.898,1.049M9.25,10.452c-0.058,-0.01,-0.118,-0.015,-0.179,-0.015C8.48,10.437,8,10.913,8,11.5c0,0.587,0.48,1.063,1.071,1.063c0.059,0,0.117,-0.005,0.173,-0.014M14.496,9.182c0.126,-0.174,0.201,-0.388,0.201,-0.619c0,-0.587,-0.48,-1.063,-1.071,-1.063c-0.507,0,-0.931,0.349,-1.042,0.817M12.583,8.317c-0.019,0.079,-0.029,0.161,-0.029,0.245c0,0.587,0.48,1.063,1.071,1.063c0.359,0,0.676,-0.175,0.871,-0.444M12.586,14.698c0.117,0.461,0.538,0.802,1.039,0.802c0.592,0,1.071,-0.476,1.071,-1.063c0,-0.227,-0.072,-0.437,-0.194,-0.609M14.503,13.828c-0.194,-0.274,-0.515,-0.454,-0.878,-0.454c-0.592,0,-1.071,0.476,-1.071,1.063c0,0.09,0.011,0.177,0.033,0.261" fill="#FFFFFF" stroke="#228BCB" stroke-width="0.9" stroke-miterlimit="10"/>
    </g>
  </g>
</svg>
