<?xml version="1.0" encoding="UTF-8"?>
<!DOCTYPE svg PUBLIC "-//W3C//DTD SVG 1.1//EN" "http://www.w3.org/Graphics/SVG/1.1/DTD/svg11.dtd">
<svg version="1.1" id="Layer_1" xmlns="http://www.w3.org/2000/svg" xmlns:xlink="http://www.w3.org/1999/xlink" x="0px" y="0px" width="16px" height="16px" viewBox="0 0 16 16" enable-background="new 0 0 16 16" xml:space="preserve">
  <g id="main">
    <g id="icon">
      <path d="M2.851,0.5451L2.668,0.6682L2.545,0.8506L2.5,1.074L2.5,8.197L3.4,7.289L5.814,9.683L4.706,10.8L10.2,10.8L10.2,13.5L14.5,13.5L14.5,2.5L9.465,2.5L9.093,2.441L8.757,2.272L7.128,0.699L6.835,0.5512L6.511,0.5L3.074,0.5zz" fill="#FFFFFF"/>
      <path d="M2.975,0.009961L2.752,0.05508L2.654,0.0748L2.571,0.1305L2.389,0.2535L2.308,0.308L2.254,0.3887L2.13,0.5711L2.075,0.6537L2.055,0.7516L2.01,0.975L2,1.024L2,1.074L2,8.701L3,7.692L3,1.124L3.015,1.047L3.028,1.028L3.047,1.015L3.124,1L6.471,1L6.68,1.033L6.836,1.112L8.41,2.632L8.464,2.684L8.532,2.718L8.868,2.888L8.938,2.923L9.015,2.935L9.387,2.994L9.426,3L9.465,3L14,3L14,13L10.2,13L10.2,14L14.5,14L15,14L15,13.5L15,2.5L15,2L14.5,2L9.504,2L9.248,1.96L9.05,1.86L7.475,0.3393L7.421,0.2867L7.353,0.2525L7.06,0.1047L6.99,0.06953L6.913,0.05723L6.589,0.006055L6.55,0L6.511,0L3.074,0L3.024,0zz" fill="#E57428"/>
      <path d="M1.964,8.737L3.4,7.289L5.814,9.683L4.706,10.8L10.2,10.8L10.2,13.5L14.5,13.5L15.4,5.5L1.6,5.5zz" fill="#F7DA8E"/>
      <path d="M1.103,5.556L1.512,9.193L2.416,8.281L2.159,6L14.84,6L14.05,13L10.2,13L10.2,14L14.5,14L14.95,14L15,13.56L15.9,5.556L15.96,5L15.4,5L1.6,5L1.041,5zz" fill="#E57428"/>
    </g>
    <g id="overlay">
      <path d="M3.762,15.562L0.677,12.45l3.086,-3.112M9,12.5H0.7" fill="none" stroke="#228BCB" stroke-width="1" stroke-miterlimit="10"/>
    </g>
  </g>
</svg>
