<?xml version="1.0" encoding="UTF-8"?>
<!DOCTYPE svg PUBLIC "-//W3C//DTD SVG 1.1//EN" "http://www.w3.org/Graphics/SVG/1.1/DTD/svg11.dtd">
<svg version="1.1" id="Layer_1" xmlns="http://www.w3.org/2000/svg" xmlns:xlink="http://www.w3.org/1999/xlink" x="0px" y="0px" width="16px" height="16px" viewBox="0 0 16 16" enable-background="new 0 0 16 16" xml:space="preserve">
  <g id="icon">
    <path d="M9.68,15.034c4.89,-2.348,4.882,-8.432,1.133,-11.79c0.15,0.747,0.322,2.485,-0.26,3.579C9.735,3.735,6.399,1,6.399,1s-0.141,1.994,-0.762,3.507c-0.171,0.417,-0.773,2.442,-1.668,3.205c-0.026,-0.815,-0.217,-2.864,-1.082,-3.773c-0.29,1.882,-1.168,4.217,-1.32,6.135c-0.191,2.412,1.587,3.808,3.379,4.929" fill="#FFFFFF" stroke="#5A2115" stroke-width="1" stroke-miterlimit="50"/>
    <path d="M9.565,15.127c1.255,-2.376,0.493,-5.493,-1.835,-7.045c0.255,0.87,0.451,2.811,-0.076,3.44c-0.352,-0.383,-0.96,-1.335,-1.349,-1.887c-0.341,1.046,-1.063,1.84,-1.489,2.835c-0.438,1.021,0.1,2.347,0.256,2.602C6.526,15.676,8.026,15.662,9.565,15.127z" fill="#E7A99D" stroke="#D36049" stroke-width="1" stroke-linecap="round" stroke-miterlimit="50"/>
  </g>
</svg>
