<?xml version="1.0" encoding="UTF-8"?>
<!DOCTYPE svg PUBLIC "-//W3C//DTD SVG 1.1//EN" "http://www.w3.org/Graphics/SVG/1.1/DTD/svg11.dtd">
<svg version="1.1" id="Layer_1" xmlns="http://www.w3.org/2000/svg" xmlns:xlink="http://www.w3.org/1999/xlink" x="0px" y="0px" width="16px" height="16px" viewBox="0 0 16 16" enable-background="new 0 0 16 16" xml:space="preserve">
  <g id="main">
    <g id="icon">
      <path d="M1.851,0.5451L1.668,0.6682L1.545,0.8506L1.5,1.074L1.5,13.5L6.165,13.5L6.145,13.45L5.956,12.83L5.84,12.18L5.8,11.5L5.829,10.92L5.916,10.35L6.057,9.807L6.249,9.283L6.489,8.785L6.775,8.315L7.103,7.876L7.471,7.471L7.876,7.103L8.315,6.775L8.785,6.489L9.283,6.249L9.807,6.057L10.35,5.916L10.92,5.829L11.5,5.8L12.18,5.84L12.83,5.956L13.45,6.145L13.5,6.165L13.5,2.5L8.465,2.5L8.093,2.441L7.757,2.272L6.128,0.699L5.835,0.5512L5.511,0.5L2.074,0.5zz" fill="#FFFFFF"/>
      <path d="M1.975,0.009961L1.752,0.05508L1.654,0.0748L1.571,0.1305L1.389,0.2535L1.308,0.308L1.254,0.3887L1.13,0.5711L1.075,0.6537L1.055,0.7516L1.01,0.975L1,1.024L1,1.074L1,13.5L1,14L1.5,14L6.382,14L6.145,13.45L6.008,13L2,13L2,1.124L2.015,1.047L2.028,1.028L2.047,1.015L2.124,1L5.471,1L5.68,1.033L5.836,1.112L7.41,2.632L7.464,2.684L7.532,2.718L7.868,2.888L7.938,2.923L8.015,2.935L8.387,2.994L8.426,3L8.465,3L13,3L13,6.008L13.45,6.145L14,6.382L14,2.5L14,2L13.5,2L8.504,2L8.248,1.96L8.05,1.86L6.475,0.3393L6.421,0.2867L6.353,0.2525L6.06,0.1047L5.99,0.06953L5.913,0.05723L5.589,0.006055L5.55,0L5.511,0L2.074,0L2.024,0zz" fill="#E57428"/>
      <path d="M1.5,13.5L6.165,13.5L6.145,13.45L5.956,12.83L5.84,12.18L5.8,11.5L5.829,10.92L5.916,10.35L6.057,9.807L6.249,9.283L6.489,8.785L6.775,8.315L7.103,7.876L7.471,7.471L7.876,7.103L8.315,6.775L8.785,6.489L9.283,6.249L9.807,6.057L10.35,5.916L10.92,5.829L11.5,5.8L12.18,5.84L12.83,5.956L13.45,6.145L14.04,6.401L14.28,6.538L14.4,5.5L0.6,5.5zz" fill="#F7DA8E"/>
      <path d="M0.1031,5.556L1.003,13.56L1.053,14L1.5,14L6.382,14L6.145,13.45L6.008,13L1.947,13L1.159,6L10.03,6L10.35,5.916L10.92,5.829L11.5,5.8L12.18,5.84L12.83,5.956L12.97,6L13.84,6L13.81,6.298L14.04,6.401L14.6,6.72L14.75,6.833L14.9,5.556L14.96,5L14.4,5L0.6,5L0.04062,5zz" fill="#E57428"/>
    </g>
    <g id="overlay">
      <path d="M11.5,7.5c-2.209,0,-4,1.791,-4,4c0,2.209,1.791,4,4,4s4,-1.791,4,-4C15.5,9.291,13.709,7.5,11.5,7.5zM14,12H9v-1h5V12z" fill="#F7BFBF"/>
      <path d="M11.5,7.5c-2.209,0,-4,1.791,-4,4c0,2.209,1.791,4,4,4s4,-1.791,4,-4C15.5,9.291,13.709,7.5,11.5,7.5zM14,12H9v-1h5V12z" fill="#DB2E2A" opacity="0.2"/>
      <path d="M11.5,16c-2.481,0,-4.5,-2.019,-4.5,-4.5s2.019,-4.5,4.5,-4.5s4.5,2.019,4.5,4.5S13.981,16,11.5,16zM11.5,8c-1.93,0,-3.5,1.57,-3.5,3.5s1.57,3.5,3.5,3.5s3.5,-1.57,3.5,-3.5S13.43,8,11.5,8z" fill="#DB2E2A"/>
      <rect x="9" y="11" width="5" height="1" fill="#FFFFFF"/>
    </g>
  </g>
</svg>
