<?xml version="1.0" encoding="UTF-8"?>
<!DOCTYPE svg PUBLIC "-//W3C//DTD SVG 1.1//EN" "http://www.w3.org/Graphics/SVG/1.1/DTD/svg11.dtd">
<svg version="1.1" id="Layer_1" xmlns="http://www.w3.org/2000/svg" xmlns:xlink="http://www.w3.org/1999/xlink" x="0px" y="0px" width="16px" height="16px" viewBox="0 0 16 16" enable-background="new 0 0 16 16" xml:space="preserve">
  <g id="main">
    <g id="icon">
      <path d="M1.851,0.5451L1.668,0.6682L1.545,0.8506L1.5,1.074L1.5,3.5L10.4,3.5L10.4,2.5L9.965,2.5L9.593,2.441L9.257,2.272L7.628,0.699L7.335,0.5512L7.011,0.5L2.074,0.5zz" fill="#FFFFFF"/>
      <path d="M1.975,0.009961L1.752,0.05508L1.654,0.0748L1.571,0.1305L1.389,0.2535L1.308,0.308L1.254,0.3887L1.13,0.5711L1.075,0.6537L1.055,0.7516L1.01,0.975L1,1.024L1,1.074L1,3.5L1,4L1.5,4L10.4,4L10.9,4L10.9,3.5L10.9,2.5L10.9,2L10.4,2L10,2L9.748,1.96L9.55,1.86L7.975,0.3393L7.921,0.2867L7.853,0.2525L7.56,0.1047L7.49,0.06953L7.413,0.05723L7.089,0.006055L7.05,0L7.011,0L2.074,0L2.024,0zM6.971,1L7.18,1.033L7.336,1.112L8.91,2.632L8.964,2.684L9.032,2.718L9.368,2.888L9.438,2.923L9.515,2.935L9.887,2.994L9.9,2.996L9.9,3L2,3L2,1.124L2.015,1.047L2.028,1.028L2.047,1.015L2.124,1zz" fill="#E57428"/>
      <path d="M8.347,3.379L7.904,3.47L7.453,3.5L1.5,3.5L1.5,9.205L3.4,7.289L5.814,9.683L4.706,10.8L10.2,10.8L10.2,13.5L15.5,13.5L15.5,2.5L9.537,2.5zz" fill="#F7DA8E"/>
      <path d="M9.24,2.098L8.139,2.911L7.837,2.973L7.437,3L1.5,3L1,3L1,3.5L1,9.709L2,8.701L2,4L7.453,4L7.47,4L7.487,3.999L7.938,3.968L7.971,3.966L8.004,3.959L8.447,3.869L8.555,3.847L8.644,3.781L9.702,3L15,3L15,13L10.2,13L10.2,14L15.5,14L16,14L16,13.5L16,2.5L16,2L15.5,2L9.537,2L9.372,2zz" fill="#E57428"/>
    </g>
    <g id="overlay">
      <path d="M3.762,15.562L0.677,12.45l3.086,-3.112M9,12.5H0.7" fill="none" stroke="#228BCB" stroke-width="1" stroke-miterlimit="10"/>
    </g>
  </g>
</svg>
