<?xml version="1.0" encoding="UTF-8"?>
<!DOCTYPE svg PUBLIC "-//W3C//DTD SVG 1.1//EN" "http://www.w3.org/Graphics/SVG/1.1/DTD/svg11.dtd">
<svg version="1.1" id="Layer_1" xmlns="http://www.w3.org/2000/svg" xmlns:xlink="http://www.w3.org/1999/xlink" x="0px" y="0px" width="16px" height="16px" viewBox="0 0 16 16" enable-background="new 0 0 16 16" xml:space="preserve">
  <g id="main">
    <g id="icon">
      <path d="M1.851,0.5451L1.668,0.6682L1.545,0.8506L1.5,1.074L1.5,13.5L4.841,13.5L5.079,12.93L5.494,12.06L5.748,11.64L5.917,11.44L12.92,4.403L13.21,4.166L13.5,4.01L13.5,2.5L8.465,2.5L8.093,2.441L7.757,2.272L6.128,0.699L5.835,0.5512L5.511,0.5L2.074,0.5zM11.2,13.5L13.5,13.5L13.5,11.19zz" fill="#FFFFFF"/>
      <path d="M1.975,0.009961L1.752,0.05508L1.654,0.0748L1.571,0.1305L1.389,0.2535L1.308,0.308L1.254,0.3887L1.13,0.5711L1.075,0.6537L1.055,0.7516L1.01,0.975L1,1.024L1,1.074L1,13.5L1,14L1.5,14L4.631,14L5.052,13L2,13L2,1.124L2.015,1.047L2.028,1.028L2.047,1.015L2.124,1L5.471,1L5.68,1.033L5.836,1.112L7.41,2.632L7.464,2.684L7.532,2.718L7.868,2.888L7.938,2.923L8.015,2.935L8.387,2.994L8.426,3L8.465,3L13,3L13,4.337L13.21,4.166L13.53,3.993L13.89,3.886L14,3.875L14,2.5L14,2L13.5,2L8.504,2L8.248,1.96L8.05,1.86L6.475,0.3393L6.421,0.2867L6.353,0.2525L6.06,0.1047L5.99,0.06953L5.913,0.05723L5.589,0.006055L5.55,0L5.511,0L2.074,0L2.024,0zM13,11.7L13,13L11.7,13L10.71,14L13.5,14L14,14L14,13.5L14,10.69zz" fill="#E57428"/>
      <path d="M1.5,13.5L4.841,13.5L5.079,12.93L5.494,12.06L5.748,11.64L5.917,11.44L11.83,5.5L0.6,5.5zM11.2,13.5L13.5,13.5L13.79,10.9zz" fill="#F7DA8E"/>
      <path d="M0.1031,5.556L1.003,13.56L1.053,14L1.5,14L4.631,14L5.052,13L1.947,13L1.159,6L11.33,6L12.33,5L0.6,5L0.04062,5zM13.23,11.47L13.05,13L11.7,13L10.71,14L13.5,14L13.95,14L14,13.56L14.36,10.33zz" fill="#E57428"/>
    </g>
    <g id="overlay">
      <path d="M7.084,12.61l7.005,-7.044c0.376,-0.376,1.722,0.969,1.345,1.345l-7.009,7.04C8.231,14.146,5.958,15.1,5.958,15.1S6.889,12.805,7.084,12.61zM13.07,6.592l1.307,1.293M7.131,12.591l1.344,1.344" fill="#FFFFFF" stroke="#228BCB" stroke-width="0.9" stroke-miterlimit="10"/>
    </g>
  </g>
</svg>
