<?xml version="1.0" encoding="UTF-8"?>
<!DOCTYPE svg PUBLIC "-//W3C//DTD SVG 1.1//EN" "http://www.w3.org/Graphics/SVG/1.1/DTD/svg11.dtd">
<svg version="1.1" id="Layer_1" xmlns="http://www.w3.org/2000/svg" xmlns:xlink="http://www.w3.org/1999/xlink" x="0px" y="0px" width="16px" height="16px" viewBox="0 0 16 16" enable-background="new 0 0 16 16" xml:space="preserve">
  <g id="main">
    <g id="icon">
      <path d="M0.5,12.5L5.285,12.5L5.494,12.06L5.748,11.64L5.917,11.44L12.92,4.403L13.21,4.166L13.53,3.993L13.89,3.886L14.26,3.85L14.5,3.882L14.5,1.5L0.5,1.5zM12.2,12.5L14.5,12.5L14.5,10.19zz" fill="#FFFFFF"/>
      <path d="M0,1.5L0,12.5L0,13L0.5,13L5.052,13L5.079,12.93L5.494,12.06L5.53,12L1,12L1,2L14,2L14,3.875L14.26,3.85L14.81,3.924L15,4.003L15,1.5L15,1L14.5,1L0.5,1L0,1zM14,10.69L14,12L12.7,12L11.7,13L14.5,13L15,13L15,12.5L15,9.686zz" fill="#383838"/>
      <path d="M11,6L11.33,6L12.92,4.403L13,4.337L13,3L11,3zz" fill="#EF3E3B"/>
      <path d="M3,8L9.342,8L10,7.338L10,7L3,7zM3,10L7,10L7,9L3,9zM8,9.349L8.347,9L8,9zz" fill="#787979"/>
    </g>
    <g id="overlay">
      <path d="M7.084,12.61l7.005,-7.044c0.376,-0.376,1.722,0.969,1.345,1.345l-7.009,7.04C8.231,14.146,5.958,15.1,5.958,15.1S6.889,12.805,7.084,12.61zM13.07,6.592l1.307,1.293M7.131,12.591l1.344,1.344" fill="#FFFFFF" stroke="#228BCB" stroke-width="0.9" stroke-miterlimit="10"/>
    </g>
  </g>
</svg>
