<?xml version="1.0" encoding="UTF-8"?>
<!DOCTYPE svg PUBLIC "-//W3C//DTD SVG 1.1//EN" "http://www.w3.org/Graphics/SVG/1.1/DTD/svg11.dtd">
<svg version="1.1" id="Layer_1" xmlns="http://www.w3.org/2000/svg" xmlns:xlink="http://www.w3.org/1999/xlink" x="0px" y="0px" width="16px" height="16px" viewBox="0 0 16 16" enable-background="new 0 0 16 16" xml:space="preserve">
  <g id="main">
    <g id="icon">
      <path d="M0.8506,0.5451L0.6682,0.6682L0.5451,0.8506L0.5,1.074L0.5,3.5L9.4,3.5L9.4,2.5L8.965,2.5L8.593,2.441L8.257,2.272L6.628,0.699L6.335,0.5512L6.011,0.5L1.074,0.5zz" fill="#FFFFFF"/>
      <path d="M0.975,0.009961L0.7516,0.05508L0.6537,0.0748L0.5711,0.1305L0.3887,0.2535L0.308,0.308L0.2535,0.3887L0.1305,0.5711L0.0748,0.6537L0.05508,0.7516L0.009961,0.975L0,1.024L0,1.074L0,3.5L0,4L0.5,4L9.4,4L9.9,4L9.9,3.5L9.9,2.5L9.9,2L9.4,2L9.004,2L8.748,1.96L8.55,1.86L6.975,0.3393L6.921,0.2867L6.853,0.2525L6.56,0.1047L6.49,0.06953L6.413,0.05723L6.089,0.006055L6.05,0L6.011,0L1.074,0L1.024,0zM5.971,1L6.18,1.033L6.336,1.112L7.91,2.632L7.964,2.684L8.032,2.718L8.368,2.888L8.438,2.923L8.515,2.935L8.887,2.994L8.9,2.996L8.9,3L1,3L1,1.124L1.015,1.047L1.028,1.028L1.047,1.015L1.124,1zz" fill="#383838"/>
      <path d="M7.347,3.379L6.904,3.47L6.453,3.5L0.5,3.5L0.5,13.5L7.26,13.5L7.035,13.3L6.969,13.34L6.999,13.26L6.727,12.88L6.523,12.45L6.396,11.99L6.351,11.5L6.396,11.01L6.526,10.54L6.733,10.12L7.008,9.736L6.984,9.667L7.037,9.701L7.546,9.257L8.154,8.948L8.329,8.686L8.339,8.627L8.369,8.632L9.024,7.91L9.805,7.335L10.69,6.924L11.16,6.786L11.65,6.696L12.06,6.341L12.54,6.075L13.06,5.907L13.63,5.849L14,5.875L14.36,5.95L14.5,6.009L14.5,2.5L8.537,2.5zz" fill="#FFFFFF"/>
      <path d="M8.24,2.098L7.139,2.911L6.837,2.973L6.437,3L0.5,3L0,3L0,3.5L0,13.5L0,14L0.5,14L8,14L8,13.99L7.477,13.7L7.035,13.3L6.969,13.34L6.999,13.26L6.817,13L1,13L1,4L6.453,4L6.47,4L6.487,3.999L6.938,3.968L6.971,3.966L7.004,3.959L7.447,3.869L7.555,3.847L7.644,3.781L8.702,3L14,3L14,5.875L14,5.875L14.36,5.95L15,6.225L15,2.5L15,2L14.5,2L8.537,2L8.372,2zz" fill="#383838"/>
    </g>
    <g id="overlay">
      <path d="M9.245,12.549c0.433,1.259,1.631,2.164,3.041,2.164c0.101,0,0.202,-0.005,0.301,-0.014M14.503,13.828c0.614,-0.584,0.997,-1.407,0.997,-2.32c0,-0.916,-0.386,-1.742,-1.004,-2.326M12.583,8.317c-0.098,-0.009,-0.197,-0.014,-0.297,-0.014c-1.404,0,-2.598,0.898,-3.035,2.149" fill="none" stroke="#228BCB" stroke-width="0.9" stroke-miterlimit="10"/>
      <path d="M9.25,10.452c0.507,0.084,0.893,0.521,0.893,1.048c0,0.528,-0.389,0.966,-0.898,1.049M9.25,10.452c-0.058,-0.01,-0.118,-0.015,-0.179,-0.015C8.48,10.437,8,10.913,8,11.5c0,0.587,0.48,1.063,1.071,1.063c0.059,0,0.117,-0.005,0.173,-0.014M14.496,9.182c0.126,-0.174,0.201,-0.388,0.201,-0.619c0,-0.587,-0.48,-1.063,-1.071,-1.063c-0.507,0,-0.931,0.349,-1.042,0.817M12.583,8.317c-0.019,0.079,-0.029,0.161,-0.029,0.245c0,0.587,0.48,1.063,1.071,1.063c0.359,0,0.676,-0.175,0.871,-0.444M12.586,14.698c0.117,0.461,0.538,0.802,1.039,0.802c0.592,0,1.071,-0.476,1.071,-1.063c0,-0.227,-0.072,-0.437,-0.194,-0.609M14.503,13.828c-0.194,-0.274,-0.515,-0.454,-0.878,-0.454c-0.592,0,-1.071,0.476,-1.071,1.063c0,0.09,0.011,0.177,0.033,0.261" fill="#FFFFFF" stroke="#228BCB" stroke-width="0.9" stroke-miterlimit="10"/>
    </g>
  </g>
</svg>
