<?xml version="1.0" encoding="UTF-8"?>
<!DOCTYPE svg PUBLIC "-//W3C//DTD SVG 1.1//EN" "http://www.w3.org/Graphics/SVG/1.1/DTD/svg11.dtd">
<svg version="1.1" id="Layer_1" xmlns="http://www.w3.org/2000/svg" xmlns:xlink="http://www.w3.org/1999/xlink" x="0px" y="0px" width="16px" height="16px" viewBox="0 0 16 16" enable-background="new 0 0 16 16" xml:space="preserve">
  <g id="main">
    <g id="icon">
      <path d="M1.5,2.239L5.5,7.461L5.5,14.33L6.387,14.01L6.145,13.45L5.956,12.83L5.84,12.18L5.8,11.5L5.829,10.92L5.916,10.35L6.057,9.807L6.249,9.283L6.489,8.785L6.775,8.315L7.103,7.876L7.471,7.471L7.876,7.103L8.315,6.775L8.785,6.489L9.283,6.249L9.807,6.057L10.35,5.916L10.73,5.859L13.5,2.239L13.5,0.5L1.5,0.5zz" fill="#BFC4CC"/>
      <path d="M1,0.5L1,2.239L1,2.408L1.103,2.543L5,7.63L5,14.33L5,15.03L5.667,14.8L6.636,14.45L6.401,14.04L6.188,13.55L6,13.62L6,12.97L5.956,12.83L5.84,12.18L5.8,11.5L5.829,10.92L5.916,10.35L6,10.03L6,7.461L6,7.292L5.897,7.157L2,2.07L2,1L13,1L13,2.07L9.98,6.012L10.35,5.916L10.92,5.829L11.4,5.805L13.9,2.543L14,2.408L14,2.239L14,0.5L14,0L13.5,0L1.5,0L1,0zz" fill="#31363E"/>
    </g>
    <g id="overlay">
      <path d="M11.5,7.5c-2.209,0,-4,1.791,-4,4c0,2.209,1.791,4,4,4s4,-1.791,4,-4C15.5,9.291,13.709,7.5,11.5,7.5zM14,12h-2v2h-1v-2H9v-1h2V9h1v2h2V12z" fill="#B2DBB4"/>
      <path d="M11.5,7.5c-2.209,0,-4,1.791,-4,4c0,2.209,1.791,4,4,4s4,-1.791,4,-4C15.5,9.291,13.709,7.5,11.5,7.5zM14,12h-2v2h-1v-2H9v-1h2V9h1v2h2V12z" fill="#009949" opacity="0.2"/>
      <path d="M11.5,16c-2.481,0,-4.5,-2.019,-4.5,-4.5s2.019,-4.5,4.5,-4.5s4.5,2.019,4.5,4.5S13.981,16,11.5,16zM11.5,8c-1.93,0,-3.5,1.57,-3.5,3.5s1.57,3.5,3.5,3.5s3.5,-1.57,3.5,-3.5S13.43,8,11.5,8z" fill="#009949"/>
      <polygon points="12,14 11,14 11,12 9,12 9,11 11,11 11,9 12,9 12,11 14,11 14,12 12,12" fill="#FFFFFF" stroke-linejoin="miter"/>
    </g>
  </g>
</svg>
