<?xml version="1.0" encoding="UTF-8"?>
<!DOCTYPE svg PUBLIC "-//W3C//DTD SVG 1.1//EN" "http://www.w3.org/Graphics/SVG/1.1/DTD/svg11.dtd">
<svg version="1.1" id="Layer_1" xmlns="http://www.w3.org/2000/svg" xmlns:xlink="http://www.w3.org/1999/xlink" x="0px" y="0px" width="16px" height="16px" viewBox="0 0 16 16" enable-background="new 0 0 16 16" xml:space="preserve">
  <g id="main">
    <g id="icon">
      <path d="M0.5,13.5L4.841,13.5L5.079,12.93L5.494,12.06L5.748,11.64L5.917,11.44L12.92,4.403L13.21,4.166L13.53,3.993L13.89,3.886L14.26,3.85L14.5,3.882L14.5,1.5L0.5,1.5zM11.2,13.5L14.5,13.5L14.5,10.19zz" fill="#FFFFFF"/>
      <path d="M0,1.5L0,13.5L0,14L0.5,14L4.631,14L5.052,13L1,13L1,2L14,2L14,3.875L14.26,3.85L14.81,3.924L15,4.003L15,1.5L15,1L14.5,1L0.5,1L0,1zM14,10.69L14,13L11.7,13L10.71,14L14.5,14L15,14L15,13.5L15,9.686zz" fill="#383838"/>
      <path d="M5.323,3.546L4.9,3.676L4.517,3.883L4.183,4.158L3.908,4.49L3.7,4.871L3.569,5.293L3.523,5.746L3.569,6.199L3.7,6.621L3.908,7.002L4.184,7.334L4.517,7.609L4.9,7.816L5.324,7.946L5.729,7.987L5.1,8.076L4.477,8.346L3.919,8.762L3.437,9.293L3.044,9.911L2.749,10.59L2.564,11.29L2.5,12L5.53,12L5.748,11.64L5.917,11.44L8.089,9.26L7.637,8.762L7.079,8.346L6.456,8.076L5.827,7.987L6.232,7.946L6.656,7.816L7.039,7.609L7.372,7.334L7.648,7.002L7.856,6.621L7.987,6.199L8.033,5.746L7.987,5.293L7.856,4.871L7.648,4.49L7.372,4.158L7.039,3.883L6.656,3.676L6.232,3.546L5.778,3.5zz" fill="#FFFFFF"/>
      <path d="M5.728,3.003L5.273,3.048L5.224,3.053L5.176,3.068L4.752,3.199L4.705,3.213L4.662,3.237L4.279,3.444L4.237,3.466L4.2,3.497L3.866,3.771L3.829,3.802L3.798,3.839L3.523,4.171L3.492,4.208L3.469,4.251L3.261,4.632L3.238,4.676L3.223,4.723L3.091,5.145L3.076,5.193L3.071,5.243L3.026,5.696L3.021,5.746L3.026,5.796L3.071,6.249L3.076,6.299L3.091,6.348L3.223,6.769L3.238,6.816L3.261,6.86L3.469,7.241L3.492,7.284L3.523,7.321L3.799,7.653L3.829,7.69L3.866,7.721L4.158,7.96L3.62,8.36L3.581,8.389L3.548,8.426L3.067,8.957L3.038,8.988L3.016,9.024L2.622,9.642L2.601,9.675L2.586,9.711L2.291,10.39L2.275,10.42L2.265,10.46L2.08,11.17L2.07,11.21L2.066,11.25L2.002,11.95L1.953,12.5L2.5,12.5L5.285,12.5L5.494,12.06L5.748,11.64L5.868,11.5L3.047,11.5L3.058,11.38L3.223,10.75L3.487,10.15L3.836,9.597L4.256,9.134L4.728,8.782L5.237,8.562L5.739,8.491L5.778,8.495L5.817,8.491L6.319,8.562L6.828,8.782L7.3,9.134L7.72,9.598L7.733,9.618L8.442,8.905L8.008,8.426L7.975,8.389L7.936,8.36L7.398,7.96L7.69,7.721L7.727,7.69L7.757,7.653L8.033,7.321L8.064,7.284L8.087,7.241L8.295,6.86L8.318,6.816L8.333,6.769L8.464,6.348L8.479,6.299L8.485,6.249L8.53,5.796L8.536,5.746L8.53,5.696L8.485,5.243L8.479,5.193L8.464,5.144L8.333,4.723L8.318,4.676L8.295,4.632L8.087,4.251L8.064,4.208L8.033,4.171L7.757,3.839L7.727,3.802L7.69,3.771L7.356,3.497L7.319,3.466L7.276,3.444L6.893,3.237L6.85,3.213L6.803,3.199L6.38,3.068L6.332,3.053L6.282,3.048L5.828,3.003L5.778,2.997zM6.133,4.038L6.461,4.14L6.758,4.3L7.018,4.513L7.232,4.772L7.393,5.067L7.495,5.394L7.53,5.746L7.495,6.098L7.393,6.425L7.232,6.72L7.018,6.979L6.758,7.192L6.461,7.352L6.133,7.454L5.838,7.483L5.778,7.475L5.718,7.483L5.423,7.454L5.095,7.352L4.798,7.192L4.538,6.978L4.324,6.721L4.163,6.424L4.061,6.098L4.026,5.746L4.061,5.393L4.163,5.068L4.324,4.772L4.538,4.513L4.797,4.3L5.094,4.14L5.422,4.038L5.778,4.003zz" fill="#228BCB"/>
      <path d="M10,5L12.33,5L12.92,4.403L13,4.337L13,4L10,4zM10,7L10.34,7L11.33,6L10,6zz" fill="#787979"/>
    </g>
    <g id="overlay">
      <path d="M7.084,12.61l7.005,-7.044c0.376,-0.376,1.722,0.969,1.345,1.345l-7.009,7.04C8.231,14.146,5.958,15.1,5.958,15.1S6.889,12.805,7.084,12.61zM13.07,6.592l1.307,1.293M7.131,12.591l1.344,1.344" fill="#FFFFFF" stroke="#228BCB" stroke-width="0.9" stroke-miterlimit="10"/>
    </g>
  </g>
</svg>
