<?xml version="1.0" encoding="UTF-8"?>
<!DOCTYPE svg PUBLIC "-//W3C//DTD SVG 1.1//EN" "http://www.w3.org/Graphics/SVG/1.1/DTD/svg11.dtd">
<svg version="1.1" id="Layer_1" xmlns="http://www.w3.org/2000/svg" xmlns:xlink="http://www.w3.org/1999/xlink" x="0px" y="0px" width="16px" height="16px" viewBox="0 0 16 16" enable-background="new 0 0 16 16" xml:space="preserve">
  <g id="main">
    <g id="icon">
      <path d="M0.5,13.5L6.165,13.5L6.145,13.45L5.956,12.83L5.84,12.18L5.8,11.5L5.829,10.92L5.916,10.35L6.057,9.807L6.249,9.283L6.489,8.785L6.775,8.315L7.103,7.876L7.471,7.471L7.876,7.103L8.315,6.775L8.785,6.489L9.283,6.249L9.807,6.057L10.35,5.916L10.92,5.829L11.5,5.8L12.18,5.84L12.83,5.956L13.45,6.145L14.04,6.401L14.5,6.663L14.5,1.5L0.5,1.5zz" fill="#FFFFFF"/>
      <path d="M0,1.5L0,13.5L0,14L0.5,14L6.382,14L6.145,13.45L6.008,13L1,13L1,2L14,2L14,6.382L14.04,6.401L14.6,6.72L15,7.014L15,1.5L15,1L14.5,1L0.5,1L0,1zz" fill="#383838"/>
      <path d="M5.323,3.546L4.9,3.676L4.517,3.883L4.183,4.158L3.908,4.49L3.7,4.871L3.569,5.293L3.523,5.746L3.569,6.199L3.7,6.621L3.908,7.002L4.184,7.334L4.517,7.609L4.9,7.816L5.324,7.946L5.729,7.987L5.1,8.076L4.477,8.346L3.919,8.762L3.437,9.293L3.044,9.911L2.749,10.59L2.564,11.29L2.5,12L5.829,12L5.8,11.5L5.829,10.92L5.916,10.35L6.057,9.807L6.249,9.283L6.489,8.785L6.775,8.315L6.832,8.239L6.456,8.076L5.827,7.987L6.232,7.946L6.656,7.816L7.039,7.609L7.372,7.334L7.648,7.002L7.856,6.621L7.987,6.199L8.033,5.746L7.987,5.293L7.856,4.871L7.648,4.49L7.372,4.158L7.039,3.883L6.656,3.676L6.232,3.546L5.778,3.5zz" fill="#FFFFFF"/>
      <path d="M5.728,3.003L5.273,3.048L5.224,3.053L5.176,3.068L4.752,3.199L4.705,3.213L4.662,3.237L4.279,3.444L4.237,3.466L4.2,3.497L3.866,3.771L3.829,3.802L3.798,3.839L3.523,4.171L3.492,4.208L3.469,4.251L3.261,4.632L3.238,4.676L3.223,4.723L3.091,5.145L3.076,5.193L3.071,5.243L3.026,5.696L3.021,5.746L3.026,5.796L3.071,6.249L3.076,6.299L3.091,6.348L3.223,6.769L3.238,6.816L3.261,6.86L3.469,7.241L3.492,7.284L3.523,7.321L3.799,7.653L3.829,7.69L3.866,7.721L4.158,7.96L3.62,8.36L3.581,8.389L3.548,8.426L3.067,8.957L3.038,8.988L3.016,9.024L2.622,9.642L2.601,9.675L2.586,9.711L2.291,10.39L2.275,10.42L2.265,10.46L2.08,11.17L2.07,11.21L2.066,11.25L2.002,11.95L1.953,12.5L2.5,12.5L5.898,12.5L5.84,12.18L5.8,11.5L3.047,11.5L3.058,11.38L3.223,10.75L3.487,10.15L3.836,9.597L4.256,9.134L4.728,8.782L5.237,8.562L5.739,8.491L5.778,8.495L5.817,8.491L6.319,8.562L6.561,8.667L6.775,8.315L7.103,7.876L7.471,7.471L7.876,7.103L8.315,6.775L8.335,6.763L8.464,6.348L8.479,6.299L8.485,6.249L8.53,5.796L8.536,5.746L8.53,5.696L8.485,5.243L8.479,5.193L8.464,5.144L8.333,4.723L8.318,4.676L8.295,4.632L8.087,4.251L8.064,4.208L8.033,4.171L7.757,3.839L7.727,3.802L7.69,3.771L7.356,3.497L7.319,3.466L7.276,3.444L6.893,3.237L6.85,3.213L6.803,3.199L6.38,3.068L6.332,3.053L6.282,3.048L5.828,3.003L5.778,2.997zM6.133,4.038L6.461,4.14L6.758,4.3L7.018,4.513L7.232,4.772L7.393,5.067L7.495,5.394L7.53,5.746L7.495,6.098L7.393,6.425L7.232,6.72L7.018,6.979L6.758,7.192L6.461,7.352L6.133,7.454L5.838,7.483L5.778,7.475L5.718,7.483L5.423,7.454L5.095,7.352L4.798,7.192L4.538,6.978L4.324,6.721L4.163,6.424L4.061,6.098L4.026,5.746L4.061,5.393L4.163,5.068L4.324,4.772L4.538,4.513L4.797,4.3L5.094,4.14L5.422,4.038L5.778,4.003zz" fill="#228BCB"/>
      <path d="M10,5L13,5L13,4L10,4zM10,6.007L10.03,6L10,6zM13,6.008L13,6L12.97,6zz" fill="#787979"/>
    </g>
    <g id="overlay">
      <path d="M11.5,7.5c-2.209,0,-4,1.791,-4,4c0,2.209,1.791,4,4,4s4,-1.791,4,-4C15.5,9.291,13.709,7.5,11.5,7.5zM13.654,12.946l-0.707,0.707L11.5,12.207l-1.446,1.446l-0.707,-0.707L10.793,11.5l-1.446,-1.446l0.707,-0.707L11.5,10.793l1.446,-1.446l0.707,0.707L12.207,11.5L13.654,12.946z" fill="#F7BFBF"/>
      <path d="M11.5,7.5c-2.209,0,-4,1.791,-4,4c0,2.209,1.791,4,4,4s4,-1.791,4,-4C15.5,9.291,13.709,7.5,11.5,7.5zM13.654,12.946l-0.707,0.707L11.5,12.207l-1.446,1.446l-0.707,-0.707L10.793,11.5l-1.446,-1.446l0.707,-0.707L11.5,10.793l1.446,-1.446l0.707,0.707L12.207,11.5L13.654,12.946z" fill="#DB2E2A" opacity="0.3"/>
      <path d="M11.5,16c-2.481,0,-4.5,-2.019,-4.5,-4.5s2.019,-4.5,4.5,-4.5s4.5,2.019,4.5,4.5S13.981,16,11.5,16zM11.5,8c-1.93,0,-3.5,1.57,-3.5,3.5s1.57,3.5,3.5,3.5s3.5,-1.57,3.5,-3.5S13.43,8,11.5,8z" fill="#DB2E2A"/>
      <polygon points="12.946,13.654 11.5,12.207 10.054,13.654 9.346,12.946 10.793,11.5 9.346,10.054 10.054,9.346 11.5,10.793 12.946,9.346 13.654,10.054 12.207,11.5 13.654,12.946" fill="#FFFFFF" stroke-linejoin="miter"/>
    </g>
  </g>
</svg>
