<?xml version="1.0" encoding="UTF-8"?>
<!DOCTYPE svg PUBLIC "-//W3C//DTD SVG 1.1//EN" "http://www.w3.org/Graphics/SVG/1.1/DTD/svg11.dtd">
<svg version="1.1" id="Layer_1" xmlns="http://www.w3.org/2000/svg" xmlns:xlink="http://www.w3.org/1999/xlink" x="0px" y="0px" width="16px" height="16px" viewBox="0 0 16 16" enable-background="new 0 0 16 16" xml:space="preserve">
  <g id="main">
    <g id="icon">
      <path d="M0.5,5L0.5,14.49L6.652,14.49L6.469,14.18L6.232,13.68L6.046,13.16L5.911,12.62L5.829,12.07L5.802,11.5L5.829,10.93L5.911,10.38L6.046,9.838L6.232,9.316L6.469,8.815L6.755,8.338L7.089,7.889L7.469,7.469L7.889,7.089L8.339,6.755L8.816,6.469L9.317,6.232L9.839,6.046L10.38,5.911L10.93,5.829L11.5,5.802L12.07,5.829L12.62,5.911L13.16,6.046L13.68,6.232L14.18,6.469L14.5,6.659L14.5,5L7.517,0.7zz" fill="#FFFFFF"/>
      <path d="M7.256,0.2736L0.2387,4.574L0,4.72L0,5L0,14.49L0,14.99L0.5,14.99L6.998,14.99L6.755,14.66L6.469,14.18L6.377,13.99L1,13.99L1,5.28L7.516,1.287L14,5.279L14,6.382L14.18,6.469L14.66,6.755L15,7.006L15,5L15,4.721L14.76,4.574L7.779,0.2742L7.518,0.1133zz" fill="#383838"/>
      <path d="M0.1783,5.683L5.178,9.883L5.318,10L5.5,10L6.006,10L6.046,9.838L6.232,9.316L6.382,9L5.682,9L0.8217,4.917zM12.91,5.983L13.16,6.046L13.68,6.232L13.99,6.379L14.82,5.683L14.18,4.917zz" fill="#383838"/>
    </g>
    <g id="overlay">
      <path d="M14.328,8.672c1.562,1.562,1.562,4.095,0,5.657s-4.095,1.562,-5.657,0s-1.562,-4.095,0,-5.657S12.766,7.109,14.328,8.672z" fill="#FEFEFF" stroke="#E59D0B" stroke-width="1" stroke-miterlimit="10"/>
      <ellipse cx="11.5" cy="11.5" rx="1.5" ry="2" fill="#FEFEFF" stroke="#E59D0B" stroke-width="1" stroke-miterlimit="10"/>
    </g>
  </g>
</svg>
