<?xml version="1.0" encoding="UTF-8"?>
<!DOCTYPE svg PUBLIC "-//W3C//DTD SVG 1.1//EN" "http://www.w3.org/Graphics/SVG/1.1/DTD/svg11.dtd">
<svg version="1.1" id="Layer_1" xmlns="http://www.w3.org/2000/svg" xmlns:xlink="http://www.w3.org/1999/xlink" x="0px" y="0px" width="16px" height="16px" viewBox="0 0 16 16" enable-background="new 0 0 16 16" xml:space="preserve">
  <g id="main">
    <g id="icon">
      <path d="M1.5,2.239L5.5,7.461L5.5,14.33L6.387,14.01L6.145,13.45L5.956,12.83L5.84,12.18L5.8,11.5L5.829,10.92L5.916,10.35L6.057,9.807L6.249,9.283L6.489,8.785L6.775,8.315L7.103,7.876L7.471,7.471L7.876,7.103L8.315,6.775L8.785,6.489L9.283,6.249L9.807,6.057L10.35,5.916L10.73,5.859L13.5,2.239L13.5,0.5L1.5,0.5zz" fill="#BFC4CC"/>
      <path d="M1,0.5L1,2.239L1,2.408L1.103,2.543L5,7.63L5,14.33L5,15.03L5.667,14.8L6.636,14.45L6.401,14.04L6.188,13.55L6,13.62L6,12.97L5.956,12.83L5.84,12.18L5.8,11.5L5.829,10.92L5.916,10.35L6,10.03L6,7.461L6,7.292L5.897,7.157L2,2.07L2,1L13,1L13,2.07L9.98,6.012L10.35,5.916L10.92,5.829L11.4,5.805L13.9,2.543L14,2.408L14,2.239L14,0.5L14,0L13.5,0L1.5,0L1,0zz" fill="#31363E"/>
    </g>
    <g id="overlay">
      <path d="M7.5,11.5c0,2.209,1.791,4,4,4c2.209,0,4,-1.791,4,-4s-1.791,-4,-4,-4C9.291,7.5,7.5,9.291,7.5,11.5zM14.176,11.5l-2.533,2.564l-0.711,-0.703L12.277,12H8.984v-1h3.292l-1.344,-1.361l0.711,-0.703L14.176,11.5z" fill="#A1BEDE"/>
      <path d="M7.5,11.5c0,2.209,1.791,4,4,4c2.209,0,4,-1.791,4,-4s-1.791,-4,-4,-4C9.291,7.5,7.5,9.291,7.5,11.5zM14.176,11.5l-2.533,2.564l-0.711,-0.703L12.277,12H8.984v-1h3.292l-1.344,-1.361l0.711,-0.703L14.176,11.5z" fill="#305A88" opacity="0.2"/>
      <path d="M16,11.5c0,2.481,-2.019,4.5,-4.5,4.5s-4.5,-2.019,-4.5,-4.5s2.019,-4.5,4.5,-4.5S16,9.019,16,11.5zM8,11.5c0,1.93,1.57,3.5,3.5,3.5s3.5,-1.57,3.5,-3.5s-1.57,-3.5,-3.5,-3.5S8,9.57,8,11.5z" fill="#305A88"/>
      <polygon points="14.176,11.5 11.644,14.064 10.932,13.361 12.277,12 8.984,12 8.984,11 12.277,11 10.932,9.639 11.644,8.936" fill="#FFFFFF" stroke-linejoin="miter"/>
    </g>
  </g>
</svg>
