<?xml version="1.0" encoding="UTF-8"?>
<!DOCTYPE svg PUBLIC "-//W3C//DTD SVG 1.1//EN" "http://www.w3.org/Graphics/SVG/1.1/DTD/svg11.dtd">
<svg version="1.1" id="Layer_1" xmlns="http://www.w3.org/2000/svg" xmlns:xlink="http://www.w3.org/1999/xlink" x="0px" y="0px" width="16px" height="16px" viewBox="0 0 16 16" enable-background="new 0 0 16 16" xml:space="preserve">
  <g id="main">
    <g id="icon">
      <path d="M1.5,13.5L5.8,13.5L5.8,9.46L5.611,9.421L5.293,9.207L5.079,8.889L5,8.5L5.079,8.111L5.293,7.793L5.611,7.579L6,7.5L9,7.5L9.389,7.579L9.707,7.793L9.712,7.8L13.5,7.8L13.5,4.5L1.5,4.5zz" fill="#FFFFFF"/>
      <path d="M1,4.5L1,13.5L1,14L1.5,14L5.8,14L5.8,13L2,13L2,5L13,5L13,7.8L14,7.8L14,4.5L14,4L13.5,4L1.5,4L1,4zM5.901,7.01L5.512,7.088L5.414,7.108L5.331,7.164L5.013,7.379L4.933,7.433L4.879,7.513L4.664,7.831L4.608,7.914L4.588,8.012L4.51,8.401L4.49,8.5L4.51,8.599L4.588,8.988L4.608,9.086L4.664,9.169L4.879,9.487L4.933,9.567L5.013,9.621L5.331,9.836L5.414,9.892L5.512,9.912L5.8,9.97L5.8,8.946L5.653,8.847L5.549,8.692L5.51,8.5L5.549,8.308L5.653,8.153L5.8,8.054L5.8,7.8L10.31,7.8L10.12,7.513L10.07,7.433L9.987,7.379L9.669,7.164L9.586,7.108L9.488,7.088L9.099,7.01L9.05,7L9,7L6,7L5.95,7zz" fill="#383838"/>
      <path d="M0.5,4.5L14.5,4.5L14.5,0.5L0.5,0.5zz" fill="#ACD8B1"/>
      <path d="M0,0.5L0,4.5L0,5L0.5,5L14.5,5L15,5L15,4.5L15,0.5L15,0L14.5,0L0.5,0L0,0zM14,1L14,4L1,4L1,1zz" fill="#0BA04A"/>
    </g>
    <g id="overlay">
      <rect x="7.5" y="9.5" width="8" height="6" fill="#FFFFFF"/>
      <path d="M15.5,9.813l-3.993,2.937L7.5,9.813M15.5,9.5H7.5v6h8V9.5z" fill="none" stroke="#383838" stroke-width="1" stroke-miterlimit="10"/>
    </g>
  </g>
</svg>
