<?xml version="1.0" encoding="UTF-8"?>
<!DOCTYPE svg PUBLIC "-//W3C//DTD SVG 1.1//EN" "http://www.w3.org/Graphics/SVG/1.1/DTD/svg11.dtd">
<svg version="1.1" id="Layer_1" xmlns="http://www.w3.org/2000/svg" xmlns:xlink="http://www.w3.org/1999/xlink" x="0px" y="0px" width="16px" height="16px" viewBox="0 0 16 16" enable-background="new 0 0 16 16" xml:space="preserve">
  <g id="icon">
    <path d="M0.5,4.5v10h15V4.5H0.5z" fill="#FFFFFF" stroke="#383838" stroke-width="1" stroke-miterlimit="10"/>
    <rect x="0.5" y="1.5" width="15" height="3" fill="#C8C6C4" stroke="#383838" stroke-width="1" stroke-linecap="round" stroke-miterlimit="10"/>
    <path d="M3.5,0v3M12.5,0v3" fill="none" stroke="#383838" stroke-width="1" stroke-miterlimit="10"/>
    <rect x="5.5" y="9.5" width="4" height="3" fill="#F3B8B8" stroke="#E42D2C" stroke-width="1" stroke-linecap="round" stroke-miterlimit="10"/>
    <g>
      <polygon points="4,12 3,12 3,10 4,10 4,9 2,9 2,13 4,13" fill="#787979" stroke-linejoin="miter" opacity="0.3"/>
      <polygon points="5,6 5,8 6,8 6,7 9,7 9,8 10,8 10,7 13,7 13,9 11,9 11,10 13,10 13,12 11,12 11,13 14,13 14,6" fill="#787979" stroke-linejoin="miter" opacity="0.3"/>
    </g>
  </g>
</svg>
