<?xml version="1.0" encoding="UTF-8"?>
<!DOCTYPE svg PUBLIC "-//W3C//DTD SVG 1.1//EN" "http://www.w3.org/Graphics/SVG/1.1/DTD/svg11.dtd">
<svg version="1.1" id="Layer_1" xmlns="http://www.w3.org/2000/svg" xmlns:xlink="http://www.w3.org/1999/xlink" x="0px" y="0px" width="16px" height="16px" viewBox="0 0 16 16" enable-background="new 0 0 16 16" xml:space="preserve">
  <g id="main">
    <g id="icon">
      <path d="M1.5,7.889L1.71,7.747L2.115,7.544L2.548,7.394L3.005,7.302L3.177,7.059L3.438,6.734L3.733,6.445L4.409,5.986L5.173,5.699L5.578,5.624L5.993,5.599L6.689,5.67L7.337,5.872L7.924,6.192L8.436,6.616L8.858,7.13L9.177,7.719L9.379,8.37L9.449,9.068L9.359,9.854L9.098,10.59L9.354,10.88L9.896,11.64L10.3,12.49L10.55,13.39L10.63,14.31L10.63,14.5L15.5,14.5L15.5,4.5L1.5,4.5zz" fill="#FFFFFF"/>
      <path d="M1,4.5L1,8L1.337,8L1.71,7.747L2,7.602L2,5L15,5L15,14L10.6,14L10.63,14.31L10.63,15L15.5,15L16,15L16,14.5L16,4.5L16,4L15.5,4L1.5,4L1,4zz" fill="#383838"/>
      <path d="M1.5,4.5L15.5,4.5L15.5,1.5L1.5,1.5zz" fill="#C8C6C4"/>
      <path d="M1,1.5L1,4.5L1,5L1.5,5L15.5,5L16,5L16,4.5L16,1.5L16,1L15.5,1L1.5,1L1,1zM15,2L15,4L2,4L2,2zz" fill="#383838"/>
      <path d="M4,3L5,3L5,0L4,0zM12,3L13,3L13,0L12,0zz" fill="#383838"/>
      <path d="M7.924,6.192L8.436,6.616L8.751,7L10,7L10,8L9.264,8L9.379,8.37L9.442,9L10,9L10,10L9.308,10L9.098,10.59L9.354,10.88L9.442,11L10,11L10,11.86L10.3,12.49L10.44,13L10.5,13L11,13L13.5,13L14,13L14,12.5L14,11L14,10.5L14,10L14,9L14,8.5L14,8L14,6.5L14,6L13.5,6L11,6L10.5,6L10,6L7.572,6zM13,7L13,8L11,8L11,7zM13,9L13,10L11,10L11,9zM13,11L13,12L11,12L11,11zz" fill="#787979" opacity="0.5"/>
    </g>
    <g id="overlay">
      <path d="M5.233,10.759c0,0.987,-0.795,1.832,-1.775,1.832s-1.775,-0.845,-1.775,-1.832s0.795,-1.787,1.775,-1.787S5.233,9.772,5.233,10.759zM6.415,16c0,-1.725,-1.358,-3.397,-2.946,-3.397S0.5,14.275,0.5,16" fill="#92CBEE" stroke="#0964B0" stroke-width="1" stroke-miterlimit="10"/>
      <path d="M6.525,10.975c1.353,0.313,2.525,2.002,2.525,3.535H7.511c-0.275,-0.751,-0.826,-1.628,-1.411,-2.151C6.344,11.94,6.492,11.466,6.525,10.975zM6.533,10.759c0,0.018,-0.001,0.035,-0.002,0.053c0.717,-0.241,1.237,-0.945,1.237,-1.743c0,-0.987,-0.795,-1.787,-1.775,-1.787c-0.541,0,-1.025,0.244,-1.351,0.628C5.751,8.377,6.533,9.478,6.533,10.759z" fill="#C8C6C4"/>
      <path d="M8.44,11.653c-0.289,-0.34,-0.628,-0.622,-0.994,-0.829c0.502,-0.441,0.803,-1.087,0.803,-1.756C8.249,7.818,7.237,6.8,5.993,6.8c-0.737,0,-1.416,0.359,-1.837,0.953c0.334,0.078,0.647,0.211,0.929,0.388c0.239,-0.238,0.565,-0.378,0.908,-0.378c0.713,0,1.293,0.585,1.293,1.305c0,0.537,-0.326,1.025,-0.787,1.237c0.022,0.148,0.033,0.299,0.033,0.453c0,0.236,-0.028,0.468,-0.078,0.694c1.104,0.277,2.014,1.527,2.014,2.858v0.2h0.963v-0.2C9.432,13.364,9.07,12.395,8.44,11.653z" fill="#383838"/>
    </g>
  </g>
</svg>
