<?xml version="1.0" encoding="UTF-8"?>
<!DOCTYPE svg PUBLIC "-//W3C//DTD SVG 1.1//EN" "http://www.w3.org/Graphics/SVG/1.1/DTD/svg11.dtd">
<svg version="1.1" id="Layer_1" xmlns="http://www.w3.org/2000/svg" xmlns:xlink="http://www.w3.org/1999/xlink" x="0px" y="0px" width="16px" height="16px" viewBox="0 0 16 16" enable-background="new 0 0 16 16" xml:space="preserve">
  <g id="main">
    <g id="icon">
      <path d="M5.371,13.06L5.488,13.41L5.672,13.73L5.915,14L6.209,14.21L6.545,14.37L6.595,14.38L6.401,14.04L6.145,13.45L5.956,12.83L5.926,12.66L5.33,12.66zz" fill="#BFC4CC"/>
      <path d="M5.051,12.24L4.851,12.51L4.833,12.71L4.873,13.11L4.879,13.16L4.895,13.21L5.012,13.57L5.029,13.62L5.056,13.67L5.24,13.98L5.267,14.03L5.303,14.07L5.546,14.33L5.58,14.37L5.621,14.4L5.914,14.61L5.953,14.64L5.996,14.66L6.332,14.82L6.373,14.84L6.417,14.85L6.786,14.95L6.828,14.96L6.871,14.96L6.996,14.98L6.72,14.6L6.401,14.04L6.189,13.56L6.077,13.43L5.946,13.21L5.863,12.95L5.827,12.61L5.682,12.3L5.378,12.16zz" fill="#31363E"/>
      <path d="M7.253,0.5285L6.989,0.6129L6.75,0.7465L6.542,0.9234L6.37,1.138L6.24,1.384L6.159,1.656L6.13,1.948L6.144,2.143L5.532,2.382L4.973,2.704L4.476,3.102L4.05,3.567L3.703,4.09L3.444,4.664L3.282,5.28L3.226,5.929L3.152,6.834L2.949,7.654L2.645,8.396L2.268,9.069L1.847,9.679L1.411,10.24L0.6029,11.21L0.5025,11.39L0.5475,11.56L0.7217,11.71L1.009,11.85L1.86,12.1L2.973,12.29L4.221,12.44L5.476,12.55L5.91,12.57L5.84,12.18L5.8,11.5L5.829,10.92L5.916,10.35L6.057,9.807L6.249,9.283L6.489,8.785L6.775,8.315L7.103,7.876L7.471,7.471L7.876,7.103L8.315,6.775L8.785,6.489L9.283,6.249L9.807,6.057L10.35,5.916L10.92,5.829L11.5,5.8L11.66,5.81L11.62,5.301L11.47,4.704L11.23,4.146L10.9,3.633L10.5,3.175L10.03,2.778L9.503,2.449L8.923,2.197L8.945,1.947L8.916,1.655L8.834,1.383L8.705,1.137L8.533,0.923L8.324,0.7463L8.085,0.6127L7.821,0.5283L7.537,0.499zz" fill="#BBC1C9"/>
      <path d="M7.485,0.001758L7.202,0.03105L7.15,0.03652L7.101,0.05215L6.837,0.1367L6.789,0.152L6.745,0.1766L6.506,0.3102L6.463,0.334L6.426,0.3656L6.218,0.5426L6.181,0.5736L6.151,0.6109L5.98,0.8254L5.95,0.8627L5.928,0.9051L5.798,1.151L5.776,1.194L5.762,1.24L5.68,1.512L5.666,1.559L5.661,1.607L5.642,1.802L5.35,1.916L5.315,1.93L5.282,1.949L4.723,2.271L4.691,2.29L4.661,2.314L4.164,2.712L4.134,2.736L4.108,2.764L3.681,3.229L3.655,3.258L3.633,3.29L3.286,3.814L3.263,3.848L3.247,3.885L2.988,4.458L2.971,4.496L2.96,4.537L2.798,5.153L2.788,5.194L2.784,5.237L2.728,5.886L2.728,5.887L2.728,5.888L2.657,6.752L2.472,7.499L2.194,8.179L1.843,8.805L1.445,9.382L1.025,9.917L1.024,9.919L0.2174,10.9L0.1893,10.93L0.1674,10.97L0.06699,11.15L-0,11.27L0,11.45L0.02012,11.52L0.06484,11.69L0.1043,11.83L0.2176,11.93L0.3918,12.09L0.442,12.13L0.502,12.16L0.7895,12.3L0.8289,12.32L0.8709,12.33L1.722,12.58L1.747,12.58L1.773,12.59L2.886,12.79L2.9,12.79L2.913,12.79L4.161,12.94L4.17,12.94L4.179,12.94L5.433,13.05L5.444,13.05L5.455,13.05L6.031,13.07L5.956,12.83L5.84,12.18L5.833,12.06L5.507,12.05L4.27,11.95L3.05,11.8L1.972,11.61L1.19,11.38L1.134,11.36L1.796,10.55L1.8,10.55L1.804,10.54L2.24,9.988L2.25,9.976L2.259,9.963L2.68,9.353L2.693,9.334L2.704,9.313L3.081,8.641L3.096,8.614L3.107,8.586L3.412,7.844L3.425,7.81L3.434,7.774L3.637,6.954L3.647,6.915L3.65,6.875L3.724,5.972L3.724,5.97L3.776,5.365L3.917,4.831L4.142,4.333L4.445,3.876L4.819,3.468L5.257,3.118L5.749,2.834L6.326,2.609L6.669,2.475L6.643,2.107L6.632,1.954L6.652,1.753L6.705,1.574L6.79,1.413L6.902,1.274L7.037,1.159L7.189,1.074L7.356,1.021L7.537,1.002L7.718,1.021L7.885,1.074L8.038,1.159L8.173,1.273L8.285,1.413L8.37,1.574L8.423,1.753L8.443,1.949L8.425,2.153L8.393,2.512L8.723,2.655L9.269,2.893L9.735,3.182L10.15,3.532L10.5,3.934L10.78,4.381L11,4.866L11.13,5.383L11.16,5.817L11.5,5.8L12.17,5.839L12.12,5.259L12.12,5.218L12.11,5.178L11.95,4.581L11.94,4.541L11.93,4.504L11.69,3.946L11.67,3.91L11.65,3.877L11.32,3.365L11.3,3.332L11.28,3.304L10.88,2.845L10.85,2.817L10.82,2.793L10.35,2.396L10.33,2.372L10.29,2.353L9.767,2.025L9.736,2.005L9.702,1.991L9.44,1.877L9.414,1.606L9.409,1.558L9.395,1.511L9.313,1.239L9.299,1.193L9.277,1.15L9.147,0.9039L9.125,0.8617L9.095,0.8244L8.923,0.6102L8.893,0.5727L8.856,0.5418L8.648,0.365L8.611,0.3334L8.568,0.3096L8.329,0.1762L8.285,0.1518L8.237,0.1363L7.973,0.05215L7.924,0.03633L7.872,0.03105L7.588,0.001758L7.572,0L7.502,0zz" fill="#788494"/>
      <path d="M2.699,9.252L3.344,9.412L4.84,9.656L6.069,9.773L6.249,9.283L6.353,9.067L2.18,9.065zz" fill="#BBC1C9"/>
      <path d="M2.011,9.535L2.53,9.722L2.554,9.731L2.579,9.737L3.223,9.898L3.243,9.903L3.263,9.906L4.76,10.15L4.776,10.15L4.792,10.15L5.939,10.26L6.057,9.807L6.247,9.288L4.903,9.159L3.446,8.923L2.846,8.773L2.349,8.595zz" fill="#788494"/>
    </g>
    <g id="overlay">
      <path d="M11.5,7.5c-2.209,0,-4,1.791,-4,4c0,2.209,1.791,4,4,4s4,-1.791,4,-4C15.5,9.291,13.709,7.5,11.5,7.5zM14,12h-2v2h-1v-2H9v-1h2V9h1v2h2V12z" fill="#C0C5CC"/>
      <path d="M11.5,7.5c-2.209,0,-4,1.791,-4,4c0,2.209,1.791,4,4,4s4,-1.791,4,-4C15.5,9.291,13.709,7.5,11.5,7.5zM14,12h-2v2h-1v-2H9v-1h2V9h1v2h2V12z" fill="#434A55" opacity="0.2"/>
      <path d="M11.5,16c-2.481,0,-4.5,-2.019,-4.5,-4.5s2.019,-4.5,4.5,-4.5s4.5,2.019,4.5,4.5S13.981,16,11.5,16zM11.5,8c-1.93,0,-3.5,1.57,-3.5,3.5s1.57,3.5,3.5,3.5s3.5,-1.57,3.5,-3.5S13.43,8,11.5,8z" fill="#434A55"/>
      <polygon points="12,14 11,14 11,12 9,12 9,11 11,11 11,9 12,9 12,11 14,11 14,12 12,12" fill="#FFFFFE" stroke-linejoin="miter"/>
    </g>
  </g>
</svg>
