<?xml version="1.0" encoding="UTF-8"?>
<!DOCTYPE svg PUBLIC "-//W3C//DTD SVG 1.1//EN" "http://www.w3.org/Graphics/SVG/1.1/DTD/svg11.dtd">
<svg version="1.1" id="Layer_1" xmlns="http://www.w3.org/2000/svg" xmlns:xlink="http://www.w3.org/1999/xlink" x="0px" y="0px" width="16px" height="16px" viewBox="0 0 16 16" enable-background="new 0 0 16 16" xml:space="preserve">
  <g id="icon">
    <path d="M8.007,15.4c1.549,-0.464,2.863,-1.594,4.213,-3.446c0.966,-1.324,1.679,-3.364,2.008,-5.742c0.156,-1.129,0.28,-2.474,0.272,-3.159C11.906,2.898,9.288,1.6,8.007,0.7C6.727,1.6,4.094,2.898,1.5,3.053c-0.008,0.685,0.116,2.03,0.272,3.159c0.329,2.379,1.042,4.418,2.008,5.742C5.13,13.806,6.458,14.936,8.007,15.4z" fill="#F7DA8E" stroke="#E57428" stroke-width="1" stroke-linecap="round" stroke-miterlimit="10"/>
    <path d="M8,4.4v5.7M8,10.9v1.2" fill="none" stroke="#383838" stroke-width="1" stroke-miterlimit="10"/>
  </g>
</svg>
