<?xml version="1.0" encoding="UTF-8"?>
<!DOCTYPE svg PUBLIC "-//W3C//DTD SVG 1.1//EN" "http://www.w3.org/Graphics/SVG/1.1/DTD/svg11.dtd">
<svg version="1.1" id="Layer_1" xmlns="http://www.w3.org/2000/svg" xmlns:xlink="http://www.w3.org/1999/xlink" x="0px" y="0px" width="16px" height="16px" viewBox="0 0 16 16" enable-background="new 0 0 16 16" xml:space="preserve">
  <g id="icon">
    <path d="M9.5,10.793V2.084C9.5,1.244,8.85,0.528,8.015,0.5C7.142,0.47,6.5,1.173,6.5,2.043v8.787c-0.65,0.496,-1.06,1.293,-1.023,2.185c0.06,1.411,1.187,2.529,2.592,2.485c1.39,-0.043,2.455,-1.19,2.455,-2.598C10.525,12.033,10.152,11.265,9.5,10.793z" fill="#FEFEFF" stroke="#6A4905" stroke-width="1" stroke-miterlimit="10"/>
    <path d="M7.99,14.501c-0.812,0,-1.477,-0.671,-1.513,-1.528c-0.022,-0.526,0.213,-1.03,0.63,-1.347l0.394,-0.3V7h1v4.303l0.413,0.299c0.389,0.282,0.612,0.755,0.612,1.299c0,0.87,-0.653,1.573,-1.486,1.599C8.022,14.501,8.006,14.501,7.99,14.501C7.99,14.501,7.99,14.501,7.99,14.501z" fill="#E39B0A"/>
  </g>
</svg>
