<?xml version="1.0" encoding="UTF-8"?>
<!DOCTYPE svg PUBLIC "-//W3C//DTD SVG 1.1//EN" "http://www.w3.org/Graphics/SVG/1.1/DTD/svg11.dtd">
<svg version="1.1" id="Layer_1" xmlns="http://www.w3.org/2000/svg" xmlns:xlink="http://www.w3.org/1999/xlink" x="0px" y="0px" width="16px" height="16px" viewBox="0 0 16 16" enable-background="new 0 0 16 16" xml:space="preserve">
  <g id="main">
    <g id="icon">
      <path d="M4.699,0.5221L4.41,0.6061L4.152,0.7457L3.93,0.934L3.749,1.164L3.614,1.431L3.529,1.726L3.5,2.043L3.5,9.83L3.061,10.26L2.731,10.77L2.53,11.37L2.477,12.02L2.548,12.53L2.71,13L2.953,13.43L3.269,13.8L3.647,14.11L4.08,14.33L4.557,14.46L5.069,14.5L5.574,14.43L6.039,14.27L6.457,14.03L6.818,13.71L7.114,13.33L7.336,12.9L7.476,12.42L7.524,11.9L7.456,11.27L7.257,10.7L6.935,10.2L6.5,9.793L6.5,2.084L6.471,1.776L6.385,1.486L6.25,1.221L6.071,0.9875L5.852,0.792L5.599,0.6412L5.319,0.5416L5.015,0.5zz" fill="#FFFFFF"/>
      <path d="M4.98,0.001172L4.664,0.02324L4.611,0.02695L4.56,0.0418L4.271,0.126L4.219,0.1408L4.172,0.1662L3.914,0.3059L3.868,0.3307L3.828,0.3645L3.606,0.5529L3.568,0.5855L3.537,0.6252L3.356,0.8559L3.326,0.8943L3.303,0.9381L3.168,1.204L3.146,1.247L3.133,1.293L3.049,1.588L3.036,1.633L3.031,1.68L3.002,1.997L3,2.02L3,2.043L3,9.618L2.713,9.896L2.671,9.937L2.639,9.987L2.309,10.51L2.277,10.56L2.257,10.61L2.056,11.21L2.037,11.26L2.031,11.33L1.979,11.97L1.974,12.03L1.982,12.08L2.053,12.6L2.059,12.64L2.075,12.69L2.236,13.17L2.252,13.21L2.275,13.25L2.518,13.68L2.542,13.72L2.572,13.76L2.888,14.13L2.919,14.16L2.957,14.19L3.336,14.5L3.374,14.53L3.418,14.55L3.85,14.77L3.895,14.8L3.944,14.81L4.421,14.94L4.47,14.96L4.521,14.96L5.034,15L5.084,15L5.134,15L5.639,14.93L5.688,14.92L5.736,14.91L6.201,14.75L6.248,14.73L6.291,14.71L6.709,14.46L6.75,14.44L6.787,14.41L7.148,14.09L7.184,14.06L7.213,14.02L7.509,13.64L7.538,13.6L7.559,13.56L7.781,13.12L7.803,13.08L7.816,13.04L7.956,12.56L7.969,12.51L7.973,12.46L8.022,11.95L8.027,11.9L8.021,11.85L7.953,11.22L7.947,11.16L7.929,11.11L7.729,10.53L7.71,10.48L7.677,10.43L7.355,9.929L7.322,9.876L7.277,9.834L7,9.576L7,2.084L7,2.06L6.998,2.036L6.968,1.728L6.964,1.681L6.95,1.635L6.865,1.345L6.852,1.301L6.831,1.259L6.696,0.9939L6.675,0.9527L6.647,0.9162L6.467,0.6826L6.438,0.6457L6.404,0.6146L6.185,0.4191L6.149,0.3873L6.108,0.3627L5.856,0.2119L5.813,0.1865L5.766,0.1699L5.486,0.07031L5.437,0.05332L5.387,0.04629L5.083,0.004688L5.049,0L4.997,0zM5.199,1.03L5.386,1.096L5.554,1.197L5.703,1.329L5.826,1.489L5.919,1.672L5.977,1.871L6,2.107L6,9.793L6,10.01L6.159,10.16L6.548,10.52L6.804,10.92L6.965,11.38L7.021,11.9L6.982,12.32L6.869,12.71L6.69,13.06L6.452,13.37L6.163,13.62L5.83,13.82L5.459,13.94L5.054,14L4.644,13.97L4.265,13.86L3.92,13.68L3.618,13.44L3.364,13.14L3.168,12.8L3.037,12.41L2.98,12L3.023,11.47L3.185,10.99L3.451,10.57L3.848,10.19L4,10.04L4,9.83L4,2.066L4.023,1.819L4.081,1.615L4.173,1.435L4.292,1.282L4.436,1.16L4.601,1.071L4.788,1.017L4.999,1.002zz" fill="#383838"/>
      <path d="M4.501,10.33L4.107,10.63L3.829,10.9L3.627,11.22L3.507,11.59L3.477,11.97L3.519,12.28L3.614,12.57L3.757,12.83L3.943,13.06L4.164,13.24L4.416,13.38L4.693,13.47L4.99,13.5L5.04,13.5L5.343,13.46L5.624,13.36L5.876,13.21L6.095,13.02L6.275,12.78L6.411,12.51L6.496,12.22L6.526,11.9L6.485,11.51L6.366,11.15L6.174,10.85L5.914,10.6L5.501,10.3L5.501,6L4.501,6zz" fill="#238BCB"/>
    </g>
    <g id="overlay">
      <path d="M9.519,8.987c0.049,-0.254,0.191,-0.671,0.313,-0.896c0.43,-0.906,1.281,-1.591,2.677,-1.591c1.982,0,3.016,1.281,2.99,2.691c-0.026,1.384,-0.9,1.876,-1.682,2.29c-0.665,0.349,-1.329,0.734,-1.316,1.536V13.5" fill="none" stroke="#E29B0A" stroke-width="1" stroke-miterlimit="10"/>
      <rect x="11.8" y="14.5" width="1.4" height="1.5" fill="#E39B0A"/>
    </g>
  </g>
</svg>
