<?xml version="1.0" encoding="UTF-8"?>
<!DOCTYPE svg PUBLIC "-//W3C//DTD SVG 1.1//EN" "http://www.w3.org/Graphics/SVG/1.1/DTD/svg11.dtd">
<svg version="1.1" id="Layer_1" xmlns="http://www.w3.org/2000/svg" xmlns:xlink="http://www.w3.org/1999/xlink" x="0px" y="0px" width="16px" height="16px" viewBox="0 0 16 16" enable-background="new 0 0 16 16" xml:space="preserve">
  <g id="main">
    <g id="icon">
      <path d="M3.486,4.564L2.894,4.749L2.357,5.041L1.89,5.428L1.505,5.897L1.214,6.435L1.03,7.03L0.966,7.668L1.03,8.307L1.214,8.901L1.505,9.439L1.89,9.908L2.357,10.3L2.735,10.5L2.396,10.4L0.901,13.02L2.205,13.04L3.139,14L4.012,10.88L3.743,10.8L4.122,10.84L4.5,10.8L5.509,10.5L5.887,10.29L5.943,10.25L6.057,9.807L6.249,9.283L6.489,8.785L6.775,8.315L7.103,7.876L7.276,7.686L7.278,7.668L7.214,7.03L7.03,6.435L6.739,5.897L6.354,5.428L5.887,5.041L5.35,4.749L4.758,4.564L4.122,4.5zM5.509,10.5L5.35,10.59L4.758,10.77L4.5,10.8L4.231,10.88L5.104,14L6.024,13.05L5.956,12.83L5.84,12.18L5.8,11.5L5.829,10.92L5.896,10.49L5.847,10.4L5.509,10.5zz" fill="#FFFFFF"/>
      <path d="M4.072,4.003L3.436,4.067L3.385,4.072L3.337,4.087L2.745,4.272L2.698,4.286L2.654,4.31L2.118,4.602L2.076,4.625L2.038,4.656L1.571,5.043L1.535,5.074L1.504,5.111L1.119,5.579L1.088,5.617L1.065,5.659L0.7742,6.197L0.7508,6.24L0.7363,6.287L0.5525,6.882L0.5377,6.93L0.5326,6.98L0.4686,7.618L0.4635,7.668L0.4686,7.718L0.5326,8.356L0.5377,8.406L0.5523,8.454L0.7363,9.049L0.7508,9.096L0.7742,9.139L1.065,9.677L1.088,9.72L1.119,9.757L1.504,10.23L1.535,10.26L1.571,10.29L1.782,10.47L0.4666,12.78L0.04609,13.51L0.8953,13.52L1.991,13.54L2.78,14.35L3.621,14.13L4.121,12.34L4.622,14.13L5.463,14.35L6.203,13.59L6.145,13.45L5.956,12.83L5.905,12.54L5.823,12.54L5.678,12.69L5.351,13.03L4.858,11.26L4.859,11.26L4.907,11.25L5.499,11.06L5.546,11.05L5.59,11.03L5.619,11.01L5.808,11.34L5.829,10.92L5.916,10.35L6.057,9.807L6.249,9.283L6.29,9.198L5.998,9.553L5.605,9.879L5.316,10.04L4.404,10.3L4.122,10.33L3.839,10.3L2.928,10.04L2.639,9.879L2.246,9.554L1.922,9.159L1.677,8.707L1.522,8.206L1.469,7.668L1.522,7.13L1.677,6.631L1.922,6.177L2.246,5.783L2.639,5.457L3.089,5.212L3.587,5.057L4.122,5.003L4.657,5.057L5.154,5.212L5.605,5.457L5.998,5.783L6.322,6.177L6.567,6.63L6.721,7.13L6.775,7.668L6.721,8.206L6.598,8.607L6.775,8.315L7.103,7.876L7.471,7.471L7.737,7.23L7.711,6.98L7.706,6.93L7.692,6.882L7.508,6.287L7.493,6.24L7.47,6.197L7.179,5.659L7.156,5.617L7.125,5.579L6.74,5.111L6.71,5.074L6.673,5.043L6.205,4.656L6.168,4.625L6.126,4.602L5.59,4.31L5.546,4.286L5.499,4.272L4.907,4.087L4.859,4.072L4.808,4.067L4.172,4.003L4.122,3.997zM2.654,11.03L2.698,11.05L2.745,11.06L3.337,11.25L3.385,11.26L2.892,13.03L2.563,12.69L2.419,12.54L2.211,12.54L1.756,12.53L2.625,11.01zz" fill="#EE3D3B"/>
      <path d="M2.5,3.293L3.287,3.076L4.122,3L5.059,3.095L5.932,3.367L6.723,3.798L7.413,4.369L7.982,5.06L8.412,5.853L8.637,6.579L8.785,6.489L9.283,6.249L9.807,6.057L10.35,5.916L10.92,5.829L11.5,5.8L12.18,5.84L12.83,5.956L13.45,6.145L14.04,6.401L14.5,6.663L14.5,0.5L2.5,0.5zz" fill="#FFFFFF"/>
      <path d="M2,3.515L2.486,3.298L3,3.138L3,1.889L4.206,3.002L4.727,3.04L5.23,3.135L5.713,3.281L6.172,3.478L3.51,1L13.49,1L8.5,5.645L8.136,5.306L8.476,6.016L8.636,6.58L8.785,6.489L9.268,6.256L14,1.889L14,6.382L14.04,6.401L14.6,6.72L15,7.014L15,0L2,0zz" fill="#383838"/>
    </g>
    <g id="overlay">
      <path d="M11.5,7.5c-2.209,0,-4,1.791,-4,4c0,2.209,1.791,4,4,4s4,-1.791,4,-4C15.5,9.291,13.709,7.5,11.5,7.5zM12,14h-1v-1h1V14zM12,12.3h-1V9h1V12.3z" fill="#F7BFBF"/>
      <path d="M11.5,7.5c-2.209,0,-4,1.791,-4,4c0,2.209,1.791,4,4,4s4,-1.791,4,-4C15.5,9.291,13.709,7.5,11.5,7.5zM12,14h-1v-1h1V14zM12,12.3h-1V9h1V12.3z" fill="#DB2E2A" opacity="0.3"/>
      <path d="M11.5,16c-2.481,0,-4.5,-2.019,-4.5,-4.5s2.019,-4.5,4.5,-4.5s4.5,2.019,4.5,4.5S13.981,16,11.5,16zM11.5,8c-1.93,0,-3.5,1.57,-3.5,3.5s1.57,3.5,3.5,3.5s3.5,-1.57,3.5,-3.5S13.43,8,11.5,8z" fill="#DB2E2A"/>
      <path d="M12,14h-1v-1h1V14zM12,12.3h-1V9h1V12.3z" fill="#FFFFFF"/>
    </g>
  </g>
</svg>
