<?xml version="1.0" encoding="UTF-8"?>
<!DOCTYPE svg PUBLIC "-//W3C//DTD SVG 1.1//EN" "http://www.w3.org/Graphics/SVG/1.1/DTD/svg11.dtd">
<svg version="1.1" id="Layer_1" xmlns="http://www.w3.org/2000/svg" xmlns:xlink="http://www.w3.org/1999/xlink" x="0px" y="0px" width="16px" height="16px" viewBox="0 0 16 16" enable-background="new 0 0 16 16" xml:space="preserve">
  <g id="icon">
    <polygon points="11,2.5 11,11 2.5,11 2.5,13.281 4.764,15.5 15.5,15.5 15.5,2.5" fill="#DFBCD9" stroke-linejoin="miter"/>
    <polygon points="11,2 11,3 15,3 15,15 4.968,15 3,13.071 3,11 2,11 2,13.491 4.56,16 16,16 16,2" fill="#A0519F" stroke-linejoin="miter"/>
    <polygon points="11,10.5 11,11 6.5,11 6.5,15.5 11.5,15.5 11.5,10.5" fill="#FFFFFF" stroke-linejoin="miter"/>
    <polygon points="11,10 11,11 11,15 7,15 7,11 6,11 6,16 12,16 12,10" fill="#A0519F" stroke-linejoin="miter"/>
    <rect x="8" y="12" width="1" height="2" fill="#787979"/>
    <rect x="11" y="2.5" width="1.5" height="5" fill="#FFFFFF"/>
    <polygon points="11,2 11,3 12,3 12,7 11,7 11,8 13,8 13,2" fill="#A0519F" stroke-linejoin="miter"/>
    <rect x="0.5" y="0.5" width="9" height="9" fill="#FFFFFF" stroke="#21B4C9" stroke-width="1" stroke-miterlimit="10"/>
    <path d="M2,5.766c0,-0.567,0.333,-1.046,0.839,-1.209C2.95,3.677,3.634,3,4.463,3c0.67,0,1.246,0.443,1.5,1.078c0.182,-0.087,0.385,-0.135,0.597,-0.135c0.806,0,1.46,0.69,1.46,1.542c0,0.797,-0.413,1.435,-1.125,1.515h-0.193h-0.954h-0.325H3.745h-0.373C2.721,6.953,2,6.728,2,5.766zM6.121,4.978c0.02,-0.246,-0.081,-0.726,-0.168,-0.866" fill="#FFFFFF" stroke="#21B4C9" stroke-width="1" stroke-miterlimit="10"/>
  </g>
</svg>
