<?xml version="1.0" encoding="UTF-8"?>
<!DOCTYPE svg PUBLIC "-//W3C//DTD SVG 1.1//EN" "http://www.w3.org/Graphics/SVG/1.1/DTD/svg11.dtd">
<svg version="1.1" id="Layer_1" xmlns="http://www.w3.org/2000/svg" xmlns:xlink="http://www.w3.org/1999/xlink" x="0px" y="0px" width="16px" height="16px" viewBox="0 0 16 16" enable-background="new 0 0 16 16" xml:space="preserve">
  <g id="main">
    <g id="icon">
      <path d="M0.5,13.5L3.5,13.5L3.5,5.5L0.5,5.5zz" fill="#92CBEE"/>
      <path d="M0,5.5L0,13.5L0,14L0.5,14L3.5,14L4,14L4,13.5L4,5.5L4,5L3.5,5L0.5,5L0,5zM3,6L3,13L1,13L1,6zz" fill="#0964B0"/>
      <path d="M5.5,13.5L6.951,13.5L6.598,13.07L6.167,12.28L5.895,11.41L5.8,10.47L5.895,9.527L6.168,8.652L6.599,7.859L7.169,7.169L7.861,6.599L8.5,6.252L8.5,0.5L5.5,0.5zz" fill="#F7DA8E"/>
      <path d="M5,0.5L5,13.5L5,14L5.5,14L7.455,14L7.169,13.76L6.598,13.07L6.559,13L6,13L6,11.74L5.895,11.41L5.8,10.47L5.895,9.527L6,9.19L6,1L8,1L8,6.523L8.654,6.168L9,6.06L9,0.5L9,0L8.5,0L5.5,0L5,0zz" fill="#E57428"/>
      <path d="M10.5,5.804L11.41,5.896L12.28,6.168L13.08,6.599L13.5,6.948L13.5,3.5L10.5,3.5zz" fill="#F3B8B8"/>
      <path d="M10,3.5L10,5.848L10.47,5.801L11,5.855L11,4L13,4L13,6.557L13.08,6.599L13.77,7.169L14,7.45L14,3.5L14,3L13.5,3L10.5,3L10,3zz" fill="#E42D2C"/>
    </g>
    <g id="overlay">
      <path d="M7.503,10.466c0,-1.637,1.328,-2.964,2.966,-2.964s2.966,1.327,2.966,2.964s-1.328,2.964,-2.966,2.964S7.503,12.103,7.503,10.466zM12.585,12.585l3.06,3.06" fill="#FFFFFF"/>
      <path d="M12.537,13.247c-0.578,0.43,-1.294,0.685,-2.068,0.685c-1.912,0,-3.468,-1.555,-3.468,-3.466S8.556,7,10.468,7s3.468,1.555,3.468,3.466c0,0.776,-0.256,1.493,-0.688,2.071L16,15.289l-0.711,0.711L12.537,13.247zM8.005,10.466c0,1.357,1.105,2.461,2.463,2.461s2.463,-1.104,2.463,-2.461s-1.105,-2.461,-2.463,-2.461S8.005,9.109,8.005,10.466z" fill="#383838"/>
    </g>
  </g>
</svg>
