<?xml version="1.0" encoding="UTF-8"?>
<!DOCTYPE svg PUBLIC "-//W3C//DTD SVG 1.1//EN" "http://www.w3.org/Graphics/SVG/1.1/DTD/svg11.dtd">
<svg version="1.1" id="Layer_1" xmlns="http://www.w3.org/2000/svg" xmlns:xlink="http://www.w3.org/1999/xlink" x="0px" y="0px" width="16px" height="16px" viewBox="0 0 16 16" enable-background="new 0 0 16 16" xml:space="preserve">
  <g id="main">
    <g id="icon">
      <path d="M5.406,1.381L3.958,2.066L3.141,2.368L2.282,2.621L1.397,2.806L0.5,2.908L0.5686,4.234L0.751,5.873L1.044,7.482L1.457,8.938L1.981,10.21L2.281,10.77L2.604,11.26L3.538,12.44L4.486,13.37L4.971,13.74L5.468,14.05L5.979,14.3L6.506,14.5L7.033,14.3L7.542,14.05L8.036,13.74L8.519,13.37L9.462,12.44L9.952,11.82L8.795,10.07L7.621,9.84L7.851,8.662L8.029,8.012L8.315,7.324L8.641,6.755L9.033,6.253L9.487,5.821L9.996,5.461L10.56,5.176L11.17,4.969L11.82,4.843L12.37,4.809L12.43,4.235L12.5,2.908L11.6,2.806L10.72,2.621L9.863,2.368L9.049,2.066L7.605,1.381L6.507,0.7zz" fill="#FFFFFF"/>
      <path d="M6.244,0.2748L5.167,0.9406L3.766,1.604L2.984,1.893L2.162,2.135L1.317,2.312L0.4436,2.411L-0,2.462L0,2.922L0.0005859,2.934L0.06914,4.26L0.06992,4.275L0.07148,4.289L0.2541,5.928L0.2561,5.946L0.259,5.962L0.5516,7.571L0.5559,7.595L0.5625,7.619L0.9764,9.075L0.9842,9.103L0.9951,9.129L1.519,10.4L1.529,10.42L1.541,10.45L1.841,11L1.851,11.02L1.862,11.04L2.185,11.53L2.198,11.55L2.212,11.57L3.146,12.75L3.166,12.77L3.188,12.8L4.136,13.72L4.158,13.75L4.182,13.76L4.667,14.14L4.686,14.15L4.706,14.16L5.203,14.48L5.224,14.49L5.247,14.5L5.758,14.75L5.782,14.76L5.807,14.77L6.334,14.97L6.506,15.03L6.678,14.97L7.204,14.77L7.23,14.76L7.254,14.75L7.763,14.5L7.787,14.49L7.808,14.47L8.303,14.16L8.323,14.15L8.342,14.14L8.825,13.76L8.849,13.75L8.87,13.72L9.813,12.8L9.835,12.77L9.854,12.75L10.24,12.26L9.662,11.38L9.09,12.1L8.19,12.99L7.749,13.33L7.298,13.61L6.836,13.84L6.506,13.96L6.175,13.84L5.712,13.61L5.258,13.33L4.815,12.99L3.911,12.1L3.01,10.97L2.712,10.51L2.433,9.994L1.93,8.773L1.531,7.368L1.246,5.799L1.067,4.192L1.024,3.352L1.453,3.303L1.477,3.3L1.5,3.296L2.385,3.11L2.404,3.106L2.423,3.1L3.282,2.848L3.298,2.843L3.314,2.837L4.131,2.535L4.152,2.528L4.172,2.518L5.62,1.833L5.646,1.821L5.669,1.806L6.507,1.288L7.342,1.806L7.366,1.82L7.391,1.832L8.835,2.518L8.854,2.527L8.875,2.535L9.689,2.837L9.706,2.843L9.722,2.848L10.58,3.1L10.6,3.106L10.62,3.11L11.5,3.296L11.52,3.3L11.55,3.303L11.98,3.352L11.93,4.192L11.86,4.84L12.51,4.8L12.87,4.83L12.93,4.29L12.93,4.275L12.93,4.261L13,2.934L13.02,2.464L12.56,2.411L11.68,2.312L10.84,2.136L10.02,1.894L9.243,1.605L7.844,0.9404L6.77,0.275L6.507,0.1119zz" fill="#383838"/>
    </g>
    <g id="overlay">
      <path d="M9.519,8.987c0.049,-0.254,0.191,-0.671,0.313,-0.896c0.43,-0.906,1.281,-1.591,2.677,-1.591c1.982,0,3.016,1.281,2.99,2.691c-0.026,1.384,-0.9,1.876,-1.682,2.29c-0.665,0.349,-1.329,0.734,-1.316,1.536V13.5" fill="none" stroke="#228BCB" stroke-width="1" stroke-miterlimit="10"/>
      <rect x="11.8" y="14.5" width="1.4" height="1.5" fill="#238BCB"/>
    </g>
  </g>
</svg>
