<?xml version="1.0" encoding="UTF-8"?>
<!DOCTYPE svg PUBLIC "-//W3C//DTD SVG 1.1//EN" "http://www.w3.org/Graphics/SVG/1.1/DTD/svg11.dtd">
<svg version="1.1" id="Layer_1" xmlns="http://www.w3.org/2000/svg" xmlns:xlink="http://www.w3.org/1999/xlink" x="0px" y="0px" width="16px" height="16px" viewBox="0 0 16 16" enable-background="new 0 0 16 16" xml:space="preserve">
  <g id="main">
    <g id="icon">
      <path d="M5.853,0.5748L5.167,0.7896L4.546,1.129L4.005,1.579L3.559,2.125L3.222,2.751L3.009,3.443L2.935,4.186L3.009,4.929L3.222,5.621L3.559,6.247L4.005,6.793L4.546,7.243L5.167,7.582L5.853,7.797L6.589,7.872L7.325,7.797L8.011,7.582L8.632,7.243L9.173,6.793L9.619,6.247L9.956,5.621L10.17,4.929L10.24,4.186L10.17,3.443L9.956,2.751L9.619,2.125L9.173,1.579L8.632,1.129L8.011,0.7896L7.325,0.5748L6.589,0.5zM6.006,7.939L5.412,8.057L4.835,8.248L4.279,8.507L3.747,8.828L3.243,9.207L2.77,9.637L2.331,10.11L1.931,10.63L1.572,11.19L1.26,11.78L0.9955,12.39L0.7842,13.02L0.6287,13.67L0.5328,14.33L0.5,15L6.267,15L9.596,8.926L9.468,8.828L8.939,8.507L8.386,8.248L7.812,8.057L7.22,7.939L6.613,7.898zz" fill="#92CBEE"/>
      <path d="M6.538,0.002539L5.802,0.07734L5.752,0.08262L5.703,0.09766L5.017,0.3125L4.97,0.3273L4.927,0.351L4.306,0.6908L4.263,0.7141L4.226,0.7451L3.685,1.195L3.649,1.226L3.618,1.263L3.172,1.808L3.142,1.846L3.119,1.888L2.782,2.514L2.759,2.557L2.744,2.604L2.531,3.296L2.517,3.344L2.512,3.393L2.438,4.136L2.432,4.186L2.438,4.236L2.512,4.979L2.517,5.028L2.531,5.076L2.744,5.768L2.759,5.815L2.782,5.858L3.119,6.484L3.142,6.526L3.172,6.563L3.618,7.109L3.649,7.146L3.685,7.177L4.226,7.627L4.263,7.658L4.306,7.681L4.565,7.823L4.068,8.054L4.044,8.065L4.021,8.079L3.489,8.4L3.467,8.413L3.447,8.428L2.943,8.807L2.924,8.821L2.906,8.837L2.433,9.267L2.416,9.282L2.401,9.299L1.963,9.776L1.948,9.792L1.935,9.809L1.535,10.33L1.522,10.34L1.511,10.36L1.152,10.92L1.141,10.94L1.131,10.95L0.8184,11.54L0.8086,11.56L0.8004,11.58L0.5363,12.19L0.5279,12.21L0.5213,12.23L0.3098,12.86L0.3029,12.89L0.2979,12.91L0.1424,13.56L0.1371,13.58L0.1338,13.6L0.03789,14.26L0.03457,14.29L0.0334,14.31L0.0005859,14.98L-0,14.99L0,15.5L0.5,15.5L5.993,15.5L6.541,14.5L1.025,14.5L1.031,14.38L1.12,13.77L1.265,13.16L1.463,12.57L1.71,11.99L2.003,11.44L2.339,10.92L2.713,10.44L3.123,9.992L3.561,9.593L4.027,9.244L4.515,8.949L5.02,8.714L5.541,8.541L6.071,8.435L6.613,8.399L7.154,8.435L7.683,8.541L8.2,8.714L8.704,8.949L9.187,9.243L9.354,9.369L9.839,8.483L9.769,8.429L9.749,8.414L9.727,8.401L9.199,8.08L9.176,8.066L9.151,8.054L8.633,7.812L8.872,7.681L8.915,7.658L8.952,7.627L9.493,7.177L9.529,7.146L9.56,7.109L10.01,6.563L10.04,6.526L10.06,6.484L10.4,5.858L10.42,5.815L10.43,5.768L10.65,5.076L10.66,5.028L10.67,4.979L10.74,4.236L10.75,4.186L10.74,4.136L10.67,3.393L10.66,3.344L10.65,3.296L10.43,2.604L10.42,2.557L10.4,2.514L10.06,1.888L10.04,1.846L10.01,1.808L9.56,1.263L9.529,1.226L9.493,1.195L8.952,0.7451L8.915,0.7141L8.872,0.6908L8.251,0.351L8.208,0.3273L8.161,0.3125L7.475,0.09766L7.426,0.08262L7.376,0.07734L6.64,0.002539L6.614,0L6.564,0zM7.225,1.067L7.815,1.252L8.35,1.545L8.816,1.933L9.202,2.405L9.492,2.945L9.676,3.543L9.741,4.186L9.676,4.829L9.492,5.428L9.202,5.967L8.816,6.439L8.35,6.827L7.814,7.12L7.225,7.305L6.589,7.37L5.954,7.305L5.364,7.12L4.828,6.827L4.362,6.439L3.977,5.968L3.686,5.427L3.502,4.83L3.438,4.186L3.502,3.542L3.686,2.945L3.977,2.404L4.362,1.933L4.828,1.545L5.363,1.252L5.954,1.067L6.589,1.003zz" fill="#0964B0"/>
    </g>
    <g id="overlay">
      <path d="M11.438,8.95l3.763,6.6H7.775L11.438,8.95z" fill="#F7DA8E" stroke="#E57428" stroke-width="0.9" stroke-linecap="round" stroke-miterlimit="10"/>
      <path d="M11.5,11.5v2M11.5,14v0.7" fill="#FFFFFF" stroke="#383838" stroke-width="1" stroke-miterlimit="10"/>
    </g>
  </g>
</svg>
