<?xml version="1.0" encoding="UTF-8"?>
<!DOCTYPE svg PUBLIC "-//W3C//DTD SVG 1.1//EN" "http://www.w3.org/Graphics/SVG/1.1/DTD/svg11.dtd">
<svg version="1.1" id="Layer_1" xmlns="http://www.w3.org/2000/svg" xmlns:xlink="http://www.w3.org/1999/xlink" x="0px" y="0px" width="16px" height="16px" viewBox="0 0 16 16" enable-background="new 0 0 16 16" xml:space="preserve">
  <g id="main">
    <g id="icon">
      <path d="M5.853,0.5748L5.167,0.7896L4.546,1.129L4.005,1.579L3.559,2.125L3.222,2.751L3.009,3.443L2.935,4.186L3.009,4.929L3.222,5.621L3.559,6.247L4.005,6.793L4.546,7.243L5.167,7.582L5.853,7.797L6.589,7.872L7.16,7.814L7.471,7.471L7.876,7.103L8.315,6.775L8.785,6.489L9.283,6.249L9.7,6.096L9.956,5.621L10.17,4.929L10.24,4.186L10.17,3.443L9.956,2.751L9.619,2.125L9.173,1.579L8.632,1.129L8.011,0.7896L7.325,0.5748L6.589,0.5zM6.006,7.939L5.412,8.057L4.835,8.248L4.279,8.507L3.747,8.828L3.243,9.207L2.77,9.637L2.331,10.11L1.931,10.63L1.572,11.19L1.26,11.78L0.9955,12.39L0.7842,13.02L0.6287,13.67L0.5328,14.33L0.5,15L7.014,15L6.72,14.6L6.401,14.04L6.145,13.45L5.956,12.83L5.84,12.18L5.8,11.5L5.829,10.92L5.916,10.35L6.057,9.807L6.249,9.283L6.489,8.785L6.775,8.315L7.064,7.928L6.613,7.898zz" fill="#92CBEE"/>
      <path d="M6.538,0.002539L5.802,0.07734L5.752,0.08262L5.703,0.09766L5.017,0.3125L4.97,0.3273L4.927,0.351L4.306,0.6908L4.263,0.7141L4.226,0.7451L3.685,1.195L3.649,1.226L3.618,1.263L3.172,1.808L3.142,1.846L3.119,1.888L2.782,2.514L2.759,2.557L2.744,2.604L2.531,3.296L2.517,3.344L2.512,3.393L2.438,4.136L2.432,4.186L2.438,4.236L2.512,4.979L2.517,5.028L2.531,5.076L2.744,5.768L2.759,5.815L2.782,5.858L3.119,6.484L3.142,6.526L3.172,6.563L3.618,7.109L3.649,7.146L3.685,7.177L4.226,7.627L4.263,7.658L4.306,7.681L4.565,7.823L4.068,8.054L4.044,8.065L4.021,8.079L3.489,8.4L3.467,8.413L3.447,8.428L2.943,8.807L2.924,8.821L2.906,8.837L2.433,9.267L2.416,9.282L2.401,9.299L1.963,9.776L1.948,9.792L1.935,9.809L1.535,10.33L1.522,10.34L1.511,10.36L1.152,10.92L1.141,10.94L1.131,10.95L0.8184,11.54L0.8086,11.56L0.8004,11.58L0.5363,12.19L0.5279,12.21L0.5213,12.23L0.3098,12.86L0.3029,12.89L0.2979,12.91L0.1424,13.56L0.1371,13.58L0.1338,13.6L0.03789,14.26L0.03457,14.29L0.0334,14.31L0.0005859,14.98L-0,14.99L0,15.5L0.5,15.5L7.453,15.5L7.097,15.11L6.72,14.6L6.663,14.5L1.025,14.5L1.031,14.38L1.12,13.77L1.265,13.16L1.463,12.57L1.71,11.99L2.003,11.44L2.339,10.92L2.713,10.44L3.123,9.992L3.561,9.593L4.027,9.244L4.515,8.949L5.02,8.714L5.541,8.541L6.071,8.435L6.613,8.399L6.72,8.406L6.775,8.315L7.103,7.876L7.471,7.471L7.876,7.103L7.962,7.039L7.814,7.12L7.225,7.305L6.589,7.37L5.954,7.305L5.364,7.12L4.828,6.827L4.362,6.439L3.977,5.968L3.686,5.427L3.502,4.83L3.438,4.186L3.502,3.542L3.686,2.945L3.977,2.404L4.362,1.933L4.828,1.545L5.363,1.252L5.954,1.067L6.589,1.003L7.225,1.067L7.815,1.252L8.35,1.545L8.816,1.933L9.202,2.405L9.492,2.945L9.676,3.543L9.741,4.186L9.676,4.829L9.492,5.428L9.202,5.967L8.816,6.439L8.676,6.556L8.785,6.489L9.283,6.249L9.807,6.057L10.35,5.916L10.37,5.914L10.4,5.858L10.42,5.815L10.43,5.768L10.65,5.076L10.66,5.028L10.67,4.979L10.74,4.236L10.75,4.186L10.74,4.136L10.67,3.393L10.66,3.344L10.65,3.296L10.43,2.604L10.42,2.557L10.4,2.514L10.06,1.888L10.04,1.846L10.01,1.808L9.56,1.263L9.529,1.226L9.493,1.195L8.952,0.7451L8.915,0.7141L8.872,0.6908L8.251,0.351L8.208,0.3273L8.161,0.3125L7.475,0.09766L7.426,0.08262L7.376,0.07734L6.64,0.002539L6.614,0L6.564,0zz" fill="#0964B0"/>
    </g>
    <g id="overlay">
      <path d="M11.5,7.5c-2.209,0,-4,1.791,-4,4c0,2.209,1.791,4,4,4s4,-1.791,4,-4C15.5,9.291,13.709,7.5,11.5,7.5zM10.714,14.007l-2.01,-2.01l0.707,-0.707l1.303,1.303l2.932,-2.932l0.707,0.707L10.714,14.007z" fill="#B2DBB4"/>
      <path d="M11.5,7.5c-2.209,0,-4,1.791,-4,4c0,2.209,1.791,4,4,4s4,-1.791,4,-4C15.5,9.291,13.709,7.5,11.5,7.5zM10.714,14.007l-2.01,-2.01l0.707,-0.707l1.303,1.303l2.932,-2.932l0.707,0.707L10.714,14.007z" fill="#009949" opacity="0.2"/>
      <path d="M11.5,16c-2.481,0,-4.5,-2.019,-4.5,-4.5s2.019,-4.5,4.5,-4.5s4.5,2.019,4.5,4.5S13.981,16,11.5,16zM11.5,8c-1.93,0,-3.5,1.57,-3.5,3.5s1.57,3.5,3.5,3.5s3.5,-1.57,3.5,-3.5S13.43,8,11.5,8z" fill="#009949"/>
      <polygon points="10.714,14.007 8.704,11.997 9.411,11.29 10.714,12.593 13.646,9.661 14.353,10.368" fill="#FFFFFF" stroke-linejoin="miter"/>
    </g>
  </g>
</svg>
