<?xml version="1.0" encoding="UTF-8"?>
<!DOCTYPE svg PUBLIC "-//W3C//DTD SVG 1.1//EN" "http://www.w3.org/Graphics/SVG/1.1/DTD/svg11.dtd">
<svg version="1.1" id="Layer_1" xmlns="http://www.w3.org/2000/svg" xmlns:xlink="http://www.w3.org/1999/xlink" x="0px" y="0px" width="16px" height="16px" viewBox="0 0 16 16" enable-background="new 0 0 16 16" xml:space="preserve">
  <g id="icon">
    <path d="M15,12h-1V9h1V12z" fill="#EEAC55"/>
    <path d="M15,8h-1V5h1V8z" fill="#CB525D"/>
    <path d="M15,4h-1V1h1V4z" fill="#52B250"/>
    <path d="M13,1v14H2V1H13z" fill="#FFFFFF" opacity="0.4"/>
    <path d="M14,16H1V0h13V16zM2,15h11V1H2V15z" fill="#6D6E71"/>
    <path d="M12.2509,11.1639c-0.241,-1.2628,-0.6698,-1.2839,-3.0143,-2.1434c-0.3423,-0.1335,-0.439,-0.3255,-0.4133,-0.5996c0.6613,-0.8206,1.0598,-2.1481,1.0598,-3.0762c0,-1.4372,-0.4724,-2.3476,-2.4076,-2.3476c-0.008,0,0.0026,0,0,0c-1.9352,0,-2.3687,0.9104,-2.3687,2.3476c0,0.928,0.3969,2.253,1.0582,3.0736c0.0256,0.2741,-0.0718,0.4674,-0.4141,0.6009c-2.3445,0.8595,-2.7736,0.8812,-3.0147,2.144c-0.0725,0.5076,-0.0845,0.7204,0.1084,1.2829c0.2172,0.6331,3.287,0.5503,4.6308,0.5503c0.0054,0,-0.0092,0,0,0c1.3438,0,4.4496,0.0831,4.6668,-0.55C12.3353,11.884,12.3234,11.6715,12.2509,11.1639z" fill="#6485C3"/>
  </g>
</svg>
