<?xml version="1.0" encoding="UTF-8"?>
<!DOCTYPE svg PUBLIC "-//W3C//DTD SVG 1.1//EN" "http://www.w3.org/Graphics/SVG/1.1/DTD/svg11.dtd">
<svg version="1.1" id="Layer_1" xmlns="http://www.w3.org/2000/svg" xmlns:xlink="http://www.w3.org/1999/xlink" x="0px" y="0px" width="16px" height="16px" viewBox="0 0 16 16" enable-background="new 0 0 16 16" xml:space="preserve">
  <g id="icon">
    <path d="M1.7896,4.2252C2.357,1.6199,4.6685,0,8,0s5.643,1.6199,6.2104,4.2252c-0.1918,-0.0366,-0.3877,-0.0559,-0.5854,-0.0559c-0.249,0,-0.4542,0.0316,-0.6277,0.0777C12.3813,2.0163,10.1291,1.1852,8,1.1852s-4.3813,0.8311,-4.9973,3.0619c-0.1735,-0.0462,-0.3787,-0.0777,-0.6277,-0.0777C2.1773,4.1693,1.9814,4.1886,1.7896,4.2252zM4.7,14.25c0,-0.2374,0.0409,-0.467,0.1158,-0.6852h-0.1371c-0.5641,0,-1.1908,-0.2439,-1.5458,-0.8635c-0.2302,0.0618,-0.4827,0.0966,-0.7579,0.0966c-0.1641,0,-0.3367,-0.0121,-0.5129,-0.0365c0.4677,1.3578,1.6761,1.9886,2.8166,1.9886h0.0821C4.7212,14.5882,4.7,14.4211,4.7,14.25z" fill="#6D6E71"/>
    <path d="M4,6.3361v4.2949c0,0.6792,-0.5582,1.3668,-1.625,1.3668c-0.9578,0,-2.375,-0.5403,-2.375,-1.7001V6.6694c0,-0.7351,0.6294,-1.3107,1.7724,-1.6207h0c0.1943,-0.0527,0.397,-0.0794,0.6025,-0.0794c0.4029,0,0.6108,0.1084,0.831,0.2231l0.023,0.012c0.018,0.0093,0.0353,0.0194,0.0523,0.0298C3.7388,5.4928,4,5.8939,4,6.3361zM14.2276,5.0487L14.2276,5.0487c-0.1943,-0.0527,-0.3971,-0.0794,-0.6026,-0.0794c-0.4029,0,-0.6108,0.1084,-0.8311,0.2232l-0.0227,0.0118c-0.0182,0.0095,-0.0355,0.0195,-0.0546,0.0313C12.2612,5.4928,12,5.8939,12,6.3361v4.2949c0,0.6792,0.5582,1.3668,1.625,1.3668c0.9578,0,2.375,-0.5403,2.375,-1.7001V6.6694C16,5.9343,15.3706,5.3587,14.2276,5.0487zM7.8333,12.5C6.5467,12.5,5.5,13.2851,5.5,14.25S6.5467,16,7.8333,16c1.2866,0,2.3333,-0.7851,2.3333,-1.75S9.1199,12.5,7.8333,12.5z" fill="#6485C3"/>
  </g>
</svg>
