<?xml version="1.0" encoding="UTF-8"?>
<!DOCTYPE svg PUBLIC "-//W3C//DTD SVG 1.1//EN" "http://www.w3.org/Graphics/SVG/1.1/DTD/svg11.dtd">
<svg version="1.1" id="Layer_1" xmlns="http://www.w3.org/2000/svg" xmlns:xlink="http://www.w3.org/1999/xlink" x="0px" y="0px" width="16px" height="16px" viewBox="0 0 16 16" enable-background="new 0 0 16 16" xml:space="preserve">
  <g id="main">
    <g id="icon">
      <path d="M3.5,3.5L0.5,3.5L0.5,10.5L3.5,10.5L3.5,13.5L6.166,13.5L6.145,13.45L5.956,12.83L5.84,12.18L5.8,11.5L5.829,10.92L5.916,10.35L6.057,9.807L6.249,9.283L6.489,8.785L6.775,8.315L7.103,7.876L7.471,7.471L7.876,7.103L8.315,6.775L8.785,6.489L9.283,6.249L9.807,6.057L10.35,5.916L10.92,5.829L11.5,5.8L12.18,5.84L12.83,5.956L13.45,6.145L13.5,6.166L13.5,3.5L10.5,3.5L10.5,0.5L3.5,0.5zz" fill="#FFFFFF" opacity="0.5"/>
      <path d="M0,11L3.6,11L3.6,10L1,10L1,4L13,4L13,6.008L13.45,6.145L14,6.382L14,3L0,3zz" fill="#6D6E71"/>
      <path d="M3,4L11,4L11,0L3,0zM10,1L10,3L4,3L4,1zM3,14L6.382,14L6.145,13.45L6.008,13L4,13L4,8L7.011,8L7.103,7.876L7.471,7.471L7.876,7.103L8.014,7L3,7zz" fill="#6D6E71"/>
      <path d="M5,10L6.007,10L6.057,9.807L6.249,9.283L6.385,9L5,9zM5,12L5.829,12L5.8,11.5L5.825,11L5,11zz" fill="#6485C3"/>
      <path d="M2,6L4,6L4,5L2,5zz" fill="#CB525D"/>
    </g>
    <g id="overlay">
      <ellipse cx="11.4956" cy="11.4907" rx="3.9334" ry="3.9289" fill="#FFFFFF" opacity="0.5"/>
      <path d="M11.5,15.9907c-2.4813,0,-4.5,-2.0167,-4.5,-4.4956s2.0187,-4.4956,4.5,-4.4956s4.5,2.0167,4.5,4.4956S13.9813,15.9907,11.5,15.9907zM11.5,8.2218c-1.8074,0,-3.2778,1.4684,-3.2778,3.2734S9.6926,14.7686,11.5,14.7686s3.2778,-1.4684,3.2778,-3.2734S13.3074,8.2218,11.5,8.2218z" fill="#6485C3"/>
      <path d="M11.232,15.5524c-1.0443,-0.588,-1.7458,-2.566,-1.7458,-4.0444c0,-1.4329,0.7276,-3.4586,1.7716,-4.0743l0.1507,-0.0889l0.0767,0.1301l0.0768,-0.1301l0.1507,0.0889c1.0638,0.6273,1.8052,2.6507,1.8052,4.0743c0,1.4339,-0.7386,3.4476,-1.7985,4.0444l-0.1525,0.0858l-0.0912,-0.1621l-0.0913,0.1621L11.232,15.5524zM11.4866,8.3606c-0.6052,0.5896,-1.1226,2.0256,-1.1226,3.1474c0,1.1641,0.513,2.5982,1.1124,3.1421c0.6167,-0.5518,1.1637,-2.0138,1.1637,-3.1421C12.6401,10.3918,12.1083,8.9552,11.4866,8.3606z" fill="#6485C3"/>
      <path d="M7.8567,12.9045v-0.8449h7.2776v0.8449H7.8567zM7.8567,10.9303v-0.8448h7.2776v0.8448H7.8567z" fill="#6485C3"/>
    </g>
  </g>
</svg>
