<?xml version="1.0" encoding="UTF-8"?>
<!DOCTYPE svg PUBLIC "-//W3C//DTD SVG 1.1//EN" "http://www.w3.org/Graphics/SVG/1.1/DTD/svg11.dtd">
<svg version="1.1" id="Layer_1" xmlns="http://www.w3.org/2000/svg" xmlns:xlink="http://www.w3.org/1999/xlink" x="0px" y="0px" width="16px" height="16px" viewBox="0 0 16 16" enable-background="new 0 0 16 16" xml:space="preserve">
  <g id="main">
    <g id="icon">
      <path d="M0.5,12.5L7.204,12.5L11.83,7.905L11.82,7.895L13.37,6.377L13.5,6.265L13.5,1.5L0.5,1.5zz" fill="#FFFFFF" opacity="0.5"/>
      <path d="M0,13L6.948,13L7.076,12.76L7.149,12.63L7.109,12.59L7.707,12L1,12L1,2L13,2L13,6.736L13.37,6.377L13.66,6.129L13.99,5.948L14,5.945L14,1L0,1zM13.33,13L14,13L14,12.33zz" fill="#6D6E71"/>
      <path d="M10,5.5L12,5.5L12,3L10,3zz" fill="#CB525D"/>
      <path d="M3,8L9,8L9,7L3,7zM3,10L6,10L6,9L3,9zM7,10L9.721,10L10,9.723L10,9L7,9zz" fill="#6D6E71"/>
      <path d="M3,5L7,5L7,4L3,4zz" fill="#B7B7B7"/>
    </g>
    <g id="overlay">
      <path d="M7.4441,16c-0.0956,0,-0.1856,-0.0372,-0.2533,-0.1046l-0.0845,-0.0841c-0.1126,-0.112,-0.1384,-0.2814,-0.0643,-0.4217l1.0949,-2.0706c0.0622,-0.1177,0.1838,-0.1909,0.3173,-0.1909c0.0142,0,0.0284,0.0008,0.0426,0.0025l0.1046,0.0127l1.2774,1.2749l0.0052,0.1181c0.0062,0.1385,-0.0691,0.2696,-0.192,0.3338L7.6105,15.959C7.5591,15.9859,7.5016,16,7.4441,16zM8.8103,12.5957l4.3423,-4.3116l1.6055,1.6022l-4.3423,4.3117L8.8103,12.5957zM13.5267,7.9013l0.68,-0.6683c0.1551,-0.1543,0.3262,-0.233,0.5078,-0.233c0.1815,0,0.3528,0.0788,0.5091,0.2342l0.5485,0.5456c0.1469,0.1463,0.2279,0.3407,0.2279,0.5476c0,0.2069,-0.0809,0.4014,-0.2279,0.5476l-0.6358,0.6328L13.5267,7.9013z" fill="#6485C3"/>
    </g>
  </g>
</svg>
