<?xml version="1.0" encoding="UTF-8"?>
<!DOCTYPE svg PUBLIC "-//W3C//DTD SVG 1.1//EN" "http://www.w3.org/Graphics/SVG/1.1/DTD/svg11.dtd">
<svg version="1.1" id="Layer_1" xmlns="http://www.w3.org/2000/svg" xmlns:xlink="http://www.w3.org/1999/xlink" x="0px" y="0px" width="16px" height="16px" viewBox="0 0 16 16" enable-background="new 0 0 16 16" xml:space="preserve">
  <g id="icon">
    <path d="M2,5v10h12V5H2z" fill="#FFFFFF" opacity="0.4"/>
    <path d="M15,16H1V4.5h1v10.5h12V4.5h1V16z" fill="#6D6E71"/>
    <rect y="1" width="16" height="4" fill="#52B4C0"/>
    <path d="M7.7644,14.2c-1.1157,0,-2.1256,-0.3771,-2.8435,-1.0619c-0.7235,-0.6901,-1.1219,-1.6633,-1.1219,-2.7404c0,-1.2804,0.4632,-2.449,1.3043,-3.2905C5.9459,6.2643,7.1166,5.8,8.3998,5.8C10.7083,5.8,12.2,7.2256,12.2,9.4318c0,1.7966,-1.1009,2.9087,-2.1208,2.9087h-0.0467l-0.046,-0.0079c-0.2591,-0.0445,-0.6093,-0.1429,-0.8061,-0.3591c-0.0903,-0.0992,-0.1968,-0.2343,-0.2929,-0.4032c-0.423,0.3995,-0.9581,0.685,-1.5558,0.685c-0.9811,0,-1.6663,-0.6669,-1.6663,-1.6217c0,-1.6532,1.3639,-2.9981,3.0404,-2.9981c0.5045,0,0.8413,0.0859,1.035,0.158l0.5553,0.2067l-0.4616,1.968c-0.0249,0.1168,-0.0623,0.2399,-0.1111,0.3661c-0.0771,0.3999,0.0724,0.6935,0.2286,0.8804c0.0414,0.0163,0.1102,0.0357,0.1692,0.0489c0.4198,-0.0448,0.9939,-0.7487,0.9939,-1.8317c0,-1.6012,-1.015,-2.5571,-2.7151,-2.5571c-2.0371,0,-3.5157,1.4816,-3.5157,3.523c0,1.6314,1.1575,2.7276,2.8803,2.7276c0.6426,0,1.2178,-0.1117,1.6634,-0.323l0.4686,0.9693C9.3054,14.0518,8.5682,14.2,7.7644,14.2zM8.7057,8.7102c-1.0782,0,-1.9554,0.8628,-1.9554,1.9234c0,0.363,0.1956,0.547,0.5813,0.547c0.6617,0,1.3205,-0.8586,1.4417,-1.4374l0.0028,-0.0125l0.2358,-1.0052C8.9257,8.7163,8.8241,8.7102,8.7057,8.7102z" fill="#6485C3"/>
  </g>
</svg>
