<?xml version="1.0" encoding="UTF-8"?>
<!DOCTYPE svg PUBLIC "-//W3C//DTD SVG 1.1//EN" "http://www.w3.org/Graphics/SVG/1.1/DTD/svg11.dtd">
<svg version="1.1" id="Layer_1" xmlns="http://www.w3.org/2000/svg" xmlns:xlink="http://www.w3.org/1999/xlink" x="0px" y="0px" width="16px" height="16px" viewBox="0 0 16 16" enable-background="new 0 0 16 16" xml:space="preserve">
  <g id="main">
    <g id="icon">
      <path d="M6.86,0.03809L6.072,0.1482L5.318,0.3279L4.603,0.5744L3.927,0.885L3.295,1.256L2.708,1.686L2.171,2.17L1.687,2.707L1.257,3.292L0.8855,3.924L0.5748,4.599L0.3281,5.315L0.1482,6.068L0.03809,6.855L0.0007812,7.674L0.03164,8.338L0.1232,8.983L0.2742,9.604L0.483,10.2L0.7482,10.76L1.069,11.29L1.442,11.78L1.869,12.24L2.338,12.64L2.85,12.99L3.401,13.29L3.986,13.54L4.602,13.74L5.246,13.88L5.914,13.97L6.378,13.99L6.145,13.45L5.956,12.83L5.87,12.35L5.54,12.32L4.575,12.06L3.721,11.64L2.992,11.09L2.401,10.4L1.961,9.589L1.688,8.677L1.593,7.674L1.623,7.025L1.71,6.401L1.853,5.804L2.048,5.238L2.295,4.703L2.589,4.202L2.93,3.738L3.314,3.312L3.739,2.929L4.204,2.588L4.705,2.294L5.241,2.048L5.808,1.853L6.405,1.71L7.03,1.623L7.679,1.594L8.745,1.669L9.686,1.891L10.5,2.255L11.17,2.757L11.7,3.39L12.09,4.152L12.33,5.036L12.39,5.879L12.83,5.956L13.45,6.145L13.98,6.371L14,6.038L13.97,5.373L13.89,4.737L13.75,4.131L13.56,3.557L13.31,3.018L13.02,2.516L12.67,2.052L12.27,1.628L11.83,1.252L11.34,0.9244L10.82,0.6451L10.26,0.415L9.661,0.235L9.031,0.1053L8.37,0.02715L7.679,0.0007812zM7.684,3.135L7.185,3.21L6.241,3.5L5.386,3.958L4.641,4.565L4.026,5.3L3.562,6.143L3.268,7.074L3.192,7.567L3.166,8.073L3.217,8.632L3.364,9.139L3.601,9.588L3.92,9.971L4.314,10.28L4.774,10.51L5.295,10.66L5.862,10.71L5.916,10.35L6.057,9.807L6.249,9.283L6.376,9.019L6.242,9.067L5.868,9.114L5.393,9.046L5.045,8.845L4.831,8.519L4.758,8.073L4.828,7.395L5.029,6.762L5.346,6.19L5.767,5.691L6.276,5.279L6.86,4.967L7.506,4.771L8.198,4.702L8.866,4.746L8.434,6.587L8.398,6.724L8.785,6.489L9.283,6.249L9.807,6.057L10.22,5.95L10.75,3.683L9.907,3.369L9.246,3.195L8.773,3.133L8.198,3.109zz" fill="#6485C3"/>
    </g>
    <g id="overlay">
      <path d="M11.5,7c-2.4853,0,-4.5,2.0147,-4.5,4.5c0,2.4853,2.0147,4.5,4.5,4.5s4.5,-2.0147,4.5,-4.5C16,9.0147,13.9853,7,11.5,7zM14.6,12.2h-2.4v2.4h-1.4v-2.4H8.4v-1.4h2.4V8.4h1.4v2.4h2.4V12.2z" fill="#52B250"/>
      <polygon points="10.8,14.6 10.8,12.2 8.4,12.2 8.4,10.8 10.8,10.8 10.8,8.4 12.2,8.4 12.2,10.8 14.6,10.8 14.6,12.2 12.2,12.2 12.2,14.6" fill="#FFFFFF" stroke-linejoin="miter"/>
    </g>
  </g>
</svg>
