<?xml version="1.0" encoding="UTF-8"?>
<!DOCTYPE svg PUBLIC "-//W3C//DTD SVG 1.1//EN" "http://www.w3.org/Graphics/SVG/1.1/DTD/svg11.dtd">
<svg version="1.1" id="Layer_1" xmlns="http://www.w3.org/2000/svg" xmlns:xlink="http://www.w3.org/1999/xlink" x="0px" y="0px" width="16px" height="16px" viewBox="0 0 16 16" enable-background="new 0 0 16 16" xml:space="preserve">
  <g id="main">
    <g id="icon">
      <path d="M0.5,2.439L4.5,7.961L4.5,14.32L6.253,13.7L6.145,13.45L5.956,12.83L5.84,12.18L5.8,11.5L5.829,10.92L5.916,10.35L6.057,9.807L6.249,9.283L6.489,8.785L6.775,8.315L7.103,7.876L7.471,7.471L7.876,7.103L8.315,6.775L8.785,6.489L9.283,6.249L9.807,6.057L9.896,6.034L12.5,2.439L12.5,0.5L0.5,0.5zz" fill="#FFFFFF" opacity="0.5"/>
      <path d="M0,2.601L4,8.123L4,15.03L6.466,14.16L6.401,14.04L6.145,13.45L6.079,13.23L5,13.62L5,7.799L1,2.277L1,1L12,1L12,2.277L9.037,6.368L9.283,6.249L9.807,6.057L10.35,5.916L10.63,5.874L13,2.601L13,0L0,0zz" fill="#6D6E71"/>
    </g>
    <g id="overlay">
      <path d="M11.5,7c-2.4853,0,-4.5,2.0147,-4.5,4.5c0,2.4853,2.0147,4.5,4.5,4.5s4.5,-2.0147,4.5,-4.5C16,9.0147,13.9853,7,11.5,7zM14.6,12.2h-3.8886l1.5538,1.5931l-0.9262,0.9837L8.1228,11.5l3.2161,-3.2767l0.9262,0.9837L10.7114,10.8H14.6V12.2z" fill="#6485C3"/>
      <polygon points="11.3389,8.2233 12.2652,9.2069 10.7114,10.8 14.6,10.8 14.6,12.2 10.7114,12.2 12.2652,13.7931 11.3389,14.7767 8.1228,11.5" fill="#FFFFFF" stroke-linejoin="miter"/>
    </g>
  </g>
</svg>
