<?xml version="1.0" encoding="UTF-8"?>
<!DOCTYPE svg PUBLIC "-//W3C//DTD SVG 1.1//EN" "http://www.w3.org/Graphics/SVG/1.1/DTD/svg11.dtd">
<svg version="1.1" id="Layer_1" xmlns="http://www.w3.org/2000/svg" xmlns:xlink="http://www.w3.org/1999/xlink" x="0px" y="0px" width="16px" height="16px" viewBox="0 0 16 16" enable-background="new 0 0 16 16" xml:space="preserve">
  <g id="main">
    <g id="icon">
      <path d="M0.5,11.5L5.8,11.5L5.829,10.92L5.916,10.35L6.057,9.807L6.249,9.283L6.489,8.785L6.775,8.315L7.103,7.876L7.471,7.471L7.876,7.103L8.315,6.775L8.785,6.489L9.283,6.249L9.807,6.057L10.35,5.916L10.92,5.829L11.5,5.8L12.18,5.84L12.83,5.956L13.45,6.145L13.5,6.166L13.5,0.5L0.5,0.5zz" fill="#FFFFFF" opacity="0.5"/>
      <path d="M0,12L5.829,12L5.8,11.5L5.825,11L1,11L1,1L13,1L13,6.008L13.45,6.145L14,6.382L14,0L0,0zz" fill="#6D6E71"/>
      <path d="M9,4L12,4L12,3L9,3zM9,6L10.03,6L10.35,5.916L10.92,5.829L11.5,5.8L12,5.829L12,5L9,5zz" fill="#6D6E71"/>
      <path d="M5.428,2.034L4.987,2.132L4.642,2.291L4.383,2.508L4.2,2.778L4.083,3.099L4.02,3.467L4.001,3.878L4.04,4.444L4.163,5.013L4.38,5.562L4.7,6.067L4.778,6.281L4.722,6.504L4.551,6.71L4.279,6.869L3.659,7.163L3.162,7.502L2.775,7.871L2.485,8.256L2.277,8.642L2.139,9.015L2.017,9.663L2,9.873L2.034,9.962L2.126,10L6.007,10L6.057,9.807L6.249,9.283L6.489,8.785L6.775,8.315L7.103,7.876L7.471,7.471L7.876,7.103L8.005,7.007L7.712,6.869L7.439,6.71L7.267,6.504L7.211,6.281L7.289,6.067L7.611,5.562L7.829,5.013L7.952,4.444L7.991,3.878L7.972,3.467L7.909,3.099L7.791,2.778L7.607,2.508L7.348,2.291L7.001,2.132L6.558,2.034L6.008,2L5.977,2zz" fill="#6485C3"/>
    </g>
    <g id="overlay">
      <path d="M14.682,8.318c-1.7574,-1.7574,-4.6066,-1.7574,-6.364,0c-1.7574,1.7574,-1.7574,4.6066,0,6.364c1.7574,1.7574,4.6066,1.7574,6.364,0S16.4393,10.0754,14.682,8.318zM14.1163,13.3385l-0.7778,0.7778L11.5,12.2778l-1.8385,1.8385l-0.7778,-0.7778L10.7222,11.5L8.8837,9.6615l0.7778,-0.7778L11.5,10.7222l1.8385,-1.8385l0.7778,0.7778L12.2778,11.5L14.1163,13.3385z" fill="#CB525D"/>
      <polygon points="11.5,12.4192 9.6615,14.2577 8.7423,13.3385 10.5808,11.5 8.7423,9.6615 9.6615,8.7423 11.5,10.5808 13.3385,8.7423 14.2577,9.6615 12.4192,11.5 14.2577,13.3385 13.3385,14.2577" fill="#FFFFFF" stroke-linejoin="miter"/>
    </g>
  </g>
</svg>
