<?xml version="1.0" encoding="UTF-8"?>
<!DOCTYPE svg PUBLIC "-//W3C//DTD SVG 1.1//EN" "http://www.w3.org/Graphics/SVG/1.1/DTD/svg11.dtd">
<svg version="1.1" id="Layer_1" xmlns="http://www.w3.org/2000/svg" xmlns:xlink="http://www.w3.org/1999/xlink" x="0px" y="0px" width="16px" height="16px" viewBox="0 0 16 16" enable-background="new 0 0 16 16" xml:space="preserve">
  <g id="main">
    <g id="icon">
      <path d="M5.056,12.6L5.193,12.94L5.388,13.24L5.635,13.5L5.927,13.71L6.261,13.87L6.333,13.89L6.145,13.45L5.956,12.83L5.858,12.28L4.981,12.24zz" fill="#6E6F72"/>
      <path d="M6.905,0.03262L6.597,0.1262L6.316,0.2746L6.068,0.4715L5.86,0.7109L5.696,0.9865L5.585,1.292L5.531,1.622L4.959,1.893L4.443,2.235L3.991,2.642L3.607,3.106L3.299,3.618L3.071,4.171L2.93,4.757L2.882,5.369L2.836,6.018L2.708,6.616L2.513,7.169L2.264,7.68L1.665,8.591L1.026,9.38L0.5949,9.905L0.4494,10.13L0.4008,10.33L0.449,10.61L0.6494,10.88L1.122,11.15L2.019,11.41L3.492,11.65L5.528,11.84L5.821,11.85L5.8,11.5L5.829,10.92L5.916,10.35L6.057,9.807L6.144,9.57L5.026,9.475L3.642,9.276L3,9.138L2.441,8.972L2.925,8.237L3.945,8.466L5.133,8.632L6.283,8.732L6.516,8.741L6.775,8.315L7.103,7.876L7.471,7.471L7.876,7.103L8.315,6.775L8.785,6.489L9.283,6.249L9.807,6.057L10.35,5.916L10.92,5.829L11.48,5.801L11.43,5.369L11.38,4.784L11.25,4.219L11.04,3.682L10.75,3.182L10.39,2.725L9.962,2.318L9.479,1.971L8.941,1.689L8.898,1.348L8.793,1.03L8.633,0.7432L8.424,0.4934L8.173,0.2875L7.887,0.1322L7.572,0.03418L7.235,0zz" fill="#EEAD56"/>
      <path d="M2.44,8.972L3,9.138L3.642,9.276L5.026,9.475L6.144,9.57L6.249,9.283L6.489,8.785L6.516,8.741L6.283,8.732L5.132,8.632L3.945,8.466L2.925,8.237zz" fill="#FFFFFF" opacity="0.5"/>
    </g>
    <g id="overlay">
      <path d="M11.5,7c-2.4853,0,-4.5,2.0147,-4.5,4.5c0,2.4853,2.0147,4.5,4.5,4.5s4.5,-2.0147,4.5,-4.5C16,9.0147,13.9853,7,11.5,7zM14.6,12.2h-2.4v2.4h-1.4v-2.4H8.4v-1.4h2.4V8.4h1.4v2.4h2.4V12.2z" fill="#52B250"/>
      <polygon points="10.8,14.6 10.8,12.2 8.4,12.2 8.4,10.8 10.8,10.8 10.8,8.4 12.2,8.4 12.2,10.8 14.6,10.8 14.6,12.2 12.2,12.2 12.2,14.6" fill="#FFFFFF" stroke-linejoin="miter"/>
    </g>
  </g>
</svg>
