<?xml version="1.0" encoding="UTF-8"?>
<!DOCTYPE svg PUBLIC "-//W3C//DTD SVG 1.1//EN" "http://www.w3.org/Graphics/SVG/1.1/DTD/svg11.dtd">
<svg version="1.1" id="Layer_1" xmlns="http://www.w3.org/2000/svg" xmlns:xlink="http://www.w3.org/1999/xlink" x="0px" y="0px" width="16px" height="16px" viewBox="0 0 16 16" enable-background="new 0 0 16 16" xml:space="preserve">
  <g id="icon">
    <path d="M0,1v13h12.9433L16,11.2212V1H0zM10.7,11H3v-1h7.7V11zM13,9H3V8h10V9zM13,7H3V6h10V7zM13,5H3V4h10V5z" fill="#EEAC55"/>
    <path d="M10.7,11H3v-1h7.7V11zM13,9H3V8h10V9zM13,7H3V6h10V7zM13,5H3V4h10V5z" id="b" fill="#FFFFFF" opacity="0.5"/>
  </g>
</svg>
