<?xml version="1.0" encoding="UTF-8"?>
<!DOCTYPE svg PUBLIC "-//W3C//DTD SVG 1.1//EN" "http://www.w3.org/Graphics/SVG/1.1/DTD/svg11.dtd">
<svg version="1.1" id="Layer_1" xmlns="http://www.w3.org/2000/svg" xmlns:xlink="http://www.w3.org/1999/xlink" x="0px" y="0px" width="16px" height="16px" viewBox="0 0 16 16" enable-background="new 0 0 16 16" xml:space="preserve">
  <g id="main">
    <g id="icon">
      <path d="M4.699,0.5219L4.41,0.6061L4.152,0.7455L3.93,0.934L3.749,1.164L3.614,1.43L3.529,1.726L3.5,2.043L3.5,8.83L3.061,9.255L2.731,9.774L2.53,10.37L2.477,11.02L2.548,11.53L2.71,12.01L2.953,12.43L3.269,12.8L3.648,13.11L4.08,13.33L4.557,13.46L5.07,13.5L5.574,13.43L6.04,13.27L6.083,13.25L5.956,12.83L5.84,12.18L5.8,11.5L5.829,10.92L5.916,10.35L6.057,9.807L6.249,9.283L6.489,8.785L6.5,8.767L6.5,2.084L6.471,1.776L6.385,1.486L6.25,1.221L6.071,0.9875L5.852,0.792L5.599,0.641L5.319,0.5414L5.015,0.4996zz" fill="#FFFFFF" opacity="0.5"/>
      <path d="M4.639,0.0252L4.267,0.1254L3.925,0.2969L3.62,0.5367L3.357,0.852L3.162,1.217L3.041,1.618L3,2.043L3,8.596L2.547,9.107L2.218,9.699L2.025,10.35L1.978,11.04L2.061,11.65L2.25,12.21L2.533,12.71L2.9,13.15L3.34,13.51L3.842,13.77L4.395,13.94L4.989,14L5.085,14L5.685,13.92L6.24,13.73L6.26,13.72L6.145,13.45L5.956,12.83L5.943,12.75L5.828,12.82L5.456,12.95L5.054,13L4.646,12.97L4.265,12.86L3.919,12.69L3.615,12.45L3.361,12.15L3.165,11.8L3.034,11.41L2.977,10.99L3.017,10.49L3.174,10.01L3.439,9.583L3.803,9.228L4,9.078L4,2.043L4.082,1.607L4.315,1.256L4.611,1.064L4.962,0.9986L4.998,0.9992L5.388,1.095L5.706,1.331L5.921,1.673L6,2.084L6,9.048L6.207,9.198L6.264,9.252L6.489,8.785L6.775,8.315L7,8.014L7,2.084L6.96,1.677L6.845,1.294L6.663,0.9453L6.423,0.6383L6.131,0.382L5.797,0.1844L5.428,0.0543L5.033,0L5.029,0zz" fill="#6D6E71"/>
      <path d="M4.5,9.325L4.106,9.626L3.829,9.896L3.627,10.22L3.507,10.58L3.477,10.97L3.519,11.28L3.614,11.57L3.757,11.83L3.942,12.06L4.164,12.24L4.416,12.38L4.693,12.47L4.99,12.5L4.99,12.5L5.038,12.5L5.342,12.46L5.622,12.36L5.849,12.23L5.84,12.18L5.8,11.5L5.829,10.92L5.916,10.35L6.057,9.807L6.075,9.756L5.913,9.603L5.5,9.303L5.5,5L4.5,5zz" fill="#6485C3"/>
    </g>
    <g id="overlay">
      <path d="M11.5,7c-2.4853,0,-4.5,2.0147,-4.5,4.5c0,2.4853,2.0147,4.5,4.5,4.5s4.5,-2.0147,4.5,-4.5C16,9.0147,13.9853,7,11.5,7zM11.9837,14.7235h-1.02v-1.02h1.02V14.7235zM12.5935,11.4295c-0.3622,0.2088,-0.6138,0.6339,-0.6138,0.8853c0,0.0052,-0.0004,0.4642,-0.0012,0.488c-0.0011,0.0175,-0.003,0.0309,-0.0049,0.0408h-0.9921c-0.0091,-0.0367,-0.0178,-0.0835,-0.0178,-0.1055v-0.6928c0,-0.4888,0.4343,-0.9515,0.8136,-1.124c0.4189,-0.1904,0.6979,-0.4153,0.6979,-0.8943c0,-0.4177,-0.4804,-0.7841,-1.0281,-0.7841c-0.2481,0,-0.5179,0.0746,-0.6872,0.1901c-0.137,0.097,-0.2645,0.2184,-0.5754,0.6066l-0.7713,-0.5873c0.4802,-0.776,1.1581,-1.1375,2.1305,-1.1375c0.9643,0,1.9968,0.692,1.9968,1.7223C13.5405,10.8362,13.1116,11.1405,12.5935,11.4295z" fill="#6485C3"/>
      <path d="M10.9637,14.7235v-1.02h1.02v1.02H10.9637zM10.9815,12.8436c-0.0091,-0.0367,-0.0178,-0.0835,-0.0178,-0.1055v-0.6928c0,-0.4888,0.4343,-0.9515,0.8136,-1.124c0.4189,-0.1904,0.6979,-0.4153,0.6979,-0.8943c0,-0.4177,-0.4804,-0.7841,-1.0281,-0.7841c-0.2481,0,-0.5179,0.0746,-0.6872,0.1901c-0.137,0.097,-0.2645,0.2184,-0.5754,0.6066l-0.7713,-0.5873c0.4802,-0.776,1.1581,-1.1375,2.1305,-1.1375c0.9643,0,1.9968,0.692,1.9968,1.7223c0,0.799,-0.4289,1.1033,-0.9471,1.3923c-0.3622,0.2088,-0.6138,0.6339,-0.6138,0.8853c0,0.0052,-0.0004,0.4642,-0.0012,0.488c-0.0011,0.0175,-0.003,0.0309,-0.0049,0.0408H10.9815z" fill="#FFFFFF"/>
    </g>
  </g>
</svg>
