<?xml version="1.0" encoding="UTF-8"?>
<!DOCTYPE svg PUBLIC "-//W3C//DTD SVG 1.1//EN" "http://www.w3.org/Graphics/SVG/1.1/DTD/svg11.dtd">
<svg version="1.1" id="Layer_1" xmlns="http://www.w3.org/2000/svg" xmlns:xlink="http://www.w3.org/1999/xlink" x="0px" y="0px" width="16px" height="16px" viewBox="0 0 16 16" enable-background="new 0 0 16 16" xml:space="preserve">
  <g id="icon">
    <path d="M14.993,2.5114l-0.5496,-0.0332C11.9008,2.3246,9.4151,1,8.3473,0.2415L8.0071,0L7.667,0.2415C6.5996,0.9997,4.1115,2.3239,1.5566,2.4782l-0.5496,0.0332l-0.0066,0.5563c-0.0092,0.7801,0.1356,2.2245,0.274,3.2363c0.3374,2.4657,1.0786,4.5934,2.0872,5.9911c1.4476,2.0069,2.8698,3.1678,4.4759,3.6536L8.0071,16l0.1696,-0.0513c1.5936,-0.4819,3.0113,-1.6428,4.4616,-3.6535c1.0086,-1.3978,1.7499,-3.5254,2.0873,-5.9911c0.1385,-1.0119,0.2833,-2.4563,0.274,-3.2363L14.993,2.5114zM7.1815,11.467L4.005,8.2904l0.8485,-0.8485l2.328,2.328l4.4649,-4.4649l0.8485,0.8485L7.1815,11.467z" fill="#52B250"/>
    <polygon points="4.005,8.2904 4.8536,7.4419 7.1815,9.7699 11.6464,5.305 12.495,6.1536 7.1815,11.467" fill="#FFFFFF" stroke-linejoin="miter"/>
  </g>
</svg>
