<?xml version="1.0" encoding="UTF-8"?>
<!DOCTYPE svg PUBLIC "-//W3C//DTD SVG 1.1//EN" "http://www.w3.org/Graphics/SVG/1.1/DTD/svg11.dtd">
<svg version="1.1" id="Layer_1" xmlns="http://www.w3.org/2000/svg" xmlns:xlink="http://www.w3.org/1999/xlink" x="0px" y="0px" width="16px" height="16px" viewBox="0 0 16 16" enable-background="new 0 0 16 16" xml:space="preserve">
  <g id="main">
    <g id="icon">
      <path d="M1.5,3.756L2.032,3.46L2.607,3.24L3.218,3.103L3.857,3.055L4.728,3.143L5.54,3.396L6.276,3.796L6.917,4.325L7.446,4.966L7.846,5.701L8.098,6.513L8.186,7.385L8.125,8.116L7.946,8.808L7.661,9.451L7.279,10.03L7.458,10.35L8.314,9.49L9.324,10.5L11.62,10.5L13.5,8.662L13.5,0.5L1.5,0.5zz" fill="#FFFFFF" opacity="0.5"/>
      <path d="M1,4.136L1.476,3.771L2,3.474L2,1L13,1L13,9.15L14,8.173L14,0L1,0zM7.279,10.03L7.458,10.35L7.804,10L7.304,10zM9.824,11L11.11,11L12.13,10L8.824,10zz" fill="#6D6E71"/>
      <path d="M1.174,1.207L3.413,3.078L3.857,3.055L4.497,3.103L5.109,3.24L1.826,0.448zM7.591,5.197L7.813,5.628L7.987,6.086L13.83,1.207L13.17,0.448zz" fill="#6D6E71"/>
      <path d="M3.16,4.659L2.62,4.827L2.13,5.094L1.704,5.447L1.352,5.875L1.087,6.366L0.9189,6.909L0.8605,7.491L0.9189,8.074L1.087,8.617L1.352,9.108L1.704,9.536L2.13,9.889L2.474,10.08L2.165,9.985L0.8012,12.38L1.991,12.39L2.843,13.27L3.64,10.42L3.399,10.35L3.74,10.38L4.079,10.35L5.01,10.07L5.351,9.889L5.777,9.536L6.129,9.108L6.394,8.617L6.562,8.074L6.621,7.491L6.562,6.909L6.394,6.366L6.129,5.875L5.777,5.447L5.351,5.094L4.862,4.827L4.321,4.659L3.74,4.6zM5.01,10.07L4.862,10.16L4.321,10.32L4.079,10.35L3.839,10.42L4.636,13.27L5.318,12.57L5.278,12.53L6.411,11.39L5.314,9.985L5.01,10.07zz" fill="#FFFFFF" opacity="0.5"/>
      <path d="M3.178,4.269L2.557,4.462L1.994,4.769L1.504,5.174L1.099,5.666L0.7928,6.229L0.5994,6.852L0.532,7.52L0.6137,8.254L0.8467,8.932L1.213,9.534L1.695,10.04L0.1559,12.8L1.996,12.82L3.288,13.91L3.844,12L4.401,13.91L5.626,12.87L5.278,12.53L6.627,11.18L5.994,10.04L6.476,9.535L6.843,8.933L7.076,8.255L7.158,7.52L7.091,6.852L6.897,6.229L6.592,5.666L6.187,5.174L5.696,4.769L5.133,4.462L4.512,4.269L3.845,4.201zM4.293,5.334L4.711,5.464L5.089,5.67L5.418,5.943L5.69,6.273L5.896,6.652L6.026,7.071L6.071,7.52L6.026,7.97L5.896,8.388L5.69,8.767L5.418,9.098L5.089,9.371L4.711,9.577L4.293,9.707L3.845,9.752L3.397,9.707L2.979,9.577L2.601,9.371L2.272,9.098L2,8.767L1.794,8.388L1.664,7.97L1.619,7.52L1.664,7.071L1.794,6.652L2,6.273L2.272,5.943L2.601,5.67L2.979,5.464L3.397,5.334L3.845,5.288zM3.077,10.75L2.712,12L2.398,11.74L1.997,11.73L2.626,10.61zM5.691,11.73L5.29,11.74L4.977,12L4.612,10.75L5.063,10.61zz" fill="#CB525D"/>
    </g>
    <g id="overlay">
      <polygon points="6.9749,12.5259 8.314,11.1867 10.449,13.3218 14.6069,9.2577 15.946,10.5969 10.449,16" fill="#CB525D" stroke-linejoin="miter"/>
    </g>
  </g>
</svg>
