<?xml version="1.0" encoding="UTF-8"?>
<!DOCTYPE svg PUBLIC "-//W3C//DTD SVG 1.1//EN" "http://www.w3.org/Graphics/SVG/1.1/DTD/svg11.dtd">
<svg version="1.1" id="Layer_1" xmlns="http://www.w3.org/2000/svg" xmlns:xlink="http://www.w3.org/1999/xlink" x="0px" y="0px" width="16px" height="16px" viewBox="0 0 16 16" enable-background="new 0 0 16 16" xml:space="preserve">
  <g id="icon">
    <g>
      <path d="M3.7336,9.5271C4.0517,8.5082,4.6538,7.6347,5.4281,7H3v3h0.1442C3.3245,9.824,3.5215,9.6654,3.7336,9.5271z" fill="#FFFFFF" opacity="0.5"/>
      <path d="M8.433,5.9c0.2946,0,0.5862,0.0301,0.872,0.0856L9.4,0H1.8l-0.1,6.3h4.8615C7.1443,6.042,7.7778,5.9,8.433,5.9z" fill="#FFFFFF" opacity="0.5"/>
    </g>
    <path d="M8,1H3v1h5V1zM8,3H3v1h5V3z" fill="#CB525D"/>
    <path d="M3.7427,9.5H3.5V7.5h1.3994C4.3862,8.0584,3.985,8.7381,3.7427,9.5z" fill="#6D6E71"/>
    <path d="M9,5.9362V0.6875V0h2v6.673C10.3945,6.2806,9.7121,6.0255,9,5.9362zM2.1036,11L0,8.9315V0h2v0.6875V6h5.4869c-0.7557,0.1603,-1.4589,0.5083,-2.0588,1H3v3h0.1442c-0.2976,0.2905,-0.5492,0.6284,-0.7467,1H2.1036zM1.4,1H0.7v1h0.7V1z" fill="#6D6E71"/>
    <path d="M11.4526,9.7232c0.3844,-0.2207,0.8214,-0.3462,1.2853,-0.3462c1.5347,0,2.7789,1.3664,2.7789,3.0519s-1.2441,3.0519,-2.7789,3.0519H5.6498c-1.2233,0,-2.215,-1.0892,-2.215,-2.4327c0,-1.1257,0.6964,-2.0724,1.6417,-2.3499c0.2191,-1.7946,1.6179,-3.1789,3.3119,-3.1789C9.7594,7.5192,10.937,8.4261,11.4526,9.7232z" fill="#FFFFFF" opacity="0.5"/>
    <path d="M5.7458,16C4.2318,16,3,14.6596,3,13.0121c0,-1.1919,0.6724,-2.2911,1.6786,-2.7534C5.0761,8.3672,6.6469,7,8.433,7c1.327,0,2.5735,0.7573,3.2723,1.9823c0.3231,-0.1114,0.6576,-0.1678,0.9957,-0.1678c1.8191,0,3.2991,1.6117,3.2991,3.5928S14.52,16,12.7009,16H5.7458zM8.433,8.2236c-1.3493,0,-2.5024,1.106,-2.6822,2.5727c-0.0301,0.2451,-0.1936,0.4455,-0.4166,0.5106c-0.7004,0.2047,-1.1895,0.9058,-1.1895,1.7052c0,0.9728,0.7183,1.7643,1.6011,1.7643h6.9551c1.1879,0,2.1544,-1.0628,2.1544,-2.3691s-0.9665,-2.3692,-2.1544,-2.3692c-0.349,0,-0.6825,0.0895,-0.9913,0.2659c-0.0826,0.0473,-0.1759,0.0723,-0.2698,0.0723c-0.0649,0,-0.1288,-0.0117,-0.19,-0.0346c-0.151,-0.0568,-0.2736,-0.1796,-0.3364,-0.3369C10.4813,8.9228,9.5077,8.2236,8.433,8.2236z" fill="#6485C3"/>
  </g>
</svg>
