<?xml version="1.0" encoding="UTF-8"?>
<!DOCTYPE svg PUBLIC "-//W3C//DTD SVG 1.1//EN" "http://www.w3.org/Graphics/SVG/1.1/DTD/svg11.dtd">
<svg version="1.1" id="Layer_1" xmlns="http://www.w3.org/2000/svg" xmlns:xlink="http://www.w3.org/1999/xlink" x="0px" y="0px" width="16px" height="16px" viewBox="0 0 16 16" enable-background="new 0 0 16 16" xml:space="preserve">
  <g id="main">
    <g id="icon">
      <path d="M0,14L4,14L4,6L0,6zz" fill="#6485C3"/>
      <path d="M5,14L6.168,14L7.744,12.42L7.506,11.57L7.425,10.69L7.45,10.19L7.525,9.704L7.81,8.787L8.261,7.957L8.858,7.233L9,7.116L9,0L5,0zz" fill="#EEAC55"/>
      <path d="M10,6.409L10.41,6.185L11.33,5.899L11.81,5.825L12.31,5.8L12.86,5.83L13.38,5.918L13.89,6.061L14,6.106L14,3L10,3zz" fill="#CB525D"/>
    </g>
    <g id="overlay">
      <path d="M12.3274,13.6654c-1.6529,0,-2.9929,-1.3399,-2.9929,-2.9929s1.3399,-2.9929,2.9929,-2.9929s2.9929,1.3399,2.9929,2.9929S13.9803,13.6654,12.3274,13.6654z" fill="#FFFFFF" opacity="0.4"/>
      <path d="M8.235,15.9L7.1,14.765l2.1011,-2.1011c-0.3776,-0.5911,-0.5759,-1.2694,-0.5759,-1.9765C8.6252,8.6542,10.2794,7,12.3126,7S16,8.6542,16,10.6874s-1.6542,3.6874,-3.6874,3.6874c-0.7071,0,-1.3855,-0.1984,-1.9765,-0.5759L8.235,15.9zM9.8877,10.6874c0,1.3371,1.0878,2.4249,2.4249,2.4249c1.3371,0,2.4249,-1.0878,2.4249,-2.4249c0,-1.3371,-1.0878,-2.4249,-2.4249,-2.4249C10.9755,8.2625,9.8877,9.3503,9.8877,10.6874z" fill="#6485C3"/>
    </g>
  </g>
</svg>
