<?xml version="1.0" encoding="UTF-8"?>
<!DOCTYPE svg PUBLIC "-//W3C//DTD SVG 1.1//EN" "http://www.w3.org/Graphics/SVG/1.1/DTD/svg11.dtd">
<svg version="1.1" id="Layer_1" xmlns="http://www.w3.org/2000/svg" xmlns:xlink="http://www.w3.org/1999/xlink" x="0px" y="0px" width="16px" height="16px" viewBox="0 0 16 16" enable-background="new 0 0 16 16" xml:space="preserve">
  <g id="icon">
    <path d="M12.5167,14.3h-6.475C4.7484,14.3,3.7,13.2516,3.7,11.9583v-9.475C3.7,2.0507,4.0507,1.7,4.4833,1.7H10.25L13.3,4.8v8.7167C13.3,13.9493,12.9493,14.3,12.5167,14.3zM3.5,12.1071c-0.4852,0,-0.8785,0.4013,-0.8785,0.8964c0,0.4951,0.3933,0.8964,0.8785,0.8964s0.8785,-0.4013,0.8785,-0.8964C4.3785,12.5085,3.9852,12.1071,3.5,12.1071z" id="b" fill="#262626"/>
    <path d="M13.5607,4.3535l-2.9143,-2.9142C10.3651,1.158,9.9836,1,9.5858,1H5c-1.1046,0,-2,0.8954,-2,2v1.5c0,0.2761,0.2239,0.5,0.5,0.5h0c0.2761,0,0.5,-0.2239,0.5,-0.5V3c0,-0.5523,0.4477,-1,1,-1h4v2.5c0,0.8284,0.6716,1.5,1.5,1.5h2.5v7c0,0.5523,-0.4477,1,-1,1H8.5c-0.2761,0,-0.5,0.2239,-0.5,0.5l0,0c0,0.2761,0.2239,0.5,0.5,0.5h3.5c1.1046,0,2,-0.8954,2,-2V5.4141C14,5.0163,13.842,4.6348,13.5607,4.3535zM10.5,5c-0.2761,0,-0.5,-0.2239,-0.5,-0.5V2.2071L12.7929,5H10.5z" id="c1" fill="#d4d4d4"/>
    <path d="M5.95,9.9714H5.6v-1.861C5.6,6.9467,4.6579,6,3.5,6s-2.1,0.9467,-2.1,2.1104v1.861h-0.35c-0.5799,0,-1.05,0.4797,-1.05,1.0714v3.8857C0,15.5203,0.4701,16,1.05,16h4.9c0.5799,0,1.05,-0.4797,1.05,-1.0714v-3.8857C7,10.4511,6.5299,9.9714,5.95,9.9714zM3.5,13.9c-0.4852,0,-0.8785,-0.4013,-0.8785,-0.8964c0,-0.4951,0.3933,-0.8964,0.8785,-0.8964s0.8785,0.4013,0.8785,0.8964C4.3785,13.4987,3.9852,13.9,3.5,13.9zM2.3692,9.9714v-1.861c0,-0.6266,0.5073,-1.1364,1.1308,-1.1364s1.1308,0.5098,1.1308,1.1364v1.861H2.3692z" id="c2" fill="#d4d4d4"/>
  </g>
</svg>
