<?xml version="1.0" encoding="UTF-8"?>
<!DOCTYPE svg PUBLIC "-//W3C//DTD SVG 1.1//EN" "http://www.w3.org/Graphics/SVG/1.1/DTD/svg11.dtd">
<svg version="1.1" id="Layer_1" xmlns="http://www.w3.org/2000/svg" xmlns:xlink="http://www.w3.org/1999/xlink" x="0px" y="0px" width="16px" height="16px" viewBox="0 0 16 16" enable-background="new 0 0 16 16" xml:space="preserve">
  <g id="icon">
    <path d="M3.8718,9.6067C2.5088,9.6067,1.4,8.5165,1.4,7.1765c0,-1.34,1.1088,-2.4302,2.4718,-2.4302H4.27l0.058,-0.3254C4.6406,2.6665,6.1849,1.3933,8,1.3933s3.3594,1.2733,3.672,3.0275l0.058,0.3254h0.3982c1.3629,0,2.4718,1.0902,2.4718,2.4302c0,1.3401,-1.1088,2.4303,-2.4718,2.4303H3.8718z" id="b" fill="#262626"/>
    <path d="M10.8447,11.3322c-0.1904,0.1904,-0.499,0.1904,-0.6894,0L8.5,9.6769v4.7356c0,0.2761,-0.2239,0.5,-0.5,0.5s-0.5,-0.2239,-0.5,-0.5V9.6769l-1.6553,1.6553c-0.1904,0.1904,-0.499,0.1904,-0.6894,0c-0.1904,-0.1904,-0.1904,-0.499,0,-0.6894l2.5,-2.5c0.1904,-0.1904,0.499,-0.1904,0.6894,0l2.5,2.5C11.0351,10.8332,11.0351,11.1418,10.8447,11.3322z" id="c2" fill="#d4d4d4"/>
    <path d="M12.1282,4.383h-0.0957l-0.0059,-0.0333C11.6838,2.4088,9.9903,1,8,1c-1.9904,0,-3.6838,1.4088,-4.0267,3.3497l-0.0059,0.0333h-0.0957C2.3104,4.383,1.04,5.6429,1.04,7.1915c0,1.3135,0.9141,2.4186,2.1444,2.7239C3.497,9.993,3.8,9.757,3.8,9.4349v0c0,-0.2291,-0.1582,-0.4247,-0.3803,-0.4807c-0.7937,-0.2001,-1.3827,-0.9136,-1.3827,-1.7627c0,-1.004,0.8231,-1.8209,1.8349,-1.8209h0.5429c0.2661,0,0.4848,-0.2063,0.4979,-0.4695C4.9936,3.2674,6.3498,1.9876,8,1.9876s3.0064,1.2797,3.0875,2.9134c0.013,0.2633,0.2317,0.4695,0.4979,0.4695h0.5429c1.0118,0,1.8349,0.8168,1.8349,1.8209c0,0.8491,-0.5891,1.5626,-1.3827,1.7627c-0.2221,0.056,-0.3803,0.2516,-0.3803,0.4807v0c0,0.3221,0.303,0.5581,0.6156,0.4805C14.0459,9.6101,14.96,8.505,14.96,7.1915C14.96,5.6429,13.6896,4.383,12.1282,4.383z" id="c1" fill="#d4d4d4"/>
  </g>
</svg>
