<?xml version="1.0" encoding="UTF-8"?>
<!DOCTYPE svg PUBLIC "-//W3C//DTD SVG 1.1//EN" "http://www.w3.org/Graphics/SVG/1.1/DTD/svg11.dtd">
<svg version="1.1" id="Layer_1" xmlns="http://www.w3.org/2000/svg" xmlns:xlink="http://www.w3.org/1999/xlink" x="0px" y="0px" width="16px" height="16px" viewBox="0 0 16 16" enable-background="new 0 0 16 16" xml:space="preserve">
  <g id="icon">
    <path d="M3.8718,9.6067C2.5088,9.6067,1.4,8.5165,1.4,7.1765c0,-1.34,1.1088,-2.4302,2.4718,-2.4302H4.27l0.058,-0.3254C4.6406,2.6665,6.1849,1.3933,8,1.3933s3.3594,1.2733,3.672,3.0275l0.058,0.3254h0.3982c1.3629,0,2.4718,1.0902,2.4718,2.4302c0,1.3401,-1.1088,2.4303,-2.4718,2.4303H3.8718z" id="b" fill="#262626"/>
    <path d="M10.8447,11.5803c-0.1904,-0.1904,-0.499,-0.1904,-0.6894,0L8.5,13.2356V8.5c0,-0.2761,-0.2239,-0.5,-0.5,-0.5s-0.5,0.2239,-0.5,0.5v4.7355l-1.6553,-1.6553c-0.1904,-0.1904,-0.499,-0.1904,-0.6894,0c-0.1904,0.1904,-0.1904,0.499,0,0.6894l2.5,2.5c0.1904,0.1904,0.499,0.1904,0.6894,0l2.5,-2.5C11.0351,12.0793,11.0351,11.7707,10.8447,11.5803z" id="c2" fill="#d4d4d4"/>
    <path d="M12.1282,4.383h-0.0957l-0.0059,-0.0333C11.6838,2.4088,9.9903,1,8,1c-1.9904,0,-3.6838,1.4088,-4.0267,3.3497l-0.0059,0.0333h-0.0957C2.3104,4.383,1.04,5.6429,1.04,7.1915C1.04,8.7401,2.3104,10,3.8718,10h1.6344C5.7789,10,6,9.7789,6,9.5062v0c0,-0.2727,-0.2211,-0.4938,-0.4938,-0.4938H3.8718c-1.0118,0,-1.8349,-0.8168,-1.8349,-1.8209c0,-1.004,0.8231,-1.8209,1.8349,-1.8209h0.5429c0.2661,0,0.4848,-0.2063,0.4979,-0.4695C4.9936,3.2674,6.3498,1.9876,8,1.9876s3.0064,1.2797,3.0875,2.9134c0.013,0.2633,0.2317,0.4695,0.4979,0.4695h0.5429c1.0118,0,1.8349,0.8168,1.8349,1.8209c0,1.004,-0.8231,1.8209,-1.8349,1.8209h-1.6344c-0.2727,0,-0.4938,0.2211,-0.4938,0.4938v0c0,0.2727,0.2211,0.4938,0.4938,0.4938h1.6344c1.5614,0,2.8318,-1.2599,2.8318,-2.8085C14.96,5.6429,13.6896,4.383,12.1282,4.383z" fill="#d4d4d4"/>
  </g>
</svg>
