<?xml version="1.0" encoding="UTF-8"?>
<!DOCTYPE svg PUBLIC "-//W3C//DTD SVG 1.1//EN" "http://www.w3.org/Graphics/SVG/1.1/DTD/svg11.dtd">
<svg version="1.1" id="Layer_1" xmlns="http://www.w3.org/2000/svg" xmlns:xlink="http://www.w3.org/1999/xlink" x="0px" y="0px" width="16px" height="16px" viewBox="0 0 16 16" enable-background="new 0 0 16 16" xml:space="preserve">
  <g id="main">
    <g id="icon">
      <path d="M2.698,2.53L2.417,2.618L2.162,2.756L1.94,2.94L1.756,3.162L1.618,3.417L1.53,3.698L1.5,4L1.5,12L1.53,12.3L1.618,12.58L1.756,12.84L1.94,13.06L2.162,13.24L2.417,13.38L2.698,13.47L3,13.5L7.705,13.5L7.747,13.25L6.526,12.05L6.248,11.7L6.072,11.3L6.002,10.87L6.041,10.43L5.755,10.15L6.15,10.09L6.378,9.712L6.688,9.405L7.065,9.185L7.496,9.065L9.178,8.819L9.931,7.28L10.18,6.906L10.5,6.613L10.89,6.411L11.31,6.311L11.5,5.933L11.69,6.311L12.11,6.411L12.5,6.613L12.82,6.906L13.07,7.28L13.82,8.819L14.5,8.918L14.5,5L14.47,4.698L14.38,4.417L14.24,4.162L14.06,3.94L13.84,3.756L13.58,3.618L13.3,3.53L13,3.5L8,3.5L6.75,2.5L3,2.5zz" fill="#262626"/>
      <path d="M2.597,2.041L2.221,2.157L1.882,2.342L1.586,2.586L1.342,2.882L1.157,3.221L1.041,3.597L1,4L1,12L1.041,12.4L1.157,12.78L1.342,13.12L1.586,13.41L1.882,13.66L2.221,13.84L2.597,13.96L3,14L7.62,14L7.747,13.25L7.489,13L3,13L2.611,12.92L2.293,12.71L2.079,12.39L2,12L2,5.5L6.75,5.5L6.93,5.466L7.086,5.37L8.593,4L13,4L13.39,4.079L13.71,4.293L13.92,4.611L14,5L14,8.845L15,8.991L15,5L14.96,4.597L14.84,4.221L14.66,3.882L14.41,3.586L14.12,3.342L13.78,3.157L13.4,3.041L13,3L8.175,3L7.062,2.11L6.915,2.028L6.75,2L3,2zM6.575,3L7.443,3.695L6.557,4.5L2,4.5L2,4L2.079,3.611L2.293,3.293L2.611,3.079L3,3zz" fill="#d4d4d4"/>
    </g>
    <g id="overlay">
      <path d="M11.7806,14.0888l1.9489,1.0325l-0.3722,-2.187c-0.0336,-0.1971,0.0313,-0.3982,0.1734,-0.5378l1.5767,-1.5489l-2.179,-0.3191c-0.1964,-0.0288,-0.3661,-0.153,-0.454,-0.3324L11.5,8.2064l-0.9745,1.9898c-0.0878,0.1793,-0.2576,0.3036,-0.4539,0.3324l-2.179,0.3191l1.5767,1.5489c0.1421,0.1396,0.2069,0.3407,0.1734,0.5378l-0.3722,2.187l1.9489,-1.0325C11.3951,13.9957,11.6049,13.9957,11.7806,14.0888z" id="b" fill="#171717"/>
      <path d="M13.8186,16c-0.1209,0,-0.238,-0.0296,-0.3482,-0.088L11.5,14.8682L9.5296,15.912c-0.1102,0.0583,-0.2273,0.088,-0.3482,0.088c-0.2206,0,-0.4299,-0.099,-0.5741,-0.2714c-0.1431,-0.1711,-0.201,-0.3881,-0.163,-0.6112l0.3763,-2.2111l-1.5941,-1.5659c-0.2054,-0.2018,-0.278,-0.4979,-0.1893,-0.7728c0.0887,-0.2749,0.32,-0.4715,0.6039,-0.5131l2.2029,-0.3226l0.9852,-2.0117C10.9561,7.4611,11.2132,7.3,11.5,7.3c0.2868,0,0.5439,0.1611,0.6708,0.4202l0.9852,2.0117l2.203,0.3226c0.2839,0.0416,0.5152,0.2382,0.6039,0.5131c0.0886,0.2749,0.0161,0.571,-0.1894,0.7728l-1.594,1.5658l0.3763,2.2111c0.0379,0.2231,-0.0199,0.4401,-0.163,0.6112C14.2484,15.901,14.0392,16,13.8186,16zM11.5,13.8727c0.1208,0,0.2412,0.03,0.3481,0.0866l1.6886,0.8946l-0.3225,-1.8949c-0.0416,-0.2446,0.0388,-0.494,0.2152,-0.6673l1.3661,-1.3419l-1.8879,-0.2765c-0.2437,-0.0357,-0.4544,-0.1899,-0.5633,-0.4124L11.5,8.537l-0.8443,1.724c-0.109,0.2225,-0.3195,0.3766,-0.5632,0.4124l-1.8879,0.2765l1.3661,1.3419c0.1764,0.1732,0.2568,0.4227,0.2152,0.6673l-0.3225,1.8949l1.6886,-0.8946C11.2588,13.9027,11.3792,13.8727,11.5,13.8727z" fill="#fcd34d"/>
    </g>
  </g>
</svg>
