<?xml version="1.0" encoding="UTF-8"?>
<!DOCTYPE svg PUBLIC "-//W3C//DTD SVG 1.1//EN" "http://www.w3.org/Graphics/SVG/1.1/DTD/svg11.dtd">
<svg version="1.1" id="Layer_1" xmlns="http://www.w3.org/2000/svg" xmlns:xlink="http://www.w3.org/1999/xlink" x="0px" y="0px" width="16px" height="16px" viewBox="0 0 16 16" enable-background="new 0 0 16 16" xml:space="preserve">
  <g id="icon">
    <path d="M13.5,2.5H2.5c-0.5523,0,-1,0.4477,-1,1v1c0,0.5523,0.4477,1,1,1v7c0,1.1046,0.8954,2,2,2h7c1.1046,0,2,-0.8954,2,-2V5.5c0.5523,0,1,-0.4477,1,-1V3.5C14.5,2.9477,14.0523,2.5,13.5,2.5z" id="b" fill="#262626"/>
    <path d="M13.5,6H2.5c-0.8271,0,-1.5,-0.6729,-1.5,-1.5V3.5c0,-0.8271,0.6729,-1.5,1.5,-1.5h11c0.8271,0,1.5,0.6729,1.5,1.5v1C15,5.3271,14.3271,6,13.5,6zM2.5,3c-0.2757,0,-0.5,0.2243,-0.5,0.5v1c0,0.2757,0.2243,0.5,0.5,0.5h11c0.2757,0,0.5,-0.2243,0.5,-0.5V3.5c0,-0.2757,-0.2243,-0.5,-0.5,-0.5H2.5z" id="c1" fill="#d4d4d4"/>
    <path d="M11.5,15H4.5c-1.3785,0,-2.5,-1.1215,-2.5,-2.5V5h12v7.5C14,13.8785,12.8785,15,11.5,15zM3,6v6.5c0,0.8271,0.6729,1.5,1.5,1.5h7c0.8271,0,1.5,-0.6729,1.5,-1.5V6H3z" id="c1" fill="#d4d4d4"/>
    <path d="M8.0437,13.3917c-1.8564,0,-3.3972,-1.4804,-3.4347,-3.3c-0.0188,-0.9143,0.3229,-1.7771,0.9621,-2.4296C6.2104,7.0094,7.0657,6.65,7.9792,6.65c0.0235,0,0.0472,0.0003,0.0707,0.0007C9.8696,6.6882,11.35,8.229,11.35,10.0854v0.4147c-0.0582,0.7053,-0.63,1.2579,-1.3021,1.2622c-0.0332,0.0047,-0.0733,0.0074,-0.1131,0.0074c-0.302,0,-0.6171,-0.1433,-0.8331,-0.3765c-0.3351,0.235,-0.7417,0.3691,-1.1227,0.3691c-0.9439,0,-1.7414,-0.7975,-1.7414,-1.7414s0.7975,-1.7415,1.7414,-1.7415c0.117,0,0.2354,0.0121,0.3516,0.036c0.8053,0.1658,1.3898,0.9033,1.3898,1.7537v0.431c0,0.1522,0.1671,0.3193,0.3193,0.3193s0.3193,-0.1671,0.3193,-0.3193v-0.4197c0,-1.2249,-0.8898,-2.2649,-2.0699,-2.4192c-0.1026,-0.0135,-0.207,-0.0203,-0.3102,-0.0203c-0.6792,0,-1.3303,0.298,-1.7864,0.8176c-0.4526,0.5157,-0.6615,1.1982,-0.5734,1.8726c0.1544,1.18,1.1945,2.0699,2.4193,2.0699h0.2865c0.2731,0,0.4954,0.2222,0.4954,0.4954c0,0.2731,-0.2222,0.4954,-0.4954,0.4954H8.0437zM7.9792,9.2223c-0.4403,0,-0.7985,0.3583,-0.7985,0.7986s0.3582,0.7985,0.7985,0.7985s0.7986,-0.3582,0.7986,-0.7985S8.4195,9.2223,7.9792,9.2223z" id="c2" fill="#06b6d4"/>
  </g>
</svg>
