<?xml version="1.0" encoding="utf-8"?>
<!-- Created with: Axialis IconVectors - www.axialis.com -->
<svg version="1.1" xmlns="http://www.w3.org/2000/svg" xmlns:xlink="http://www.w3.org/1999/xlink" id="Layer_1" x="0px" y="0px" width="16" height="16" viewBox="0 0 16 16" xml:space="preserve">
  <g id="icon">
    <path id="b" fill="#262626" visibility="visible" d="M1.85,14.7C1.71,14.7,1.57,14.63,1.49,14.51C1.44,14.44,1.36,14.29,1.43,14.1L2.86,10.14C2.92,9.97,3.01,9.82,3.14,9.69L10.6,2.21C11.04,1.77,11.63,1.52,12.25,1.52C12.87,1.52,13.45,1.76,13.89,2.2C14.79,3.11,14.79,4.58,13.89,5.48L6.42,12.97C6.3,13.1,6.14,13.2,5.98,13.26L2.01,14.67C1.96,14.69,1.9,14.7,1.85,14.7z"/>
    <path id="bo" fill="#a3a3a3" d="M9.5,3.4L10.6,2.21C11.04,1.77,11.63,1.52,12.25,1.52C12.87,1.52,13.45,1.76,13.89,2.2C14.79,3.11,14.79,4.58,13.89,5.48L12.8,6.6L9.5,3.4z"/>
    <path fill="#d4d4d4" d="M10.3912,1.9932c1.0232,-1.0263,2.6851,-1.0275,3.7099,-0.0028c1.0226,1.0226,1.0238,2.6802,0.0028,3.7043l-7.4691,7.4914c-0.1574,0.1579,-0.3481,0.2788,-0.5581,0.3537l-3.9689,1.4163c-0.5967,0.2129,-1.1722,-0.3641,-0.9578,-0.9603l1.4254,-3.9623c0.0745,-0.2072,0.1938,-0.3954,0.3492,-0.5513L10.3912,1.9932zM13.394,2.6975c-0.6339,-0.6338,-1.6617,-0.6331,-2.2946,0.0017l-0.7813,0.7836l2.2929,2.2929l0.7847,-0.787C14.0272,4.3553,14.0265,3.33,13.394,2.6975zM11.9049,6.4839L9.6121,4.191l-5.9794,5.9973c-0.0518,0.052,-0.0916,0.1147,-0.1164,0.1838L2.27,13.8365l3.4705,-1.2384c0.07,-0.025,0.1336,-0.0653,0.186,-0.1179L11.9049,6.4839zM8.9791,1.9931H1.6213c-0.2761,0,-0.5,0.2238,-0.5,0.5c0,0.2761,0.2239,0.5,0.5,0.5h6.3608L8.9791,1.9931zM6.9851,3.9931H1.6213c-0.2761,0,-0.5,0.2239,-0.5,0.5c0,0.2761,0.2239,0.5,0.5,0.5h4.3668L6.9851,3.9931zM4.9911,5.9931H1.6213c-0.2761,0,-0.5,0.2239,-0.5,0.5c0,0.2761,0.2239,0.5,0.5,0.5h2.3728L4.9911,5.9931z"/>
  </g>
</svg>
