<?xml version="1.0" encoding="UTF-8"?>
<!DOCTYPE svg PUBLIC "-//W3C//DTD SVG 1.1//EN" "http://www.w3.org/Graphics/SVG/1.1/DTD/svg11.dtd">
<svg version="1.1" id="Layer_1" xmlns="http://www.w3.org/2000/svg" xmlns:xlink="http://www.w3.org/1999/xlink" x="0px" y="0px" width="16px" height="16px" viewBox="0 0 16 16" enable-background="new 0 0 16 16" xml:space="preserve">
  <g id="icon">
    <path d="M8.4511,11.8725l3.1326,1.6469l-0.5982,-3.4883c-0.0539,-0.3144,0.0503,-0.6351,0.2787,-0.8578l2.5343,-2.4704l-3.5023,-0.5089c-0.3157,-0.0459,-0.5885,-0.2441,-0.7297,-0.5301L8.0001,2.4902L6.4338,5.6639c-0.1411,0.286,-0.414,0.4843,-0.7296,0.5301L2.2017,6.703l2.5344,2.4704c0.2284,0.2226,0.3326,0.5434,0.2787,0.8578l-0.5983,3.4883l3.1326,-1.6469C7.8315,11.724,8.1688,11.724,8.4511,11.8725z" id="b" fill="#262626"/>
    <path d="M7.1311,1.818c0.3555,-0.7203,1.3825,-0.7203,1.738,0l1.6378,3.3186l3.6624,0.5322c0.7947,0.1155,1.1122,1.0923,0.537,1.653l-2.65,2.5832l0.6256,3.6475c0.1358,0.7916,-0.6951,1.3953,-1.4061,1.0215l-3.2756,-1.722l-3.2757,1.722c-0.7109,0.3737,-1.5419,-0.2299,-1.4061,-1.0215l0.6256,-3.6475L1.2939,7.3218c-0.5752,-0.5606,-0.2578,-1.5374,0.5371,-1.653l3.6623,-0.5322L7.1311,1.818zM8.0001,2.4902L6.4338,5.6639c-0.1412,0.286,-0.414,0.4843,-0.7296,0.5301L2.2017,6.703l2.5344,2.4704c0.2284,0.2226,0.3326,0.5434,0.2787,0.8578l-0.5983,3.4883l3.1326,-1.6469c0.2823,-0.1485,0.6196,-0.1485,0.9019,0l3.1326,1.6469l-0.5982,-3.4883c-0.0539,-0.3144,0.0503,-0.6351,0.2787,-0.8578l2.5343,-2.4704l-3.5023,-0.5089c-0.3157,-0.0459,-0.5885,-0.2441,-0.7297,-0.5301L8.0001,2.4902z" id="c1" fill="#d4d4d4"/>
  </g>
</svg>
