<?xml version="1.0" encoding="UTF-8"?>
<!DOCTYPE svg PUBLIC "-//W3C//DTD SVG 1.1//EN" "http://www.w3.org/Graphics/SVG/1.1/DTD/svg11.dtd">
<svg version="1.1" id="Layer_1" xmlns="http://www.w3.org/2000/svg" xmlns:xlink="http://www.w3.org/1999/xlink" x="0px" y="0px" width="16px" height="16px" viewBox="0 0 16 16" enable-background="new 0 0 16 16" xml:space="preserve">
  <g id="main">
    <g id="icon">
      <path d="M2.758,2.532L2.462,2.624L2.194,2.769L1.961,2.961L1.769,3.194L1.624,3.462L1.532,3.758L1.5,4.075L1.5,11.92L1.532,12.24L1.624,12.54L1.769,12.81L1.961,13.04L2.194,13.23L2.462,13.38L2.758,13.47L3.075,13.5L6.378,13.5L6.368,13.48L6.167,12.85L6.043,12.19L6,11.5L6.029,10.94L6.112,10.39L6.248,9.866L6.433,9.361L6.665,8.88L6.941,8.427L7.257,8.004L7.613,7.613L8.004,7.257L8.427,6.941L8.88,6.665L9.361,6.433L9.866,6.248L10.39,6.112L10.94,6.029L11.5,6L12.19,6.043L12.85,6.167L13.48,6.368L14.07,6.641L14.5,6.901L14.5,4.075L14.47,3.758L14.38,3.462L14.23,3.194L14.04,2.961L13.81,2.769L13.54,2.624L13.24,2.532L12.92,2.5L3.075,2.5zz" fill="#262626"/>
      <path d="M2.597,2.041L2.221,2.157L1.882,2.342L1.586,2.586L1.342,2.882L1.157,3.221L1.041,3.597L1,4L1,5.038L1,12L1.041,12.4L1.157,12.78L1.342,13.12L1.586,13.41L1.882,13.66L2.221,13.84L2.597,13.96L3,14L6.607,14L6.368,13.48L6.216,13L3,13L2.611,12.92L2.293,12.71L2.079,12.39L2,12L2,5.876L6.718,8.794L6.941,8.427L7.257,8.004L7.274,7.985L2,4.74L2,4L2.079,3.611L2.293,3.293L2.611,3.079L3,3L13,3L13.39,3.079L13.71,3.293L13.92,3.611L14,4L14,4.74L11.91,6.026L12.19,6.043L12.85,6.167L13.3,6.311L14,5.876L14,6.607L14.07,6.641L14.63,6.98L15,7.272L15,4L14.96,3.597L14.84,3.221L14.66,2.882L14.41,2.586L14.12,2.342L13.78,2.157L13.4,2.041L13,2L3,2zz" fill="#d4d4d4"/>
    </g>
    <g id="overlay">
      <path d="M15.5423,11.5c0,2.2325,-1.8098,4.0423,-4.0423,4.0423S7.4577,13.7325,7.4577,11.5S9.2675,7.4577,11.5,7.4577S15.5423,9.2675,15.5423,11.5z" id="b" fill="#262626"/>
      <path d="M11.5,16c-2.4813,0,-4.5,-2.0187,-4.5,-4.5s2.0187,-4.5,4.5,-4.5s4.5,2.0187,4.5,4.5S13.9813,16,11.5,16zM11.5,7.9525c-1.9561,0,-3.5475,1.5914,-3.5475,3.5475S9.5439,15.0475,11.5,15.0475s3.5475,-1.5914,3.5475,-3.5475S13.4561,7.9525,11.5,7.9525z" id="c3" fill="#d4d4d4"/>
      <path d="M10.9559,13.0615c-0.1024,0,-0.1998,-0.0321,-0.2817,-0.0929l-0.0084,-0.0067l-0.0407,-0.0352l-1.0921,-1.0921c-0.0894,-0.0894,-0.1386,-0.2082,-0.1386,-0.3346s0.0492,-0.2452,0.1386,-0.3346c0.0893,-0.0894,0.2082,-0.1386,0.3346,-0.1386c0.1024,0,0.1998,0.0321,0.2817,0.0929l0.0086,0.0068l0.0406,0.0351l0.7575,0.7574l1.842,-1.842c0.0893,-0.0894,0.2082,-0.1386,0.3346,-0.1386c0.1264,0,0.2453,0.0492,0.3347,0.1386c0.1646,0.1646,0.1842,0.4295,0.0457,0.6163l-0.0068,0.0086l-0.0351,0.0406l-2.1804,2.1804C11.2011,13.0123,11.0823,13.0615,10.9559,13.0615z" id="c3" fill="#d4d4d4"/>
    </g>
  </g>
</svg>
