<?xml version="1.0" encoding="UTF-8"?>
<!DOCTYPE svg PUBLIC "-//W3C//DTD SVG 1.1//EN" "http://www.w3.org/Graphics/SVG/1.1/DTD/svg11.dtd">
<svg version="1.1" id="Layer_1" xmlns="http://www.w3.org/2000/svg" xmlns:xlink="http://www.w3.org/1999/xlink" x="0px" y="0px" width="16px" height="16px" viewBox="0 0 16 16" enable-background="new 0 0 16 16" xml:space="preserve">
  <g id="icon">
    <path d="M7.5036,14.7275c-0.7014,0,-1.3859,-0.2385,-1.9276,-0.6715c-0.7009,-0.5604,-1.1166,-1.3569,-1.1703,-2.2429c-0.053,-0.8739,0.2677,-1.7336,0.88,-2.3585L5.4,9.338V3.3747c0,-1.1579,0.942,-2.1,2.1,-2.1c0.086,0,0.1736,0.0053,0.2602,0.0156C8.7575,1.4092,9.6,2.3828,9.6,3.4162V9.338l0.1143,0.1167c0.6326,0.6457,0.9513,1.5332,0.8744,2.4348c-0.078,0.9141,-0.5368,1.7177,-1.2919,2.2628C8.7754,14.5286,8.1554,14.7275,7.5036,14.7275z" id="b" fill="#262626"/>
    <path d="M9,11.6643c0.0085,0.8985,-0.7748,1.62,-1.6993,1.5014c-0.6295,-0.0807,-1.1473,-0.5654,-1.271,-1.188c-0.149,-0.75,0.2776,-1.4685,0.9703,-1.7134V6.6818c0,-0.2396,0.1606,-0.4594,0.3954,-0.5069C7.7173,6.1097,8,6.354,8,6.6643v3.6C8.5944,10.4744,8.994,11.0338,9,11.6643z" id="c2" fill="#d4d4d4"/>
    <path d="M5,3.3747C5,1.8928,6.2894,0.712,7.8075,0.8931C9.0167,1.0373,10,2.1984,10,3.4161v5.7586c1.4781,1.5086,1.3142,4.0144,-0.4691,5.3018c-1.2579,0.9081,-2.9928,0.8606,-4.2046,-0.1081C3.6743,13.0477,3.5656,10.6387,5,9.1747V3.3747zM6,3.3702v6.3047l-0.2,0.1c-1.1118,1.0311,-1.0744,2.8376,0.1725,3.8137c0.836,0.6544,2.0188,0.699,2.9017,0.1093c1.3168,-0.8796,1.4899,-2.6781,0.4588,-3.7899c-0.0427,-0.046,-0.087,-0.0904,-0.133,-0.133l-0.2,-0.1V3.3702c0,-0.8259,-0.6695,-1.4953,-1.4953,-1.4953h-0.0093C6.6695,1.8749,6,2.5443,6,3.3702z" id="c1" fill="#d4d4d4"/>
  </g>
</svg>
