<?xml version="1.0" encoding="UTF-8"?>
<!DOCTYPE svg PUBLIC "-//W3C//DTD SVG 1.1//EN" "http://www.w3.org/Graphics/SVG/1.1/DTD/svg11.dtd">
<svg version="1.1" id="Layer_1" xmlns="http://www.w3.org/2000/svg" xmlns:xlink="http://www.w3.org/1999/xlink" x="0px" y="0px" width="16px" height="16px" viewBox="0 0 16 16" enable-background="new 0 0 16 16" xml:space="preserve">
  <g id="icon">
    <path d="M2.3707,10.4907C1.8797,10.4272,1.5,10.0084,1.5,9.5V2.5c0,-0.5523,0.4477,-1,1,-1h5.5858c0.2652,0,0.5196,0.1054,0.7071,0.2929l1.4142,1.4142c0.1875,0.1875,0.2929,0.4419,0.2929,0.7071v2.1325C10.0261,5.8868,9.5214,5.8,9,5.8c-1.9867,0,-3.7353,1.25,-4.4322,3.0699C3.6483,9.1089,2.8666,9.6999,2.3707,10.4907z" id="b" fill="#262626"/>
    <path d="M3.9833,6h2.3065c0.3002,0,0.4127,0.39,0.1603,0.5525c-0.1765,0.1136,-0.3454,0.2388,-0.5054,0.3747C5.8902,6.9735,5.8216,7,5.75,7H4v1.8808c0,0.1115,-0.0615,0.2148,-0.1609,0.2652c-0.1272,0.0645,-0.2502,0.1363,-0.3686,0.2147C3.2689,9.4944,3,9.3561,3,9.1142V6.9833C3,6.4403,3.4403,6,3.9833,6zM2.2391,10.7167c-0.0744,0.1392,-0.2443,0.2026,-0.3866,0.1343C1.3489,10.6092,1,10.0951,1,9.5V2.5c0,-0.8284,0.6716,-1.5,1.5,-1.5h1h4h0.5858c0.3978,0,0.7794,0.158,1.0607,0.4394l1.4142,1.4142C10.842,3.1348,11,3.5163,11,3.9141v1.8858c0,0.2078,-0.206,0.3521,-0.4014,0.2813c-0.1241,-0.045,-0.2505,-0.0848,-0.3789,-0.1194c-0.13,-0.035,-0.2197,-0.1536,-0.2197,-0.2883V3.9142c0,-0.1326,-0.0527,-0.2598,-0.1464,-0.3535L8.4393,2.1464C8.3455,2.0527,8.2184,2,8.0858,2H8v1.5167C8,4.0597,7.5597,4.5,7.0167,4.5H3.9833C3.4403,4.5,3,4.0597,3,3.5167V2h-0.5c-0.2761,0,-0.5,0.2239,-0.5,0.5v7c0,0.2761,0.2239,0.5,0.5,0.5h0c0.0932,0,0.1452,0.1067,0.0879,0.1802C2.4571,10.3481,2.3402,10.5275,2.2391,10.7167zM4,3.5h3V2H4V3.5z" id="c1" fill="#d4d4d4"/>
    <path d="M5.4331,14.5621c-1.171,0,-2.1237,-0.9367,-2.1237,-2.0881c0,-1.1513,0.9527,-2.088,2.1238,-2.088h0.3421l0.0498,-0.2796c0.2686,-1.5073,1.5955,-2.6013,3.155,-2.6013s2.8864,1.094,3.155,2.6013l0.0498,0.2796h0.3421c1.171,0,2.1237,0.9367,2.1237,2.088c0,1.1514,-0.9527,2.0881,-2.1237,2.0881H5.4331z" id="b" fill="#262626"/>
    <path d="M5.482,15C4.1134,15,3,13.8681,3,12.4767c0,-1.3862,1.1092,-2.5182,2.4727,-2.5233l0.0332,-0.0001l0.0062,-0.0327C5.8339,8.2283,7.3008,7,9,7c1.6994,0,3.1662,1.2283,3.4878,2.9206l0.0062,0.0327l0.0332,0.0001C13.8908,9.9585,15,11.0905,15,12.4767C15,13.8681,13.8866,15,12.518,15H5.482zM5.482,10.9584c-0.8242,0,-1.4948,0.6811,-1.4948,1.5183s0.6705,1.5183,1.4948,1.5183h7.036c0.8242,0,1.4948,-0.6811,1.4948,-1.5183s-0.6705,-1.5183,-1.4948,-1.5183h-0.4627c-0.2635,0,-0.48,-0.2098,-0.493,-0.4777C11.4951,9.0925,10.3696,8.005,9,8.005s-2.4951,1.0875,-2.5623,2.4757c-0.013,0.2679,-0.2296,0.4777,-0.493,0.4777H5.482z" id="c2" fill="#d4d4d4"/>
  </g>
</svg>
