<?xml version="1.0" encoding="UTF-8"?>
<!DOCTYPE svg PUBLIC "-//W3C//DTD SVG 1.1//EN" "http://www.w3.org/Graphics/SVG/1.1/DTD/svg11.dtd">
<svg version="1.1" id="Layer_1" xmlns="http://www.w3.org/2000/svg" xmlns:xlink="http://www.w3.org/1999/xlink" x="0px" y="0px" width="16px" height="16px" viewBox="0 0 16 16" enable-background="new 0 0 16 16" xml:space="preserve">
  <g id="icon">
    <path d="M12.9333,12.5H5.0667C4.2014,12.5,3.5,11.7986,3.5,10.9333V3.0667C3.5,2.2014,4.2014,1.5,5.0667,1.5h7.8667C13.7986,1.5,14.5,2.2014,14.5,3.0667v7.8667C14.5,11.7986,13.7986,12.5,12.9333,12.5z" id="b" fill="#262626"/>
    <path d="M13,1H5c-1.1046,0,-2,0.8954,-2,2v2.5083C3,5.7799,3.2201,6,3.4917,6h0.0167C3.7799,6,4,5.7799,4,5.5083V3c0,-0.5523,0.4477,-1,1,-1h3v0.5c0,0.8284,0.6716,1.5,1.5,1.5h4.5v7c0,0.5523,-0.4477,1,-1,1h-2.5083c-0.2715,0,-0.4917,0.2201,-0.4917,0.4917v0.0167c0,0.2715,0.2201,0.4917,0.4917,0.4917H13c1.1046,0,2,-0.8954,2,-2V3C15,1.8954,14.1046,1,13,1zM9.5,3c-0.2761,0,-0.5,-0.2239,-0.5,-0.5v-0.5h4c0.5523,0,1,0.4477,1,1H9.5z" id="c1" fill="#d4d4d4"/>
    <circle cx="6.4261" cy="9.5738" r="3.0873" id="b" fill="#262626"/>
    <path d="M1.4955,15c-0.1324,0,-0.2569,-0.0515,-0.3505,-0.1451c-0.1932,-0.1933,-0.1933,-0.5079,-0.0001,-0.7012l2.4427,-2.4426c-0.4698,-0.6213,-0.7179,-1.3627,-0.7179,-2.146C2.8696,7.5993,4.469,6,6.4348,6S10,7.5993,10,9.5651s-1.5993,3.5651,-3.5652,3.5651c-0.7834,0,-1.5249,-0.2481,-2.1461,-0.7179l-2.4426,2.4425C1.7524,14.9485,1.6279,15,1.4955,15zM6.4348,6.9915c-1.4192,0,-2.5737,1.1545,-2.5737,2.5736c0,1.4191,1.1546,2.5736,2.5737,2.5736c1.4191,0,2.5737,-1.1545,2.5737,-2.5736C9.0085,8.146,7.8539,6.9915,6.4348,6.9915z" id="c2" fill="#d4d4d4"/>
  </g>
</svg>
