<?xml version="1.0" encoding="UTF-8"?>
<!DOCTYPE svg PUBLIC "-//W3C//DTD SVG 1.1//EN" "http://www.w3.org/Graphics/SVG/1.1/DTD/svg11.dtd">
<svg version="1.1" id="Layer_1" xmlns="http://www.w3.org/2000/svg" xmlns:xlink="http://www.w3.org/1999/xlink" x="0px" y="0px" width="16px" height="16px" viewBox="0 0 16 16" enable-background="new 0 0 16 16" xml:space="preserve">
  <g id="icon">
    <path d="M11.7602,2.889c-0.805,-0.6639,-1.7777,-0.9866,-2.9738,-0.9866c-0.1262,0,-0.2573,0.0036,-0.3898,0.0107c-1.1179,0.0601,-2.0734,0.4667,-2.8397,1.2083C4.526,4.119,4.0825,5.387,4.2011,6.9978c0.1094,1.4869,0.7649,2.5972,1.9482,3.3002c0.7351,0.4367,1.5416,0.649,2.4655,0.6489c0.5154,0,1.0695,-0.0661,1.6939,-0.2021c0.7985,-0.174,0.8394,-0.3438,0.693,-1.133l-0.0295,-0.1594l-0.1566,0.0418c-0.1099,0.0293,-0.2194,0.0613,-0.329,0.0933c-0.2386,0.0696,-0.4853,0.166,-0.7284,0.2066C9.4363,9.8477,9.079,9.8,8.6657,9.9h-0.012c-1.8516,0,-3.1212,-1.2438,-3.2344,-3.1305c-0.0638,-1.0638,0.2812,-2.0914,0.9466,-2.7979c0.6169,-0.6551,1.4796,-1.022,2.4292,-1.022c0.2411,0,0.4904,0.0198,0.7411,0.0649c0.8227,0.1478,1.5133,0.6172,1.9445,1.3244c0.4522,0.7417,0.5571,1.6691,0.2879,2.5458c-0.1053,0.3431,-0.3104,0.6804,-0.5486,0.9031c-0.0943,0.0882,-0.1976,0.1346,-0.2986,0.1346c-0.1796,0,-0.3096,-0.1459,-0.3311,-0.3716c-0.0454,-0.4755,-0.0174,-0.9722,0.0097,-1.4526c0.0065,-0.1166,0.0131,-0.233,0.0187,-0.3492c0.0173,-0.3607,0.0487,-0.7147,0.082,-1.0894c0.0146,-0.1649,0.0294,-0.3303,0.043,-0.498L10.7567,4H9.6438l-0.079,0.3252c-0.273,-0.279,-0.6353,-0.4297,-1.0468,-0.4297c-0.4689,0,-0.9645,0.205,-1.2932,0.5353c-0.8608,0.8651,-1.1237,1.9701,-0.7813,3.2845c0.1907,0.7318,0.693,1.1596,1.4524,1.2373c0.6599,0.0677,1.2012,-0.2139,1.5609,-0.8053c0.1079,0.3853,0.3577,0.6315,0.7463,0.7343c0.6122,0.1618,1.1992,0.0625,1.7119,-0.2893c0.7034,-0.4829,1.107,-1.2353,1.1995,-2.2362C13.2484,4.907,12.7928,3.7405,11.7602,2.889zM9.0053,7.4756c-0.155,0.267,-0.4162,0.4329,-0.6818,0.4329h0c-0.0575,0,-0.1138,-0.0081,-0.1676,-0.024c-0.3159,-0.0935,-0.4984,-0.3175,-0.5426,-0.6658c-0.0156,-0.1225,-0.0398,-0.2416,-0.0612,-0.3466c-0.0069,-0.0339,-0.0135,-0.0663,-0.0193,-0.0968c0.075,-0.6058,0.1505,-1.177,0.6005,-1.5935c0.1743,-0.1613,0.3689,-0.2465,0.563,-0.2465c0.3261,0,0.5771,0.2388,0.6551,0.6233C9.4832,6.2077,9.3667,6.8526,9.0053,7.4756z" fill="#FFFFFF"/>
    <path d="M8.0314,5.0717c-0.4859,0.4498,-0.5695,1.0538,-0.6504,1.7084c0.0237,0.1274,0.0624,0.2913,0.0835,0.4574c0.0514,0.4047,0.2728,0.6794,0.6489,0.7908c0.3695,0.1094,0.7943,-0.0856,1.0217,-0.4775c0.3619,-0.6237,0.5087,-1.3064,0.3634,-2.0221C9.3442,4.7687,8.5984,4.5469,8.0314,5.0717z" fill="#3E79B4"/>
    <path d="M3.5,0.0113C3.5,4.765,3.5,9.2,3.5,14c3.5943,0,6.8739,0,10.4689,0c0,-5.2,0.0478,-9.7042,0.0478,-13.9885C10.4123,0.0115,7.0763,0.0113,3.5,0.0113zM12.9651,6.3424c-0.0789,0.8536,-0.3943,1.6178,-1.135,2.1263c-0.4865,0.334,-1.0268,0.4164,-1.5887,0.2679c-0.4664,-0.1233,-0.6818,-0.471,-0.6953,-1.0312c-0.0743,0.1182,-0.1091,0.1654,-0.1354,0.2169c-0.3278,0.6415,-0.8435,0.9482,-1.4995,0.8811c-0.6922,-0.0708,-1.1487,-0.4589,-1.3226,-1.126c-0.3052,-1.1714,-0.1336,-2.2606,0.7424,-3.1409c0.5735,-0.5763,1.7336,-0.7976,2.3072,0.0968C9.6851,4.4403,9.7214,4.3,9.7617,4.1c0.2509,0,0.5063,0,0.8323,0c-0.0439,0.6,-0.1,1.0911,-0.1253,1.6173c-0.0291,0.6076,-0.0852,1.2339,-0.0278,1.8353c0.0472,0.4946,0.5184,0.6777,0.8815,0.3382c0.2668,-0.2494,0.4808,-0.6118,0.5896,-0.9659c0.5767,-1.8781,-0.5135,-3.7329,-2.3493,-4.0627c-2.6191,-0.4705,-4.4371,1.4904,-4.2931,3.891c0.1168,1.9463,1.4573,3.2531,3.3965,3.2475c0.3727,-0.0011,0.7497,-0.0222,1.1168,-0.0833c0.3625,-0.0604,0.7148,-0.183,1.0714,-0.2783c0.1365,0.7359,0.1143,0.8084,-0.5774,0.9591c-1.3921,0.3032,-2.7722,0.3305,-4.051,-0.4292c-1.1922,-0.7082,-1.7736,-1.8006,-1.8753,-3.1822c-0.1068,-1.4506,0.2495,-2.7307,1.3104,-3.7576c0.7649,-0.7403,1.6868,-1.1095,2.7435,-1.1663c1.197,-0.0643,2.3076,0.1562,3.2601,0.9418C12.7146,3.8705,13.0871,5.0222,12.9651,6.3424z" fill="#3E79B4"/>
    <path d="M13,15.0979c0,0.2069,0,0.6536,0,0.8608c-0.1298,0,-0.2538,0,-0.3778,0c-3.6771,0,-6.9473,0.0002,-10.6244,-0.0001c-0.6627,-0.0001,-0.9909,-0.3275,-0.991,-0.9884c-0.0003,-4.4664,-0.0001,-8.9328,-0.0001,-13.3992C1.0066,0.6227,2.0303,-0.0426,3,0.0021C3,4.7567,3,9.2533,3,14c-0.2546,0.0928,-0.7262,-0.0372,-1.126,0.3c-0.0927,0.0782,-0.2361,0.1984,-0.2218,0.3c0.021,0.1489,0.132,0.3346,0.2589,0.4058c0.1516,0.0851,0.3603,0.0885,0.5444,0.0887c3.5009,0.0045,6.5948,0.0033,10.0958,0.0033C12.6898,15.0979,12.8284,15.0979,13,15.0979z" fill="#3E79B4"/>
    <path d="M15.9915,3.9284c-0.5136,0,-0.9931,0,-1.4962,0c0,-1.1264,0,-1.7897,0,-2.9284c0.4822,0,0.973,0,1.4962,0C15.9915,2.1087,15.9915,2.781,15.9915,3.9284z" fill="#4EA17E"/>
    <path d="M14.5108,4.9831c0.506,0,0.9868,0,1.4892,0c0,1.1302,0,1.8814,0,3.0169c-0.4892,0,-0.9696,0,-1.4892,0C14.5108,6.8909,14.5108,6.1315,14.5108,4.9831z" fill="#CD4C32"/>
    <path d="M15.9798,12c-0.5099,0,-0.9776,0,-1.4729,0c0,-1.1242,0,-1.8756,0,-3.0109c0.4789,0,0.9579,0,1.4729,0C15.9798,10.098,15.9798,10.8582,15.9798,12z" fill="#F3CA69"/>
  </g>
</svg>
