<?xml version="1.0" encoding="UTF-8"?>
<!DOCTYPE svg PUBLIC "-//W3C//DTD SVG 1.1//EN" "http://www.w3.org/Graphics/SVG/1.1/DTD/svg11.dtd">
<svg version="1.1" id="Layer_1" xmlns="http://www.w3.org/2000/svg" xmlns:xlink="http://www.w3.org/1999/xlink" x="0px" y="0px" width="16px" height="16px" viewBox="0 0 16 16" enable-background="new 0 0 16 16" xml:space="preserve">
  <g id="icon">
    <path d="M10.78,10.905c-0.552,-0.205,-0.708,-0.499,-0.666,-0.92c0.422,-0.499,0.777,-1.12,1.053,-1.776c-0.101,-0.23,-0.158,-0.482,-0.158,-0.748V5.72c0,-0.444,0.154,-0.862,0.43,-1.194c-0.054,-0.251,-0.138,-0.501,-0.252,-0.744c-0.053,-0.114,-0.142,-0.247,-0.236,-0.389l-0.029,-0.044c-0.079,-0.119,-0.177,-0.237,-0.298,-0.359c-0.279,-0.281,-0.556,-0.495,-0.846,-0.656c-0.342,-0.189,-0.685,-0.319,-0.991,-0.374c-0.162,-0.029,-0.375,-0.065,-0.58,-0.079c-0.079,-0.006,-0.152,-0.008,-0.224,-0.008c-0.104,0,-0.203,0.006,-0.304,0.017l-0.128,0.014c-0.158,0.017,-0.305,0.033,-0.411,0.062c-0.179,0.049,-0.367,0.102,-0.524,0.169c-0.37,0.156,-0.676,0.337,-0.936,0.554c-0.554,0.463,-0.951,1.071,-1.117,1.713c-0.009,0.034,-0.017,0.066,-0.024,0.098c0.288,0.337,0.454,0.767,0.454,1.219v1.446c0.001,0,0.001,0,0.002,0.001c0.181,0.062,0.372,0.117,0.568,0.164c0.027,0.006,0.081,0.013,0.133,0.02c0.023,0.003,0.046,0.006,0.07,0.009c0.219,-0.112,0.465,-0.173,0.716,-0.173h0.669c0.855,0,1.551,0.683,1.551,1.522c0,0.84,-0.696,1.522,-1.551,1.522H6.48c-0.228,0,-0.447,-0.049,-0.647,-0.139c0.003,0.362,-0.171,0.625,-0.673,0.811C1.38,12.222,0.689,11.79,0.3,13.728c0.012,0.798,-0.028,0.553,0.175,1.4c0.241,1.004,5.299,0.844,7.466,0.844s7.313,0.167,7.524,-0.844c0.181,-0.865,0.162,-0.622,0.175,-1.4C15.251,11.791,14.56,12.224,10.78,10.905z" fill-rule="evenodd" fill="#797979"/>
    <path d="M6.48,9.332c-0.244,0,-0.462,-0.128,-0.574,-0.33l-0.015,0c-0.038,-0.001,-0.069,-0.002,-0.081,-0.003c-0.122,-0.012,-0.242,-0.023,-0.361,-0.041c-0.252,-0.038,-0.483,-0.088,-0.689,-0.15c-0.212,-0.063,-0.557,-0.14,-0.781,-0.244c-0.165,-0.077,-0.32,-0.169,-0.471,-0.259c-0.168,0.103,-0.261,0.158,-0.462,0.158c-0.577,0,-1.046,-0.448,-1.046,-1V5.72c0,-0.364,0.211,-0.701,0.543,-0.876c0,-0.01,0.001,-0.017,0.001,-0.021c0.005,-0.047,0.008,-0.094,0.01,-0.141c0.003,-0.06,0.006,-0.121,0.015,-0.184c0.06,-0.428,0.189,-0.871,0.372,-1.283c0.382,-0.859,0.944,-1.58,1.627,-2.088c0.778,-0.578,1.67,-0.956,2.579,-1.093c0.258,-0.039,0.524,-0.059,0.792,-0.059c0.685,0,1.381,0.125,2.069,0.371c0.229,0.082,0.44,0.191,0.636,0.295c0.24,0.128,0.429,0.244,0.595,0.366c0.387,0.285,0.73,0.6,1.02,0.937c0.1,0.116,0.186,0.243,0.269,0.365c0.042,0.062,0.084,0.124,0.128,0.184c0.128,0.176,0.222,0.37,0.312,0.557l0.007,0.015c0.202,0.416,0.342,0.857,0.418,1.311c0.018,0.106,0.031,0.22,0.043,0.359c0.001,0.013,0.002,0.051,0.003,0.099c0.341,0.172,0.558,0.512,0.558,0.884v1.742c0,0.551,-0.469,1,-1.046,1s-0.946,-0.448,-0.946,-1V5.72c0,-0.345,0.086,-0.664,0.39,-0.847c-0.001,-0.026,-0.002,-0.045,-0.003,-0.052c-0.005,-0.033,-0.01,-0.07,-0.014,-0.106l-0.007,-0.057c-0.057,-0.429,-0.183,-0.852,-0.373,-1.257c-0.082,-0.174,-0.193,-0.342,-0.301,-0.504l-0.029,-0.044c-0.112,-0.169,-0.246,-0.331,-0.409,-0.495c-0.34,-0.342,-0.683,-0.607,-1.05,-0.81c-0.427,-0.236,-0.865,-0.4,-1.267,-0.472c-0.184,-0.033,-0.428,-0.074,-0.676,-0.091c-0.1,-0.007,-0.194,-0.011,-0.287,-0.011c-0.139,0,-0.272,0.008,-0.408,0.023l-0.124,0.014c-0.184,0.02,-0.374,0.041,-0.549,0.089c-0.208,0.057,-0.428,0.12,-0.636,0.207c-0.453,0.191,-0.834,0.418,-1.164,0.693c-0.697,0.583,-1.198,1.356,-1.411,2.177c-0.062,0.241,-0.098,0.443,-0.112,0.638l-0.003,0.043c0.32,0.18,0.416,0.504,0.416,0.861v1.742c0,0.086,-0.012,0.171,-0.035,0.255l0.02,0.01l0.11,0.056c0.167,0.086,0.44,0.175,0.617,0.236c0.207,0.071,0.426,0.134,0.65,0.188c0.074,0.018,0.15,0.027,0.231,0.038c0.033,0.004,0.066,0.008,0.098,0.013c0.059,0.008,0.207,0.027,0.319,0.034c0.123,-0.13,0.296,-0.204,0.481,-0.204h0.669c0.359,0,0.651,0.279,0.651,0.622s-0.292,0.622,-0.651,0.622H6.48z" fill="#CD4C32"/>
  </g>
</svg>
