<?xml version="1.0" encoding="UTF-8"?>
<!DOCTYPE svg PUBLIC "-//W3C//DTD SVG 1.1//EN" "http://www.w3.org/Graphics/SVG/1.1/DTD/svg11.dtd">
<svg version="1.1" id="Layer_1" xmlns="http://www.w3.org/2000/svg" xmlns:xlink="http://www.w3.org/1999/xlink" x="0px" y="0px" width="16px" height="16px" viewBox="0 0 16 16" enable-background="new 0 0 16 16" xml:space="preserve">
  <g id="main">
    <g id="icon">
      <path d="M5.431,3.135L4.727,3.355L4.08,3.705L3.505,4.171L3.014,4.739L2.618,5.396L2.33,6.127L2.163,6.918L1.711,7.105L1.297,7.359L0.9289,7.673L0.6131,8.041L0.3559,8.456L0.1639,8.911L0.04395,9.4L0.002344,9.915L0.03184,10.41L0.1166,10.85L0.2518,11.24L0.4322,11.58L0.6529,11.87L0.9088,12.12L1.506,12.5L2.184,12.75L2.901,12.9L3.618,12.97L4.294,12.99L4.404,13L9,13L9,11.1L9.088,10.67L9.328,10.31L9.683,10.07L10.12,9.983L10.53,10.06L10.88,10.3L11,10.42L11,8.256L11.03,8.004L11.1,7.768L11.38,7.368L11.78,7.099L12.02,7.026L12.27,7L13.78,7L14.03,7.025L14.26,7.098L14.44,7.225L14.37,7.082L13.93,6.516L13.39,6.049L12.78,5.696L12.1,5.473L11.37,5.395L10.6,5.482L9.894,5.731L9.621,5.164L9.281,4.649L8.88,4.194L8.423,3.805L7.919,3.489L7.372,3.255L6.791,3.109L6.181,3.059zz" fill-rule="evenodd" fill="#3E79B4"/>
    </g>
    <g id="overlay">
      <path d="M15.9301,13.2288c0.0451,-0.0478,0.0701,-0.111,0.0699,-0.1767l-0.0006,-1.9354c-0.0003,-0.1039,-0.1259,-0.1557,-0.1994,-0.0823l-1.8,1.7219V8.265c0,-0.1416,-0.0833,-0.265,-0.2249,-0.265h-0.5601h-0.502h-0.4391c-0.1416,0,-0.2563,0.1148,-0.2563,0.2563v4.4912l-1.8185,-1.7304c-0.0737,-0.0732,-0.1991,-0.0209,-0.1991,0.0829v1.9222c0,0.0662,0.0256,0.1299,0.0715,0.1776c0,0,2.0193,1.9735,2.7965,2.7414c0.0795,0.0786,0.204,0.078,0.2828,-0.0013C13.9127,15.1735,15.9301,13.2288,15.9301,13.2288z" fill-rule="evenodd" fill="#4DA07D"/>
    </g>
  </g>
</svg>
