<?xml version="1.0" encoding="UTF-8"?>
<!DOCTYPE svg PUBLIC "-//W3C//DTD SVG 1.1//EN" "http://www.w3.org/Graphics/SVG/1.1/DTD/svg11.dtd">
<svg version="1.1" id="Layer_1" xmlns="http://www.w3.org/2000/svg" xmlns:xlink="http://www.w3.org/1999/xlink" x="0px" y="0px" width="16px" height="16px" viewBox="0 0 16 16" enable-background="new 0 0 16 16" xml:space="preserve">
  <g id="main">
    <g id="icon">
      <path d="M1.866,0.5471L1.676,0.6758L1.547,0.8664L1.5,1.1L1.5,13.9L1.547,14.13L1.676,14.32L1.866,14.45L2.1,14.5L8,14.5L8,11.26L8.036,10.96L8.136,10.68L8.294,10.44L8.5,10.25L8.5,10.17L8.576,9.354L8.799,8.583L9.163,7.878L9.659,7.256L10.28,6.733L10.97,6.351L11.72,6.116L12.51,6.036L13.3,6.114L13.5,6.178L13.5,4.917L13.48,4.602L13.41,4.339L13.28,4.106L13.08,3.875L10.04,0.8414L9.682,0.5988L9.431,0.5264L9.117,0.5L2.1,0.5zz" fill-rule="evenodd" fill="#FFFFFF"/>
      <path d="M2.001,0.009961L1.768,0.05703L1.67,0.07676L1.587,0.1326L1.396,0.2611L1.316,0.3156L1.261,0.3963L1.133,0.5869L1.077,0.6697L1.057,0.7676L1.01,1.001L1,1.05L1,1.1L1,13.9L1,13.95L1.01,14L1.057,14.23L1.077,14.33L1.133,14.41L1.261,14.6L1.316,14.68L1.396,14.74L1.587,14.87L1.67,14.92L1.768,14.94L2.001,14.99L2.05,15L2.1,15L8,15L8,14L2.15,14L2.063,13.98L2.036,13.96L2.018,13.94L2,13.85L2,1.15L2.018,1.063L2.036,1.036L2.063,1.018L2.15,1L9.096,1L9.34,1.021L9.468,1.057L9.722,1.229L12.71,4.216L12.86,4.395L12.94,4.531L12.98,4.686L13,4.934L13,6.085L13.3,6.114L14,6.335L14,4.917L14,4.899L14,4.882L13.98,4.567L13.97,4.517L13.96,4.469L13.89,4.207L13.87,4.148L13.84,4.095L13.71,3.861L13.69,3.817L13.65,3.778L13.45,3.547L13.44,3.534L13.43,3.521L10.4,0.4879L10.36,0.4539L10.32,0.427L9.962,0.1844L9.896,0.1402L9.821,0.1184L9.57,0.0459L9.522,0.03223L9.473,0.02812L9.158,0.001758L9.138,0L9.117,0L2.1,0L2.05,0zz" fill="#6D6E71"/>
      <path d="M9,4L9.069,4.337L9.249,4.624L9.505,4.843L9.797,4.972L9.961,5L13.2,5L13.2,4L10.05,4L10,3.965L10,1L9,1zz" fill="#6D6E71"/>
    </g>
    <g id="overlay">
      <path d="M14.629,7.956c-0.587,-0.601,-1.314,-0.919,-2.119,-0.919c-0.794,0,-1.544,0.321,-2.121,0.904c0.002,0.057,0.003,0.087,0.005,0.144l0.633,0.576c0.039,0.036,0.098,0.034,0.137,-0.003c0.357,-0.337,0.827,-0.548,1.336,-0.548c1.088,0,2,0.964,2,2.062V11.5h1v-1.327C15.5,9.324,15.196,8.536,14.629,7.956z" fill="#B4B4B5"/>
      <path d="M15.764,11H9.233c-0.134,0,-0.233,0.116,-0.233,0.256v4.401c0,0.14,0.109,0.343,0.243,0.343h6.55c0.134,0,0.207,-0.203,0.207,-0.343v-4.401C16,11.116,15.898,11,15.764,11zM12.904,13.448l0.146,1.264c0,0.204,-0.312,0.311,-0.512,0.311c-0.2,0,-0.541,-0.107,-0.541,-0.311l0.176,-1.264c-0.205,-0.128,-0.362,-0.367,-0.362,-0.641c0,-0.409,0.327,-0.741,0.728,-0.741c0.401,0,0.727,0.332,0.727,0.741C13.267,13.081,13.138,13.32,12.904,13.448z" fill="#EAB765"/>
      <path d="M13.267,12.807c0,-0.409,-0.326,-0.741,-0.727,-0.741s-0.728,0.332,-0.728,0.741c0,0.274,0.157,0.513,0.362,0.641l-0.176,1.264c0,0.204,0.342,0.311,0.541,0.311s0.512,-0.107,0.512,-0.311l-0.146,-1.264C13.138,13.32,13.267,13.081,13.267,12.807z" fill="#6D6E71"/>
    </g>
  </g>
</svg>
