<?xml version="1.0" encoding="UTF-8"?>
<!DOCTYPE svg PUBLIC "-//W3C//DTD SVG 1.1//EN" "http://www.w3.org/Graphics/SVG/1.1/DTD/svg11.dtd">
<svg version="1.1" id="Layer_1" xmlns="http://www.w3.org/2000/svg" xmlns:xlink="http://www.w3.org/1999/xlink" x="0px" y="0px" width="16px" height="16px" viewBox="0 0 16 16" enable-background="new 0 0 16 16" xml:space="preserve">
  <g id="main">
    <g id="icon">
      <path d="M1.866,0.5471L1.676,0.6758L1.547,0.8664L1.5,1.1L1.5,13.9L1.547,14.13L1.676,14.32L1.866,14.45L2.1,14.5L8,14.5L8,11.26L8.036,10.96L8.137,10.68L8.294,10.44L8.5,10.25L8.5,10.17L8.576,9.354L8.799,8.583L9.163,7.878L9.659,7.257L10.28,6.734L10.97,6.352L11.72,6.117L12.51,6.037L13.3,6.115L13.5,6.179L13.5,4.917L13.48,4.602L13.41,4.339L13.28,4.106L13.08,3.875L10.04,0.8414L9.682,0.5988L9.431,0.5264L9.117,0.5L2.1,0.5zz" fill-rule="evenodd" fill="#FFFFFF"/>
      <path d="M2.001,0.009961L1.768,0.05703L1.67,0.07676L1.587,0.1326L1.396,0.2611L1.316,0.3156L1.261,0.3963L1.133,0.5869L1.077,0.6697L1.057,0.7676L1.01,1.001L1,1.05L1,1.1L1,13.9L1,13.95L1.01,14L1.057,14.23L1.077,14.33L1.133,14.41L1.261,14.6L1.316,14.68L1.396,14.74L1.587,14.87L1.67,14.92L1.768,14.94L2.001,14.99L2.05,15L2.1,15L8,15L8,14L2.15,14L2.063,13.98L2.036,13.96L2.018,13.94L2,13.85L2,1.15L2.018,1.063L2.036,1.036L2.063,1.018L2.15,1L9.096,1L9.34,1.021L9.468,1.057L9.722,1.229L12.71,4.216L12.86,4.395L12.94,4.531L12.98,4.686L13,4.934L13,6.086L13.3,6.115L14,6.336L14,4.917L14,4.899L14,4.882L13.98,4.567L13.97,4.517L13.96,4.469L13.89,4.207L13.87,4.148L13.84,4.095L13.71,3.861L13.69,3.817L13.65,3.778L13.45,3.547L13.44,3.534L13.43,3.521L10.4,0.4879L10.36,0.4539L10.32,0.427L9.962,0.1844L9.896,0.1402L9.821,0.1184L9.57,0.0459L9.522,0.03223L9.473,0.02812L9.158,0.001758L9.138,0L9.117,0L2.1,0L2.05,0zz" fill="#6D6E71"/>
      <path d="M9,4L9.069,4.337L9.249,4.624L9.505,4.843L9.797,4.972L9.961,5L13.2,5L13.2,4L10.05,4L10,3.965L10,1L9,1zz" fill="#6D6E71"/>
    </g>
    <g id="overlay">
      <path d="M14.5,11.5v-1.3275c0,-1.0987,-0.9124,-2.0625,-2,-2.0625s-2,0.9638,-2,2.0625V11.5H9.5v-1.3275c0,-0.8479,0.306,-1.6352,0.8744,-2.2166c0.579,-0.5925,1.3352,-0.9188,2.1357,-0.9188c0.8044,0,1.5314,0.3177,2.1188,0.9188c0.5674,0.5804,0.8712,1.3676,0.8712,2.2166V11.5H14.5z" fill="#B4B4B5"/>
      <path d="M15.7639,11H9.2331C9.099,11,9,11.1165,9,11.2562v4.401c0,0.1398,0.1087,0.3428,0.2428,0.3428h6.5502c0.1341,0,0.2069,-0.203,0.2069,-0.3428v-4.401C16,11.1165,15.898,11,15.7639,11zM12.9042,13.4477l0.1463,1.2636c0,0.2037,-0.3124,0.311,-0.5122,0.311c-0.1998,0,-0.5415,-0.1073,-0.5415,-0.311l0.1756,-1.2636c-0.2049,-0.1281,-0.3615,-0.3667,-0.3615,-0.6407c0,-0.409,0.3272,-0.7406,0.7285,-0.7406c0.4013,0,0.7271,0.3316,0.7271,0.7406C13.2666,13.081,13.1383,13.3196,12.9042,13.4477z" fill="#EAB765"/>
      <path d="M13.2666,12.8071c0,-0.409,-0.3258,-0.7406,-0.7271,-0.7406s-0.7285,0.3316,-0.7285,0.7406c0,0.274,0.1566,0.5126,0.3615,0.6407l-0.1756,1.2636c0,0.2037,0.3416,0.311,0.5415,0.311s0.5122,-0.1073,0.5122,-0.311l-0.1463,-1.2636C13.1383,13.3196,13.2666,13.081,13.2666,12.8071z" fill="#6D6E71"/>
    </g>
  </g>
</svg>
