<?xml version="1.0" encoding="UTF-8"?>
<!DOCTYPE svg PUBLIC "-//W3C//DTD SVG 1.1//EN" "http://www.w3.org/Graphics/SVG/1.1/DTD/svg11.dtd">
<svg version="1.1" id="Layer_1" xmlns="http://www.w3.org/2000/svg" xmlns:xlink="http://www.w3.org/1999/xlink" x="0px" y="0px" width="16px" height="16px" viewBox="0 0 16 16" enable-background="new 0 0 16 16" xml:space="preserve">
  <g id="main">
    <g id="icon">
      <path d="M7.353,0.2563L7.171,0.4045L6.839,0.9283L6.541,1.673L6.269,2.54L5.767,4.246L5.521,4.888L5.395,5.113L5.266,5.258L5.095,5.341L4.853,5.393L4.196,5.422L2.508,5.338L1.653,5.312L0.9074,5.355L0.6039,5.416L0.3607,5.51L0.1895,5.643L0.101,5.821L0.1027,6.031L0.1873,6.257L0.5615,6.744L1.135,7.262L1.819,7.788L3.165,8.786L3.651,9.214L3.893,9.567L3.893,10.01L3.75,10.66L3.255,12.29L3.016,13.13L2.857,13.88L2.835,14.47L2.892,14.68L3.005,14.82L3.171,14.89L3.38,14.88L3.903,14.68L4.528,14.29L5.207,13.8L6.085,13.15L6.026,12.96L6,12.7L6,10.3L6.026,10.04L6.102,9.794L6.381,9.381L6.794,9.102L7.038,9.026L7.3,9L9,9L9,7.3L9.026,7.038L9.102,6.794L9.381,6.381L9.794,6.102L10.04,6.026L10.3,6L12.7,6L12.96,6.026L13.21,6.102L13.62,6.381L13.9,6.794L13.97,7.038L14,7.263L14.54,6.758L14.9,6.267L14.99,6.037L14.99,5.822L14.9,5.639L14.73,5.501L14.48,5.402L14.17,5.337L13.4,5.288L12.52,5.307L10.8,5.378L10.14,5.341L9.897,5.285L9.735,5.196L9.51,4.818L9.303,4.175L8.88,2.484L8.632,1.629L8.337,0.8994L8.168,0.6111L7.981,0.3904L7.774,0.2494L7.546,0.2zz" fill-rule="evenodd" fill="#EAB765"/>
    </g>
    <g id="overlay">
      <path d="M15.7,10h-2.7V7.3c0,-0.166,-0.134,-0.3,-0.3,-0.3h-2.4c-0.166,0,-0.3,0.134,-0.3,0.3v2.7H7.3c-0.166,0,-0.3,0.134,-0.3,0.3v2.4c0,0.166,0.134,0.3,0.3,0.3h2.7v2.7c0,0.166,0.134,0.3,0.3,0.3h2.4c0.166,0,0.3,-0.134,0.3,-0.3v-2.7h2.7c0.166,0,0.3,-0.134,0.3,-0.3v-2.4C16,10.134,15.866,10,15.7,10z" fill="#4EA17E"/>
    </g>
  </g>
</svg>
