<?xml version="1.0" encoding="UTF-8"?>
<!DOCTYPE svg PUBLIC "-//W3C//DTD SVG 1.1//EN" "http://www.w3.org/Graphics/SVG/1.1/DTD/svg11.dtd">
<svg version="1.1" id="Layer_1" xmlns="http://www.w3.org/2000/svg" xmlns:xlink="http://www.w3.org/1999/xlink" x="0px" y="0px" width="16px" height="16px" viewBox="0 0 16 16" enable-background="new 0 0 16 16" xml:space="preserve">
  <g id="main">
    <g id="icon">
      <path d="M7.353,0.2563L7.171,0.4045L6.839,0.9283L6.541,1.673L6.269,2.54L5.767,4.246L5.521,4.888L5.395,5.113L5.266,5.258L5.095,5.341L4.853,5.393L4.196,5.422L2.508,5.338L1.653,5.312L0.9074,5.355L0.6039,5.416L0.3607,5.51L0.1895,5.643L0.101,5.821L0.1027,6.031L0.1873,6.257L0.5615,6.744L1.135,7.262L1.819,7.788L3.165,8.786L3.651,9.214L3.893,9.567L3.893,10.01L3.75,10.66L3.255,12.29L3.016,13.13L2.857,13.88L2.835,14.47L2.892,14.68L3.005,14.82L3.171,14.89L3.38,14.88L3.903,14.68L4.528,14.29L5.207,13.8L6.546,12.81L7.111,12.47L7.312,12.39L8.237,11.47L6.387,9.618L6.221,9.416L6.1,9.19L6.025,8.944L6,8.684L6.025,8.424L6.1,8.178L6.221,7.951L6.387,7.75L7.749,6.388L7.951,6.222L8.177,6.101L8.423,6.026L8.683,6.001L8.943,6.026L9.189,6.101L9.416,6.222L9.617,6.388L11.47,8.238L13.32,6.388L13.52,6.222L13.75,6.101L13.99,6.026L14.25,6.001L14.51,6.026L14.76,6.101L14.93,6.194L14.99,6.037L14.99,5.822L14.9,5.639L14.73,5.501L14.48,5.402L14.17,5.337L13.4,5.288L12.52,5.307L10.8,5.378L10.14,5.341L9.897,5.285L9.735,5.196L9.51,4.818L9.303,4.175L8.88,2.484L8.632,1.629L8.337,0.8994L8.168,0.6111L7.981,0.3904L7.774,0.2494L7.546,0.2zM11.33,14.83L11.77,15L11.47,14.7zz" fill-rule="evenodd" fill="#EAB765"/>
    </g>
    <g id="overlay">
      <path d="M15.906,14.544l-1.362,1.362c-0.125,0.125,-0.329,0.125,-0.454,0l-2.622,-2.622l-2.557,2.557c-0.125,0.125,-0.329,0.125,-0.454,0l-1.362,-1.362c-0.125,-0.125,-0.125,-0.329,0,-0.454l2.557,-2.557L7.094,8.911c-0.125,-0.125,-0.125,-0.329,0,-0.454l1.362,-1.362c0.125,-0.125,0.329,-0.125,0.454,0l2.557,2.557l2.557,-2.557c0.125,-0.125,0.329,-0.125,0.454,0l1.362,1.362c0.125,0.125,0.125,0.329,0,0.454l-2.557,2.557l2.622,2.622C16.031,14.215,16.031,14.418,15.906,14.544z" fill-rule="evenodd" fill="#CD4C32"/>
    </g>
  </g>
</svg>
