<?xml version="1.0" encoding="UTF-8"?>
<!DOCTYPE svg PUBLIC "-//W3C//DTD SVG 1.1//EN" "http://www.w3.org/Graphics/SVG/1.1/DTD/svg11.dtd">
<svg version="1.1" id="Layer_1" xmlns="http://www.w3.org/2000/svg" xmlns:xlink="http://www.w3.org/1999/xlink" x="0px" y="0px" width="16px" height="16px" viewBox="0 0 16 16" enable-background="new 0 0 16 16" xml:space="preserve">
  <g id="icon">
    <path d="M8.046,0.2C9.409,0.197,9.7,4.923,10.381,5.531c0.682,0.607,5.382,-0.513,5.609,0.668c0.227,1.181,-3.658,3.11,-4.047,4.055c-0.39,0.945,1.824,4.943,1.013,5.651c-0.812,0.708,-3.904,-2.746,-4.91,-2.746s-4.034,3.252,-4.845,2.645s1.207,-4.732,0.948,-5.609c-0.26,-0.877,-4.294,-2.849,-4.047,-3.996s4.765,-0.027,5.511,-0.6C6.359,5.025,6.91,0.234,8.046,0.2" fill-rule="evenodd" fill="#EAB765"/>
  </g>
</svg>
