<?xml version="1.0" encoding="UTF-8"?>
<!DOCTYPE svg PUBLIC "-//W3C//DTD SVG 1.1//EN" "http://www.w3.org/Graphics/SVG/1.1/DTD/svg11.dtd">
<svg version="1.1" id="Layer_1" xmlns="http://www.w3.org/2000/svg" xmlns:xlink="http://www.w3.org/1999/xlink" x="0px" y="0px" width="16px" height="16px" viewBox="0 0 16 16" enable-background="new 0 0 16 16" xml:space="preserve">
  <g id="main">
    <g id="icon">
      <path d="M0,13L0.07852,13.39L0.293,13.71L0.6107,13.92L1,14L6.739,14L7.081,13.2L7.284,12.9L7.579,12.69L7.779,12.4L12.64,7.537L12.9,7.35L13.15,6.986L13.73,6.45L14,6.239L14.26,6.111L14.71,6.031L15,6.083L15,4L0,4zz" fill-rule="evenodd" fill="#E9B664"/>
      <path d="M0.6107,0.07852L0.293,0.293L0.07852,0.6107L0,1L0,3L15,3L14.92,2.611L14.71,2.293L14.39,2.079L14,2L8.6,2L8.286,1.969L7.988,1.878L7.712,1.731L7.469,1.531L6.406,0.4686L6.162,0.2688L5.887,0.1219L5.588,0.03105L5.274,0L1,0zz" fill-rule="evenodd" fill="#96762C"/>
    </g>
    <g id="overlay">
      <path d="M8.486,13.108l4.8635,-4.8635l1.4369,1.4369l-4.8635,4.8635L8.486,13.108zM14.4206,7.1734c0.1899,-0.1899,0.3832,-0.1899,0.5732,0l0.8637,0.8637c0.1899,0.1899,0.1899,0.3833,0,0.5732l-0.5809,0.5443l-1.4453,-1.4352L14.4206,7.1734zM7.031,15.8619l0.9699,-2.2687l1.4369,1.4369L7.169,16L7.031,15.8619z" fill-rule="evenodd" fill="#3E79B4"/>
    </g>
  </g>
</svg>
