<?xml version="1.0" encoding="UTF-8"?>
<!DOCTYPE svg PUBLIC "-//W3C//DTD SVG 1.1//EN" "http://www.w3.org/Graphics/SVG/1.1/DTD/svg11.dtd">
<svg version="1.1" id="Layer_1" xmlns="http://www.w3.org/2000/svg" xmlns:xlink="http://www.w3.org/1999/xlink" x="0px" y="0px" width="16px" height="16px" viewBox="0 0 16 16" enable-background="new 0 0 16 16" xml:space="preserve">
  <g id="main">
    <g id="icon">
      <path d="M1.611,0.07852L1.293,0.293L1.079,0.6107L1,1L1,5L14,5L14,2.9L13.93,2.55L13.74,2.264L13.45,2.071L13.1,2L8.526,2L8.212,1.969L7.913,1.878L7.638,1.731L7.394,1.531L6.331,0.4686L6.088,0.2688L5.812,0.1219L5.514,0.03105L5.2,0L2,0zz" fill-rule="evenodd" fill="#96762C"/>
      <path d="M0.6107,6.079L0.293,6.293L0.07852,6.611L0,7L1,13L1.079,13.39L1.293,13.71L1.611,13.92L2,14L8,14L8,12.3L8.037,11.89L8.144,11.5L8.037,11.11L8,10.7L8,8.3L8.047,7.837L8.181,7.406L8.393,7.015L8.674,6.674L9.015,6.393L9.406,6.181L9.837,6.047L10.3,6L1,6zz" fill-rule="evenodd" fill="#E9B664"/>
    </g>
    <g id="overlay">
      <path d="M15.5,10.7c0,0.4418,-0.3582,0.8,-0.8,0.8h-4.4c-0.4418,0,-0.8,-0.3582,-0.8,-0.8V8.3c0,-0.4418,0.3582,-0.8,0.8,-0.8h4.4c0.4418,0,0.8,0.3582,0.8,0.8V10.7z" fill-rule="evenodd" fill="#FFFFFF" stroke="#797979" stroke-width="1" stroke-miterlimit="10"/>
      <path d="M15.5,14.7c0,0.4418,-0.3582,0.8,-0.8,0.8h-4.4c-0.4418,0,-0.8,-0.3582,-0.8,-0.8v-2.4c0,-0.4418,0.3582,-0.8,0.8,-0.8h4.4c0.4418,0,0.8,0.3582,0.8,0.8V14.7z" fill-rule="evenodd" fill="#FFFFFF" stroke="#797979" stroke-width="1" stroke-miterlimit="10"/>
      <path d="M12.539,8.7h0.1711c0.6968,0,1.2887,0.0526,1.3997,1.2901c0.0142,0.158,-0.0849,0.3099,-0.2108,0.3099h-2.7461c-0.1259,0,-0.225,-0.1519,-0.2108,-0.3098C11.0526,8.7526,11.8422,8.7,12.539,8.7z" fill-rule="evenodd" fill="#3E79B4"/>
      <path d="M12.539,12.7h0.1711c0.6968,0,1.2887,0.0754,1.3997,1.313c0.0142,0.158,-0.0849,0.287,-0.2108,0.287h-2.7461c-0.1259,0,-0.225,-0.129,-0.2108,-0.2869C11.0526,12.7755,11.8422,12.7,12.539,12.7z" fill-rule="evenodd" fill="#3E79B4"/>
    </g>
  </g>
</svg>
