<?xml version="1.0" encoding="UTF-8"?>
<!DOCTYPE svg PUBLIC "-//W3C//DTD SVG 1.1//EN" "http://www.w3.org/Graphics/SVG/1.1/DTD/svg11.dtd">
<svg version="1.1" id="Layer_1" xmlns="http://www.w3.org/2000/svg" xmlns:xlink="http://www.w3.org/1999/xlink" x="0px" y="0px" width="16px" height="16px" viewBox="0 0 16 16" enable-background="new 0 0 16 16" xml:space="preserve">
  <g id="main">
    <g id="icon">
      <path d="M1.611,0.07852L1.293,0.293L1.079,0.6107L1,1L1,5L14,5L14,2.9L13.93,2.55L13.74,2.264L13.45,2.071L13.1,2L8.526,2L8.212,1.969L7.913,1.878L7.638,1.731L7.394,1.531L6.331,0.4686L6.088,0.2688L5.812,0.1219L5.514,0.03105L5.2,0L2,0zz" fill-rule="evenodd" fill="#96762C"/>
      <path d="M0.6107,6.079L0.293,6.293L0.07852,6.611L0,7L1,13L1.079,13.39L1.293,13.71L1.611,13.92L2,14L6.607,14L6.368,13.48L6.167,12.85L6.043,12.19L6,11.5L6.029,10.94L6.112,10.39L6.248,9.866L6.433,9.361L6.665,8.88L6.941,8.427L7.257,8.004L7.613,7.613L8.004,7.257L8.427,6.941L8.88,6.665L9.361,6.433L9.866,6.248L10.39,6.112L10.94,6.029L11.5,6L1,6zM11.5,6L12.19,6.043L12.85,6.167L13.48,6.368L14.07,6.641L14.63,6.98L14.96,7.24L15,7L14.92,6.611L14.71,6.293L14.39,6.079L14,6L11.5,6zz" fill-rule="evenodd" fill="#E9B664"/>
    </g>
    <g id="overlay">
      <path d="M16,11.5c0,-2.4853,-2.0147,-4.5,-4.5,-4.5c-2.4853,0,-4.5,2.0147,-4.5,4.5s2.0147,4.5,4.5,4.5C13.9853,16,16,13.9853,16,11.5zM9,12v-1h5v1H9z" fill-rule="evenodd" fill="#CD4C32"/>
      <rect x="9" y="11" width="5" height="1" fill-rule="evenodd" fill="#FFFFFF"/>
    </g>
  </g>
</svg>
