<?xml version="1.0" encoding="UTF-8"?>
<!DOCTYPE svg PUBLIC "-//W3C//DTD SVG 1.1//EN" "http://www.w3.org/Graphics/SVG/1.1/DTD/svg11.dtd">
<svg version="1.1" id="Layer_1" xmlns="http://www.w3.org/2000/svg" xmlns:xlink="http://www.w3.org/1999/xlink" x="0px" y="0px" width="16px" height="16px" viewBox="0 0 16 16" enable-background="new 0 0 16 16" xml:space="preserve">
  <g id="main">
    <g id="icon">
      <path d="M1.611,0.07852L1.293,0.293L1.079,0.6107L1,1L1,5L14,5L14,2.9L13.93,2.55L13.74,2.264L13.45,2.071L13.1,2L8.526,2L8.212,1.969L7.913,1.878L7.638,1.731L7.394,1.531L6.331,0.4686L6.088,0.2688L5.812,0.1219L5.514,0.03105L5.2,0L2,0zz" fill-rule="evenodd" fill="#96762C"/>
      <path d="M0.6107,6.079L0.293,6.293L0.07852,6.611L0,7L1,13L1.079,13.39L1.293,13.71L1.611,13.92L2,14L7.032,14L7.026,13.98L7,13.73L7,12.22L7.025,11.98L7.098,11.74L7.367,11.35L7.768,11.09L8.265,11L10.42,11L10.32,10.9L10.12,10.63L10.02,10.33L10.01,10.01L10.08,9.691L10.25,9.407L10.49,9.189L10.79,9.05L11.11,9.001L13.05,9L13.52,9.088L13.92,9.343L13.93,9.359L13.95,9.376L14.51,9.952L15,7L14.92,6.611L14.71,6.293L14.39,6.079L14,6L1,6zz" fill-rule="evenodd" fill="#E9B664"/>
    </g>
    <g id="overlay">
      <path d="M13.2288,10.0699c-0.0478,-0.0451,-0.111,-0.0701,-0.1767,-0.0699l-1.9354,0.0006c-0.1039,0.0003,-0.1557,0.1259,-0.0823,0.1994l1.7219,1.8H8.265c-0.1416,0,-0.265,0.0833,-0.265,0.2249v0.5601v0.502v0.4391c0,0.1416,0.1148,0.2563,0.2563,0.2563h4.4912l-1.7304,1.8185c-0.0732,0.0737,-0.0209,0.1991,0.0829,0.1991h1.9222c0.0662,0,0.1299,-0.0256,0.1776,-0.0715c0,0,1.9735,-2.0193,2.7414,-2.7965c0.0786,-0.0795,0.078,-0.204,-0.0013,-0.2828C15.1735,12.0873,13.2288,10.0699,13.2288,10.0699z" fill-rule="evenodd" fill="#8C53A1"/>
    </g>
  </g>
</svg>
