<?xml version="1.0" encoding="UTF-8"?>
<!DOCTYPE svg PUBLIC "-//W3C//DTD SVG 1.1//EN" "http://www.w3.org/Graphics/SVG/1.1/DTD/svg11.dtd">
<svg version="1.1" id="Layer_1" xmlns="http://www.w3.org/2000/svg" xmlns:xlink="http://www.w3.org/1999/xlink" x="0px" y="0px" width="16px" height="16px" viewBox="0 0 16 16" enable-background="new 0 0 16 16" xml:space="preserve">
  <g id="main">
    <g id="icon">
      <path d="M1.611,0.07852L1.293,0.293L1.079,0.6107L1,1L1,5L14,5L14,2.9L13.93,2.55L13.74,2.264L13.45,2.071L13.1,2L8.526,2L8.212,1.969L7.913,1.878L7.638,1.731L7.394,1.531L6.331,0.4686L6.088,0.2688L5.812,0.1219L5.514,0.03105L5.2,0L2,0zz" fill-rule="evenodd" fill="#96762C"/>
      <path d="M0.6107,6.079L0.293,6.293L0.07852,6.611L0,7L1,13L1.079,13.39L1.293,13.71L1.611,13.92L2,14L6,14L6,9.735L6.035,9.385L6.135,9.06L6.294,8.765L6.504,8.509L6.759,8.297L7.051,8.137L7.374,8.035L7.72,8L14.83,8L15,7L14.92,6.611L14.71,6.293L14.39,6.079L14,6L1,6zz" fill-rule="evenodd" fill="#E9B664"/>
    </g>
    <g id="overlay">
      <path d="M7.7197,9.5h7.5607c0.1213,0,0.2197,0.105,0.2197,0.2346v5.4956c0,0.1296,-0.0983,0.2698,-0.2197,0.2698H7.7197c-0.1213,0,-0.2197,-0.1402,-0.2197,-0.2698V9.7346C7.5,9.605,7.5983,9.5,7.7197,9.5z" fill-rule="evenodd" fill="#FFFFFF" stroke="#6D6E71" stroke-width="1" stroke-miterlimit="10"/>
      <path d="M7.6746,15.3182l2.581,-3.0911M12.7817,12.1978l2.581,3.1204" fill="none" stroke="#6D6E71" stroke-width="0.8" stroke-linecap="round" stroke-miterlimit="10"/>
      <path d="M15.4176,9.588c0,0,-2.6805,2.6935,-2.8995,2.8235c-0.8728,0.644,-1.1633,0.644,-2.0021,0C9.9748,11.988,7.6197,9.588,7.6197,9.588" fill-rule="evenodd" fill="none" stroke="#6D6E71" stroke-width="0.8" stroke-miterlimit="10"/>
    </g>
  </g>
</svg>
