<?xml version="1.0" encoding="UTF-8"?>
<!DOCTYPE svg PUBLIC "-//W3C//DTD SVG 1.1//EN" "http://www.w3.org/Graphics/SVG/1.1/DTD/svg11.dtd">
<svg version="1.1" id="Layer_1" xmlns="http://www.w3.org/2000/svg" xmlns:xlink="http://www.w3.org/1999/xlink" x="0px" y="0px" width="16px" height="16px" viewBox="0 0 16 16" enable-background="new 0 0 16 16" xml:space="preserve">
  <g id="main">
    <g id="icon">
      <path d="M0,13L0.07852,13.39L0.293,13.71L0.6107,13.92L1,14L7.332,14L7.213,13.94L6.831,13.63L6.519,13.26L6.283,12.84L6.129,12.39L6.064,11.9L6.092,11.41L6.22,10.92L6.381,10.57L6.592,10.25L6.845,9.967L7.135,9.729L7.456,9.537L7.804,9.395L8.171,9.307L8.553,9.276L9.007,9.319L9.446,9.445L9.571,9.497L12.11,8.447L12.16,8.275L12.33,7.923L12.54,7.604L12.79,7.324L13.08,7.085L13.4,6.893L13.75,6.751L14.12,6.663L14.5,6.632L14.95,6.674L15,6.687L15,4L0,4zz" fill-rule="evenodd" fill="#E9B664"/>
      <path d="M0.6107,0.07852L0.293,0.293L0.07852,0.6107L0,1L0,3L15,3L14.92,2.611L14.71,2.293L14.39,2.079L14,2L8.6,2L8.286,1.969L7.988,1.878L7.712,1.731L7.469,1.531L6.406,0.4686L6.162,0.2688L5.887,0.1219L5.588,0.03105L5.274,0L1,0zz" fill-rule="evenodd" fill="#96762C"/>
    </g>
    <g id="overlay">
      <polygon points="8.1555,11.9061 8.2033,11.8062 8.1555,11.7063 14.5463,9.061 14.6419,9.2608 8.4925,11.8062 14.6419,14.3516 14.5463,14.5514" fill="none" stroke="#4DA07D" stroke-width="1" stroke-linecap="round" stroke-miterlimit="10" stroke-linejoin="round"/>
      <path d="M14.4968,15.9818c-0.181,0,-0.3593,-0.0337,-0.5299,-0.1001c-0.7682,-0.2993,-1.1565,-1.1838,-0.8655,-1.9716c0.2184,-0.5912,0.7794,-0.9885,1.3959,-0.9885c0.181,0,0.3593,0.0337,0.53,0.1002c0.7682,0.2993,1.1565,1.1837,0.8655,1.9716C15.6743,15.5845,15.1133,15.9818,14.4968,15.9818L14.4968,15.9818zM8.5529,13.3364c-0.181,0,-0.3593,-0.0337,-0.5299,-0.1002c-0.7682,-0.2993,-1.1565,-1.1838,-0.8654,-1.9716c0.2183,-0.5912,0.7793,-0.9884,1.3959,-0.9884c0.181,0,0.3593,0.0337,0.53,0.1002c0.7682,0.2993,1.1565,1.1837,0.8655,1.9716C9.7305,12.9392,9.1695,13.3364,8.5529,13.3364zM14.4968,10.6911c-0.1811,0,-0.3593,-0.0337,-0.53,-0.1002c-0.7682,-0.2993,-1.1565,-1.1837,-0.8655,-1.9716c0.2184,-0.5912,0.7794,-0.9884,1.3959,-0.9884c0.181,0,0.3593,0.0337,0.5299,0.1002c0.7682,0.2993,1.1565,1.1838,0.8655,1.9716C15.6743,10.2938,15.1134,10.6911,14.4968,10.6911L14.4968,10.6911z" fill="#4DA07D"/>
    </g>
  </g>
</svg>
