<?xml version="1.0" encoding="UTF-8"?>
<!DOCTYPE svg PUBLIC "-//W3C//DTD SVG 1.1//EN" "http://www.w3.org/Graphics/SVG/1.1/DTD/svg11.dtd">
<svg version="1.1" id="Layer_1" xmlns="http://www.w3.org/2000/svg" xmlns:xlink="http://www.w3.org/1999/xlink" x="0px" y="0px" width="16px" height="16px" viewBox="0 0 16 16" enable-background="new 0 0 16 16" xml:space="preserve">
  <g id="main">
    <g id="icon">
      <path d="M0,13L0.07852,13.39L0.293,13.71L0.6107,13.92L1,14L7.4,14L7.4,9.745L7.194,9.55L7.036,9.313L6.936,9.043L6.9,8.748L6.9,7.892L6.938,7.516L7.046,7.164L7.216,6.843L7.441,6.561L7.712,6.328L8.022,6.151L8.361,6.039L8.723,6L15,6L15,4L0,4zz" fill-rule="evenodd" fill="#E9B664"/>
      <path d="M0.6107,0.07852L0.293,0.293L0.07852,0.6107L0,1L0,3L15,3L14.92,2.611L14.71,2.293L14.39,2.079L14,2L8.6,2L8.286,1.969L7.988,1.878L7.712,1.731L7.469,1.531L6.406,0.4686L6.162,0.2688L5.887,0.1219L5.588,0.03105L5.274,0L1,0zz" fill-rule="evenodd" fill="#96762C"/>
    </g>
    <g id="overlay">
      <path d="M8.4,9.5v5.4671C8.4,15.6538,9.0333,16,9.725,16h4.3454c0.6917,0,1.3296,-0.3462,1.3296,-1.0329V9.5H8.4z" fill="#797979"/>
      <path d="M15.1718,7H12.1h-0.4H8.7235C8.2661,7,7.9,7.4377,7.9,7.8918v0.8562c0,0.144,0.1129,0.252,0.2579,0.252h7.5795c0.145,0,0.2626,-0.108,0.2626,-0.252v-0.8562C16,7.4377,15.6292,7,15.1718,7z" fill="#3E79B4"/>
      <rect x="9.9" y="10.5" width="1" height="4.5" fill="#FFFFFF"/>
      <rect x="12.9" y="10.5" width="1" height="4.5" fill="#FFFFFF"/>
    </g>
  </g>
</svg>
