<?xml version="1.0" encoding="UTF-8"?>
<!DOCTYPE svg PUBLIC "-//W3C//DTD SVG 1.1//EN" "http://www.w3.org/Graphics/SVG/1.1/DTD/svg11.dtd">
<svg version="1.1" id="Layer_1" xmlns="http://www.w3.org/2000/svg" xmlns:xlink="http://www.w3.org/1999/xlink" x="0px" y="0px" width="16px" height="16px" viewBox="0 0 16 16" enable-background="new 0 0 16 16" xml:space="preserve">
  <g id="main">
    <g id="icon">
      <path d="M1.611,0.07852L1.293,0.293L1.079,0.6107L1,1L1,5L14,5L14,2.9L13.93,2.55L13.74,2.264L13.45,2.071L13.1,2L8.526,2L8.212,1.969L7.913,1.878L7.638,1.731L7.394,1.531L6.331,0.4686L6.088,0.2688L5.812,0.1219L5.514,0.03105L5.2,0L2,0zz" fill-rule="evenodd" fill="#96762C"/>
      <path d="M0.6107,6.079L0.293,6.293L0.07852,6.611L0,7L1,13L1.079,13.39L1.293,13.71L1.611,13.92L2,14L7.4,14L7.4,9.745L7.194,9.55L7.036,9.313L6.936,9.043L6.9,8.748L6.9,7.892L6.938,7.516L7.046,7.164L7.216,6.843L7.441,6.561L7.712,6.328L8.022,6.151L8.361,6.039L8.723,6L1,6zz" fill-rule="evenodd" fill="#E9B664"/>
    </g>
    <g id="overlay">
      <path d="M8.4,9.5v5.4671C8.4,15.6538,9.0333,16,9.725,16h4.3454c0.6917,0,1.3296,-0.3462,1.3296,-1.0329V9.5H8.4z" fill="#797979"/>
      <path d="M15.1718,7H12.1h-0.4H8.7235C8.2661,7,7.9,7.4377,7.9,7.8918v0.8562c0,0.144,0.1129,0.252,0.2579,0.252h7.5795c0.145,0,0.2626,-0.108,0.2626,-0.252v-0.8562C16,7.4377,15.6292,7,15.1718,7z" fill="#3E79B4"/>
      <rect x="9.9" y="10.5" width="1" height="4.5" fill="#FFFFFF"/>
      <rect x="12.9" y="10.5" width="1" height="4.5" fill="#FFFFFF"/>
    </g>
  </g>
</svg>
