<?xml version="1.0" encoding="UTF-8"?>
<!DOCTYPE svg PUBLIC "-//W3C//DTD SVG 1.1//EN" "http://www.w3.org/Graphics/SVG/1.1/DTD/svg11.dtd">
<svg version="1.1" id="Layer_1" xmlns="http://www.w3.org/2000/svg" xmlns:xlink="http://www.w3.org/1999/xlink" x="0px" y="0px" width="16px" height="16px" viewBox="0 0 16 16" enable-background="new 0 0 16 16" xml:space="preserve">
  <g id="main">
    <g id="icon">
      <path d="M0,13L0.07852,13.39L0.293,13.71L0.6107,13.92L1,14L7.492,14L7.355,13.86L7.091,13.47L7.002,13.01L7.087,12.56L7.347,12.17L10.08,9.373L10.11,9.351L10.51,9.091L10.98,9L12.9,9L13.23,9.049L13.52,9.187L13.76,9.404L13.93,9.688L14.01,10L14,10.32L13.89,10.62L13.7,10.88L13.58,11L15,11L15,4L0,4zz" fill-rule="evenodd" fill="#E9B664"/>
      <path d="M0.6107,0.07852L0.293,0.293L0.07852,0.6107L0,1L0,3L15,3L14.92,2.611L14.71,2.293L14.39,2.079L14,2L8.6,2L8.286,1.969L7.988,1.878L7.712,1.731L7.469,1.531L6.406,0.4686L6.162,0.2688L5.887,0.1219L5.588,0.03105L5.274,0L1,0zz" fill-rule="evenodd" fill="#96762C"/>
    </g>
    <g id="overlay">
      <path d="M10.7712,15.9301c0.0478,0.0451,0.111,0.0701,0.1767,0.0699l1.9354,-0.0006c0.1039,-0.0003,0.1557,-0.1259,0.0823,-0.1994l-1.7219,-1.8h4.4913c0.1416,0,0.265,-0.0833,0.265,-0.2249v-0.5601v-0.502v-0.4391c0,-0.1416,-0.1148,-0.2563,-0.2563,-0.2563h-4.4913l1.7304,-1.8185c0.0732,-0.0737,0.0209,-0.1991,-0.0829,-0.1991h-1.9222c-0.0662,0,-0.1299,0.0256,-0.1776,0.0715c0,0,-1.9735,2.0193,-2.7414,2.7965c-0.0786,0.0795,-0.078,0.204,0.0013,0.2828C8.8265,13.9127,10.7712,15.9301,10.7712,15.9301z" fill-rule="evenodd" fill="#3E79B4"/>
    </g>
  </g>
</svg>
