<?xml version="1.0" encoding="UTF-8"?>
<!DOCTYPE svg PUBLIC "-//W3C//DTD SVG 1.1//EN" "http://www.w3.org/Graphics/SVG/1.1/DTD/svg11.dtd">
<svg version="1.1" id="Layer_1" xmlns="http://www.w3.org/2000/svg" xmlns:xlink="http://www.w3.org/1999/xlink" x="0px" y="0px" width="16px" height="16px" viewBox="0 0 16 16" enable-background="new 0 0 16 16" xml:space="preserve">
  <g id="main">
    <g id="icon">
      <path d="M1.611,0.07852L1.293,0.293L1.079,0.6107L1,1L1,5L14,5L14,2.9L13.93,2.55L13.74,2.264L13.45,2.071L13.1,2L8.526,2L8.212,1.969L7.913,1.878L7.638,1.731L7.394,1.531L6.331,0.4686L6.088,0.2688L5.812,0.1219L5.514,0.03105L5.2,0L2,0zz" fill-rule="evenodd" fill="#96762C"/>
      <path d="M0.6107,6.079L0.293,6.293L0.07852,6.611L0,7L1,13L1.079,13.39L1.293,13.71L1.611,13.92L2,14L6.05,14L6.097,13.75L6.218,13.53L6.387,13.32L8.237,11.47L6.387,9.618L6.221,9.416L6.1,9.19L6.025,8.944L6,8.684L6.025,8.424L6.1,8.178L6.221,7.951L6.387,7.75L7.749,6.388L7.951,6.222L8.177,6.101L8.423,6.026L8.683,6.001L8.943,6.026L9.189,6.101L9.416,6.222L9.617,6.388L11.47,8.238L13.32,6.388L13.52,6.222L13.75,6.101L13.99,6.026L14.09,6.017L14,6L1,6zz" fill-rule="evenodd" fill="#E9B664"/>
    </g>
    <g id="overlay">
      <path d="M15.906,14.544l-1.362,1.362c-0.125,0.125,-0.329,0.125,-0.454,0l-2.622,-2.622l-2.557,2.557c-0.125,0.125,-0.329,0.125,-0.454,0l-1.362,-1.362c-0.125,-0.125,-0.125,-0.329,0,-0.454l2.557,-2.557L7.094,8.911c-0.125,-0.125,-0.125,-0.329,0,-0.454l1.362,-1.362c0.125,-0.125,0.329,-0.125,0.454,0l2.557,2.557l2.557,-2.557c0.125,-0.125,0.329,-0.125,0.454,0l1.362,1.362c0.125,0.125,0.125,0.329,0,0.454l-2.557,2.557l2.622,2.622C16.031,14.215,16.031,14.418,15.906,14.544z" fill-rule="evenodd" fill="#CD4C32"/>
    </g>
  </g>
</svg>
