<?xml version="1.0" encoding="UTF-8"?>
<!DOCTYPE svg PUBLIC "-//W3C//DTD SVG 1.1//EN" "http://www.w3.org/Graphics/SVG/1.1/DTD/svg11.dtd">
<svg version="1.1" id="Layer_1" xmlns="http://www.w3.org/2000/svg" xmlns:xlink="http://www.w3.org/1999/xlink" x="0px" y="0px" width="16px" height="16px" viewBox="0 0 16 16" enable-background="new 0 0 16 16" xml:space="preserve">
  <g id="icon">
    <path d="M12.396,4.058l-0.119,-0.052c-0.735,-0.318,-1.763,-0.508,-2.75,-0.508c-1.689,0,-3.25,0.619,-4.395,1.742C4.044,6.308,3.42,7.764,3.42,9.236c0,2.052,1.445,3.125,2.873,3.125c1.437,0,2.571,-0.596,3.455,-1.82c0.041,0.488,0.194,0.866,0.457,1.127c0.307,0.306,0.753,0.455,1.363,0.455c2.164,0,4.355,-1.872,4.355,-5.449c0,-1.856,-0.688,-3.535,-1.937,-4.728C12.699,0.718,10.938,0.069,8.891,0.069c-2.519,0,-4.796,0.928,-6.412,2.613C0.936,4.29,0.086,6.458,0.086,8.786c0,2.091,0.754,3.89,2.182,5.203c1.342,1.234,3.173,1.914,5.156,1.914c1.7,0,3.023,-0.28,4.289,-0.907l0.131,-0.065l-0.499,-1.259l-0.166,0.087c-0.942,0.496,-2.151,0.759,-3.496,0.759c-3.541,0,-5.919,-2.357,-5.919,-5.865c0,-4.197,2.918,-7.243,6.937,-7.243c3.432,0,5.564,2.077,5.564,5.421c0,2.401,-1.215,3.888,-2.341,3.888c-0.015,0,-0.03,0,-0.046,-0.001c-0.262,-0.007,-0.363,-0.095,-0.417,-0.159c-0.214,-0.26,-0.197,-0.911,0.056,-2.114L12.396,4.058zM10.147,5.357l-0.47,2.356c-0.258,1.366,-1.479,2.893,-2.726,2.893c-0.888,0,-1.398,-0.558,-1.398,-1.531c0,-2.083,1.648,-3.842,3.599,-3.842C9.625,5.232,9.958,5.302,10.147,5.357z" fill="#3E78B3"/>
  </g>
</svg>
