<?xml version="1.0" encoding="UTF-8"?>
<!DOCTYPE svg PUBLIC "-//W3C//DTD SVG 1.1//EN" "http://www.w3.org/Graphics/SVG/1.1/DTD/svg11.dtd">
<svg version="1.1" id="Layer_1" xmlns="http://www.w3.org/2000/svg" xmlns:xlink="http://www.w3.org/1999/xlink" x="0px" y="0px" width="16px" height="16px" viewBox="0 0 16 16" enable-background="new 0 0 16 16" xml:space="preserve">
  <g id="main">
    <clipPath id="clip_mask">
      <path d="M7.3549,13.8601c-0.4681,-0.4649,-0.4716,-1.2252,-0.0079,-1.6948c0.7574,-0.7666,2.7181,-2.7726,2.7377,-2.7927l0.0222,-0.022c0.2352,-0.226,0.5444,-0.3505,0.8706,-0.3505h1.9222c0.4524,0,0.8571,0.2699,1.0311,0.6875c0.1719,0.4128,0.0824,0.8751,-0.2274,1.196L13.5843,11h2.1594c0.0878,0,0.1735,0.0095,0.2563,0.0272V0H0v16h9.4481C8.8129,15.3438,7.8392,14.3413,7.3549,13.8601z" fill-rule="evenodd"/>
    </clipPath>
    <g id="icon" clip-path="url(#clip_mask)">
      <path d="M13.5356,0C11.4323,0,2.6246,0,0.5658,0C-0.1181,0,0.153,0.5917,0.153,0.5917L5,7.3922V15h4V7.3745l4.968,-6.7828C13.968,0.5917,14.2715,0,13.5356,0zM8,7.3062V14.2H7V7.3062L9.5,1c0,0,2.6088,0.0179,2.6594,0.0179C12.2728,1.0179,8,7.3062,8,7.3062z" fill-rule="evenodd" fill="#797979"/>
      <path d="M7,7.3062L9.5,1c0,0,2.6088,0.0179,2.6594,0.0179C12.2728,1.0179,8,7.3062,8,7.3062V14.2H7V7.3062z" fill-rule="evenodd" fill="#FFFFFF"/>
    </g>
    <g id="overlay">
      <path d="M10.7712,15.9301c0.0478,0.0451,0.111,0.0701,0.1767,0.0699l1.9354,-0.0006c0.1039,-0.0003,0.1557,-0.1259,0.0823,-0.1994l-1.7219,-1.8h4.4913c0.1416,0,0.265,-0.0833,0.265,-0.2249v-0.5601v-0.502v-0.4391c0,-0.1416,-0.1148,-0.2563,-0.2563,-0.2563h-4.4913l1.7304,-1.8185c0.0732,-0.0737,0.0209,-0.1991,-0.0829,-0.1991h-1.9222c-0.0662,0,-0.1299,0.0256,-0.1776,0.0715c0,0,-1.9735,2.0193,-2.7414,2.7965c-0.0786,0.0795,-0.078,0.204,0.0013,0.2828C8.8265,13.9127,10.7712,15.9301,10.7712,15.9301z" fill-rule="evenodd" fill="#3E78B3"/>
    </g>
  </g>
</svg>
