<?xml version="1.0" encoding="UTF-8"?>
<!DOCTYPE svg PUBLIC "-//W3C//DTD SVG 1.1//EN" "http://www.w3.org/Graphics/SVG/1.1/DTD/svg11.dtd">
<svg version="1.1" id="Layer_1" xmlns="http://www.w3.org/2000/svg" xmlns:xlink="http://www.w3.org/1999/xlink" x="0px" y="0px" width="16px" height="16px" viewBox="0 0 16 16" enable-background="new 0 0 16 16" xml:space="preserve">
  <g id="main">
    <clipPath id="clip_mask">
      <path d="M0,0v11.0262C0.0853,11.0092,0.1738,11,0.265,11h2.1508l-0.1003,-0.1049c-0.3107,-0.3201,-0.4014,-0.7909,-0.2306,-1.2041c0.1727,-0.4181,0.5767,-0.6891,1.0291,-0.6904L5.0519,9c0.323,0,0.6292,0.1217,0.8634,0.3427l0.0172,0.0162l0.0164,0.017c0.0194,0.0201,1.9459,2.0184,2.6962,2.764c0.4681,0.4649,0.4716,1.2252,0.0079,1.6948c-0.4888,0.4947,-1.4782,1.5051,-2.1241,2.1653H16V0H0z" fill-rule="evenodd"/>
    </clipPath>
    <g id="icon" clip-path="url(#clip_mask)">
      <g id="transformed_icon" transform="translate(1 0)">
        <path d="M13.5356,0C11.4323,0,2.6246,0,0.5658,0C-0.1181,0,0.153,0.5917,0.153,0.5917L5,7.3922V15h4V7.3745l4.968,-6.7828C13.968,0.5917,14.2715,0,13.5356,0zM8,7.3062V14.2H7V7.3062L9.5,1c0,0,2.6088,0.0179,2.6594,0.0179C12.2728,1.0179,8,7.3062,8,7.3062z" fill-rule="evenodd" fill="#797979"/>
        <path d="M7,7.3062L9.5,1c0,0,2.6088,0.0179,2.6594,0.0179C12.2728,1.0179,8,7.3062,8,7.3062V14.2H7V7.3062z" fill-rule="evenodd" fill="#FFFFFF"/>
      </g>
    </g>
    <g id="overlay">
      <path d="M5.2288,10.0699c-0.0478,-0.0451,-0.111,-0.0701,-0.1767,-0.0699l-1.9354,0.0006c-0.1039,0.0003,-0.1557,0.1259,-0.0823,0.1994l1.7219,1.8H0.265C0.1234,12,0,12.0833,0,12.2249v0.5601l0,0.502l0,0.4391c0,0.1416,0.1148,0.2563,0.2563,0.2563h4.4912l-1.7304,1.8185c-0.0732,0.0737,-0.0209,0.1991,0.0829,0.1991h1.9222c0.0662,0,0.1299,-0.0256,0.1776,-0.0715c0,0,1.9735,-2.0193,2.7414,-2.7965c0.0786,-0.0795,0.078,-0.204,-0.0013,-0.2828C7.1735,12.0873,5.2288,10.0699,5.2288,10.0699z" fill-rule="evenodd" fill="#4DA07D"/>
    </g>
  </g>
</svg>
