<?xml version="1.0" encoding="UTF-8"?>
<!DOCTYPE svg PUBLIC "-//W3C//DTD SVG 1.1//EN" "http://www.w3.org/Graphics/SVG/1.1/DTD/svg11.dtd">
<svg version="1.1" id="Layer_1" xmlns="http://www.w3.org/2000/svg" xmlns:xlink="http://www.w3.org/1999/xlink" x="0px" y="0px" width="16px" height="16px" viewBox="0 0 16 16" enable-background="new 0 0 16 16" xml:space="preserve">
  <g id="main">
    <clipPath id="clip_mask">
      <path d="M6,11.5c0,-3.0327,2.4673,-5.5,5.5,-5.5c1.8588,0,3.5039,0.9278,4.5,2.3436V0H0v16h8.3436C6.9278,15.0039,6,13.3588,6,11.5z"/>
    </clipPath>
    <g id="icon" clip-path="url(#clip_mask)">
      <path d="M7.567,8.971c0.877,0,2.446,-0.107,3.75,-0.311c0.955,-0.15,1.561,-0.314,1.946,-0.458c-0.724,-1.192,-1.34,-2.583,-1.34,-3.767c0,-2.458,-1.994,-4.451,-4.453,-4.451c-2.459,0,-4.453,1.993,-4.453,4.451c0,1.534,-0.519,2.743,-1.153,3.743c0.388,0.145,1.006,0.312,1.988,0.469C5.191,8.86,6.735,8.971,7.567,8.971z" fill-rule="evenodd" fill="#EAB765"/>
      <path d="M14.895,10.601c-0.345,-0.383,-0.765,-0.909,-1.177,-1.512c-0.456,0.199,-1.167,0.395,-2.29,0.566c-1.408,0.215,-2.994,0.313,-3.872,0.313c-0.875,0,-2.49,-0.115,-3.884,-0.334c-0.8,-0.126,-1.453,-0.273,-1.941,-0.437c-0.133,-0.045,-0.253,-0.091,-0.362,-0.138c-0.44,0.599,-0.896,1.12,-1.253,1.593c-1.02,1.093,5.335,1.576,7.389,1.576C9.56,12.228,15.976,11.803,14.895,10.601z" fill-rule="evenodd" fill="#EAB765"/>
      <path d="M9.903,13.089c0,1.166,-1.08,1.927,-2.331,1.927c-1.251,0,-2.298,-0.76,-2.298,-1.927C7.089,13.245,7.983,13.245,9.903,13.089z" fill-rule="evenodd" fill="#797979"/>
    </g>
    <g id="overlay">
      <path d="M11.5,7c-2.4853,0,-4.5,2.0147,-4.5,4.5c0,2.4853,2.0147,4.5,4.5,4.5s4.5,-2.0147,4.5,-4.5C16,9.0147,13.9853,7,11.5,7zM14,12h-2v2h-1v-2H9v-1h2V9h1v2h2V12z" fill-rule="evenodd" fill="#4EA17E"/>
      <polygon points="14,11 12,11 12,9 11,9 11,11 9,11 9,12 11,12 11,14 12,14 12,12 14,12" fill-rule="evenodd" fill="#FFFFFF" stroke-linejoin="miter"/>
    </g>
  </g>
</svg>
