<?xml version="1.0" encoding="UTF-8"?>
<!DOCTYPE svg PUBLIC "-//W3C//DTD SVG 1.1//EN" "http://www.w3.org/Graphics/SVG/1.1/DTD/svg11.dtd">
<svg version="1.1" id="Layer_1" xmlns="http://www.w3.org/2000/svg" xmlns:xlink="http://www.w3.org/1999/xlink" x="0px" y="0px" width="16px" height="16px" viewBox="0 0 16 16" enable-background="new 0 0 16 16" xml:space="preserve">
  <g id="icon">
    <path d="M15.7,3.747l-1.514,-1.402c-0.239,-0.222,-0.564,-0.345,-0.47,-0.345h-2.543c0.241,0.298,0.437,0.635,0.578,1H13v3c0,0.552,-0.448,1,-1,1h-0.966c-0.544,0.581,-1.289,0.938,-2.16,0.986c-0.093,0.013,-0.186,0.021,-0.268,0.021H3.234c-0.068,0,-0.134,-0.005,-0.199,-0.016c-0.303,-0.004,-0.66,-0.02,-1.035,-0.072V14.6c0,0.928,0.316,1.4,1.264,1.4H14.8c0.904,0,1.2,-0.276,1.2,-1.2V4.4C16,4.072,15.941,3.97,15.7,3.747zM14,14.2c0,0.427,-0.346,0.8,-0.773,0.8h-8.47c-0.427,0,-0.757,-0.373,-0.757,-0.8V9.773c0,-0.427,0.33,-0.773,0.757,-0.773h8.409c0.461,0,0.834,0.373,0.834,0.834V14.2z" fill="#8C53A1"/>
    <path d="M11.752,3c0.16,0.415,0.248,0.865,0.248,1.336c0,1.087,-0.358,2.015,-0.966,2.664h1.186c0.431,0,0.78,-0.349,0.78,-0.78V3H11.752z" fill="#FFFFFF"/>
    <path d="M13.51,14.973H4.474c-0.271,0,-0.49,-0.219,-0.49,-0.49V9.49c0,-0.271,0.219,-0.49,0.49,-0.49h8.976c0.304,0,0.551,0.247,0.551,0.551v4.933C14,14.754,13.781,14.973,13.51,14.973z" fill="#FFFFFF"/>
    <g>
      <path d="M11.624,6.5c0.207,0,0.376,-0.168,0.376,-0.376V4.336c0,0.832,-0.21,1.572,-0.581,2.164H11.624z" fill="#6D6E71"/>
      <path d="M11.94,3.673c0.039,0.215,0.06,0.436,0.06,0.663v-0.46C12,3.801,11.978,3.732,11.94,3.673z" fill="#6D6E71"/>
    </g>
    <path d="M6.5,10.5h5M6.5,12.5h5" fill="none" stroke="#B4B4B5" stroke-width="1" stroke-linecap="round" stroke-miterlimit="10"/>
    <path d="M11,4.336c0,-1.487,-1.187,-2.692,-2.652,-2.692c-0.387,0,-0.754,0.085,-1.085,0.236C6.801,0.773,5.755,0,4.538,0C3.033,0,1.789,1.181,1.588,2.715c-0.92,0.283,-1.586,1.12,-1.586,2.108c0,1.973,1.893,2.164,3.15,2.168c0.026,0.011,0.053,0.015,0.081,0.015h5.372c0.03,0,0.091,-0.003,0.167,-0.017C10.178,6.938,11,5.789,11,4.336z" fill-rule="evenodd" fill="#3E79B4"/>
  </g>
</svg>
