<?xml version="1.0" encoding="UTF-8"?>
<!DOCTYPE svg PUBLIC "-//W3C//DTD SVG 1.1//EN" "http://www.w3.org/Graphics/SVG/1.1/DTD/svg11.dtd">
<svg version="1.1" id="Layer_1" xmlns="http://www.w3.org/2000/svg" xmlns:xlink="http://www.w3.org/1999/xlink" x="0px" y="0px" width="16px" height="16px" viewBox="0 0 16 16" enable-background="new 0 0 16 16" xml:space="preserve">
  <g id="main">
    <g id="overlay">
      <path d="M5.5,11.5v-1.3275c0,-1.0987,-0.9124,-2.0625,-2,-2.0625s-2,0.9638,-2,2.0625V11.5H0.5v-1.3275c0,-0.8479,0.306,-1.6352,0.8744,-2.2166c0.579,-0.5925,1.3352,-0.9188,2.1357,-0.9188c0.8044,0,1.5314,0.3177,2.1188,0.9188C6.1962,8.5363,6.5,9.3235,6.5,10.1725V11.5H5.5z" fill="#B4B4B5"/>
      <path d="M6.7639,11H0.2331C0.099,11,0,11.1165,0,11.2562v4.401C0,15.797,0.1087,16,0.2428,16h6.5502c0.1341,0,0.2069,-0.203,0.2069,-0.3428v-4.401C7,11.1165,6.898,11,6.7639,11zM3.9042,13.4477l0.1463,1.2636c0,0.2037,-0.3124,0.311,-0.5122,0.311c-0.1998,0,-0.5415,-0.1073,-0.5415,-0.311l0.1756,-1.2636c-0.2049,-0.1281,-0.3615,-0.3667,-0.3615,-0.6407c0,-0.409,0.3272,-0.7406,0.7285,-0.7406c0.4013,0,0.7271,0.3316,0.7271,0.7406C4.2666,13.081,4.1383,13.3196,3.9042,13.4477z" fill="#EAB765"/>
      <path d="M4.2666,12.8071c0,-0.409,-0.3258,-0.7406,-0.7271,-0.7406s-0.7285,0.3316,-0.7285,0.7406c0,0.274,0.1566,0.5126,0.3615,0.6407l-0.1756,1.2636c0,0.2037,0.3416,0.311,0.5415,0.311s0.5122,-0.1073,0.5122,-0.311l-0.1463,-1.2636C4.1383,13.3196,4.2666,13.081,4.2666,12.8071z" fill="#6D6E71"/>
    </g>
  </g>
</svg>
