<?xml version="1.0" encoding="UTF-8"?>
<!DOCTYPE svg PUBLIC "-//W3C//DTD SVG 1.1//EN" "http://www.w3.org/Graphics/SVG/1.1/DTD/svg11.dtd">
<svg version="1.1" id="Layer_1" xmlns="http://www.w3.org/2000/svg" xmlns:xlink="http://www.w3.org/1999/xlink" x="0px" y="0px" width="16px" height="16px" viewBox="0 0 16 16" enable-background="new 0 0 16 16" xml:space="preserve">
  <g id="main">
    <clipPath id="clip_mask">
      <path d="M8,15.6572v-4.4009c0,-0.4128,0.1973,-0.7786,0.5,-1.0078v-0.076c0,-1.1153,0.4117,-2.1508,1.1592,-2.9156c0.7687,-0.7866,1.7812,-1.2198,2.8508,-1.2198c1.0741,0,2.0541,0.4218,2.834,1.2198c0.2612,0.2672,0.4802,0.5685,0.656,0.8945V0H0v16h8.0459C8.0163,15.887,8,15.7714,8,15.6572z"/>
    </clipPath>
    <g id="icon" clip-path="url(#clip_mask)">
      <path d="M13.2369,1.7683c-2.2651,-2.2795,-5.941,-2.2758,-8.2105,0.0081C3.07,3.7451,2.799,6.7649,4.2118,9.021L0.3115,12.8895c-0.2526,0.2542,-0.2526,0.6663,0,0.9204l0.9146,0.9204c0.2526,0.2542,0.662,0.2542,0.9146,0l3.9029,-3.8711c2.2404,1.412,5.2329,1.1365,7.1852,-0.8283C15.4984,7.7471,15.5019,4.0478,13.2369,1.7683zM11.812,8.6376c-1.4958,1.5053,-3.921,1.5053,-5.4168,0c-1.4958,-1.5053,-1.4958,-3.9459,0,-5.4512c1.4958,-1.5053,3.921,-1.5053,5.4168,0C13.3078,4.6917,13.3078,7.1323,11.812,8.6376z" fill-rule="evenodd" fill="#B4B4B4"/>
    </g>
    <g id="overlay">
      <path d="M14.5,11.5v-1.3275c0,-1.0987,-0.9124,-2.0625,-2,-2.0625s-2,0.9638,-2,2.0625V11.5H9.5v-1.3275c0,-0.8479,0.306,-1.6352,0.8744,-2.2166c0.579,-0.5925,1.3352,-0.9188,2.1357,-0.9188c0.8044,0,1.5314,0.3177,2.1188,0.9188c0.5674,0.5804,0.8712,1.3676,0.8712,2.2166V11.5H14.5z" fill="#B4B4B4"/>
      <path d="M15.7639,11H9.2331C9.099,11,9,11.1165,9,11.2562v4.401c0,0.1398,0.1087,0.3428,0.2428,0.3428h6.5502c0.1341,0,0.2069,-0.203,0.2069,-0.3428v-4.401C16,11.1165,15.898,11,15.7639,11zM12.9042,13.4477l0.1463,1.2636c0,0.2037,-0.3124,0.311,-0.5122,0.311c-0.1998,0,-0.5415,-0.1073,-0.5415,-0.311l0.1756,-1.2636c-0.2049,-0.1281,-0.3615,-0.3667,-0.3615,-0.6407c0,-0.409,0.3272,-0.7406,0.7285,-0.7406c0.4013,0,0.7271,0.3316,0.7271,0.7406C13.2666,13.081,13.1383,13.3196,12.9042,13.4477z" fill="#B4B4B4"/>
    </g>
  </g>
</svg>
