<?xml version="1.0" encoding="UTF-8"?>
<!DOCTYPE svg PUBLIC "-//W3C//DTD SVG 1.1//EN" "http://www.w3.org/Graphics/SVG/1.1/DTD/svg11.dtd">
<svg version="1.1" id="Layer_1" xmlns="http://www.w3.org/2000/svg" xmlns:xlink="http://www.w3.org/1999/xlink" x="0px" y="0px" width="16px" height="16px" viewBox="0 0 16 16" enable-background="new 0 0 16 16" xml:space="preserve">
  <g id="main">
    <clipPath id="clip_mask">
      <path d="M9,11.7638L5.7173,7.8245l-0.0571,-0.211c-0.0395,-0.1459,-0.1409,-0.6577,0.2115,-1.1181C6.0133,6.3104,6.34,6,6.9374,6h8.7736c0.105,0,0.2005,0.0102,0.289,0.0267V0H0v16h9V11.7638z" fill-rule="evenodd"/>
    </clipPath>
    <g id="icon" clip-path="url(#clip_mask)">
      <path d="M11.3,6.7V5.49c0,-2.106,-1.779,-3.885,-3.85,-3.885S3.6,3.384,3.6,5.49V6.7H2V5.49c0,-1.451,0.574,-2.82,1.614,-3.854C4.65,0.605,6.016,0.037,7.46,0.037c1.443,0,2.85,0.568,3.886,1.598C12.386,2.67,13,4.039,13,5.49V6.7H11.3z" fill="#B4B4B5"/>
      <path d="M13.497,6H1.431C1.183,6,1,6.185,1,6.436v8.085c0,0.251,0.201,0.478,0.449,0.478h12.103c0.248,0,0.449,-0.227,0.449,-0.478V6.436C14,6.185,13.745,6,13.497,6zM8.214,10.553l0.27,2.27c0,0.366,-0.577,0.559,-0.946,0.559c-0.369,0,-1,-0.193,-1,-0.559l0.324,-2.27c-0.379,-0.23,-0.668,-0.659,-0.668,-1.151c0,-0.735,0.604,-1.33,1.346,-1.33c0.742,0,1.344,0.596,1.344,1.33C8.883,9.894,8.646,10.323,8.214,10.553z" fill="#EAB765"/>
      <path d="M8.883,9.402c0,-0.735,-0.602,-1.33,-1.344,-1.33s-1.346,0.596,-1.346,1.33c0,0.492,0.289,0.921,0.668,1.151l-0.324,2.27c0,0.366,0.631,0.559,1,0.559c0.369,0,0.946,-0.193,0.946,-0.559l-0.27,-2.27C8.646,10.323,8.883,9.894,8.883,9.402z" fill="#FFFFFF"/>
    </g>
    <g id="overlay">
      <path d="M15.711,7c-1.2524,0,-7.5477,0,-8.7736,0c-0.4072,0,-0.3119,0.3523,-0.3119,0.3523L10,11.4017V16h2.6v-4.6089l3.3589,-4.0388C15.9589,7.3523,16.1492,7,15.711,7zM11.9,11.3505V15.5h-0.6v-4.1495l2.042,-3.7551c0,0,1.5374,0.0107,1.5675,0.0107C14.9771,7.6061,11.9,11.3505,11.9,11.3505z" fill-rule="evenodd" fill="#797979"/>
      <path d="M11.4132,11.3505l2.0054,-3.7551c0,0,1.5534,0.0107,1.5835,0.0107c0.0675,0,-2.9935,3.7444,-2.9935,3.7444v4.1049h-0.5955V11.3505z" fill-rule="evenodd" fill="#FFFFFF"/>
    </g>
  </g>
</svg>
