<?xml version="1.0" encoding="UTF-8"?>
<!DOCTYPE svg PUBLIC "-//W3C//DTD SVG 1.1//EN" "http://www.w3.org/Graphics/SVG/1.1/DTD/svg11.dtd">
<svg version="1.1" id="Layer_1" xmlns="http://www.w3.org/2000/svg" xmlns:xlink="http://www.w3.org/1999/xlink" x="0px" y="0px" width="16px" height="16px" viewBox="0 0 16 16" enable-background="new 0 0 16 16" xml:space="preserve">
  <g id="main">
    <g id="overlay">
      <path d="M5.629,7.956c-0.587,-0.601,-1.314,-0.919,-2.119,-0.919c-0.794,0,-1.544,0.321,-2.121,0.904c0.002,0.057,0.003,0.087,0.005,0.144l0.633,0.576c0.039,0.036,0.098,0.034,0.137,-0.003c0.357,-0.337,0.827,-0.548,1.336,-0.548c1.088,0,2,0.964,2,2.062V11.5h1v-1.327C6.5,9.324,6.196,8.536,5.629,7.956z" fill="#B4B4B4"/>
      <path d="M6.764,11H0.233C0.099,11,0,11.116,0,11.256v4.401c0,0.14,0.109,0.343,0.243,0.343h6.55c0.134,0,0.207,-0.203,0.207,-0.343v-4.401C7,11.116,6.898,11,6.764,11zM3.904,13.448l0.146,1.264c0,0.204,-0.312,0.311,-0.512,0.311c-0.2,0,-0.541,-0.107,-0.541,-0.311l0.176,-1.264c-0.205,-0.128,-0.362,-0.367,-0.362,-0.641c0,-0.409,0.327,-0.741,0.728,-0.741c0.401,0,0.727,0.332,0.727,0.741C4.267,13.081,4.138,13.32,3.904,13.448z" fill="#B4B4B4"/>
    </g>
  </g>
</svg>
