<?xml version="1.0" encoding="UTF-8"?>
<!DOCTYPE svg PUBLIC "-//W3C//DTD SVG 1.1//EN" "http://www.w3.org/Graphics/SVG/1.1/DTD/svg11.dtd">
<svg version="1.1" id="Layer_1" xmlns="http://www.w3.org/2000/svg" xmlns:xlink="http://www.w3.org/1999/xlink" x="0px" y="0px" width="16px" height="16px" viewBox="0 0 16 16" enable-background="new 0 0 16 16" xml:space="preserve">
  <g id="main">
    <clipPath id="clip_mask">
      <path d="M9,11.7638L5.7173,7.8245l-0.0571,-0.211c-0.0395,-0.1459,-0.1409,-0.6577,0.2115,-1.1181C6.0133,6.3104,6.34,6,6.9374,6h8.7736c0.105,0,0.2005,0.0102,0.289,0.0267V0H0v16h9V11.7638z" fill-rule="evenodd"/>
    </clipPath>
    <g id="icon" clip-path="url(#clip_mask)">
      <path d="M11.346,1.635C10.31,0.605,8.903,0.037,7.46,0.037c-1.443,0,-2.809,0.568,-3.845,1.598c-0.14,0.14,-0.272,0.286,-0.394,0.437c-0.12,0.148,-0.076,0.369,0.088,0.465l0.848,0.498c0.132,0.077,0.299,0.047,0.399,-0.068c0.715,-0.829,1.761,-1.362,2.895,-1.362c2.071,0,3.85,1.779,3.85,3.885V6.7h1.7V5.49C13,4.039,12.386,2.67,11.346,1.635z" fill="#B4B4B4"/>
      <path d="M13.497,6H1.431C1.183,6,1,6.185,1,6.436v8.085c0,0.251,0.201,0.478,0.449,0.478h12.103c0.248,0,0.449,-0.227,0.449,-0.478V6.436C14,6.185,13.745,6,13.497,6zM8.214,10.553l0.27,2.27c0,0.366,-0.577,0.559,-0.946,0.559c-0.369,0,-1,-0.193,-1,-0.559l0.324,-2.27c-0.379,-0.23,-0.668,-0.659,-0.668,-1.151c0,-0.735,0.604,-1.33,1.346,-1.33c0.742,0,1.344,0.596,1.344,1.33C8.883,9.894,8.646,10.323,8.214,10.553z" fill="#B4B4B4"/>
    </g>
    <g id="overlay">
      <path d="M15.711,7c-1.2524,0,-7.5477,0,-8.7736,0c-0.4072,0,-0.3119,0.3523,-0.3119,0.3523L10,11.4017V16h2.6v-4.6089l3.3589,-4.0388C15.9589,7.3523,16.1492,7,15.711,7zM11.9,11.3505V15.5h-0.6v-4.1495l2.042,-3.7551c0,0,1.5374,0.0107,1.5675,0.0107C14.9771,7.6061,11.9,11.3505,11.9,11.3505z" fill-rule="evenodd" fill="#787878"/>
    </g>
  </g>
</svg>
