<?xml version="1.0" encoding="UTF-8"?>
<!DOCTYPE svg PUBLIC "-//W3C//DTD SVG 1.1//EN" "http://www.w3.org/Graphics/SVG/1.1/DTD/svg11.dtd">
<svg version="1.1" id="Layer_1" xmlns="http://www.w3.org/2000/svg" xmlns:xlink="http://www.w3.org/1999/xlink" x="0px" y="0px" width="16px" height="16px" viewBox="0 0 16 16" enable-background="new 0 0 16 16" xml:space="preserve">
  <g id="icon">
    <path d="M7.4928,0C3.3546,0,0,3.3546,0,7.4928c0,4.1381,3.3546,7.4928,7.4928,7.4928s7.4928,-3.3546,7.4928,-7.4928C14.9856,3.3546,11.6309,0,7.4928,0zM7.4928,13.8409c-3.506,0,-6.3481,-2.8422,-6.3481,-6.3481c0,-3.506,2.8422,-6.3481,6.3481,-6.3481s6.3481,2.8422,6.3481,6.3481C13.8409,10.9988,10.9988,13.8409,7.4928,13.8409z" fill-rule="evenodd" fill="#E9B665"/>
    <path d="M6.2656,7.5037c-0.0026,0.7834,0.0693,1.1417,0.7136,1.1448c0.6444,0.0032,0.654,-0.4363,0.6566,-1.2197c0.0026,-0.7834,-0.2155,-5.7301,-0.633,-5.7322C6.5854,1.6946,6.2682,6.7203,6.2656,7.5037z" fill-rule="evenodd" fill="#E9B665"/>
    <path d="M7.8606,8.1344c-0.5541,-0.5589,-0.8384,-0.7358,-1.2957,-0.2819c-0.4574,0.4539,-0.3345,0.6203,0.2196,1.1792c0.5541,0.5589,3.8143,3.3308,4.1106,3.0367C11.1915,11.7743,8.4147,8.6933,7.8606,8.1344z" fill-rule="evenodd" fill="#E9B665"/>
  </g>
</svg>
