<?xml version="1.0" encoding="UTF-8"?>
<!DOCTYPE svg PUBLIC "-//W3C//DTD SVG 1.1//EN" "http://www.w3.org/Graphics/SVG/1.1/DTD/svg11.dtd">
<svg version="1.1" id="Layer_1" xmlns="http://www.w3.org/2000/svg" xmlns:xlink="http://www.w3.org/1999/xlink" x="0px" y="0px" width="32px" height="32px" viewBox="0 0 32 32" enable-background="new 0 0 32 32" xml:space="preserve">
  <g id="main">
    <clipPath id="clip_mask">
      <path d="M11.0738,0C13.4811,1.404,15.1,4.0122,15.1,7c0,4.4735,-3.6265,8.1,-8.1,8.1c-2.9878,0,-5.596,-1.6189,-7,-4.0262V32h32V0H11.0738z" fill-rule="evenodd"/>
    </clipPath>
    <g id="icon" clip-path="url(#clip_mask)">
      <g id="transformed_icon" transform="translate(1 1)">
        <path d="M2.3,6.5h27.4c0.442,0,0.8,0.358,0.8,0.8v18.4c0,0.442,-0.358,0.8,-0.8,0.8H2.3c-0.442,0,-0.8,-0.358,-0.8,-0.8V7.3C1.5,6.858,1.858,6.5,2.3,6.5z" fill-rule="evenodd" fill="#FFFFFF" stroke="#6D6E71" stroke-width="1" stroke-miterlimit="1"/>
        <path d="M30.2,6.8c0,0,-9.762,9.185,-10.56,9.628c-3.179,2.196,-4.237,2.196,-7.292,0C10.377,14.984,1.8,6.8,1.8,6.8" fill-rule="evenodd" fill="none" stroke="#6D6E71" stroke-width="1" stroke-miterlimit="1"/>
      </g>
    </g>
    <g id="overlay">
      <path d="M13.5917,6.1917l-3.7512,-0.1566c-0.0422,-0.1243,-0.092,-0.2451,-0.1495,-0.3615l2.5416,-2.763c0.1595,-0.1595,0.1595,-0.418,0,-0.5775l-0.5657,-0.5657c-0.1595,-0.1595,-0.418,-0.1595,-0.5775,0L8.3264,4.309c-0.1164,-0.0575,-0.2371,-0.1073,-0.3615,-0.1495L7.8083,0.4083C7.8083,0.1828,7.6255,0,7.4,0h-0.8c-0.2255,0,-0.4083,0.1828,-0.4083,0.4083l-0.1566,3.7512c-0.1243,0.0422,-0.2451,0.092,-0.3615,0.1495l-2.763,-2.5416c-0.1595,-0.1595,-0.418,-0.1595,-0.5775,0l-0.5657,0.5657c-0.1595,0.1595,-0.1595,0.418,0,0.5775L4.309,5.6736c-0.0575,0.1164,-0.1073,0.2372,-0.1495,0.3615L0.4083,6.1917C0.1828,6.1917,0,6.3745,0,6.6v0.8c0,0.2255,0.1828,0.4083,0.4083,0.4083l3.7512,0.1566c0.0422,0.1243,0.092,0.2451,0.1495,0.3615l-2.5416,2.763c-0.1595,0.1595,-0.1595,0.418,0,0.5775l0.5657,0.5657c0.1595,0.1595,0.418,0.1595,0.5775,0l2.763,-2.5416c0.1164,0.0575,0.2372,0.1073,0.3615,0.1495l0.1566,3.7512c0,0.2255,0.1828,0.4083,0.4083,0.4083h0.8c0.2255,0,0.4083,-0.1828,0.4083,-0.4083l0.1566,-3.7512c0.1243,-0.0422,0.2451,-0.092,0.3615,-0.1495l2.763,2.5416c0.1595,0.1595,0.418,0.1595,0.5775,0l0.5657,-0.5657c0.1595,-0.1595,0.1595,-0.418,0,-0.5775L9.691,8.3264c0.0575,-0.1164,0.1073,-0.2371,0.1495,-0.3615l3.7512,-0.1566c0.2255,0,0.4083,-0.1828,0.4083,-0.4083v-0.8C14,6.3745,13.8172,6.1917,13.5917,6.1917zM7,8.2c-0.6627,0,-1.2,-0.5373,-1.2,-1.2c0,-0.6627,0.5373,-1.2,1.2,-1.2s1.2,0.5373,1.2,1.2C8.2,7.6627,7.6627,8.2,7,8.2z" fill-rule="evenodd" fill="#EAB765"/>
    </g>
  </g>
</svg>
