<?xml version="1.0" encoding="UTF-8"?>
<!DOCTYPE svg PUBLIC "-//W3C//DTD SVG 1.1//EN" "http://www.w3.org/Graphics/SVG/1.1/DTD/svg11.dtd">
<svg version="1.1" id="Layer_1" xmlns="http://www.w3.org/2000/svg" xmlns:xlink="http://www.w3.org/1999/xlink" x="0px" y="0px" width="16px" height="16px" viewBox="0 0 16 16" enable-background="new 0 0 16 16" xml:space="preserve">
  <g id="main">
    <g id="icon">
      <path d="M6.46,0.06289L5.634,0.2473L4.99,0.5463L4.506,0.9531L4.163,1.461L3.943,2.063L3.825,2.753L3.79,3.524L3.819,4.072L3.903,4.659L4.229,5.891L4.465,6.504L4.748,7.093L5.074,7.643L5.441,8.138L5.432,8.424L5.333,8.668L5.127,8.872L4.795,9.04L2.57,9.821L1.799,10.13L1.214,10.42L0.7816,10.75L0.4721,11.14L0.2529,11.63L0.09297,12.26L0.02949,12.76L0.02227,13.19L0.09277,13.63L0.2619,14.18L0.376,14.35L0.5838,14.49L1.239,14.71L2.144,14.86L3.215,14.95L5.52,15.02L7.281,15.01L6.98,14.63L6.641,14.07L6.368,13.48L6.167,12.85L6.043,12.19L6,11.5L6.029,10.94L6.112,10.39L6.248,9.866L6.433,9.361L6.665,8.88L6.941,8.427L7.257,8.004L7.613,7.613L8.004,7.257L8.427,6.941L8.88,6.665L9.361,6.433L9.866,6.248L10.39,6.112L10.74,6.059L10.8,5.893L11.13,4.66L11.21,4.072L11.24,3.524L11.2,2.753L11.08,2.063L10.85,1.461L10.49,0.9531L10,0.5463L9.346,0.2473L8.513,0.06289L7.485,0zz" fill-rule="evenodd" fill="#3E79B4"/>
    </g>
    <g id="overlay">
      <path d="M11.5,7c-2.4853,0,-4.5,2.0147,-4.5,4.5c0,2.4853,2.0147,4.5,4.5,4.5s4.5,-2.0147,4.5,-4.5C16,9.0147,13.9853,7,11.5,7zM10.9867,14.0054l-2.3571,-2.4126l0.9353,-0.9554l1.4215,1.4551l2.7426,-2.7834l0.942,0.9622L10.9867,14.0054z" fill-rule="evenodd" fill="#4EA17E"/>
      <polygon points="10.9867,14.0054 14.6709,10.2713 13.729,9.3091 10.9864,12.0925 9.5649,10.6374 8.6296,11.5928" fill="#FFFFFF" stroke-linejoin="miter"/>
    </g>
  </g>
</svg>
