<?xml version="1.0" encoding="UTF-8"?>
<!DOCTYPE svg PUBLIC "-//W3C//DTD SVG 1.1//EN" "http://www.w3.org/Graphics/SVG/1.1/DTD/svg11.dtd">
<svg version="1.1" id="Layer_1" xmlns="http://www.w3.org/2000/svg" xmlns:xlink="http://www.w3.org/1999/xlink" x="0px" y="0px" width="16px" height="16px" viewBox="0 0 16 16" enable-background="new 0 0 16 16" xml:space="preserve">
  <g id="main">
    <g id="icon">
      <path d="M6.768,0.03906L6.557,0.151L5.796,0.6732L4.65,1.281L3.954,1.558L3.19,1.785L2.365,1.939L1.488,1.996L0.9119,1.971L0.8471,1.968L0.6027,2.009L0.3922,2.125L0.2303,2.302L0.133,2.529L0.03066,3.23L0.0007813,4.184L0.05762,5.328L0.2158,6.596L0.4902,7.924L0.8951,9.248L1.445,10.5L1.779,11.08L2.155,11.62L2.693,12.28L3.243,12.87L3.806,13.38L4.384,13.84L4.977,14.22L5.587,14.54L6.213,14.79L6.859,14.98L7.028,15L7.198,14.98L7.245,14.97L6.98,14.63L6.641,14.07L6.368,13.48L6.167,12.85L6.043,12.19L6,11.5L6.029,10.94L6.112,10.39L6.248,9.866L6.433,9.361L6.665,8.88L6.941,8.427L7.257,8.004L7.613,7.613L8.004,7.257L8.427,6.941L8.88,6.665L9.361,6.433L9.866,6.248L10.39,6.112L10.94,6.029L11.5,6L12.19,6.043L12.85,6.167L13.48,6.368L13.77,6.503L13.93,5.292L14,4.15L13.98,3.206L13.88,2.525L13.78,2.3L13.62,2.124L13.41,2.01L13.17,1.969L13.09,1.973L12.35,2.011L11.41,1.95L10.55,1.786L9.789,1.546L9.119,1.259L8.549,0.9508L8.084,0.6508L7.49,0.185L7.265,0.04785L7.004,0zz" fill="#3E79B4"/>
    </g>
    <g id="overlay">
      <path d="M11.5,7c-2.4853,0,-4.5,2.0147,-4.5,4.5c0,2.4853,2.0147,4.5,4.5,4.5s4.5,-2.0147,4.5,-4.5C16,9.0147,13.9853,7,11.5,7zM12,14.6427c0,0.0869,-0.0704,0.1573,-0.1573,0.1573h-0.7853c-0.0869,0,-0.1573,-0.0704,-0.1573,-0.1573v-0.7853c0,-0.0869,0.0704,-0.1573,0.1573,-0.1573h0.7853c0.0869,0,0.1573,0.0704,0.1573,0.1573V14.6427zM13.5629,10.7257c-0.0301,0.1302,-0.0831,0.2602,-0.1574,0.3863c-0.0724,0.1226,-0.1714,0.2488,-0.294,0.3751c-0.116,0.1194,-0.2638,0.254,-0.438,0.3991c-0.1785,0.1438,-0.3098,0.2555,-0.4012,0.3413c-0.0875,0.0822,-0.1494,0.1604,-0.1894,0.2374c-0.019,0.0367,-0.0377,0.0593,-0.0542,0.0788l-0.0186,0.0231l-0.003,0.0312c-0.0027,0.0261,-0.0057,0.0472,-0.0124,0.07l-0.0039,0.0836c0,0.0934,-0.0813,0.1484,-0.1573,0.1484h-0.7263c-0.076,0,-0.1573,-0.055,-0.1573,-0.1484c0,-0.1487,0.0033,-0.1819,0.021,-0.2444c0.0049,-0.0173,0.0096,-0.0337,0.0168,-0.0802c0.0253,-0.1658,0.0678,-0.2551,0.1217,-0.3683l0.0153,-0.0321c0.0521,-0.1105,0.1194,-0.172,0.1845,-0.2316c0.0304,-0.0278,0.0591,-0.0542,0.0895,-0.0871c0.1078,-0.1168,0.2488,-0.2569,0.4187,-0.4161c0.1203,-0.1119,0.2292,-0.2077,0.3247,-0.2856c0.0814,-0.0685,0.1507,-0.1362,0.2059,-0.2013c0.0495,-0.0585,0.0855,-0.1194,0.1098,-0.186c0.0241,-0.0658,0.0363,-0.1512,0.0363,-0.2536c0,-0.1281,-0.0235,-0.2426,-0.0719,-0.3497c-0.049,-0.1084,-0.1145,-0.1995,-0.2001,-0.2778c-0.0511,-0.0468,-0.1135,-0.0706,-0.2101,-0.1032c-0.0233,-0.0079,-0.0472,-0.0183,-0.0717,-0.0276l-0.0265,-0.0128c-0.1265,-0.0475,-0.261,-0.0768,-0.3995,-0.0768c-0.6045,0,-0.9077,0.258,-1.0141,0.8876c-0.0145,0.0858,-0.0926,0.0949,-0.1551,0.0949h-0.798c-0.0739,0,-0.1012,0.0012,-0.1153,-0.014c-0.0329,-0.0354,-0.0445,-0.0431,-0.0416,-0.0824c0.0201,-0.2701,0.0866,-0.5198,0.1977,-0.7424c0.1113,-0.223,0.2627,-0.4167,0.45,-0.5756c0.1857,-0.1576,0.4061,-0.281,0.655,-0.3668c0.247,-0.0851,0.5193,-0.1282,0.8094,-0.1282c0.3134,0,0.6013,0.043,0.8558,0.1277c0.2566,0.0855,0.4796,0.2053,0.6628,0.3563c0.186,0.1534,0.3316,0.3381,0.4329,0.549c0.1016,0.2118,0.1531,0.4449,0.1531,0.6928C13.6067,10.4615,13.592,10.5992,13.5629,10.7257z" fill-rule="evenodd" fill="#E9B665"/>
    </g>
  </g>
</svg>
