<?xml version="1.0" encoding="UTF-8"?>
<!DOCTYPE svg PUBLIC "-//W3C//DTD SVG 1.1//EN" "http://www.w3.org/Graphics/SVG/1.1/DTD/svg11.dtd">
<svg version="1.1" id="Layer_1" xmlns="http://www.w3.org/2000/svg" xmlns:xlink="http://www.w3.org/1999/xlink" x="0px" y="0px" width="16px" height="16px" viewBox="0 0 16 16" enable-background="new 0 0 16 16" xml:space="preserve">
  <g id="main">
    <g id="icon">
      <path d="M6.46,0.06289L5.634,0.2473L4.99,0.5463L4.506,0.9531L4.163,1.461L3.943,2.063L3.825,2.753L3.79,3.524L3.819,4.072L3.903,4.659L4.229,5.891L4.465,6.504L4.748,7.093L5.074,7.643L5.441,8.138L5.432,8.424L5.333,8.668L5.127,8.872L4.795,9.04L2.57,9.821L1.799,10.13L1.214,10.42L0.7816,10.75L0.4721,11.14L0.2529,11.63L0.09297,12.26L0.02949,12.76L0.02227,13.19L0.09277,13.63L0.2619,14.18L0.376,14.35L0.5838,14.49L1.239,14.71L2.144,14.86L3.215,14.95L5.52,15.02L6.048,15.01L6.085,14.78L6.249,14.4L9.638,8.532L9.596,8.428L9.587,8.142L9.954,7.647L10.28,7.096L10.56,6.507L10.8,5.893L11.13,4.66L11.21,4.072L11.24,3.524L11.2,2.753L11.08,2.063L10.85,1.461L10.49,0.9531L10,0.5463L9.346,0.2473L8.513,0.06289L7.485,0zz" fill-rule="evenodd" fill="#3E79B4"/>
    </g>
    <g id="overlay">
      <path d="M15.9022,14.895l-3.7859,-6.5389c-0.2723,-0.4691,-0.9441,-0.4776,-1.2164,-0.0085L7.114,14.8992C6.8387,15.3735,7.1776,16,7.7222,16h7.5718C15.8387,16,16.1776,15.3693,15.9022,14.895zM12,14.6c0,0.2209,-0.1791,0.4,-0.4,0.4h-0.2c-0.2209,0,-0.4,-0.1791,-0.4,-0.4v-0.2c0,-0.2209,0.1791,-0.4,0.4,-0.4h0.2c0.2209,0,0.4,0.1791,0.4,0.4V14.6zM12,13.1c0,0.2209,-0.1791,0.4,-0.4,0.4h-0.2c-0.2209,0,-0.4,-0.1791,-0.4,-0.4v-2.7c0,-0.2209,0.1791,-0.4,0.4,-0.4h0.2c0.2209,0,0.4,0.1791,0.4,0.4V13.1z" fill="#EAB765"/>
      <path d="M11.6163,13.4912h-0.2c-0.22,0,-0.4,-0.18,-0.4,-0.4v-2.7c0,-0.22,0.18,-0.4,0.4,-0.4h0.2c0.22,0,0.4,0.18,0.4,0.4v2.7C12.0163,13.3112,11.8363,13.4912,11.6163,13.4912zM12.0163,14.5912v-0.2c0,-0.22,-0.18,-0.4,-0.4,-0.4h-0.2c-0.22,0,-0.4,0.18,-0.4,0.4v0.2c0,0.22,0.18,0.4,0.4,0.4h0.2C11.8363,14.9912,12.0163,14.8112,12.0163,14.5912z" fill="#58595B"/>
    </g>
  </g>
</svg>
