<?xml version="1.0" encoding="UTF-8"?>
<!DOCTYPE svg PUBLIC "-//W3C//DTD SVG 1.1//EN" "http://www.w3.org/Graphics/SVG/1.1/DTD/svg11.dtd">
<svg version="1.1" id="Layer_1" xmlns="http://www.w3.org/2000/svg" xmlns:xlink="http://www.w3.org/1999/xlink" x="0px" y="0px" width="16px" height="16px" viewBox="0 0 16 16" enable-background="new 0 0 16 16" xml:space="preserve">
  <g id="icon">
    <path d="M5.1396,15.8842c-1.1075,0,-2.1475,-0.4301,-2.9285,-1.2111c-1.6147,-1.6148,-1.6147,-4.2423,0,-5.857l7.8458,-7.8458C10.6182,0.4091,11.3643,0.1,12.158,0.1c0.7937,0,1.5399,0.3091,2.1012,0.8703c0.5613,0.5613,0.8703,1.3074,0.8703,2.1011c0,0.7937,-0.3091,1.5399,-0.8703,2.1012l-7.2943,7.2943c-0.3397,0.3397,-0.7921,0.5268,-1.2738,0.5268c-0.4818,0,-0.9341,-0.187,-1.2738,-0.5268c-0.7024,-0.7024,-0.7024,-1.8453,-0.0001,-2.5476l6.2973,-6.2974l0.893,0.893l-6.2973,6.2973c-0.21,0.21,-0.21,0.5517,0,0.7617c0.1015,0.1015,0.2368,0.1574,0.3808,0.1574s0.2793,-0.0559,0.3809,-0.1575l7.2942,-7.2943c0.3227,-0.3227,0.5005,-0.7517,0.5005,-1.2082c0,-0.4564,-0.1777,-0.8855,-0.5005,-1.2081c-0.3227,-0.3227,-0.7517,-0.5005,-1.2082,-0.5005c-0.4564,0,-0.8854,0.1777,-1.2081,0.5005L3.1041,9.7091c-0.5428,0.5428,-0.8418,1.2657,-0.8418,2.0355c0,0.7698,0.299,1.4927,0.8418,2.0355c0.5428,0.5428,1.2656,0.8417,2.0354,0.8417c0.7698,0,1.4927,-0.2989,2.0356,-0.8417l5.1942,-5.1942l0.893,0.893l-5.1942,5.1942C7.287,15.4541,6.247,15.8842,5.1396,15.8842z" fill="#6485C3"/>
  </g>
</svg>
