<?xml version="1.0" encoding="UTF-8"?>
<!DOCTYPE svg PUBLIC "-//W3C//DTD SVG 1.1//EN" "http://www.w3.org/Graphics/SVG/1.1/DTD/svg11.dtd">
<svg version="1.1" id="Layer_1" xmlns="http://www.w3.org/2000/svg" xmlns:xlink="http://www.w3.org/1999/xlink" x="0px" y="0px" width="16px" height="16px" viewBox="0 0 16 16" enable-background="new 0 0 16 16" xml:space="preserve">
  <g id="main">
    <g id="icon">
      <path d="M0,14L7.782,14L8.104,13L1,13L1,1L5.789,1L7.739,3L13,3L13,7.081L13.58,8.828L14,8.828L14,2L8.155,2L6.205,0L0,0zz" fill="#7B7B7B"/>
      <path d="M1,13L8.104,13L8.136,12.9L6.396,11.54L6.07,11.2L5.868,10.79L5.8,10.33L5.877,9.867L6.096,9.442L6.427,9.114L6.843,8.903L7.316,8.828L9.417,8.828L10.06,6.902L10.28,6.476L10.61,6.147L11.03,5.935L11.5,5.86L11.97,5.935L12.39,6.147L12.72,6.476L12.94,6.902L13,7.081L13,3L7.739,3L5.789,1L1,1zz" fill="#FFFFFF" opacity="0.5"/>
    </g>
    <g id="overlay">
      <path d="M15.6839,10.0276h-2.9658l-0.9175,-2.7498c-0.0934,-0.29,-0.5078,-0.29,-0.6012,0l-0.9175,2.7498H7.3161c-0.3034,0,-0.4319,0.3826,-0.1889,0.5625l2.407,1.8821l-0.9227,2.8695c-0.093,0.2891,0.2431,0.5264,0.4889,0.3453L11.5,13.9195l2.3995,1.7674c0.2459,0.1811,0.5819,-0.0562,0.489,-0.3453l-0.9227,-2.8695l2.407,-1.8821C16.1158,10.4101,15.9873,10.0276,15.6839,10.0276z" fill="#EEAC55"/>
    </g>
  </g>
</svg>
