<?xml version="1.0" encoding="UTF-8"?>
<!DOCTYPE svg PUBLIC "-//W3C//DTD SVG 1.1//EN" "http://www.w3.org/Graphics/SVG/1.1/DTD/svg11.dtd">
<svg version="1.1" id="Layer_1" xmlns="http://www.w3.org/2000/svg" xmlns:xlink="http://www.w3.org/1999/xlink" x="0px" y="0px" width="16px" height="16px" viewBox="0 0 16 16" enable-background="new 0 0 16 16" xml:space="preserve">
  <g id="icon">
    <path d="M10.6629,15.0339C15.5724,12.6862,15.5643,6.6018,11.8,3.2442c0.1507,0.7466,0.3236,2.4846,-0.2614,3.5794C10.7171,3.7352,7.3682,1,7.3682,1s-0.1417,1.9936,-0.7651,3.507c-0.1718,0.4171,-0.776,2.4422,-1.6744,3.2052c-0.0258,-0.8149,-0.2178,-2.8644,-1.0862,-3.7729c-0.2912,1.882,-1.1728,4.2169,-1.3257,6.135c-0.1922,2.4118,1.5939,3.8083,3.3925,4.9293" fill="#FFFFFF" opacity="0.5"/>
    <path d="M10.8801,15.4847l-0.4346,-0.9015c1.9582,-0.9364,3.1964,-2.5708,3.4867,-4.6022c0.2616,-1.8301,-0.2973,-3.764,-1.4851,-5.3081c0.011,0.761,-0.0811,1.6665,-0.4653,2.3856l-0.6009,1.1246l-0.3276,-1.2314c-0.544,-2.0449,-2.3038,-3.9667,-3.2997,-4.9268c-0.1109,0.7418,-0.3176,1.7778,-0.6859,2.6719c-0.023,0.0559,-0.0618,0.1645,-0.1067,0.2902c-0.2758,0.7719,-0.8497,2.3781,-1.7064,3.1057l-0.7947,0.675L4.427,7.7279c-0.019,-0.6006,-0.1206,-1.5441,-0.3695,-2.3349c-0.1034,0.4304,-0.2182,0.8673,-0.3313,1.2973c-0.3075,1.1695,-0.6256,2.3789,-0.7088,3.4236c-0.1574,1.9747,1.1488,3.2135,3.1584,4.466l-0.5326,0.8477c-2.0072,-1.2509,-3.8358,-2.77,-3.6267,-5.3927c0.0903,-1.1332,0.4198,-2.3861,0.7385,-3.5979c0.2415,-0.9183,0.4696,-1.7857,0.5915,-2.5737l0.1555,-1.0053l0.7043,0.7367c0.6487,0.6785,0.9549,1.8219,1.0993,2.7586c0.3213,-0.6149,0.5716,-1.3155,0.7095,-1.7016c0.0512,-0.1434,0.0917,-0.2566,0.1237,-0.3344c0.5844,-1.4187,0.7274,-3.3335,0.7288,-3.3527l0.0692,-0.9635l0.7499,0.6124c0.1187,0.097,2.4786,2.0444,3.7456,4.5573c0.0417,-0.705,-0.0408,-1.4143,-0.1243,-1.828l-0.2976,-1.4742l1.1247,1.0032c2.094,1.8677,3.1635,4.6458,2.7914,7.2502C14.5873,12.4946,13.1503,14.3991,10.8801,15.4847z" fill="#F1876B"/>
    <path d="M10.8101,15.5299c1.4133,-2.6643,0.5548,-6.16,-2.0664,-7.8997c0.2873,0.9753,0.5073,3.1521,-0.0855,3.857c-0.3966,-0.4299,-1.0813,-1.4966,-1.5193,-2.1161c-0.3843,1.1732,-1.1965,2.0638,-1.6764,3.1785c-0.4927,1.1445,0.1126,2.6314,0.2886,2.9181C7.3882,16.1456,9.0773,16.1297,10.8101,15.5299z" fill="#EEAC55"/>
  </g>
</svg>
