<?xml version="1.0" encoding="UTF-8"?>
<!DOCTYPE svg PUBLIC "-//W3C//DTD SVG 1.1//EN" "http://www.w3.org/Graphics/SVG/1.1/DTD/svg11.dtd">
<svg version="1.1" id="Layer_1" xmlns="http://www.w3.org/2000/svg" xmlns:xlink="http://www.w3.org/1999/xlink" x="0px" y="0px" width="16px" height="16px" viewBox="0 0 16 16" enable-background="new 0 0 16 16" xml:space="preserve">
  <g id="icon">
    <path d="M7.5443,15.9992c-2.1237,0,-4.0447,-0.7158,-5.4091,-2.0156C0.7588,12.6724,0.0008,10.8207,0.0008,8.7698c0,-5.0811,3.6904,-8.769,8.775,-8.769c2.1482,0,3.9613,0.6429,5.2433,1.8591c1.2954,1.2289,1.9801,2.9718,1.9801,5.0403c0,1.462,-0.4085,2.8324,-1.1502,3.8588c-0.7536,1.0429,-1.781,1.641,-2.8187,1.641h-0.0775l-0.0763,-0.0131c-0.3926,-0.0674,-1.1069,-0.2416,-1.4799,-0.6507c-0.1915,-0.21,-0.4303,-0.5162,-0.6325,-0.9104c-0.9065,0.9133,-1.9749,1.4094,-3.0585,1.4094c-1.8182,0,-3.088,-1.2373,-3.088,-3.009c0,-3.1281,2.5799,-5.673,5.751,-5.673c0.955,0,1.5892,0.1611,1.953,0.2963l0.9657,0.3593l-0.8707,3.7074c-0.0471,0.2227,-0.1201,0.4641,-0.2155,0.7107c-0.1678,0.8782,0.2176,1.5077,0.4936,1.8299c0.0707,0.0302,0.2296,0.0827,0.4072,0.1202c0.8809,-0.0708,2.0771,-1.4756,2.0771,-3.6768c0,-3.228,-1.9694,-5.0793,-5.4032,-5.0793c-4.0299,0,-6.9548,2.9224,-6.9548,6.9488c0,3.1849,2.3535,5.4093,5.7233,5.4093c1.2678,0,2.4047,-0.2212,3.288,-0.6396l0.3462,-0.164l0.7794,1.6449l-0.3463,0.164C10.4864,15.7174,9.0799,15.9992,7.5443,15.9992zM9.3685,5.3735c-2.1674,0,-3.9308,1.7284,-3.9308,3.8529c0,0.7666,0.4503,1.1888,1.2678,1.1888c1.147,0,2.2661,-1.1884,2.7477,-2.3175l0.0769,-0.3392l0.0455,0.0092c0.0257,-0.0825,0.0467,-0.1627,0.0629,-0.2402l0.494,-2.1044C9.9047,5.3901,9.6492,5.3735,9.3685,5.3735z" fill="#6485C3"/>
  </g>
</svg>
