<?xml version="1.0" encoding="UTF-8"?>
<!DOCTYPE svg PUBLIC "-//W3C//DTD SVG 1.1//EN" "http://www.w3.org/Graphics/SVG/1.1/DTD/svg11.dtd">
<svg version="1.1" id="Layer_1" xmlns="http://www.w3.org/2000/svg" xmlns:xlink="http://www.w3.org/1999/xlink" x="0px" y="0px" width="16px" height="16px" viewBox="0 0 16 16" enable-background="new 0 0 16 16" xml:space="preserve">
  <g id="main">
    <g id="icon">
      <path d="M4.683,12.4L4.812,12.8L5.016,13.15L5.286,13.44L5.611,13.68L5.982,13.85L6.362,13.96L6.145,13.45L5.956,12.83L5.84,12.18L5.827,11.95L4.638,11.95zz" fill="#6D6E71"/>
      <path d="M6.78,0.6244L6.537,0.7027L6.127,0.9904L5.85,1.417L5.775,1.67L5.749,1.94L5.762,2.121L5.201,2.343L4.688,2.642L4.232,3.011L3.841,3.442L3.523,3.928L3.285,4.46L3.137,5.031L3.086,5.633L3.018,6.473L2.831,7.233L2.553,7.922L2.207,8.546L1.421,9.628L0.6803,10.54L0.5883,10.7L0.6293,10.85L0.7891,11L1.053,11.13L1.833,11.35L2.854,11.54L5.148,11.78L5.818,11.8L5.8,11.5L5.829,10.92L5.916,10.35L6.057,9.807L6.249,9.283L6.489,8.785L6.775,8.315L7.103,7.876L7.471,7.471L7.876,7.103L8.315,6.775L8.785,6.489L9.283,6.249L9.807,6.057L10.35,5.916L10.85,5.839L10.83,5.633L10.78,5.051L10.65,4.497L10.42,3.979L10.12,3.504L9.756,3.079L9.326,2.71L8.842,2.405L8.311,2.172L8.331,1.94L8.305,1.67L8.23,1.417L7.953,0.9904L7.543,0.7027L7.3,0.6244L7.04,0.5971zz" fill="#FFFFFF" opacity="0.4"/>
      <path d="M6.704,0.03184L6.388,0.1232L6.098,0.2691L5.839,0.4639L5.619,0.702L5.442,0.9779L5.315,1.286L5.245,1.621L5.239,1.672L5.191,1.692L4.614,1.979L4.096,2.337L3.643,2.758L3.26,3.234L2.952,3.758L2.726,4.321L2.586,4.914L2.538,5.531L2.491,6.184L2.362,6.788L2.164,7.345L1.913,7.861L1.307,8.78L0.6617,9.578L0.2203,10.12L0.09062,10.3L0.0209,10.5L0.0123,10.7L0.06621,10.9L0.2078,11.13L0.3662,11.27L0.6227,11.41L1.007,11.56L1.548,11.71L3.222,11.99L5.299,12.18L5.845,12.2L5.84,12.18L5.8,11.5L5.815,11.21L5.515,11.2L3.591,11.04L2.053,10.8L1.264,10.6L1.145,10.56L1.225,10.46L1.435,10.21L2.139,9.337L2.492,8.836L2.821,8.287L3.109,7.685L3.337,7.028L3.487,6.312L3.541,5.531L3.585,5.02L3.711,4.532L3.915,4.074L4.19,3.654L4.532,3.278L4.934,2.954L5.39,2.69L5.896,2.493L6.299,2.369L6.245,1.955L6.236,1.838L6.299,1.509L6.471,1.239L6.727,1.058L7.04,0.991L7.353,1.058L7.609,1.239L7.781,1.509L7.845,1.838L7.831,1.988L7.761,2.398L8.158,2.537L8.634,2.745L9.064,3.015L9.443,3.339L9.764,3.712L10.02,4.124L10.22,4.57L10.34,5.041L10.38,5.531L10.41,5.907L10.92,5.829L11.41,5.804L11.38,5.531L11.33,4.942L11.2,4.371L10.99,3.825L10.7,3.314L10.34,2.844L9.919,2.425L9.434,2.062L8.894,1.765L8.847,1.743L8.843,1.692L8.783,1.347L8.662,1.028L8.487,0.7398L8.265,0.4902L8.003,0.2854L7.707,0.1311L7.384,0.03379L7.04,0zz" fill="#EEAC55"/>
    </g>
    <g id="overlay">
      <path d="M11.5,7c-2.4853,0,-4.5,2.0147,-4.5,4.5c0,2.4853,2.0147,4.5,4.5,4.5s4.5,-2.0147,4.5,-4.5C16,9.0147,13.9853,7,11.5,7zM14.6,12.2h-2.4v2.4h-1.4v-2.4H8.4v-1.4h2.4V8.4h1.4v2.4h2.4V12.2z" fill="#52B250"/>
      <polygon points="10.8,14.6 10.8,12.2 8.4,12.2 8.4,10.8 10.8,10.8 10.8,8.4 12.2,8.4 12.2,10.8 14.6,10.8 14.6,12.2 12.2,12.2 12.2,14.6" fill="#FFFFFF" stroke-linejoin="miter"/>
    </g>
  </g>
</svg>
