<?xml version="1.0" encoding="UTF-8"?>
<!DOCTYPE svg PUBLIC "-//W3C//DTD SVG 1.1//EN" "http://www.w3.org/Graphics/SVG/1.1/DTD/svg11.dtd">
<svg version="1.1" id="Layer_1" xmlns="http://www.w3.org/2000/svg" xmlns:xlink="http://www.w3.org/1999/xlink" x="0px" y="0px" width="16px" height="16px" viewBox="0 0 16 16" enable-background="new 0 0 16 16" xml:space="preserve">
  <g id="icon">
    <path d="M1.5,15h1.5v1H1.5V15zM1,13h2v1H1V13zM0.5,11h2.5v1H0.5V11z" fill="#CB525D"/>
    <path d="M14.5,5h-1.5V4h1.5V5zM15,3h-2V2h2V3zM15.5,1h-2.5V0l2.5,0V1z" fill="#52B250"/>
    <path d="M0.5,8.5h11V0.5H0.5V8.5z" fill="#FFFFFF"/>
    <path d="M0,0v9h12V0H0zM10.2636,1L6,4.1039L1.7364,1H10.2636zM1,8V1.7009l5,3.6399l5,-3.6399V8H1z" fill="#6D6E71"/>
    <polygon points="13,7.5 13,10 4.5,10 4.5,15.5 15.5,15.5 15.5,7.5" fill="#FFFFFF" stroke-linejoin="miter"/>
    <polygon points="13,7 13,8 14.2636,8 13,8.9199 13,10 11.5163,10 10,11.1039 8.4837,10 6.7846,10 10,12.3408 15,8.7009 15,15 5,15 5,10 4,10 4,16 16,16 16,7" fill="#6D6E71" stroke-linejoin="miter"/>
  </g>
</svg>
