<?xml version="1.0" encoding="UTF-8"?>
<!DOCTYPE svg PUBLIC "-//W3C//DTD SVG 1.1//EN" "http://www.w3.org/Graphics/SVG/1.1/DTD/svg11.dtd">
<svg version="1.1" id="Layer_1" xmlns="http://www.w3.org/2000/svg" xmlns:xlink="http://www.w3.org/1999/xlink" x="0px" y="0px" width="16px" height="16px" viewBox="0 0 16 16" enable-background="new 0 0 16 16" xml:space="preserve">
  <g id="main">
    <g id="icon">
      <path d="M5.714,0.2113L4.818,0.7779L3.574,1.388L2.855,1.665L2.091,1.899L1.293,2.073L0.4771,2.168L0.006055,2.197L0.0003906,2.684L0.07031,4.024L0.2352,5.516L0.5152,7.073L0.9141,8.488L1.421,9.727L2.024,10.76L2.954,11.94L3.892,12.86L4.369,13.22L4.855,13.52L5.352,13.77L5.861,13.96L6.006,14L6.152,13.96L6.333,13.89L6.145,13.45L5.956,12.83L5.84,12.18L5.8,11.5L5.829,10.92L5.916,10.35L6.057,9.807L6.249,9.283L6.489,8.785L6.775,8.315L7.103,7.876L7.471,7.471L7.876,7.103L8.315,6.775L8.785,6.489L9.283,6.249L9.807,6.057L10.35,5.916L10.92,5.829L11.5,5.8L11.71,5.812L11.76,5.516L11.93,4.024L12,2.684L11.99,2.197L11.52,2.168L10.71,2.073L9.916,1.899L9.153,1.665L8.436,1.388L7.194,0.7781L6.298,0.2113L6.006,0zz" fill="#EEAC55"/>
    </g>
    <g id="overlay">
      <path d="M11.5,7c-2.4853,0,-4.5,2.0147,-4.5,4.5c0,2.4853,2.0147,4.5,4.5,4.5s4.5,-2.0147,4.5,-4.5C16,9.0147,13.9853,7,11.5,7zM12.2,15h-1.4v-1h1.4V15zM12.2,13h-1.4V8.5h1.4V13z" fill="#EEAC55"/>
      <path d="M12.2,13h-1.4V8.5h1.4V13zM12.2,14h-1.4v1h1.4V14z" fill="#FFFFFF"/>
    </g>
  </g>
</svg>
