<?xml version="1.0" encoding="UTF-8"?>
<!DOCTYPE svg PUBLIC "-//W3C//DTD SVG 1.1//EN" "http://www.w3.org/Graphics/SVG/1.1/DTD/svg11.dtd">
<svg version="1.1" id="Layer_1" xmlns="http://www.w3.org/2000/svg" xmlns:xlink="http://www.w3.org/1999/xlink" x="0px" y="0px" width="16px" height="16px" viewBox="0 0 16 16" enable-background="new 0 0 16 16" xml:space="preserve">
  <g id="icon">
    <path d="M9.5,10.7926V2.0842c0,-0.8397,-0.6497,-1.5565,-1.4849,-1.5846C7.142,0.4703,6.5,1.1726,6.5,2.043v8.7874c-0.6503,0.4958,-1.0603,1.2931,-1.0226,2.1848c0.0597,1.4113,1.1872,2.5286,2.5923,2.4848c1.3897,-0.0433,2.4553,-1.19,2.4553,-2.5982C10.525,12.0332,10.1517,11.2647,9.5,10.7926z" fill="#FFFFFF" opacity="0.5"/>
    <path d="M7.9886,16.0013c-1.6257,0,-2.9396,-1.2843,-3.0108,-2.9649c-0.0394,-0.9297,0.3393,-1.8241,1.0222,-2.4402V2.043c0,-0.5761,0.226,-1.125,0.6201,-1.5062c0.3766,-0.3641,0.8789,-0.5542,1.4118,-0.5369C9.1171,0.0363,10,0.9713,10,2.0842v8.468c0.6546,0.5714,1.025,1.4133,1.025,2.3496c0,1.6858,-1.2913,3.0466,-2.9397,3.0979C8.0529,16.0008,8.0207,16.0013,7.9886,16.0013zM7.9625,0.9987c-0.2498,0,-0.4729,0.0884,-0.6472,0.2569C7.1149,1.4494,7,1.7364,7,2.043v9.0349l-0.1969,0.15c-0.5465,0.4167,-0.8554,1.0769,-0.8262,1.7661c0.0491,1.1598,0.9608,2.0416,2.0771,2.0062c1.1052,-0.0344,1.9709,-0.9562,1.9709,-2.0984c0,-0.7064,-0.2982,-1.3275,-0.8183,-1.7042L9,11.0479V2.0842c0,-0.5796,-0.4493,-1.0663,-1.0016,-1.0849C7.9863,0.9989,7.9744,0.9987,7.9625,0.9987z" fill="#6D6E71"/>
    <path d="M7.99,14.5012c-0.8124,0,-1.4772,-0.6714,-1.5135,-1.5284c-0.0223,-0.526,0.2131,-1.0296,0.6298,-1.3473L7.5,11.3254V3h1v8.3031l0.4134,0.2994c0.3887,0.2815,0.6116,0.7551,0.6116,1.2993c0,0.8705,-0.6529,1.5727,-1.4865,1.5987c-0.0162,0.0005,-0.0322,0.0007,-0.0483,0.0007C7.9901,14.5012,7.99,14.5012,7.99,14.5012z" fill="#CB525D"/>
  </g>
</svg>
