<?xml version="1.0" encoding="UTF-8"?>
<!DOCTYPE svg PUBLIC "-//W3C//DTD SVG 1.1//EN" "http://www.w3.org/Graphics/SVG/1.1/DTD/svg11.dtd">
<svg version="1.1" id="Layer_1" xmlns="http://www.w3.org/2000/svg" xmlns:xlink="http://www.w3.org/1999/xlink" x="0px" y="0px" width="16px" height="16px" viewBox="0 0 16 16" enable-background="new 0 0 16 16" xml:space="preserve">
  <g id="icon">
    <path d="M5.6663,11.8471l1.3794,2.4205l-1.2036,0.014l-0.8618,0.8871l-0.8061,-2.8828M2.4806,11.8471l-1.3794,2.4205l1.2036,0.014l0.8618,0.8871l0.8061,-2.8828M1.1611,9.3245c0,1.6152,1.3043,2.9245,2.9132,2.9245s2.9132,-1.3094,2.9132,-2.9245S5.6833,6.4,4.0744,6.4S1.1611,7.7094,1.1611,9.3245z" fill="#FFFFFF" opacity="0.5"/>
    <path d="M4.7009,15.8057l-0.5566,-1.9056l-0.5566,1.9056l-1.2915,-1.0873l-1.8404,-0.0217l1.5394,-2.7529C1.2836,11.3345,0.832,10.4292,0.832,9.4203c0,-1.8302,1.4862,-3.3193,3.3131,-3.3193s3.3131,1.489,3.3131,3.3193c0,1.0095,-0.4521,1.9151,-1.1641,2.5244l1.5389,2.752l-1.8404,0.0217L4.7009,15.8057zM4.9116,12.6499l0.3651,1.2499l0.3134,-0.2639l0.4013,-0.0047l-0.6285,-1.124C5.2172,12.5652,5.0665,12.6129,4.9116,12.6499zM2.2971,13.6312l0.4013,0.0047l0.3134,0.2639l0.3652,-1.2503c-0.1549,-0.0369,-0.3054,-0.0848,-0.4511,-0.1428L2.2971,13.6312zM4.145,7.1882c-1.2274,0,-2.2259,1.0013,-2.2259,2.2321s0.9985,2.232,2.2259,2.232s2.2259,-1.0013,2.2259,-2.232S5.3724,7.1882,4.145,7.1882z" fill="#CB525D"/>
    <path d="M1.5,0.5v5.2936c0.717,-0.5265,1.601,-0.8384,2.5568,-0.8384c2.3874,0,4.3296,1.9421,4.3296,4.3293c0,0.9969,-0.3386,1.9161,-0.9071,2.6487l0.325,0.5667H15.5V0.5H1.5z" fill="#FFFFFF" opacity="0.5"/>
    <path d="M1,0v6.2216c0.2946,-0.294,0.6313,-0.5458,1,-0.7457V1h13v11H7.5176l0.5734,1H16V0H1z" fill="#6D6E71"/>
    <path d="M7.4284,6.5729L8.5,7.4923l7.3256,-6.2853l-0.6512,-0.759L8.5,6.1747L1.8256,0.4481l-0.6512,0.759l5.048,4.3311C6.6854,5.8068,7.0942,6.1583,7.4284,6.5729z" fill="#6D6E71"/>
  </g>
</svg>
