<?xml version="1.0" encoding="UTF-8"?>
<!DOCTYPE svg PUBLIC "-//W3C//DTD SVG 1.1//EN" "http://www.w3.org/Graphics/SVG/1.1/DTD/svg11.dtd">
<svg version="1.1" id="Layer_1" xmlns="http://www.w3.org/2000/svg" xmlns:xlink="http://www.w3.org/1999/xlink" x="0px" y="0px" width="16px" height="16px" viewBox="0 0 16 16" enable-background="new 0 0 16 16" xml:space="preserve">
  <g id="icon">
    <polygon points="8,1.9 9.5323,6.7071 14.5,6.7071 10.4793,9.7137 12.0172,14.5447 8,11.556 3.9828,14.5447 5.5207,9.7137 1.5,6.7071 6.4677,6.7071" fill="#FFFFFF" stroke-linejoin="miter" opacity="0.5"/>
    <path d="M8,12.3881l-4.6548,3.463c-0.1886,0.1403,-0.4463,-0.0435,-0.375,-0.2675l1.7854,-5.6083L0.1118,6.5027c-0.1863,-0.1393,-0.0878,-0.4357,0.1449,-0.4357h5.733L7.7695,0.4833c0.0716,-0.2246,0.3894,-0.2246,0.461,0l1.7798,5.5837h5.733c0.2327,0,0.3312,0.2964,0.1449,0.4357l-4.6439,3.4726l1.7854,5.6083c0.0713,0.224,-0.1864,0.4078,-0.375,0.2675L8,12.3881zM10.938,13.0482L9.8137,9.5166l2.9762,-2.2256H9.1157L8,3.7908L6.8843,7.2911H3.2101l2.9762,2.2256L5.062,13.0482L8,10.8623L10.938,13.0482z" fill="#EEAC55"/>
  </g>
</svg>
