<?xml version="1.0" encoding="UTF-8"?>
<!DOCTYPE svg PUBLIC "-//W3C//DTD SVG 1.1//EN" "http://www.w3.org/Graphics/SVG/1.1/DTD/svg11.dtd">
<svg version="1.1" id="Layer_1" xmlns="http://www.w3.org/2000/svg" xmlns:xlink="http://www.w3.org/1999/xlink" x="0px" y="0px" width="16px" height="16px" viewBox="0 0 16 16" enable-background="new 0 0 16 16" xml:space="preserve">
  <g id="icon">
    <rect x="2.7" y="1.8" width="9.5" height="10.4" id="b" fill="#F5F5F5"/>
    <path d="M4,1h7c1.1046,0,2,0.8954,2,2v9.4969c0,0.2762,-0.2239,0.5,-0.5,0.5H3V13c0,0.5523,0.4477,1,1,1h8.5c0.2761,0,0.5,0.2239,0.5,0.5s-0.2239,0.5,-0.5,0.5H4c-1.1046,0,-2,-0.8954,-2,-2V3C2,1.8954,2.8954,1,4,1zM3,3v8.9969h9V3c0,-0.5523,-0.4477,-1,-1,-1H4C3.4477,2,3,2.4477,3,3z" id="c1" fill="#404040"/>
    <path d="M7.2515,10.6c-0.8759,0,-1.6856,-0.2987,-2.28,-0.841c-0.6351,-0.5793,-0.9708,-1.3723,-0.9708,-2.293c0,-1.0181,0.3752,-1.9668,1.0565,-2.6712c0.7127,-0.7369,1.7153,-1.1427,2.823,-1.1427c0.9041,0,1.6837,0.2859,2.2546,0.8267c0.5574,0.528,0.8643,1.2702,0.8643,2.09c0,1.5925,-0.9925,2.4257,-1.973,2.4257c-0.2975,0,-0.5164,-0.0769,-0.6692,-0.2351c-0.0769,-0.0796,-0.1344,-0.1794,-0.1715,-0.2974c-0.3769,0.4261,-0.8418,0.6336,-1.4185,0.6336c-0.6648,0,-1.3379,-0.494,-1.3379,-1.4382c0,-0.6557,0.2795,-1.3038,0.7667,-1.7778c0.5107,-0.4969,1.2056,-0.7705,1.9566,-0.7705c0.3546,0,0.7175,0.0537,1.0218,0.1512c0.1911,0.0611,0.305,0.2565,0.265,0.4544L9.111,7.3426c-0.1193,0.5633,-0.0923,0.7475,-0.0486,0.803c0.0146,0.0186,0.0485,0.0287,0.1007,0.0301l0.0129,0.0003c0.4363,0,0.8993,-0.6193,0.8993,-1.5411c0,-1.3523,-0.8721,-2.1924,-2.2761,-2.1924c-1.6597,0,-2.8643,1.2477,-2.8643,2.9668c0,1.4243,0.9758,2.3813,2.4282,2.3813c0.4323,0,0.9085,-0.094,1.3065,-0.2578c0.0225,-0.0083,0.0432,-0.0122,0.0631,-0.0122c0.1223,0,0.1853,0.1369,0.252,0.2818c0,0,0.0241,0.0516,0.032,0.0679c0.0482,0.0998,0.098,0.2029,0.0623,0.2957c-0.0217,0.0564,-0.0708,0.0995,-0.15,0.1318C8.4366,10.5039,7.9034,10.6,7.2515,10.6zM7.9918,6.0669c-0.7775,0,-1.4343,0.6969,-1.4343,1.5219c0,0.2016,0.0638,0.5397,0.4912,0.5397c0.476,0,0.9619,-0.6126,1.0623,-1.1397l0.1724,-0.8561c0.0022,-0.0109,0,-0.0215,-0.0064,-0.0307c-0.0063,-0.009,-0.0154,-0.0147,-0.0263,-0.0164C8.1704,6.0732,8.0832,6.0669,7.9918,6.0669z" id="c2" fill="#404040"/>
  </g>
</svg>
