<?xml version="1.0" encoding="UTF-8"?>
<!DOCTYPE svg PUBLIC "-//W3C//DTD SVG 1.1//EN" "http://www.w3.org/Graphics/SVG/1.1/DTD/svg11.dtd">
<svg version="1.1" id="Layer_1" xmlns="http://www.w3.org/2000/svg" xmlns:xlink="http://www.w3.org/1999/xlink" x="0px" y="0px" width="16px" height="16px" viewBox="0 0 16 16" enable-background="new 0 0 16 16" xml:space="preserve">
  <g id="icon">
    <path d="M12.5167,14.3h-6.475C4.7484,14.3,3.7,13.2516,3.7,11.9583v-9.475C3.7,2.0507,4.0507,1.7,4.4833,1.7H10.25L13.3,4.8v8.7167C13.3,13.9493,12.9493,14.3,12.5167,14.3zM3.5,12.1071c-0.4852,0,-0.8785,0.4013,-0.8785,0.8964c0,0.4951,0.3933,0.8964,0.8785,0.8964s0.8785,-0.4013,0.8785,-0.8964C4.3785,12.5085,3.9852,12.1071,3.5,12.1071z" id="b" fill="#F5F5F5"/>
    <path d="M13.5607,4.3535l-2.9143,-2.9142C10.3651,1.158,9.9836,1,9.5858,1H5c-1.1046,0,-2,0.8954,-2,2v1.5c0,0.2761,0.2239,0.5,0.5,0.5h0c0.2761,0,0.5,-0.2239,0.5,-0.5V3c0,-0.5523,0.4477,-1,1,-1h4v2.5c0,0.8284,0.6716,1.5,1.5,1.5h2.5v7c0,0.5523,-0.4477,1,-1,1H9.5c-0.2761,0,-0.5,0.2239,-0.5,0.5l0,0c0,0.2761,0.2239,0.5,0.5,0.5h2.5c1.1046,0,2,-0.8954,2,-2V5.4141C14,5.0163,13.842,4.6348,13.5607,4.3535zM10.5,5c-0.2761,0,-0.5,-0.2239,-0.5,-0.5V2.2071L12.7929,5H10.5z" id="c1" fill="#404040"/>
    <path d="M1.7021,7.4122c-0.0816,-0.0816,-0.1015,-0.2078,-0.0465,-0.3092C2.012,6.4465,2.7049,6,3.5,6c1.1579,0,2.1,0.9467,2.1,2.1104v1.861h0.35c0.5799,0,1.05,0.4797,1.05,1.0714v1.0348c0,0.2334,-0.2821,0.3502,-0.4472,0.1852l-2.0303,-2.0303c-0.0964,-0.0964,-0.0281,-0.2612,0.1082,-0.2612h0v-1.861c0,-0.6266,-0.5073,-1.1364,-1.1308,-1.1364c-0.4632,0,-0.8617,0.2815,-1.0359,0.6832c-0.0749,0.1727,-0.2952,0.2217,-0.4283,0.0886L1.7021,7.4122zM7,14.6899v0.2386C7,15.5203,6.5299,16,5.95,16h-4.9C0.4701,16,0,15.5203,0,14.9286v-3.8857c0,-0.5917,0.4701,-1.0714,1.05,-1.0714H1.4v-0.8815L7,14.6899zM4.3785,13.0036c0,-0.4951,-0.3933,-0.8964,-0.8785,-0.8964s-0.8785,0.4013,-0.8785,0.8964c0,0.4951,0.3933,0.8964,0.8785,0.8964S4.3785,13.4987,4.3785,13.0036z" id="c2" fill="#404040"/>
    <path d="M7.2429,15.85L-0.482,8.1251c-0.1953,-0.1953,-0.1953,-0.5118,0,-0.7071l0,0c0.1953,-0.1953,0.5118,-0.1953,0.7071,0L7.95,15.1429c0.1953,0.1953,0.1953,0.5118,0,0.7071h0C7.7547,16.0453,7.4382,16.0453,7.2429,15.85z" id="c2" fill="#404040"/>
  </g>
</svg>
