<?xml version="1.0" encoding="UTF-8"?>
<!DOCTYPE svg PUBLIC "-//W3C//DTD SVG 1.1//EN" "http://www.w3.org/Graphics/SVG/1.1/DTD/svg11.dtd">
<svg version="1.1" id="Layer_1" xmlns="http://www.w3.org/2000/svg" xmlns:xlink="http://www.w3.org/1999/xlink" x="0px" y="0px" width="16px" height="16px" viewBox="0 0 16 16" enable-background="new 0 0 16 16" xml:space="preserve">
  <g id="icon">
    <path d="M12.4999,14.5521c-0.0183,0,-0.035,-0.0055,-0.0523,-0.0173l-4.3943,-2.9622l-4.502,2.9631c-0.014,0.0101,-0.0321,0.0164,-0.0512,0.0164c-0.0326,0,-0.1,-0.0245,-0.1,-0.1004V3.1645C3.4,2.1916,4.1916,1.4,5.1645,1.4h5.671C11.8084,1.4,12.6,2.1916,12.6,3.1645v11.2873C12.6,14.5276,12.5326,14.5521,12.4999,14.5521z" id="b" fill="#F5F5F5"/>
    <path d="M3.7893,14.8572C3.4597,15.095,3,14.8588,3,14.4518V3.1645C3,1.9691,3.9691,1,5.1645,1h5.671C12.0309,1,13,1.9691,13,3.1645v11.2873c0,0.4071,-0.4597,0.6432,-0.7893,0.4055L8.05,12.0728L3.7893,14.8572zM10.8345,2h-5.669C4.5218,2,4,2.5218,4,3.1655v10.3126l3.7593,-2.4252c0.1737,-0.1253,0.4078,-0.1253,0.5814,0L12,13.4781V3.1655C12,2.5218,11.4782,2,10.8345,2z" id="c1" fill="#404040"/>
  </g>
</svg>
