<?xml version="1.0" encoding="UTF-8"?>
<!DOCTYPE svg PUBLIC "-//W3C//DTD SVG 1.1//EN" "http://www.w3.org/Graphics/SVG/1.1/DTD/svg11.dtd">
<svg version="1.1" id="Layer_1" xmlns="http://www.w3.org/2000/svg" xmlns:xlink="http://www.w3.org/1999/xlink" x="0px" y="0px" width="16px" height="16px" viewBox="0 0 16 16" enable-background="new 0 0 16 16" xml:space="preserve">
  <g id="main">
    <g id="icon">
      <path d="M4.885,2.737L4.737,2.837L4.637,2.985L4.6,3.167L4.6,5.733L4.607,5.8L2.508,5.8L2.155,5.871L1.866,6.066L1.671,6.355L1.6,6.708L1.6,10.59L1.671,10.95L1.866,11.23L2.155,11.43L2.508,11.5L4.4,11.5L4.4,13.77L4.458,14.05L4.615,14.29L4.848,14.44L5.133,14.5L6.901,14.5L6.641,14.07L6.368,13.48L6.167,12.85L6.043,12.19L6,11.5L6.029,10.94L6.112,10.39L6.248,9.866L6.433,9.361L6.665,8.88L6.941,8.427L7.257,8.004L7.613,7.613L8.004,7.257L8.427,6.941L8.88,6.665L9.361,6.433L9.866,6.248L10.39,6.112L10.94,6.029L11.5,6L12.19,6.043L12.85,6.167L13.48,6.368L14.07,6.641L14.4,6.84L14.4,6.708L14.33,6.355L14.13,6.066L13.85,5.871L13.49,5.8L11.39,5.8L11.4,5.733L11.4,3.167L11.36,2.985L11.26,2.837L11.12,2.737L10.93,2.7L5.067,2.7zz" fill="#F5F5F5"/>
      <path d="M5.198,2.03L4.916,2.118L4.662,2.256L4.439,2.439L4.256,2.661L4.118,2.916L4.031,3.198L4,3.5L4,5L3,5L2.597,5.041L2.221,5.157L1.882,5.342L1.586,5.586L1.342,5.882L1.157,6.221L1.041,6.597L1,7L1,10.5L1.03,10.8L1.118,11.08L1.256,11.34L1.439,11.56L1.661,11.74L1.916,11.88L2.198,11.97L2.5,12L4,12L4,13.5L4.031,13.8L4.118,14.08L4.256,14.34L4.439,14.56L4.662,14.74L4.916,14.88L5.198,14.97L5.5,15L7.272,15L6.98,14.63L6.641,14.07L6.607,14L5.5,14L5.305,13.96L5.146,13.85L5.039,13.69L5,13.5L5,10.5L5.039,10.31L5.146,10.15L5.305,10.04L5.5,10L6.213,10L6.248,9.866L6.433,9.361L6.607,9L5.5,9L5.198,9.03L4.916,9.118L4.662,9.256L4.439,9.439L4.256,9.661L4.118,9.916L4.031,10.2L4,10.5L4,11L2.5,11L2.305,10.96L2.146,10.85L2.039,10.69L2,10.5L2,7L2.079,6.611L2.293,6.293L2.611,6.079L3,6L4,6L11.5,6L12,6L13,6L13.39,6.079L13.71,6.293L13.88,6.554L14.07,6.641L14.63,6.98L15,7.272L15,7L14.96,6.597L14.84,6.221L14.66,5.882L14.41,5.586L14.12,5.342L13.78,5.157L13.4,5.041L13,5L12,5L12,3.5L11.97,3.198L11.88,2.916L11.74,2.661L11.56,2.439L11.34,2.256L11.08,2.118L10.8,2.03L10.5,2L5.5,2zM10.5,3L10.69,3.039L10.85,3.146L10.96,3.305L11,3.5L11,5L5,5L5,3.5L5.039,3.305L5.146,3.146L5.305,3.039L5.5,3zz" fill="#404040"/>
    </g>
    <g id="overlay">
      <circle cx="11.5" cy="11.5" r="4.001" id="b" fill="#FFFFFF"/>
      <path d="M11.5,16c-2.4813,0,-4.5,-2.0187,-4.5,-4.5s2.0187,-4.5,4.5,-4.5s4.5,2.0187,4.5,4.5S13.9813,16,11.5,16zM11.5,7.992c-1.9343,0,-3.508,1.5737,-3.508,3.508s1.5737,3.508,3.508,3.508s3.508,-1.5737,3.508,-3.508S13.4343,7.992,11.5,7.992z" id="c1" fill="#404040"/>
      <path d="M11.4667,11.999c-0.2319,0,-0.4303,-0.1732,-0.4614,-0.4027l-0.0012,-0.0089l-0.0029,-0.1164l-0.0001,-2.1297c0,-0.2205,0.1443,-0.4097,0.3509,-0.4601c0.0379,-0.0093,0.0777,-0.0139,0.1182,-0.0139c0.2261,0,0.4909,0.154,0.5245,0.4027l0.0011,0.011l0.0031,0.0463v1.6739h1.3263c0.2205,0,0.4097,0.1443,0.4601,0.3509c0.0355,0.1452,0.0028,0.311,-0.0876,0.4434c-0.0768,0.1126,-0.1838,0.1834,-0.3012,0.1993l-0.011,0.0011l-0.0463,0.0031H11.4667z" id="c1" fill="#404040"/>
    </g>
  </g>
</svg>
