<?xml version="1.0" encoding="UTF-8"?>
<!DOCTYPE svg PUBLIC "-//W3C//DTD SVG 1.1//EN" "http://www.w3.org/Graphics/SVG/1.1/DTD/svg11.dtd">
<svg version="1.1" id="Layer_1" xmlns="http://www.w3.org/2000/svg" xmlns:xlink="http://www.w3.org/1999/xlink" x="0px" y="0px" width="16px" height="16px" viewBox="0 0 16 16" enable-background="new 0 0 16 16" xml:space="preserve">
  <g id="icon">
    <path d="M10.3968,14.176c4.3058,-2.1081,4.2987,-7.5714,0.9973,-10.5863c0.1322,0.6704,0.2838,2.231,-0.2292,3.214c-0.7205,-2.7732,-3.6576,-5.2292,-3.6576,-5.2292s-0.1243,1.7901,-0.671,3.149c-0.1507,0.3745,-0.6806,2.1929,-1.4685,2.8781c-0.0226,-0.7317,-0.191,-2.572,-0.9527,-3.3878c-0.2554,1.6899,-1.0286,3.7865,-1.1627,5.5088c-0.1686,2.1656,1.3979,3.4196,2.9753,4.4262C7.5666,14.6114,8.9582,14.6027,10.3968,14.176z" id="b" fill="#F5F5F5" opacity="0.5"/>
    <path d="M10.2768,14.4299c1.0047,-1.9392,0.527,-4.4337,-1.1281,-5.8972c-0.1498,-0.1325,-0.3831,-0.0053,-0.3501,0.1918c0.1432,0.8559,0.1793,2.0521,-0.1884,2.4998c-0.2443,-0.2711,-0.6298,-0.8617,-0.948,-1.3392c-0.0929,-0.1394,-0.3028,-0.1196,-0.3691,0.0342c-0.3257,0.7554,-0.8375,1.3854,-1.1579,2.1475c-0.3816,0.9075,0.0872,2.0865,0.2235,2.3139C7.6266,14.9182,8.9347,14.9055,10.2768,14.4299z" id="c2" fill="#BE123C"/>
    <path d="M11.7216,3.2185l-0.1648,-0.1506c-0.0787,-0.0718,-0.1738,-0.1098,-0.2752,-0.1098c-0.1232,0,-0.2446,0.0582,-0.3248,0.1555c-0.0815,0.0989,-0.1123,0.2252,-0.0866,0.3554l0.0432,0.2188c0.0678,0.3439,0.1295,0.8855,0.116,1.4378C9.8931,2.938,7.9049,1.2612,7.8187,1.1892l-0.1104,-0.0923C7.6325,1.0335,7.5417,1,7.4458,1c-0.2222,0,-0.4016,0.1701,-0.4174,0.3957l-0.0101,0.1435c-0.0012,0.0172,-0.1272,1.7315,-0.6357,2.9954c-0.0292,0.0727,-0.0664,0.1792,-0.1094,0.3025c-0.1085,0.3112,-0.3028,0.8679,-0.5503,1.3818c-0.13,-0.7734,-0.3987,-1.7558,-0.9523,-2.3486l-0.1037,-0.1111c-0.0797,-0.0853,-0.1861,-0.1323,-0.2997,-0.1323c-0.2083,0,-0.3824,0.1518,-0.414,0.361l-0.0227,0.1502c-0.1064,0.7048,-0.306,1.482,-0.5178,2.3066c-0.2799,1.0899,-0.5694,2.2169,-0.649,3.2387c-0.1854,2.3812,1.4302,3.7565,3.2037,4.8882c1.4521,0.5435,3.0232,0.5794,4.6419,0.0541c2.0064,-0.9823,3.2764,-2.7059,3.5761,-4.8533C14.5142,7.4177,13.5701,4.9064,11.7216,3.2185zM13.2146,9.632c-0.2522,1.807,-1.3285,3.2612,-3.0304,4.0945c-1.4216,0.3642,-2.6372,0.3581,-3.6958,-0.0003c-1.7473,-1.115,-2.8832,-2.2158,-2.747,-3.9642c0.0727,-0.9338,0.3511,-2.0175,0.6203,-3.0655c0.0824,-0.3206,0.1671,-0.6505,0.2467,-0.9806c0.1744,0.6483,0.2538,1.3928,0.2695,1.9014l0.0048,0.1547c0.008,0.2584,0.2191,0.4127,0.4186,0.4127c0.0987,0,0.1915,-0.0353,0.2684,-0.1022l0.1169,-0.1017c0.7614,-0.6622,1.2676,-2.1128,1.5108,-2.8099l0.0036,-0.0104c0.0376,-0.1075,0.0698,-0.1998,0.0892,-0.248c0.3118,-0.775,0.4916,-1.6682,0.5901,-2.3128c0.8823,0.8817,2.3494,2.5562,2.8107,4.3314l0.048,0.1847c0.0492,0.1893,0.2117,0.3165,0.4043,0.3165c0.1558,0,0.2927,-0.0843,0.3664,-0.2255l0.0883,-0.1692c0.2703,-0.5179,0.4095,-1.1941,0.4144,-2.0117C12.9955,6.3968,13.4331,8.0669,13.2146,9.632z" id="c1" fill="#BE123C"/>
  </g>
</svg>
