<?xml version="1.0" encoding="UTF-8"?>
<!DOCTYPE svg PUBLIC "-//W3C//DTD SVG 1.1//EN" "http://www.w3.org/Graphics/SVG/1.1/DTD/svg11.dtd">
<svg version="1.1" id="Layer_1" xmlns="http://www.w3.org/2000/svg" xmlns:xlink="http://www.w3.org/1999/xlink" x="0px" y="0px" width="16px" height="16px" viewBox="0 0 16 16" enable-background="new 0 0 16 16" xml:space="preserve">
  <g id="icon">
    <path d="M11.15,14.55h-6.4c-1.2703,0,-2.3,-1.0297,-2.3,-2.3v-6.5c0,-1.2703,1.0297,-2.3,2.3,-2.3h6.4c1.2703,0,2.3,1.0297,2.3,2.3v6.5C13.45,13.5203,12.4203,14.55,11.15,14.55z" id="b" fill="#F5F5F5"/>
    <path d="M13,6.7989V9h-2.5l-0.0899,0.0081C10.1769,9.0504,10,9.2545,10,9.5c0,0.0522,-0.0078,0.1619,-0.0323,0.3084c-0.0411,0.2469,-0.115,0.493,-0.2275,0.718C9.4316,11.1439,8.8973,11.5,8,11.5s-1.4316,-0.3561,-1.7403,-0.9736c-0.1125,-0.2249,-0.1863,-0.471,-0.2275,-0.718C6.0078,9.6619,6,9.5522,6,9.5c0,-0.2761,-0.2239,-0.5,-0.5,-0.5H3V5.5c0,-0.8284,0.6716,-1.5,1.5,-1.5h3.7127c0.1128,0,0.2211,-0.0448,0.3008,-0.1246l0.1491,-0.149c0.268,-0.268,0.0782,-0.7263,-0.3008,-0.7263H4.5c-1.3807,0,-2.5,1.1193,-2.5,2.5v7c0,1.3807,1.1193,2.5,2.5,2.5h7c1.3807,0,2.5,-1.1193,2.5,-2.5V6.7022c0,-0.4024,-0.4865,-0.6039,-0.771,-0.3194l-0.0967,0.0967C13.0476,6.5642,13,6.6791,13,6.7989zM13,12.5c0,0.8284,-0.6716,1.5,-1.5,1.5H4.5c-0.8284,0,-1.5,-0.6716,-1.5,-1.5v-2.5h2.044l0.0354,0.174c0.0569,0.2517,0.1482,0.5243,0.2859,0.7996C5.8378,11.9186,6.7098,12.5,8,12.5s2.1622,-0.5814,2.6347,-1.5264l0.0948,-0.2057c0.0864,-0.2046,0.1484,-0.4052,0.1911,-0.5939l0.0344,-0.174H13V12.5z" id="c1" fill="#404040"/>
    <path d="M13.447,1.6523c-0.2409,0,-0.4672,0.0938,-0.6374,0.2641L8.8569,5.8688c-0.0944,0.0944,-0.1606,0.2129,-0.1916,0.3428l-0.3511,1.4744l1.4744,-0.351c0.1298,-0.0309,0.2484,-0.0971,0.3429,-0.1916l3.9527,-3.9525c0.1701,-0.1701,0.2638,-0.3964,0.2638,-0.6373c0,-0.2409,-0.0937,-0.4672,-0.2638,-0.6373C13.9141,1.746,13.6877,1.6523,13.447,1.6523z" id="b" fill="#F5F5F5"/>
    <path d="M8.0765,8.3998c-0.1272,0,-0.2468,-0.0495,-0.3367,-0.1394c-0.1179,-0.1179,-0.1652,-0.285,-0.1266,-0.447l0.4174,-1.7528c0.0589,-0.2473,0.1851,-0.4732,0.365,-0.653l3.9527,-3.9525C12.6417,1.1616,13.0319,1,13.447,1s0.8052,0.1616,1.0987,0.455c0.6058,0.6056,0.6058,1.5912,0.0001,2.197L10.593,7.6045c-0.1799,0.1799,-0.4058,0.3061,-0.6532,0.365l-1.753,0.4173C8.1507,8.3954,8.1136,8.3998,8.0765,8.3998zM13.8721,2.9786c0.2345,-0.2344,0.2345,-0.6158,0,-0.8503c-0.1135,-0.1135,-0.2645,-0.1761,-0.4251,-0.1761c-0.1606,0,-0.3117,0.0625,-0.4252,0.1761L9.069,6.0809c-0.0552,0.0552,-0.0938,0.1244,-0.1119,0.2002L8.719,7.2812l1.0001,-0.2381c0.0759,-0.0181,0.1452,-0.0568,0.2004,-0.1119L13.8721,2.9786z" id="c2" fill="#404040"/>
  </g>
</svg>
