<?xml version="1.0" encoding="UTF-8"?>
<!DOCTYPE svg PUBLIC "-//W3C//DTD SVG 1.1//EN" "http://www.w3.org/Graphics/SVG/1.1/DTD/svg11.dtd">
<svg version="1.1" id="Layer_1" xmlns="http://www.w3.org/2000/svg" xmlns:xlink="http://www.w3.org/1999/xlink" x="0px" y="0px" width="16px" height="16px" viewBox="0 0 16 16" enable-background="new 0 0 16 16" xml:space="preserve">
  <g id="main">
    <g id="icon">
      <path d="M2.698,2.53L2.417,2.618L2.162,2.756L1.94,2.94L1.756,3.162L1.618,3.417L1.53,3.698L1.5,4L1.5,12L1.53,12.3L1.618,12.58L1.756,12.84L1.94,13.06L2.162,13.24L2.417,13.38L2.698,13.47L3,13.5L7.755,13.5L7.588,13.35L7.337,13.08L7.152,12.77L7.037,12.43L6.997,12.06L7.037,11.7L7.152,11.35L7.337,11.04L7.588,10.77L11.24,7.558L11.34,7.471L11.82,7.216L12.35,7.127L12.87,7.21L13.33,7.452L13.6,7.7L13.8,8L14.5,8L14.5,5L14.47,4.698L14.38,4.417L14.24,4.162L14.06,3.94L13.84,3.756L13.58,3.618L13.3,3.53L13,3.5L8,3.5L6.75,2.5L3,2.5zz" fill="#F5F5F5"/>
      <path d="M2.597,2.041L2.221,2.157L1.882,2.342L1.586,2.586L1.342,2.882L1.157,3.221L1.041,3.597L1,4L1,12L1.041,12.4L1.157,12.78L1.342,13.12L1.586,13.41L1.882,13.66L2.221,13.84L2.597,13.96L3,14L8,14L8,13.72L7.588,13.35L7.337,13.08L7.287,13L3,13L2.611,12.92L2.293,12.71L2.079,12.39L2,12L2,5.5L6.75,5.5L6.93,5.466L7.086,5.37L8.593,4L13,4L13.39,4.079L13.71,4.293L13.92,4.611L14,5L14,8L15,8L15,5L14.96,4.597L14.84,4.221L14.66,3.882L14.41,3.586L14.12,3.342L13.78,3.157L13.4,3.041L13,3L8.175,3L7.062,2.11L6.915,2.028L6.75,2L3,2zM6.575,3L7.443,3.695L6.557,4.5L2,4.5L2,4L2.079,3.611L2.293,3.293L2.611,3.079L3,3zz" fill="#404040"/>
    </g>
    <g id="overlay">
      <path d="M8.5449,12.2912l3.6822,3.3215c0.1113,0.0881,0.273,0.0068,0.273,-0.1372v-1.812l2.4278,-0.0004c0.3159,0,0.5722,-0.5228,0.5722,-0.5721l0.0004,-1.9551c0.0001,-0.3161,-0.2562,-0.5724,-0.5723,-0.5724L12.5,10.5639V8.7514c0,-0.144,-0.1616,-0.2253,-0.273,-0.1372l-3.6822,3.3215C8.4312,12.0257,8.4312,12.2013,8.5449,12.2912z" id="b" fill="#FFFFFF"/>
      <path d="M7.9973,12.0635c0,-0.2067,0.0898,-0.4011,0.2467,-0.5345l3.6682,-3.2315c0.0124,-0.012,0.0256,-0.0233,0.0393,-0.0339c0.2293,-0.1774,0.5455,-0.1848,0.7888,-0.0059c0.1701,0.1251,0.2598,0.3325,0.2598,0.5436v1.2622h1.9c0.2463,0,0.5088,0.0716,0.7013,0.2252c0.2557,0.204,0.3987,0.503,0.3987,0.824l-0.0003,1.9014c-0.0002,0.5785,-0.4703,1.0493,-1.048,1.0494H13v1.2621c0,0.2112,-0.0897,0.4186,-0.2598,0.5437c-0.2433,0.1789,-0.5595,0.1715,-0.7889,-0.006c-0.0138,-0.0107,-0.0267,-0.0219,-0.0391,-0.0338L8.2439,12.598C8.0871,12.4646,7.9973,12.2702,7.9973,12.0635zM9.0405,12.1135L12,14.6033v-0.9508c0,-0.2697,0.2346,-0.5891,0.5,-0.5891h2.4c0.0476,0,0.1,-0.039,0.1,-0.0866l0.0004,-1.8266c0,-0.0235,-0.0087,-0.0448,-0.025,-0.0614c-0.0164,-0.0167,-0.0522,-0.0254,-0.0754,-0.0254h-2.4c-0.0941,0,-0.1898,-0.0198,-0.2692,-0.0704c-0.1473,-0.0939,-0.2308,-0.2496,-0.2308,-0.4183v-0.9512L9.0405,12.1135z" id="c3" fill="#0891b2"/>
    </g>
  </g>
</svg>
