<?xml version="1.0" encoding="UTF-8"?>
<!DOCTYPE svg PUBLIC "-//W3C//DTD SVG 1.1//EN" "http://www.w3.org/Graphics/SVG/1.1/DTD/svg11.dtd">
<svg version="1.1" id="Layer_1" xmlns="http://www.w3.org/2000/svg" xmlns:xlink="http://www.w3.org/1999/xlink" x="0px" y="0px" width="16px" height="16px" viewBox="0 0 16 16" enable-background="new 0 0 16 16" xml:space="preserve">
  <g id="icon">
    <path d="M11.15,13.55h-6.4c-1.2703,0,-2.3,-1.0297,-2.3,-2.3v-6.5c0,-1.2703,1.0297,-2.3,2.3,-2.3h6.4c1.2703,0,2.3,1.0297,2.3,2.3v6.5C13.45,12.5203,12.4203,13.55,11.15,13.55z" id="b" fill="#F5F5F5"/>
    <path d="M4.5,2c-1.3807,0,-2.5,1.1193,-2.5,2.5v7c0,1.3807,1.1193,2.5,2.5,2.5h7c1.3807,0,2.5,-1.1193,2.5,-2.5V4.5c0,-1.3807,-1.1193,-2.5,-2.5,-2.5H4.5zM13,8h-2.5l-0.0899,0.0081C10.1769,8.0504,10,8.2545,10,8.5c0,0.0522,-0.0078,0.1619,-0.0323,0.3084c-0.0411,0.2469,-0.115,0.493,-0.2275,0.718C9.4316,10.1439,8.8973,10.5,8,10.5s-1.4316,-0.3561,-1.7403,-0.9736c-0.1125,-0.2249,-0.1863,-0.471,-0.2274,-0.718C6.0078,8.6619,6,8.5522,6,8.5c0,-0.2761,-0.2239,-0.5,-0.5,-0.5H3V4.5c0,-0.8284,0.6716,-1.5,1.5,-1.5h7c0.8284,0,1.5,0.6716,1.5,1.5V8zM3,9h2.044l0.0354,0.174c0.0569,0.2517,0.1482,0.5243,0.2859,0.7996C5.8378,10.9186,6.7098,11.5,8,11.5s2.1622,-0.5814,2.6347,-1.5264l0.0948,-0.2057c0.0864,-0.2046,0.1484,-0.4052,0.1911,-0.5939L10.955,9H13v2.5c0,0.8284,-0.6716,1.5,-1.5,1.5H4.5c-0.8284,0,-1.5,-0.6716,-1.5,-1.5V9z" id="c1" fill="#404040"/>
  </g>
</svg>
