<?xml version="1.0" encoding="UTF-8"?>
<!DOCTYPE svg PUBLIC "-//W3C//DTD SVG 1.1//EN" "http://www.w3.org/Graphics/SVG/1.1/DTD/svg11.dtd">
<svg version="1.1" id="Layer_1" xmlns="http://www.w3.org/2000/svg" xmlns:xlink="http://www.w3.org/1999/xlink" x="0px" y="0px" width="16px" height="16px" viewBox="0 0 16 16" enable-background="new 0 0 16 16" xml:space="preserve">
  <g id="main">
    <g id="icon">
      <path d="M4.287,2.497L3.855,2.631L3.464,2.843L3.124,3.124L2.843,3.464L2.631,3.855L2.497,4.287L2.45,4.75L2.45,11.25L2.497,11.71L2.631,12.15L2.843,12.54L3.124,12.88L3.464,13.16L3.855,13.37L4.287,13.5L4.75,13.55L6.849,13.55L6.755,13.29L6.617,12.73L6.533,12.14L6.505,11.52L6.532,10.93L6.613,10.37L6.748,9.829L6.937,9.31L7.17,8.822L7.445,8.366L7.759,7.944L8.111,7.558L8.498,7.21L8.917,6.902L9.364,6.635L9.84,6.41L10.34,6.231L10.86,6.103L11.39,6.026L11.93,6L12.54,6.03L13.14,6.121L13.45,6.201L13.45,4.75L13.4,4.287L13.27,3.855L13.06,3.464L12.78,3.124L12.44,2.843L12.05,2.631L11.61,2.497L11.15,2.45L4.75,2.45zz" fill="#F5F5F5"/>
      <path d="M3.996,2.051L3.527,2.196L3.102,2.427L2.732,2.732L2.427,3.102L2.196,3.527L2.051,3.996L2,4.5L2,11.5L2.051,12L2.196,12.47L2.427,12.9L2.732,13.27L3.102,13.57L3.527,13.8L3.996,13.95L4.5,14L7.037,14L6.949,13.82L6.755,13.29L6.683,13L4.5,13L4.198,12.97L3.916,12.88L3.661,12.74L3.439,12.56L3.256,12.34L3.118,12.08L3.03,11.8L3,11.5L3,9L5.044,9L5.079,9.174L5.192,9.565L5.365,9.974L5.561,10.31L5.795,10.61L6.066,10.87L6.376,11.09L6.521,11.16L6.532,10.93L6.613,10.37L6.69,10.07L6.536,9.939L6.26,9.526L6.119,9.176L6.032,8.808L6,8.5L5.961,8.305L5.854,8.146L5.695,8.039L5.5,8L3,8L3,4.5L3.03,4.198L3.118,3.916L3.256,3.661L3.439,3.439L3.661,3.256L3.916,3.118L4.198,3.03L4.5,3L11.5,3L11.8,3.03L12.08,3.118L12.34,3.256L12.56,3.439L12.74,3.661L12.88,3.916L12.97,4.198L13,4.5L13,6.1L13.14,6.121L13.74,6.276L14,6.378L14,4.5L13.95,3.996L13.8,3.527L13.57,3.102L13.27,2.732L12.9,2.427L12.47,2.196L12,2.051L11.5,2L4.5,2zz" fill="#404040"/>
    </g>
    <g id="overlay">
      <path d="M12.0912,16c-0.6172,0,-1.2073,-0.0966,-1.7537,-0.287c-0.5579,-0.1946,-1.053,-0.4865,-1.4714,-0.8676c-0.4217,-0.3841,-0.7577,-0.8616,-0.9989,-1.4194c-0.2402,-0.5554,-0.362,-1.1982,-0.362,-1.9105c0,-0.6526,0.1185,-1.2636,0.3523,-1.8162c0.2329,-0.5506,0.5551,-1.0323,0.9578,-1.4315c0.4023,-0.3986,0.8761,-0.7129,1.4083,-0.934C10.7569,7.1123,11.3309,7,11.93,7c0.3442,0,0.685,0.0339,1.013,0.1008c0.3317,0.0677,0.6502,0.17,0.9468,0.3039c0.3024,0.1366,0.5853,0.3114,0.8409,0.5195c0.2623,0.2138,0.4905,0.4682,0.6781,0.7562c0.1861,0.286,0.3329,0.6102,0.4362,0.9638c0.1029,0.3527,0.155,0.7422,0.155,1.1577c0,0.4318,-0.0593,0.8311,-0.1762,1.187c-0.1192,0.3623,-0.2858,0.6789,-0.4951,0.941c-0.2166,0.2713,-0.474,0.4849,-0.765,0.6348c-0.2993,0.1542,-0.6213,0.2325,-0.9568,0.2325c-0.2587,0,-0.487,-0.044,-0.6786,-0.1309c-0.1897,-0.086,-0.3458,-0.208,-0.4648,-0.3633c-0.0426,0.0351,-0.086,0.0678,-0.1299,0.0977c-0.3559,0.2426,-0.7521,0.3655,-1.1776,0.3655c-0.2647,0,-0.5022,-0.0484,-0.706,-0.144c-0.2029,-0.095,-0.3764,-0.2271,-0.5157,-0.3925c-0.1371,-0.1629,-0.2384,-0.3542,-0.3014,-0.5688c-0.0566,-0.1926,-0.0853,-0.4004,-0.0853,-0.6178c0,-0.2363,0.0319,-0.4777,0.0947,-0.7174c0.0625,-0.2386,0.1554,-0.4699,0.2761,-0.6876c0.1199,-0.2162,0.269,-0.4213,0.4432,-0.6093c0.1774,-0.1913,0.3811,-0.359,0.6056,-0.4982c0.224,-0.1389,0.4736,-0.2498,0.7417,-0.3297c0.2731,-0.0814,0.5633,-0.1227,0.8626,-0.1227c0.1823,0,0.367,0.0157,0.5486,0.0466c0.1988,0.0338,0.3756,0.0875,0.5256,0.1597c0.2284,0.1099,0.3414,0.3663,0.2688,0.6095l-0.6834,2.289c-0.0156,0.1265,-0.0189,0.2556,-0.0085,0.3395c0.0077,0.0621,0.0241,0.1132,0.0476,0.1478c0.0103,0.0153,0.0297,0.038,0.0801,0.0609c0.04,0.0181,0.1169,0.0397,0.2566,0.0397c0.1736,0,0.3335,-0.0389,0.4889,-0.119c0.1619,-0.0834,0.3078,-0.2056,0.4337,-0.3633c0.1329,-0.1664,0.2412,-0.3753,0.3221,-0.621c0.0827,-0.2519,0.1247,-0.5432,0.1247,-0.8659c0,-0.3181,-0.0383,-0.6106,-0.1139,-0.8696c-0.075,-0.2567,-0.1796,-0.4893,-0.3109,-0.6911c-0.1297,-0.199,-0.2867,-0.3742,-0.4667,-0.5209c-0.1868,-0.1521,-0.394,-0.2801,-0.6157,-0.3803c-0.2276,-0.1028,-0.4733,-0.1815,-0.7304,-0.2339c-0.2608,-0.0532,-0.5329,-0.0802,-0.8088,-0.0802c-0.4638,0,-0.9061,0.086,-1.3144,0.2557c-0.4093,0.17,-0.7728,0.4108,-1.0804,0.7157c-0.3072,0.3044,-0.5545,0.6753,-0.7352,1.1024c-0.1799,0.4253,-0.2711,0.9016,-0.2711,1.4157c0,0.5712,0.0934,1.0767,0.2776,1.5025c0.183,0.4233,0.4347,0.7826,0.748,1.068c0.3158,0.2877,0.6924,0.509,1.1193,0.6579c0.438,0.1526,0.9149,0.23,1.4173,0.23c0.5136,0,0.9919,-0.0607,1.4217,-0.1804c0.4249,-0.1184,0.8264,-0.2982,1.1933,-0.5345c0.0828,-0.0533,0.1784,-0.0815,0.2765,-0.0815c0.1752,0,0.3363,0.0881,0.4309,0.2358c0.0739,0.1152,0.0986,0.2525,0.0696,0.3863c-0.0291,0.1339,-0.1084,0.2484,-0.2234,0.3225c-0.4534,0.2921,-0.9489,0.5142,-1.4727,0.66C13.2678,15.9267,12.6973,16,12.0912,16zM12.5857,10.1048c-0.211,0,-0.4078,0.0268,-0.5851,0.0796c-0.1816,0.054,-0.348,0.1275,-0.4947,0.2185c-0.1464,0.0908,-0.279,0.1998,-0.3941,0.324c-0.1183,0.1277,-0.2188,0.2655,-0.2984,0.4093c-0.0792,0.1429,-0.14,0.2942,-0.1808,0.45c-0.0406,0.1547,-0.0612,0.3084,-0.0612,0.4568c0,0.1192,0.0147,0.2296,0.0437,0.3283c0.023,0.0783,0.0563,0.1427,0.1019,0.1968c0.0434,0.0516,0.0979,0.0923,0.1666,0.1245c0.0672,0.0315,0.1588,0.0475,0.2725,0.0475c0.2195,0,0.4163,-0.0615,0.6017,-0.1878c0.1729,-0.1179,0.3429,-0.3462,0.4919,-0.6607l0.5307,-1.7774C12.7144,10.108,12.6494,10.1048,12.5857,10.1048z" id="c1" fill="#212121"/>
    </g>
  </g>
</svg>
