<?xml version="1.0" encoding="UTF-8"?>
<!DOCTYPE svg PUBLIC "-//W3C//DTD SVG 1.1//EN" "http://www.w3.org/Graphics/SVG/1.1/DTD/svg11.dtd">
<svg version="1.1" id="Layer_1" xmlns="http://www.w3.org/2000/svg" xmlns:xlink="http://www.w3.org/1999/xlink" x="0px" y="0px" width="16px" height="16px" viewBox="0 0 16 16" enable-background="new 0 0 16 16" xml:space="preserve">
  <g id="icon">
    <path d="M14.5,3.0752v7.8496c0,0.87,-0.7052,1.5752,-1.5752,1.5752h-2.6506c-0.1129,0,-0.2085,-0.0841,-0.2217,-0.1963c-0.2272,-1.9287,-1.9101,-3.4024,-3.8931,-3.4024c0,0,-0.3287,0,-0.6554,0c-0.2798,0,-0.479,-0.2604,-0.4196,-0.5338c0.146,-0.6711,-0.1429,-1.4181,-0.8638,-1.7867c-0.0685,-0.035,-0.1404,-0.0637,-0.2142,-0.0853c-0.5491,-0.1606,-1.099,-0.0412,-1.5062,0.298c-0.0001,0.0001,-0.0003,0,-0.0003,-0.0001V3.0752C2.5,2.2052,3.2052,1.5,4.0752,1.5h8.8496C13.7948,1.5,14.5,2.2052,14.5,3.0752z" id="b" fill="#F5F5F5"/>
    <path d="M15,3v8c0,1.1046,-0.8954,2,-2,2h-2.6025c-0.176,0,-0.3161,-0.1425,-0.3191,-0.3185c0,-0.0011,0,-0.0022,-0.0001,-0.0033c-0.002,-0.1092,-0.0089,-0.2171,-0.0203,-0.3236c-0.0202,-0.1893,0.1263,-0.3546,0.3166,-0.3546H13c0.5523,0,1,-0.4477,1,-1V4.8756L8.7372,8.4402c-0.148,0.0797,-0.3261,0.0797,-0.4741,0L3,4.8755v1.6379c-0.2299,0.0791,-0.4408,0.2093,-0.6168,0.3877l0,0C2.2426,7.0436,2,6.944,2,6.7439V4.0381V3c0,-1.1046,0.8954,-2,2,-2h9C14.1046,1,15,1.8954,15,3zM14,3c0,-0.5523,-0.4477,-1,-1,-1H4c-0.5523,0,-1,0.4477,-1,1v0.7398l5.5001,3.6924L14,3.7399V3z" id="c1" fill="#404040"/>
    <path d="M6.2296,15.5c-0.2761,0,-0.5,-0.2239,-0.5,-0.5s0.2239,-0.5,0.5,-0.5c0.9646,0,1.7494,-0.7847,1.7494,-1.7493s-0.7848,-1.7494,-1.7494,-1.7494H2.2742l1.6038,1.6251c0.1939,0.1966,0.1918,0.5131,-0.0047,0.7071c-0.1966,0.1938,-0.5131,0.1918,-0.7071,-0.0047L0.7224,10.8525c-0.1921,-0.1947,-0.1921,-0.5077,0,-0.7024l2.4438,-2.4763c0.194,-0.1966,0.5105,-0.1986,0.7071,-0.0047c0.1965,0.194,0.1986,0.5105,0.0047,0.7071l-1.6038,1.6251h3.9555c1.516,0,2.7494,1.2333,2.7494,2.7494C8.979,14.2667,7.7457,15.5,6.2296,15.5z" id="c2" fill="#404040"/>
  </g>
</svg>
