<?xml version="1.0" encoding="UTF-8"?>
<!DOCTYPE svg PUBLIC "-//W3C//DTD SVG 1.1//EN" "http://www.w3.org/Graphics/SVG/1.1/DTD/svg11.dtd">
<svg version="1.1" id="Layer_1" xmlns="http://www.w3.org/2000/svg" xmlns:xlink="http://www.w3.org/1999/xlink" x="0px" y="0px" width="16px" height="16px" viewBox="0 0 16 16" enable-background="new 0 0 16 16" xml:space="preserve">
  <g id="icon">
    <path d="M1.7193,3.3427c-0.2559,-0.9253,0.0557,-1.2034,0.9198,-0.8572l11.1421,5.1937c0.81,0.3493,0.8044,0.5025,0.0088,0.8183l-11.034,5.1767c-0.9126,0.3925,-1.17,0.1595,-0.9386,-0.8668l0.6826,-3.4229l-0.0076,-0.0001l0.2719,-1.3266l-0.2883,-1.1517l0.0018,0L1.7193,3.3427z" id="b" fill="#F5F5F5"/>
    <path d="M14.8862,8.1108c0.0084,-0.4962,-0.5216,-0.7239,-0.9059,-0.8888L2.8169,2.0393c-0.0049,-0.0021,-0.0099,-0.0042,-0.0149,-0.0062c-0.2311,-0.0922,-0.9344,-0.3726,-1.3991,0.0433c-0.4694,0.4201,-0.2632,1.1714,-0.1954,1.4182c0.0001,0.0003,0.0002,0.0007,0.0003,0.001l0.7422,3.5308c0.0028,0.0146,0.0062,0.0293,0.0103,0.0438l0.2495,1.0222l-0.2401,1.1975c-0.0074,0.0282,-0.0122,0.0568,-0.0144,0.0853l-0.6714,3.3517c-0.0013,0.0048,-0.0024,0.0096,-0.0035,0.0144c-0.1165,0.5117,-0.1855,1.0757,0.16,1.4211c0.0176,0.0176,0.0362,0.0346,0.056,0.0509c0.4018,0.3335,0.9637,0.1558,1.4127,-0.0381l11.0686,-5.2122C14.3604,8.8105,14.8779,8.6004,14.8862,8.1108zM2.5112,13.258c-0.1454,0.0628,-0.2494,0.0977,-0.3214,0.117c0.0051,-0.0851,0.0218,-0.2153,0.0655,-0.4085l0.691,-3.4275c0.007,-0.0268,0.0115,-0.054,0.0137,-0.0812l0.1678,-0.9232l4.9608,0.0397c0.2766,0.0017,0.5032,-0.2211,0.5061,-0.4976c0.0029,-0.2765,-0.2189,-0.5022,-0.4954,-0.5039l-5.0061,-0.04l-0.1579,-0.6997c-0.0024,-0.0125,-0.0054,-0.0249,-0.0088,-0.0373l-0.7534,-3.5713c-0.0473,-0.1727,-0.063,-0.2875,-0.0666,-0.3594c0.0658,0.0114,0.1671,0.0376,0.3138,0.0956l11.0505,5.1333L2.5112,13.258z" id="c1" fill="#404040"/>
  </g>
</svg>
