<?xml version="1.0" encoding="UTF-8"?>
<!DOCTYPE svg PUBLIC "-//W3C//DTD SVG 1.1//EN" "http://www.w3.org/Graphics/SVG/1.1/DTD/svg11.dtd">
<svg version="1.1" id="Layer_1" xmlns="http://www.w3.org/2000/svg" xmlns:xlink="http://www.w3.org/1999/xlink" x="0px" y="0px" width="16px" height="16px" viewBox="0 0 16 16" enable-background="new 0 0 16 16" xml:space="preserve">
  <g id="icon">
    <path d="M14.5,3.075v7.85c0,0.8698,-0.7052,1.575,-1.575,1.575h-0.8545c-0.1322,-2.024,-1.8613,-3.5987,-3.9111,-3.5987h-0.6985c0.4085,-0.6238,0.3357,-1.4715,-0.2151,-2.0153c-0.3656,-0.3607,-0.875,-0.5248,-1.3971,-0.4384c-0.3413,0.0564,-0.6504,0.2354,-0.8933,0.4817h0c-0.1043,0.1057,-0.2729,0.099,-0.3754,-0.0085c-0.1083,-0.1135,-0.2366,-0.2149,-0.3853,-0.2996c-0.1232,-0.0702,-0.2568,-0.122,-0.3951,-0.1534c-0.4695,-0.1065,-0.9325,-0.0104,-1.2995,0.2497V3.075C2.5,2.2052,3.2052,1.5,4.075,1.5h8.85C13.7948,1.5,14.5,2.2052,14.5,3.075z" id="b" fill="#F5F5F5"/>
    <path d="M13,1H4c-1.1046,0,-2,0.8954,-2,2v1.0381v2.1608c0,0.3853,0.4265,0.619,0.7506,0.4107c0.0982,-0.0631,0.1864,-0.1109,0.2494,-0.128v-1.606l2.4844,1.6827c0.1159,-0.0518,0.2379,-0.0897,0.3644,-0.1106c0.5221,-0.0863,1.0315,0.0778,1.3971,0.4384c0.3287,0.3244,0.4858,0.7571,0.4734,1.1858l0.5439,0.3684c0.148,0.0797,0.3261,0.0797,0.4741,0L14,4.8756V11c0,0.5523,-0.4477,1,-1,1h-0.4534c-0.2844,0,-0.5096,0.2398,-0.4927,0.5237c0.0003,0.0042,0.0005,0.0085,0.0007,0.0127c0.0152,0.2605,0.2318,0.4636,0.4927,0.4636H13c1.1046,0,2,-0.8954,2,-2V3C15,1.8954,14.1046,1,13,1zM14,3.7399L8.5001,7.4321L3,3.7398V3c0,-0.5523,0.4477,-1,1,-1h9c0.5523,0,1,0.4477,1,1V3.7399z" id="c1" fill="#404040"/>
    <path d="M8.2296,15.5c-0.2761,0,-0.5,-0.2239,-0.5,-0.5s0.2239,-0.5,0.5,-0.5c0.9646,0,1.7494,-0.7847,1.7494,-1.7493s-0.7848,-1.7494,-1.7494,-1.7494H4.8742l1.6038,1.6251c0.1939,0.1966,0.1918,0.5131,-0.0047,0.7071c-0.1965,0.1938,-0.5131,0.1918,-0.7071,-0.0047l-2.4438,-2.4764c-0.1921,-0.1947,-0.1921,-0.5077,0,-0.7024l2.4438,-2.4763c0.194,-0.1966,0.5105,-0.1986,0.7071,-0.0047c0.1965,0.194,0.1986,0.5105,0.0047,0.7071l-1.6038,1.6251h3.3555c1.516,0,2.7494,1.2333,2.7494,2.7494C10.979,14.2667,9.7457,15.5,8.2296,15.5zM3.7732,13.3336c0.1965,-0.194,0.1986,-0.5105,0.0047,-0.7071l-2.0972,-2.1251l2.0972,-2.1251c0.1939,-0.1966,0.1918,-0.5131,-0.0047,-0.7071c-0.1966,-0.1939,-0.5131,-0.1919,-0.7071,0.0047L0.6224,10.1501c-0.1921,0.1947,-0.1921,0.5077,0,0.7024l2.4438,2.4764c0.0979,0.0991,0.2269,0.1488,0.3559,0.1488C3.5489,13.4777,3.6758,13.4297,3.7732,13.3336z" id="c2" fill="#404040"/>
  </g>
</svg>
