<?xml version="1.0" encoding="UTF-8"?>
<!DOCTYPE svg PUBLIC "-//W3C//DTD SVG 1.1//EN" "http://www.w3.org/Graphics/SVG/1.1/DTD/svg11.dtd">
<svg version="1.1" id="Layer_1" xmlns="http://www.w3.org/2000/svg" xmlns:xlink="http://www.w3.org/1999/xlink" x="0px" y="0px" width="16px" height="16px" viewBox="0 0 16 16" enable-background="new 0 0 16 16" xml:space="preserve">
  <g id="main">
    <g id="icon">
      <path d="M2.111,2.579L1.793,2.793L1.579,3.111L1.5,3.5L1.5,4.5L1.579,4.889L1.793,5.207L2.111,5.421L2.5,5.5L2.5,12.5L2.541,12.9L2.657,13.28L2.842,13.62L3.086,13.91L3.382,14.16L3.721,14.34L4.097,14.46L4.5,14.5L11.5,14.5L11.9,14.46L12.28,14.34L12.62,14.16L12.91,13.91L13.16,13.62L13.34,13.28L13.46,12.9L13.5,12.5L13.5,8.245L13.35,8.412L13.08,8.663L12.77,8.848L12.43,8.963L12.06,9.003L11.7,8.963L11.35,8.848L11.04,8.663L10.77,8.412L7.558,4.761L7.471,4.658L7.214,4.184L7.125,3.669L7.204,3.15L7.452,2.667L7.608,2.5L2.5,2.5zz" fill="#F5F5F5"/>
      <path d="M2.198,2.03L1.917,2.118L1.662,2.256L1.44,2.44L1.256,2.662L1.118,2.917L1.03,3.198L1,3.5L1,4.5L1.03,4.802L1.118,5.083L1.256,5.338L1.44,5.56L1.662,5.744L1.917,5.882L2.198,5.97L2.5,6L8.649,6L7.768,5L2.5,5L2.305,4.961L2.147,4.853L2.039,4.695L2,4.5L2,3.5L2.039,3.305L2.147,3.147L2.305,3.039L2.5,3L7.281,3L7.452,2.667L7.7,2.402L8,2.198L8,2L2.5,2zz" fill="#404040"/>
      <path d="M2,12.5L2.051,13L2.197,13.47L2.428,13.9L2.733,14.27L3.103,14.57L3.528,14.8L3.997,14.95L4.5,15L11.5,15L12,14.95L12.47,14.8L12.9,14.57L13.27,14.27L13.57,13.9L13.8,13.47L13.95,13L14,12.5L14,8L13.72,8L13.35,8.412L13.08,8.663L13,8.713L13,12.5L12.97,12.8L12.88,13.08L12.74,13.34L12.56,13.56L12.34,13.74L12.08,13.88L11.8,13.97L11.5,14L4.5,14L4.198,13.97L3.917,13.88L3.662,13.74L3.44,13.56L3.256,13.34L3.118,13.08L3.03,12.8L3,12.5L3,6L8.649,6L7.768,5L2,5zz" fill="#404040"/>
      <path d="M7.307,6.716L6.672,6.911L6.089,7.229L5.571,7.662L5.148,8.188L4.843,8.779L4.662,9.418L4.609,10.09L4.691,10.76L4.9,11.38L5.223,11.94L5.644,12.42L6.151,12.83L6.729,13.13L7.365,13.32L8.044,13.39L8.325,13.39L8.518,13.35L8.675,13.25L8.781,13.09L8.82,12.9L8.781,12.7L8.675,12.55L8.518,12.44L8.325,12.4L8.038,12.4L7.589,12.36L7.165,12.24L6.775,12.06L6.427,11.81L6.129,11.5L5.89,11.15L5.717,10.76L5.619,10.33L5.608,9.827L5.703,9.335L5.9,8.874L6.193,8.459L6.569,8.112L7.002,7.855L7.477,7.696L7.979,7.641L8.289,7.661L8.717,7.759L9.11,7.932L9.463,8.171L9.767,8.469L10.02,8.817L10.2,9.207L10.32,9.631L10.36,10.08L10.36,10.5L10.26,10.72L10.04,10.82L9.823,10.72L9.72,10.5L9.72,10.07L9.694,9.756L9.616,9.46L9.493,9.184L9.328,8.936L9.124,8.719L8.888,8.54L8.621,8.404L8.331,8.315L7.979,8.279L7.633,8.315L7.309,8.419L7.013,8.581L6.754,8.796L6.54,9.055L6.377,9.351L6.274,9.675L6.238,10.02L6.274,10.37L6.377,10.69L6.54,10.99L6.754,11.25L7.013,11.46L7.309,11.62L7.633,11.73L7.979,11.76L8.558,11.67L9.102,11.39L9.486,11.67L9.935,11.77L10.05,11.76L10.53,11.66L10.93,11.39L11.22,10.99L11.35,10.5L11.35,10.09L11.28,9.406L11.09,8.771L11.02,8.646L10.77,8.412L9.629,7.112L9.333,6.942L8.714,6.733L8.05,6.651L7.979,6.65zM8.29,9.285L8.544,9.456L8.715,9.71L8.778,10.02L8.715,10.33L8.544,10.59L8.29,10.76L7.979,10.82L7.669,10.76L7.415,10.59L7.244,10.33L7.181,10.02L7.244,9.71L7.415,9.456L7.669,9.285L7.979,9.222zz" fill="#404040"/>
    </g>
    <g id="overlay">
      <path d="M12.2912,7.4551l3.3215,-3.6822c0.0881,-0.1113,0.0068,-0.273,-0.1372,-0.273h-1.812l-0.0004,-2.4278c0,-0.3159,-0.5228,-0.5722,-0.5721,-0.5722l-1.9551,-0.0004c-0.3161,-0.0001,-0.5724,0.2562,-0.5724,0.5723L10.5639,3.5H8.7514c-0.144,0,-0.2253,0.1616,-0.1372,0.273l3.3215,3.6822C12.0257,7.5688,12.2013,7.5688,12.2912,7.4551z" id="b" fill="#FFFFFF"/>
      <path d="M12.0635,8.0027c-0.2067,0,-0.4011,-0.0898,-0.5345,-0.2467L8.2975,4.0878c-0.012,-0.0124,-0.0233,-0.0256,-0.0339,-0.0393c-0.1774,-0.2293,-0.1848,-0.5455,-0.0059,-0.7888C8.3828,3.0897,8.5902,3,8.8013,3l1.2622,0V1.1c0,-0.2463,0.0716,-0.5088,0.2252,-0.7013c0.204,-0.2557,0.503,-0.3987,0.824,-0.3987l1.9014,0.0003c0.5785,0.0002,1.0493,0.4703,1.0494,1.048V3l1.2621,0c0.2112,0,0.4186,0.0897,0.5437,0.2598c0.1789,0.2433,0.1715,0.5595,-0.006,0.7889c-0.0107,0.0138,-0.0219,0.0267,-0.0338,0.0391L12.598,7.7561C12.4646,7.9129,12.2702,8.0027,12.0635,8.0027zM12.1135,6.9595L14.6033,4h-0.9508c-0.2697,0,-0.5891,-0.2346,-0.5891,-0.5V1.1c0,-0.0476,-0.039,-0.1,-0.0866,-0.1l-1.8266,-0.0004c-0.0235,0,-0.0448,0.0087,-0.0614,0.025c-0.0167,0.0164,-0.0254,0.0522,-0.0254,0.0754v2.4c0,0.0941,-0.0198,0.1898,-0.0704,0.2692c-0.0939,0.1473,-0.2496,0.2308,-0.4183,0.2308h-0.9512L12.1135,6.9595z" id="c3" fill="#212121"/>
    </g>
  </g>
</svg>
