<?xml version="1.0" encoding="UTF-8"?>
<!DOCTYPE svg PUBLIC "-//W3C//DTD SVG 1.1//EN" "http://www.w3.org/Graphics/SVG/1.1/DTD/svg11.dtd">
<svg version="1.1" id="Layer_1" xmlns="http://www.w3.org/2000/svg" xmlns:xlink="http://www.w3.org/1999/xlink" x="0px" y="0px" width="16px" height="16px" viewBox="0 0 16 16" enable-background="new 0 0 16 16" xml:space="preserve">
  <g id="main">
    <g id="icon">
      <path d="M3.238,1.595L2.854,1.854L2.595,2.238L2.5,2.708L2.5,4.343L2.541,4.693L2.66,5.02L2.85,5.311L3.105,5.554L6.292,8.319L6.446,8.525L6.5,8.776L6.5,9.208L6.641,8.91L6.918,8.449L7.241,8.014L7.609,7.609L8.014,7.241L8.449,6.918L8.91,6.641L9.393,6.412L9.897,6.232L10.42,6.102L10.95,6.023L11.5,5.996L12.04,6.023L12.31,6.062L12.89,5.554L13.15,5.311L13.34,5.02L13.46,4.693L13.5,4.343L13.5,2.708L13.41,2.238L13.15,1.854L12.76,1.595L12.29,1.5L3.708,1.5zM6.5,14.5L6.825,14.39L6.641,14.09L6.5,13.79zz" fill="#F5F5F5"/>
      <path d="M3.364,1.035L3.044,1.134L2.754,1.292L2.501,1.501L2.292,1.754L2.134,2.044L2.035,2.364L2,2.708L2,4.343L2.054,4.803L2.209,5.235L2.458,5.621L2.79,5.943L5.964,8.697L6,8.776L6,11.42L6.023,10.95L6.102,10.42L6.232,9.897L6.412,9.393L6.641,8.91L6.918,8.449L6.936,8.425L6.9,8.317L6.781,8.116L6.62,7.942L3.433,5.176L3.405,5.154L3.235,4.992L3.107,4.796L3.028,4.577L3,4.343L3,2.708L3.056,2.433L3.208,2.208L3.433,2.056L3.708,2L12.29,2L12.57,2.056L12.79,2.208L12.94,2.433L13,2.708L13,4.343L12.97,4.577L12.89,4.796L12.77,4.992L12.59,5.154L12.57,5.176L11.62,6.002L12.04,6.023L12.58,6.102L12.93,6.189L13.21,5.943L13.54,5.621L13.79,5.235L13.95,4.803L14,4.343L14,2.708L13.97,2.364L13.87,2.044L13.71,1.754L13.5,1.501L13.25,1.292L12.96,1.134L12.64,1.035L12.29,1L3.708,1zM6,14.5L6.055,14.73L6.208,14.91L6.5,15L6.658,14.97L7.121,14.82L6.918,14.55L6.641,14.09L6.412,13.6L6.232,13.1L6.102,12.58L6.023,12.04L6,11.58zM9.501,13.5L9.5,13.5zz" fill="#404040"/>
    </g>
    <g id="overlay">
      <path d="M15.536,11.498c0,2.2301,-1.8079,4.038,-4.038,4.038S7.46,13.7281,7.46,11.498S9.2679,7.46,11.498,7.46S15.536,9.2679,15.536,11.498z" id="b" fill="#FFFFFF"/>
      <path d="M14.68,8.316c0.8513,0.8513,1.32,1.9813,1.32,3.182c0,1.2007,-0.4688,2.3307,-1.32,3.182c-0.8513,0.8513,-1.9813,1.32,-3.182,1.32c-1.2007,0,-2.3307,-0.4688,-3.182,-1.32c-0.8513,-0.8513,-1.32,-1.9813,-1.32,-3.182c0,-1.2007,0.4688,-2.3307,1.32,-3.182s1.9813,-1.32,3.182,-1.32C12.6987,6.996,13.8287,7.4648,14.68,8.316zM8.9982,13.9978c0.6688,0.6688,1.5566,1.0372,2.4998,1.0372c1.9502,0,3.5369,-1.5867,3.5369,-3.5369c0,-0.9432,-0.3683,-1.8309,-1.0372,-2.4998c-0.6688,-0.6688,-1.5566,-1.0372,-2.4998,-1.0372c-1.9502,0,-3.5369,1.5867,-3.5369,3.5369C7.9611,12.4412,8.3294,13.3289,8.9982,13.9978z" id="c3" fill="#0891b2"/>
      <path d="M13.909,11.1489c0.0543,0.0543,0.0948,0.1212,0.1174,0.1935c0.0489,0.1569,0.0226,0.3208,-0.0723,0.4497c-0.0933,0.1268,-0.2428,0.2025,-0.4001,0.2025l-3.0252,0l0.968,0.968c0.1516,0.1516,0.1904,0.3853,0.0944,0.5682c-0.0751,0.1429,-0.2073,0.2385,-0.3628,0.2622c-0.1529,0.0233,-0.3094,-0.0281,-0.4187,-0.1374l-1.8185,-1.8185c-0.187,-0.187,-0.187,-0.4912,0,-0.6782l1.8184,-1.8184c0.1902,-0.1902,0.4998,-0.1902,0.6901,0.0001c0.0362,0.0362,0.0669,0.0781,0.0914,0.1247c0.0961,0.1829,0.0572,0.4166,-0.0944,0.5683l-0.968,0.968l3.0209,0C13.6844,11.0016,13.8154,11.0553,13.909,11.1489z" id="c3" fill="#0891b2"/>
    </g>
  </g>
</svg>
