<?xml version="1.0" encoding="UTF-8"?>
<!DOCTYPE svg PUBLIC "-//W3C//DTD SVG 1.1//EN" "http://www.w3.org/Graphics/SVG/1.1/DTD/svg11.dtd">
<svg version="1.1" id="Layer_1" xmlns="http://www.w3.org/2000/svg" xmlns:xlink="http://www.w3.org/1999/xlink" x="0px" y="0px" width="16px" height="16px" viewBox="0 0 16 16" enable-background="new 0 0 16 16" xml:space="preserve">
  <g id="icon">
    <path d="M13.5,6.9575v4.9675c0,0.8698,-0.7052,1.575,-1.575,1.575h-8.85C2.2052,13.5,1.5,12.7948,1.5,11.925v-6.85C1.5,4.2052,2.2052,3.5,3.075,3.5h6.9675C10.015,3.6627,10,3.8296,10,4c0,1.6542,1.3458,3,3,3C13.1704,7,13.3373,6.985,13.5,6.9575z" id="b" fill="#F5F5F5"/>
    <path d="M14,6.828V12c0,1.1046,-0.8954,2,-2,2H3c-1.1046,0,-2,-0.8954,-2,-2V6.0381V5c0,-1.1046,0.8954,-2,2,-2h7.172c-0.111,0.313,-0.172,0.6494,-0.172,1H3c-0.5523,0,-1,0.4477,-1,1v0.7398l5.5001,3.1924l4.0121,-2.3287c0.3841,0.2204,0.8211,0.3581,1.287,0.3891L7.7372,9.9402c-0.148,0.0797,-0.3261,0.0797,-0.4741,0L2,6.8755V12c0,0.5523,0.4477,1,1,1h9c0.5523,0,1,-0.4477,1,-1V7C13.3506,7,13.687,6.939,14,6.828z" id="c1" fill="#404040"/>
    <path d="M13,2c1.1046,0,2,0.8954,2,2s-0.8954,2,-2,2s-2,-0.8954,-2,-2S11.8954,2,13,2z" id="c2" fill="#404040"/>
  </g>
</svg>
