<?xml version="1.0" encoding="UTF-8"?>
<!DOCTYPE svg PUBLIC "-//W3C//DTD SVG 1.1//EN" "http://www.w3.org/Graphics/SVG/1.1/DTD/svg11.dtd">
<svg version="1.1" id="Layer_1" xmlns="http://www.w3.org/2000/svg" xmlns:xlink="http://www.w3.org/1999/xlink" x="0px" y="0px" width="16px" height="16px" viewBox="0 0 16 16" enable-background="new 0 0 16 16" xml:space="preserve">
  <g id="icon">
    <path d="M12.525,14.5h-7.95C3.429,14.5,2.5,13.571,2.5,12.425v-7.85C2.5,3.429,3.429,2.5,4.575,2.5h7.95C13.671,2.5,14.6,3.429,14.6,4.575v7.85C14.6,13.571,13.671,14.5,12.525,14.5z" id="b" fill="#F5F5F5"/>
    <path d="M4.5,2c-1.3807,0,-2.5,1.1193,-2.5,2.5v8c0,1.3807,1.1193,2.5,2.5,2.5h8c1.3807,0,2.5,-1.1193,2.5,-2.5V4.5c0,-1.3807,-1.1193,-2.5,-2.5,-2.5H4.5zM14,5H3v-0.5c0,-0.8284,0.6716,-1.5,1.5,-1.5h8c0.8284,0,1.5,0.6716,1.5,1.5V5zM3,6h11v6.5c0,0.8284,-0.6716,1.5,-1.5,1.5H4.5c-0.8284,0,-1.5,-0.6716,-1.5,-1.5V6z" id="c1" fill="#404040"/>
    <path d="M5.5,4L5.5,4c-0.2761,0,-0.5,-0.2239,-0.5,-0.5V1.5c0,-0.2761,0.2239,-0.5,0.5,-0.5h0c0.2761,0,0.5,0.2239,0.5,0.5v2C6,3.7761,5.7761,4,5.5,4zM12,3.5V1.5c0,-0.2761,-0.2239,-0.5,-0.5,-0.5h0c-0.2761,0,-0.5,0.2239,-0.5,0.5v2c0,0.2761,0.2239,0.5,0.5,0.5h0C11.7761,4,12,3.7761,12,3.5z" id="c1" fill="#404040"/>
    <path d="M7,8.5c0,0.8284,-0.6716,1.5,-1.5,1.5s-1.5,-0.6716,-1.5,-1.5s0.6716,-1.5,1.5,-1.5S7,7.6716,7,8.5z" id="c2" fill="#404040"/>
  </g>
</svg>
