<?xml version="1.0" encoding="UTF-8"?>
<!DOCTYPE svg PUBLIC "-//W3C//DTD SVG 1.1//EN" "http://www.w3.org/Graphics/SVG/1.1/DTD/svg11.dtd">
<svg version="1.1" id="Layer_1" xmlns="http://www.w3.org/2000/svg" xmlns:xlink="http://www.w3.org/1999/xlink" x="0px" y="0px" width="16px" height="16px" viewBox="0 0 16 16" enable-background="new 0 0 16 16" xml:space="preserve">
  <g id="icon">
    <path d="M3.0721,1.5h8.8363c0.8686,0,1.5728,0.7052,1.5728,1.5752v3.7182c0,0.0002,-0.0002,0.0002,-0.0003,0.0001c-0.4066,-0.3392,-0.9556,-0.4586,-1.5039,-0.298c-0.0737,0.0216,-0.1455,0.0502,-0.2139,0.0853c-0.7197,0.3686,-1.0082,1.1156,-0.8625,1.7867c0.0594,0.2734,-0.1396,0.5338,-0.4189,0.5338c-0.3262,0,-0.6544,0,-0.6544,0c-1.98,0,-3.6603,1.4737,-3.8872,3.4024c-0.0132,0.1121,-0.1086,0.1963,-0.2213,0.1963H3.0721c-0.8686,0,-1.5728,-0.7052,-1.5728,-1.5752V3.0752C1.4992,2.2052,2.2034,1.5,3.0721,1.5z" id="b" fill="#F5F5F5"/>
    <path d="M2.997,1h8.9864c1.1029,0,1.997,0.8954,1.997,2v1.0381v2.7058c0,0.2001,-0.2422,0.2997,-0.3826,0.1572v0c-0.1758,-0.1784,-0.3864,-0.3085,-0.6159,-0.3877V4.8755L7.7268,8.4402c-0.1478,0.0797,-0.3256,0.0797,-0.4734,0L1.9985,4.8756V11c0,0.5523,0.447,1,0.9985,1h2.6214c0.1901,0,0.3363,0.1653,0.3162,0.3546c-0.0114,0.1065,-0.0183,0.2144,-0.0203,0.3236c0,0.0011,0,0.0022,-0.0001,0.0033c-0.0031,0.176,-0.1429,0.3185,-0.3186,0.3185H2.997C1.8941,13,1,12.1046,1,11V3C1,1.8954,1.8941,1,2.997,1zM1.9985,3.7399l5.4916,3.6922l5.4918,-3.6924V3c0,-0.5523,-0.447,-1,-0.9985,-1H2.997c-0.5515,0,-0.9985,0.4477,-0.9985,1V3.7399z" id="c1" fill="#404040"/>
    <path d="M9.8571,15.5c0.2757,0,0.4992,-0.2239,0.4992,-0.5s-0.2235,-0.5,-0.4992,-0.5c-0.9631,0,-1.7467,-0.7847,-1.7467,-1.7493s0.7836,-1.7494,1.7467,-1.7494h3.9495l-1.6013,1.6251c-0.1937,0.1966,-0.1916,0.5131,0.0047,0.7071c0.1963,0.1938,0.5124,0.1918,0.7061,-0.0047l2.4401,-2.4764c0.1919,-0.1947,0.1919,-0.5077,0,-0.7024L12.916,7.6738c-0.1938,-0.1966,-0.5097,-0.1986,-0.7061,-0.0047c-0.1962,0.194,-0.1983,0.5105,-0.0047,0.7071l1.6013,1.6251H9.8571c-1.5137,0,-2.7452,1.2333,-2.7452,2.7494C7.1119,14.2667,8.3434,15.5,9.8571,15.5z" id="c2" fill="#404040"/>
  </g>
</svg>
