<?xml version="1.0" encoding="UTF-8"?>
<!DOCTYPE svg PUBLIC "-//W3C//DTD SVG 1.1//EN" "http://www.w3.org/Graphics/SVG/1.1/DTD/svg11.dtd">
<svg version="1.1" id="Layer_1" xmlns="http://www.w3.org/2000/svg" xmlns:xlink="http://www.w3.org/1999/xlink" x="0px" y="0px" width="16px" height="16px" viewBox="0 0 16 16" enable-background="new 0 0 16 16" xml:space="preserve">
  <g id="icon">
    <path d="M12.925,13.5h-9.85C2.2052,13.5,1.5,12.7948,1.5,11.925v-7.85C1.5,3.2052,2.2052,2.5,3.075,2.5h9.85c0.8698,0,1.575,0.7052,1.575,1.575v7.85C14.5,12.7948,13.7948,13.5,12.925,13.5z" id="b" fill="#F5F5F5"/>
    <path d="M1,5.0381V12c0,1.1046,0.8954,2,2,2h10c1.1046,0,2,-0.8954,2,-2V4c0,-1.1046,-0.8954,-2,-2,-2H3c-1.1046,0,-2,0.8954,-2,2V5.0381C1,5.0381,1,5.038,1,5.0381zM3,3h10c0.5523,0,1,0.4477,1,1v0.7399L8.0001,8.4321L2,4.7398V4C2,3.4477,2.4477,3,3,3zM2,5.8755l5.7631,3.5647c0.148,0.0797,0.3261,0.0797,0.4741,0L14,5.8756V12c0,0.5523,-0.4477,1,-1,1H3c-0.5523,0,-1,-0.4477,-1,-1V5.8755z" id="c1" fill="#404040"/>
  </g>
</svg>
