<?xml version="1.0" encoding="UTF-8"?>
<!DOCTYPE svg PUBLIC "-//W3C//DTD SVG 1.1//EN" "http://www.w3.org/Graphics/SVG/1.1/DTD/svg11.dtd">
<svg version="1.1" id="Layer_1" xmlns="http://www.w3.org/2000/svg" xmlns:xlink="http://www.w3.org/1999/xlink" x="0px" y="0px" width="16px" height="16px" viewBox="0 0 16 16" enable-background="new 0 0 16 16" xml:space="preserve">
  <g id="main">
    <g id="icon">
      <path d="M7.415,1.454L6.596,1.64L5.838,1.97L5.155,2.427L4.563,2.995L4.077,3.656L3.711,4.393L3.48,5.19L3.4,6.029L3.4,8.695L2.408,11.46L2.404,11.53L2.454,11.59L2.509,11.6L6.006,11.6L6,11.5L6.029,10.94L6.112,10.39L6.248,9.866L6.433,9.361L6.665,8.88L6.941,8.427L7.257,8.004L7.613,7.613L8.004,7.257L8.427,6.941L8.88,6.665L9.361,6.433L9.866,6.248L10.39,6.112L10.94,6.029L11.5,6L12.19,6.043L12.6,6.121L12.6,5.954L12.51,5.067L12.25,4.224L11.82,3.445L11.24,2.75L10.53,2.179L9.746,1.761L8.896,1.504L8.002,1.417zz" fill="#F5F5F5"/>
      <path d="M7.365,1.057L6.473,1.258L5.648,1.615L4.905,2.109L4.262,2.724L3.734,3.44L3.337,4.242L3.087,5.111L3,6.029L3,8.625L2.036,11.31L2,11.48L2.023,11.65L2.103,11.8L2.237,11.93L2.509,12L5.872,12L6.031,12L6,11.5L6.025,11L3.226,11L3.954,8.918L3.99,8.73L3.99,6.029L4.058,5.308L4.255,4.623L4.567,3.99L4.981,3.423L5.486,2.934L6.068,2.537L6.715,2.247L7.414,2.076L7.864,2.036L8.305,2.045L9.151,2.202L9.93,2.528L10.62,3.002L11.19,3.602L11.63,4.31L11.91,5.103L11.98,5.526L12.01,5.962L12.01,6.032L12.19,6.043L12.85,6.167L13,6.216L13,5.954L12.97,5.412L12.88,4.886L12.74,4.38L12.54,3.898L12.29,3.442L12,3.015L11.67,2.621L11.3,2.263L10.9,1.944L10.46,1.666L9.994,1.434L9.504,1.25L8.993,1.117L8.463,1.038L7.92,1.017zz" fill="#404040"/>
      <path d="M5.872,12.05L5.92,12.51L6.057,12.94L6.274,13.32L6.341,13.39L6.167,12.85L6.043,12.19L6.031,12L5.872,12zz" fill="#404040"/>
    </g>
    <g id="overlay">
      <circle cx="11.5" cy="11.5" r="4" id="b" fill="#F5F5F5"/>
      <path d="M11.5,7c-2.4853,0,-4.5,2.0147,-4.5,4.5c0,2.4853,2.0147,4.5,4.5,4.5c2.4853,0,4.5,-2.0147,4.5,-4.5C16,9.0147,13.9853,7,11.5,7zM11.5,15c-1.933,0,-3.5,-1.567,-3.5,-3.5s1.567,-3.5,3.5,-3.5s3.5,1.567,3.5,3.5S13.433,15,11.5,15z" id="c3" fill="#404040"/>
      <path d="M13.5,11h-1.5V9.5c0,-0.2761,-0.2239,-0.5,-0.5,-0.5s-0.5,0.2239,-0.5,0.5v1.5H9.5c-0.2761,0,-0.5,0.2239,-0.5,0.5s0.2239,0.5,0.5,0.5h1.5v1.5c0,0.2761,0.2239,0.5,0.5,0.5s0.5,-0.2239,0.5,-0.5v-1.5h1.5c0.2761,0,0.5,-0.2239,0.5,-0.5S13.7761,11,13.5,11z" id="c3" fill="#404040"/>
    </g>
  </g>
</svg>
