<?xml version="1.0" encoding="UTF-8"?>
<!DOCTYPE svg PUBLIC "-//W3C//DTD SVG 1.1//EN" "http://www.w3.org/Graphics/SVG/1.1/DTD/svg11.dtd">
<svg version="1.1" id="Layer_1" xmlns="http://www.w3.org/2000/svg" xmlns:xlink="http://www.w3.org/1999/xlink" x="0px" y="0px" width="16px" height="16px" viewBox="0 0 16 16" enable-background="new 0 0 16 16" xml:space="preserve">
  <g id="icon">
    <path d="M12.925,1.5h-6.85C5.2052,1.5,4.5,2.2052,4.5,3.075V5h5.5c1.6542,0,3,1.3458,3,3v1.4962c0.8348,-0.0394,1.5,-0.7267,1.5,-1.5712v-4.85C14.5,2.2052,13.7948,1.5,12.925,1.5z" id="b" fill="#F5F5F5"/>
    <path d="M13,1H6c-1.1046,0,-2,0.8954,-2,2v1.0381V5h1v-0.4245L5.7056,5h1.9023L5,3.4398V3c0,-0.5523,0.4477,-1,1,-1h7c0.5523,0,1,0.4477,1,1v0.4399l-2.9351,1.7561c0.3506,0.1336,0.67,0.3307,0.9437,0.5778L14,4.5756V8c0,0.5523,-0.4477,1,-1,1v1c1.1046,0,2,-0.8954,2,-2V3C15,1.8954,14.1046,1,13,1z" id="c1" fill="#404040"/>
    <path d="M0.5,4.5c0,0.2761,0.2239,0.5,0.5,0.5h1.5c0.2761,0,0.5,-0.2239,0.5,-0.5s-0.2239,-0.5,-0.5,-0.5H1C0.7239,4,0.5,4.2239,0.5,4.5zM0,2.5c0,0.2761,0.2239,0.5,0.5,0.5h2c0.2761,0,0.5,-0.2239,0.5,-0.5s-0.2239,-0.5,-0.5,-0.5H0.5C0.2239,2,0,2.2239,0,2.5z" id="c2" fill="#404040"/>
    <path d="M9.925,14.5h-6.85C2.2052,14.5,1.5,13.7948,1.5,12.925v-4.85C1.5,7.2052,2.2052,6.5,3.075,6.5h6.85c0.8698,0,1.575,0.7052,1.575,1.575v4.85C11.5,13.7948,10.7948,14.5,9.925,14.5z" id="b" fill="#F5F5F5"/>
    <path d="M1,9.0381V13c0,1.1046,0.8954,2,2,2h7c1.1046,0,2,-0.8954,2,-2V8c0,-1.1046,-0.8954,-2,-2,-2H3c-1.1046,0,-2,0.8954,-2,2V9.0381C1,9.0381,1,9.038,1,9.0381zM3,7h7c0.5523,0,1,0.4477,1,1v0.4399l-4.4999,2.6923L2,8.4398V8C2,7.4477,2.4477,7,3,7zM2,9.5755l4.2631,2.5647c0.148,0.0797,0.3261,0.0797,0.4741,0L11,9.5756V13c0,0.5523,-0.4477,1,-1,1H3c-0.5523,0,-1,-0.4477,-1,-1V9.5755z" id="c1" fill="#404040"/>
    <path d="M15,13h-1.5c-0.2761,0,-0.5,0.2239,-0.5,0.5s0.2239,0.5,0.5,0.5h1.5c0.2761,0,0.5,-0.2239,0.5,-0.5S15.2761,13,15,13zM15.5,11h-2c-0.2761,0,-0.5,0.2239,-0.5,0.5s0.2239,0.5,0.5,0.5h2c0.2761,0,0.5,-0.2239,0.5,-0.5S15.7761,11,15.5,11z" id="c2" fill="#404040"/>
  </g>
</svg>
