<?xml version="1.0" encoding="UTF-8"?>
<!DOCTYPE svg PUBLIC "-//W3C//DTD SVG 1.1//EN" "http://www.w3.org/Graphics/SVG/1.1/DTD/svg11.dtd">
<svg version="1.1" id="Layer_1" xmlns="http://www.w3.org/2000/svg" xmlns:xlink="http://www.w3.org/1999/xlink" x="0px" y="0px" width="16px" height="16px" viewBox="0 0 16 16" enable-background="new 0 0 16 16" xml:space="preserve">
  <g id="icon">
    <path d="M12.925,13.5h-9.85C2.2052,13.5,1.5,12.7948,1.5,11.925V5.6365c0,-0.3304,0.1814,-0.6341,0.4723,-0.7908l5.7842,-3.1146c0.152,-0.0819,0.335,-0.0819,0.487,0l5.7842,3.1146c0.2909,0.1566,0.4723,0.4604,0.4723,0.7908v6.2885C14.5,12.7948,13.7948,13.5,12.925,13.5z" id="b" fill="#F5F5F5"/>
    <path d="M8.237,1.0846c-0.148,-0.0795,-0.3261,-0.0795,-0.4741,0L1.7889,4.2953C1.303,4.5564,1,5.0627,1,5.6134v6.3904C1,13.1063,1.8954,14,3,14h10c1.1046,0,2,-0.8937,2,-1.9962V5.6134c0,-0.5508,-0.303,-1.057,-0.7888,-1.3182L8.237,1.0846zM2.2629,5.1741L8,2.0908l5.7371,3.0832c0.0621,0.0334,0.1152,0.0788,0.1571,0.1324L8,8.444L2.1058,5.3065C2.1477,5.2528,2.2008,5.2074,2.2629,5.1741zM2,6.3813l5.7648,3.0686c0.1471,0.0783,0.3235,0.0783,0.4706,0L14,6.3814v5.6225c0,0.5512,-0.4477,0.9981,-1,0.9981H3c-0.5523,0,-1,-0.4468,-1,-0.9981V6.3813z" id="c1" fill="#404040"/>
  </g>
</svg>
