<?xml version="1.0" encoding="UTF-8"?>
<!DOCTYPE svg PUBLIC "-//W3C//DTD SVG 1.1//EN" "http://www.w3.org/Graphics/SVG/1.1/DTD/svg11.dtd">
<svg version="1.1" id="Layer_1" xmlns="http://www.w3.org/2000/svg" xmlns:xlink="http://www.w3.org/1999/xlink" x="0px" y="0px" width="16px" height="16px" viewBox="0 0 16 16" enable-background="new 0 0 16 16" xml:space="preserve">
  <g id="icon">
    <path d="M7.668,1.9288c-1.3821,1.2034,-2.926,1.8756,-4.589,1.9981l-0.4673,0.0345v3.4483c0,1.7463,0.4546,3.2205,1.3511,4.3815c0.8658,1.1212,2.1689,1.9849,3.8731,2.5671l0.1641,0.056l0.1639,-0.0559c1.7045,-0.5823,3.0076,-1.446,3.8733,-2.5672c0.8966,-1.161,1.3512,-2.6352,1.3512,-4.3815V3.9611l-0.4675,-0.0342c-1.6644,-0.1223,-3.2078,-0.7944,-4.5874,-1.9978L8.001,1.639L7.668,1.9288z" id="b" fill="#F5F5F5"/>
    <path d="M8,15c-0.0544,0,-0.1082,-0.0085,-0.1598,-0.0252C3.9649,13.7227,2,11.1774,2,7.4097V3.8575c0,-0.2704,0.2269,-0.4904,0.5058,-0.4904c1.913,0,3.5935,-0.7273,5.1375,-2.2236C7.7388,1.051,7.8659,1,8.0009,1c0.1353,0,0.2624,0.0511,0.358,0.144c1.5404,1.496,3.2202,2.2232,5.1353,2.2232c0.2789,0,0.5058,0.22,0.5058,0.4904v3.5522c0,3.7677,-1.9649,6.313,-5.8401,7.5651C8.1082,14.9915,8.0544,15,8,15zM7.9306,2.2305C6.482,3.4919,4.8596,4.1969,3.1083,4.3258l-0.0967,0.0071v3.0767c0,1.6557,0.4265,3.0477,1.2677,4.1371c0.817,1.058,2.0572,1.8766,3.6859,2.4331L8,13.9916l0.0348,-0.0118c1.6287,-0.5565,2.8688,-1.3751,3.6858,-2.4331c0.8413,-1.0894,1.2678,-2.4814,1.2678,-4.1371V4.3329l-0.0967,-0.0071c-1.7529,-0.1288,-3.3749,-0.8338,-4.8211,-2.0952l-0.07,-0.061L7.9306,2.2305z" id="c1" fill="#059669"/>
    <path d="M7.125,9.0075l3.1288,-3.1287c0.205,-0.205,0.5374,-0.205,0.7424,0c0.1864,0.1864,0.2034,0.4781,0.0508,0.6836l-0.0508,0.0589l-3.5,3.5c-0.1863,0.1864,-0.478,0.2034,-0.6836,0.0508l-0.0589,-0.0508l-1.75,-1.75c-0.205,-0.205,-0.205,-0.5374,0,-0.7424c0.1864,-0.1864,0.4781,-0.2034,0.6836,-0.0508l0.0589,0.0508L7.125,9.0075l3.1288,-3.1287L7.125,9.0075z" id="c2" fill="#059669"/>
  </g>
</svg>
