<?xml version="1.0" encoding="UTF-8"?>
<!DOCTYPE svg PUBLIC "-//W3C//DTD SVG 1.1//EN" "http://www.w3.org/Graphics/SVG/1.1/DTD/svg11.dtd">
<svg version="1.1" id="Layer_1" xmlns="http://www.w3.org/2000/svg" xmlns:xlink="http://www.w3.org/1999/xlink" x="0px" y="0px" width="16px" height="16px" viewBox="0 0 16 16" enable-background="new 0 0 16 16" xml:space="preserve">
  <g id="icon">
    <path d="M9.1815,1.6201c-0.3976,0,-0.7607,0.2175,-0.9477,0.5676L5.7322,6.8764c-0.0135,0.0254,-0.0353,0.0437,-0.0627,0.0528L2.2882,8.0549l5.6648,5.658l1.1269,-3.3766c0.009,-0.0271,0.0272,-0.0486,0.0524,-0.0621l4.6793,-2.5021c0.3022,-0.1617,0.5044,-0.4487,0.5549,-0.7875c0.0505,-0.3387,-0.0593,-0.6721,-0.3012,-0.9146l-4.125,-4.1348C9.7375,1.7321,9.468,1.6201,9.1815,1.6201z" id="b" fill="#F5F5F5"/>
    <path d="M1.1495,14.1293l3.1711,-3.1672L1.7231,8.3676c-0.1261,-0.1259,-0.1769,-0.3045,-0.1359,-0.4778c0.0409,-0.1733,0.1663,-0.3104,0.3354,-0.3667l3.3571,-1.1177l2.4059,-4.5089c0.295,-0.553,0.869,-0.8965,1.498,-0.8965c0.4516,0,0.8767,0.1768,1.197,0.4979l4.1248,4.1348c0.3819,0.3829,0.5553,0.909,0.4756,1.4435c-0.0797,0.5345,-0.399,0.9874,-0.876,1.2425L9.605,10.7249l-1.1192,3.3536c-0.0564,0.1689,-0.1936,0.2942,-0.3671,0.335c-0.0385,0.0091,-0.0779,0.0137,-0.1174,0.0137c-0.1364,0,-0.2646,-0.053,-0.361,-0.1494l-2.5977,-2.5945l-3.1711,3.1673L1,15L1.1495,14.1293zM9.1815,2.0201c-0.2497,0,-0.4776,0.1364,-0.5948,0.356L6.0851,7.0647c-0.0618,0.1158,-0.1645,0.2025,-0.2891,0.244l-2.7666,0.9211l4.7489,4.7432l0.9222,-2.7633c0.0415,-0.1242,0.1279,-0.2266,0.2434,-0.2883l4.6791,-2.502c0.1895,-0.1013,0.3163,-0.2813,0.3479,-0.4936c0.0316,-0.2123,-0.0372,-0.4212,-0.1888,-0.5732L9.6572,2.2179C9.53,2.0904,9.3611,2.0201,9.1815,2.0201z" id="c1" fill="#404040"/>
  </g>
</svg>
