<?xml version="1.0" encoding="UTF-8"?>
<!DOCTYPE svg PUBLIC "-//W3C//DTD SVG 1.1//EN" "http://www.w3.org/Graphics/SVG/1.1/DTD/svg11.dtd">
<svg version="1.1" id="Layer_1" xmlns="http://www.w3.org/2000/svg" xmlns:xlink="http://www.w3.org/1999/xlink" x="0px" y="0px" width="16px" height="16px" viewBox="0 0 16 16" enable-background="new 0 0 16 16" xml:space="preserve">
  <g id="icon">
    <path d="M1,4.2013v1.3358l6.763,4.1032c0.148,0.0797,0.3261,0.0797,0.4741,0L15,5.5372V4.2014L8.0001,8.4321L1,4.2013z" id="b" fill="#F5F5F5"/>
    <path d="M3,2c-1.1046,0,-2,0.8954,-2,2v0.2013l7.0001,4.2308L15,4.2014V4c0,-1.1046,-0.8954,-2,-2,-2H3zM15,5.5372L8.2372,9.6402c-0.148,0.0797,-0.3261,0.0797,-0.4741,0L1,5.5371V12c0,1.1046,0.8954,2,2,2h10c1.1046,0,2,-0.8954,2,-2V5.5372z" id="c1" fill="#0891b2"/>
  </g>
</svg>
